<svg width="30" height="30" viewBox="0 0 30 30" fill="none" xmlns="http://www.w3.org/2000/svg">
<path d="M27.5 3C27.5 2.72386 27.2761 2.5 27 2.5H3C2.72386 2.5 2.5 2.72386 2.5 3V7C2.5 7.27614 2.72386 7.5 3 7.5H27C27.2761 7.5 27.5 7.27614 27.5 7V3ZM28.5 7C28.5 7.82843 27.8284 8.5 27 8.5H3C2.17157 8.5 1.5 7.82843 1.5 7V3C1.5 2.17157 2.17157 1.5 3 1.5H27C27.8284 1.5 28.5 2.17157 28.5 3V7Z" fill="#D0EFF7"/>
<path d="M19 4.5C19.2761 4.5 19.5 4.72386 19.5 5C19.5 5.27614 19.2761 5.5 19 5.5H5C4.72386 5.5 4.5 5.27614 4.5 5C4.5 4.72386 4.72386 4.5 5 4.5H19Z" fill="#D0EFF7"/>
<path d="M25 5C25 5.55228 24.5523 6 24 6C23.4477 6 23 5.55228 23 5C23 4.44772 23.4477 4 24 4C24.5523 4 25 4.44772 25 5Z" fill="#D0EFF7"/>
<path d="M2 13C2 12.4477 2.44772 12 3 12H27C27.5523 12 28 12.4477 28 13V17C28 17.5523 27.5523 18 27 18H3C2.44772 18 2 17.5523 2 17V13Z" fill="#3B646B"/>
<path d="M27.5 13C27.5 12.7239 27.2761 12.5 27 12.5H3C2.72386 12.5 2.5 12.7239 2.5 13V17C2.5 17.2761 2.72386 17.5 3 17.5H27C27.2761 17.5 27.5 17.2761 27.5 17V13ZM28.5 17C28.5 17.8284 27.8284 18.5 27 18.5H3C2.17157 18.5 1.5 17.8284 1.5 17V13C1.5 12.1716 2.17157 11.5 3 11.5H27C27.8284 11.5 28.5 12.1716 28.5 13V17Z" fill="#D0EFF7"/>
<path d="M27.5 23C27.5 22.7239 27.2761 22.5 27 22.5H3C2.72386 22.5 2.5 22.7239 2.5 23V27C2.5 27.2761 2.72386 27.5 3 27.5H27C27.2761 27.5 27.5 27.2761 27.5 27V23ZM28.5 27C28.5 27.8284 27.8284 28.5 27 28.5H3C2.17157 28.5 1.5 27.8284 1.5 27V23C1.5 22.1716 2.17157 21.5 3 21.5H27C27.8284 21.5 28.5 22.1716 28.5 23V27Z" fill="#D0EFF7"/>
<path d="M11 14.5C11.2761 14.5 11.5 14.7239 11.5 15C11.5 15.2761 11.2761 15.5 11 15.5H5C4.72386 15.5 4.5 15.2761 4.5 15C4.5 14.7239 4.72386 14.5 5 14.5H11Z" fill="#D0EFF7"/>
<path d="M14.5 24.5C14.7761 24.5 15 24.7239 15 25C15 25.2761 14.7761 25.5 14.5 25.5H5C4.72386 25.5 4.5 25.2761 4.5 25C4.5 24.7239 4.72386 24.5 5 24.5H14.5Z" fill="#D0EFF7"/>
<path d="M25 15C25 15.5523 24.5523 16 24 16C23.4477 16 23 15.5523 23 15C23 14.4477 23.4477 14 24 14C24.5523 14 25 14.4477 25 15Z" fill="#D0EFF7"/>
<path d="M25 25C25 25.5523 24.5523 26 24 26C23.4477 26 23 25.5523 23 25C23 24.4477 23.4477 24 24 24C24.5523 24 25 24.4477 25 25Z" fill="#D0EFF7"/>
</svg>
