<svg width="30" height="30" viewBox="0 0 30 30" fill="none" xmlns="http://www.w3.org/2000/svg">
<rect width="30" height="30" fill="white"/>
<path d="M1 6C1 4.89543 1.89543 4 3 4H27C28.1046 4 29 4.89543 29 6V24C29 25.1046 28.1046 26 27 26H3C1.89543 26 1 25.1046 1 24V6Z" fill="#D0EFF7"/>
<path d="M28.5 6C28.5 5.17157 27.8284 4.5 27 4.5H3C2.17157 4.5 1.5 5.17157 1.5 6V24C1.5 24.8284 2.17157 25.5 3 25.5H27C27.8284 25.5 28.5 24.8284 28.5 24V6ZM29.5 24C29.5 25.3807 28.3807 26.5 27 26.5H3C1.61929 26.5 0.5 25.3807 0.5 24V6C0.5 4.61929 1.61929 3.5 3 3.5H27C28.3807 3.5 29.5 4.61929 29.5 6V24Z" fill="#535D6B"/>
<path d="M18 15L13 18L13 12L18 15Z" fill="white"/>
<path d="M18.5 15C18.5 15.1756 18.4074 15.3384 18.2568 15.4287L13.2568 18.4287C13.1025 18.5211 12.9105 18.524 12.7539 18.4356C12.5972 18.3468 12.5 18.1801 12.5 18L12.5 12C12.5 11.8199 12.5972 11.6532 12.7539 11.5645C12.9105 11.476 13.1025 11.4789 13.2568 11.5713L18.2568 14.5713L18.3105 14.6084C18.4292 14.7025 18.5 14.8462 18.5 15ZM13.5 12.8828L13.5 17.1172L17.0293 15L13.5 12.8828Z" fill="#535D6B"/>
</svg>
