<svg width="30" height="30" viewBox="0 0 30 30" fill="none" xmlns="http://www.w3.org/2000/svg">
<path d="M8.5 4C8.5 3.17157 7.82843 2.5 7 2.5H3C2.17157 2.5 1.5 3.17157 1.5 4C1.5 4.82843 2.17157 5.5 3 5.5H7C7.82843 5.5 8.5 4.82843 8.5 4ZM9.5 4C9.5 5.38071 8.38071 6.5 7 6.5H3C1.61929 6.5 0.5 5.38071 0.5 4C0.5 2.61929 1.61929 1.5 3 1.5H7C8.38071 1.5 9.5 2.61929 9.5 4Z" fill="#D0EFF7"/>
<path d="M11 4C11 2.89543 11.8954 2 13 2H17C18.1046 2 19 2.89543 19 4V4C19 5.10457 18.1046 6 17 6H13C11.8954 6 11 5.10457 11 4V4Z" fill="#3B646B"/>
<path d="M18.5 4C18.5 3.17157 17.8284 2.5 17 2.5H13C12.1716 2.5 11.5 3.17157 11.5 4C11.5 4.82843 12.1716 5.5 13 5.5H17C17.8284 5.5 18.5 4.82843 18.5 4ZM19.5 4C19.5 5.38071 18.3807 6.5 17 6.5H13C11.6193 6.5 10.5 5.38071 10.5 4C10.5 2.61929 11.6193 1.5 13 1.5H17C18.3807 1.5 19.5 2.61929 19.5 4Z" fill="#D0EFF7"/>
<path d="M28.5 4C28.5 3.17157 27.8284 2.5 27 2.5H23C22.1716 2.5 21.5 3.17157 21.5 4C21.5 4.82843 22.1716 5.5 23 5.5H27C27.8284 5.5 28.5 4.82843 28.5 4ZM29.5 4C29.5 5.38071 28.3807 6.5 27 6.5H23C21.6193 6.5 20.5 5.38071 20.5 4C20.5 2.61929 21.6193 1.5 23 1.5H27C28.3807 1.5 29.5 2.61929 29.5 4Z" fill="#D0EFF7"/>
<path d="M5 9C5 8.44772 5.44772 8 6 8H24C24.5523 8 25 8.44772 25 9V27C25 27.5523 24.5523 28 24 28H6C5.44772 28 5 27.5523 5 27V9Z" fill="#3B646B"/>
<path d="M24.5 9C24.5 8.72386 24.2761 8.5 24 8.5H6C5.72386 8.5 5.5 8.72386 5.5 9V27C5.5 27.2761 5.72386 27.5 6 27.5H24C24.2761 27.5 24.5 27.2761 24.5 27V9ZM25.5 27C25.5 27.8284 24.8284 28.5 24 28.5H6C5.17157 28.5 4.5 27.8284 4.5 27V9C4.5 8.17157 5.17157 7.5 6 7.5H24C24.8284 7.5 25.5 8.17157 25.5 9V27Z" fill="#D0EFF7"/>
<path d="M20 12C20.2761 12 20.5 12.2239 20.5 12.5C20.5 12.7761 20.2761 13 20 13H10C9.72386 13 9.5 12.7761 9.5 12.5C9.5 12.2239 9.72386 12 10 12H20Z" fill="#D0EFF7"/>
<path d="M20 15.5C20.2761 15.5 20.5 15.7239 20.5 16C20.5 16.2761 20.2761 16.5 20 16.5H10C9.72386 16.5 9.5 16.2761 9.5 16C9.5 15.7239 9.72386 15.5 10 15.5H20Z" fill="#D0EFF7"/>
<path d="M20 19C20.2761 19 20.5 19.2239 20.5 19.5C20.5 19.7761 20.2761 20 20 20H10C9.72386 20 9.5 19.7761 9.5 19.5C9.5 19.2239 9.72386 19 10 19H20Z" fill="#D0EFF7"/>
<path d="M20 22.5C20.2761 22.5 20.5 22.7239 20.5 23C20.5 23.2761 20.2761 23.5 20 23.5H10C9.72386 23.5 9.5 23.2761 9.5 23C9.5 22.7239 9.72386 22.5 10 22.5H20Z" fill="#D0EFF7"/>
</svg>
