<svg width="30" height="30" viewBox="0 0 30 30" fill="none" xmlns="http://www.w3.org/2000/svg">
<path d="M1 2C1 1.44772 1.44772 1 2 1H12C12.5523 1 13 1.44772 13 2V7C13 7.55228 12.5523 8 12 8H2C1.44772 8 1 7.55228 1 7V2Z" fill="#3B646B"/>
<path d="M12.5 2C12.5 1.72386 12.2761 1.5 12 1.5H2C1.72386 1.5 1.5 1.72386 1.5 2V7C1.5 7.27614 1.72386 7.5 2 7.5H12C12.2761 7.5 12.5 7.27614 12.5 7V2ZM13.5 7C13.5 7.82843 12.8284 8.5 12 8.5H2C1.17157 8.5 0.5 7.82843 0.5 7V2C0.5 1.17157 1.17157 0.5 2 0.5H12C12.8284 0.5 13.5 1.17157 13.5 2V7Z" fill="#D0EFF7"/>
<path d="M17 2C17 1.44772 17.4477 1 18 1H28C28.5523 1 29 1.44772 29 2V7C29 7.55228 28.5523 8 28 8H18C17.4477 8 17 7.55228 17 7V2Z" fill="#3B646B"/>
<path d="M28.5 2C28.5 1.72386 28.2761 1.5 28 1.5H18C17.7239 1.5 17.5 1.72386 17.5 2V7C17.5 7.27614 17.7239 7.5 18 7.5H28C28.2761 7.5 28.5 7.27614 28.5 7V2ZM29.5 7C29.5 7.82843 28.8284 8.5 28 8.5H18C17.1716 8.5 16.5 7.82843 16.5 7V2C16.5 1.17157 17.1716 0.5 18 0.5H28C28.8284 0.5 29.5 1.17157 29.5 2V7Z" fill="#D0EFF7"/>
<path d="M11.5 9.5C11.7761 9.5 12 9.72386 12 10C12 10.2761 11.7761 10.5 11.5 10.5H1C0.723858 10.5 0.5 10.2761 0.5 10C0.5 9.72386 0.723858 9.5 1 9.5H11.5Z" fill="#D0EFF7"/>
<path d="M7 11.5C7.27614 11.5 7.5 11.7239 7.5 12C7.5 12.2761 7.27614 12.5 7 12.5H1C0.723858 12.5 0.5 12.2761 0.5 12C0.5 11.7239 0.723858 11.5 1 11.5H7Z" fill="#D0EFF7"/>
<path d="M27.5 9.5C27.7761 9.5 28 9.72386 28 10C28 10.2761 27.7761 10.5 27.5 10.5H17C16.7239 10.5 16.5 10.2761 16.5 10C16.5 9.72386 16.7239 9.5 17 9.5H27.5Z" fill="#D0EFF7"/>
<path d="M23 11.5C23.2761 11.5 23.5 11.7239 23.5 12C23.5 12.2761 23.2761 12.5 23 12.5H17C16.7239 12.5 16.5 12.2761 16.5 12C16.5 11.7239 16.7239 11.5 17 11.5H23Z" fill="#D0EFF7"/>
<path d="M1 18C1 17.4477 1.44772 17 2 17H12C12.5523 17 13 17.4477 13 18V23C13 23.5523 12.5523 24 12 24H2C1.44772 24 1 23.5523 1 23V18Z" fill="#3B646B"/>
<path d="M12.5 18C12.5 17.7239 12.2761 17.5 12 17.5H2C1.72386 17.5 1.5 17.7239 1.5 18V23C1.5 23.2761 1.72386 23.5 2 23.5H12C12.2761 23.5 12.5 23.2761 12.5 23V18ZM13.5 23C13.5 23.8284 12.8284 24.5 12 24.5H2C1.17157 24.5 0.5 23.8284 0.5 23V18C0.5 17.1716 1.17157 16.5 2 16.5H12C12.8284 16.5 13.5 17.1716 13.5 18V23Z" fill="#D0EFF7"/>
<path d="M17 18C17 17.4477 17.4477 17 18 17H28C28.5523 17 29 17.4477 29 18V23C29 23.5523 28.5523 24 28 24H18C17.4477 24 17 23.5523 17 23V18Z" fill="#3B646B"/>
<path d="M28.5 18C28.5 17.7239 28.2761 17.5 28 17.5H18C17.7239 17.5 17.5 17.7239 17.5 18V23C17.5 23.2761 17.7239 23.5 18 23.5H28C28.2761 23.5 28.5 23.2761 28.5 23V18ZM29.5 23C29.5 23.8284 28.8284 24.5 28 24.5H18C17.1716 24.5 16.5 23.8284 16.5 23V18C16.5 17.1716 17.1716 16.5 18 16.5H28C28.8284 16.5 29.5 17.1716 29.5 18V23Z" fill="#D0EFF7"/>
<path d="M11.5 25.5C11.7761 25.5 12 25.7239 12 26C12 26.2761 11.7761 26.5 11.5 26.5H1C0.723858 26.5 0.5 26.2761 0.5 26C0.5 25.7239 0.723858 25.5 1 25.5H11.5Z" fill="#D0EFF7"/>
<path d="M7 27.5C7.27614 27.5 7.5 27.7239 7.5 28C7.5 28.2761 7.27614 28.5 7 28.5H1C0.723858 28.5 0.5 28.2761 0.5 28C0.5 27.7239 0.723858 27.5 1 27.5H7Z" fill="#D0EFF7"/>
<path d="M27.5 25.5C27.7761 25.5 28 25.7239 28 26C28 26.2761 27.7761 26.5 27.5 26.5H17C16.7239 26.5 16.5 26.2761 16.5 26C16.5 25.7239 16.7239 25.5 17 25.5H27.5Z" fill="#D0EFF7"/>
<path d="M23 27.5C23.2761 27.5 23.5 27.7239 23.5 28C23.5 28.2761 23.2761 28.5 23 28.5H17C16.7239 28.5 16.5 28.2761 16.5 28C16.5 27.7239 16.7239 27.5 17 27.5H23Z" fill="#D0EFF7"/>
</svg>
