<svg width="30" height="30" viewBox="0 0 30 30" fill="none" xmlns="http://www.w3.org/2000/svg">
<g clip-path="url(#clip0_8_3328)">
<path d="M29 15C29 22.732 22.732 29 15 29C7.26801 29 1 22.732 1 15C1 7.26801 7.26801 1 15 1C22.732 1 29 7.26801 29 15Z" fill="#3B646B"/>
<path d="M28.5 15C28.5 7.54416 22.4558 1.5 15 1.5C7.54416 1.5 1.5 7.54416 1.5 15C1.5 22.4558 7.54416 28.5 15 28.5C22.4558 28.5 28.5 22.4558 28.5 15ZM29.5 15C29.5 23.0081 23.0081 29.5 15 29.5C6.99187 29.5 0.5 23.0081 0.5 15C0.5 6.99187 6.99187 0.5 15 0.5C23.0081 0.5 29.5 6.99187 29.5 15Z" fill="#D0EFF7"/>
<path d="M14.5 17.5V7.5C14.5 7.22386 14.7239 7 15 7C15.2761 7 15.5 7.22386 15.5 7.5V17.5C15.5 17.7761 15.2761 18 15 18C14.7239 18 14.5 17.7761 14.5 17.5Z" fill="#D0EFF7"/>
<path d="M16 22C16 22.5523 15.5523 23 15 23C14.4477 23 14 22.5523 14 22C14 21.4477 14.4477 21 15 21C15.5523 21 16 21.4477 16 22Z" fill="#D0EFF7"/>
</g>
<defs>
<clipPath id="clip0_8_3328">
<rect width="30" height="30" fill="white"/>
</clipPath>
</defs>
</svg>
