<svg width="30" height="30" viewBox="0 0 30 30" fill="none" xmlns="http://www.w3.org/2000/svg">
<g clip-path="url(#clip0_8_2913)">
<rect width="30" height="30" fill="white"/>
<path d="M1 2C1 1.44771 1.44772 1 2 1H28C28.5523 1 29 1.44772 29 2V28C29 28.5523 28.5523 29 28 29H2C1.44771 29 1 28.5523 1 28V2Z" fill="white"/>
<path d="M28.5 2C28.5 1.72386 28.2761 1.5 28 1.5H2C1.72386 1.5 1.5 1.72386 1.5 2V28C1.5 28.2761 1.72386 28.5 2 28.5H28C28.2761 28.5 28.5 28.2761 28.5 28V2ZM29.5 28C29.5 28.8284 28.8284 29.5 28 29.5H2C1.17157 29.5 0.5 28.8284 0.5 28V2C0.5 1.17157 1.17157 0.5 2 0.5H28C28.8284 0.5 29.5 1.17157 29.5 2V28Z" fill="#535D6B"/>
<path d="M19.9052 6C20.4375 6 20.8765 6.41696 20.9039 6.94855L20.9896 8.61301C20.9953 8.72239 20.9081 8.81416 20.7986 8.81416C20.7034 8.81416 20.623 8.74403 20.6074 8.65011C20.5394 8.23968 20.4512 7.94038 20.3427 7.75221C20.143 7.41003 19.8755 7.15929 19.5404 7C19.2118 6.83481 18.7768 6.75221 18.2355 6.75221H17.3893C16.837 6.75221 16.3893 7.19993 16.3893 7.75221V15.9204C16.3893 16.6578 16.4763 17.118 16.6503 17.3009C16.8951 17.5487 17.2721 17.6726 17.7812 17.6726H18.0718C18.1622 17.6726 18.2355 17.7459 18.2355 17.8363C18.2355 17.9267 18.1622 18 18.0718 18H12.8412C12.7508 18 12.6775 17.9267 12.6775 17.8363C12.6775 17.7459 12.7508 17.6726 12.8412 17.6726H13.1415C13.6957 17.6726 14.0888 17.5192 14.3207 17.2124C14.4625 17.0236 14.5334 16.5929 14.5334 15.9204V7.75221C14.5334 7.19993 14.0857 6.75221 13.5334 6.75221H12.9578C12.3456 6.75221 11.9107 6.79351 11.6529 6.87611C11.3178 6.9882 11.0311 7.20354 10.7926 7.52212C10.5797 7.80667 10.4438 8.18063 10.3851 8.64402C10.3729 8.7399 10.293 8.81416 10.1963 8.81416C10.0897 8.81416 10.0049 8.72462 10.0108 8.61815L10.1027 6.94513C10.1319 6.41496 10.5703 6 11.1012 6H19.9052Z" fill="#D0EFF7"/>
<path d="M13.5332 15.9199V7.75195H12.958C12.3624 7.75195 12.0645 7.7953 11.9629 7.82617C11.8465 7.86658 11.7227 7.9475 11.5928 8.12109C11.5112 8.23017 11.4205 8.42573 11.3769 8.76953C11.305 9.3373 10.8241 9.81445 10.1963 9.81445C9.51586 9.81445 8.97544 9.24285 9.01268 8.56348L9.10448 6.89062C9.16275 5.8303 10.0396 5 11.1015 5V6L11.0029 6.00488C10.5171 6.05237 10.1298 6.44825 10.1025 6.94531L10.0107 8.61816C10.0056 8.71126 10.0697 8.79189 10.1572 8.81055L10.1963 8.81445C10.2929 8.81445 10.3726 8.73944 10.3847 8.64355C10.4435 8.18039 10.5801 7.80691 10.793 7.52246C11.0314 7.20388 11.3182 6.98807 11.6533 6.87598C11.9111 6.79347 12.3461 6.75195 12.958 6.75195H13.5332C14.0854 6.75195 14.533 7.19979 14.5332 7.75195V15.9199C14.5332 16.5924 14.462 17.0231 14.3203 17.2119C14.1173 17.4803 13.7914 17.6315 13.3418 17.665L13.1416 17.6729H12.8408L12.7773 17.6855C12.7188 17.7104 12.6779 17.7683 12.6777 17.8359C12.6777 17.9262 12.7506 17.9998 12.8408 18H18.0722L18.1357 17.9873C18.1944 17.9624 18.2353 17.9037 18.2353 17.8359C18.2352 17.7684 18.1943 17.7104 18.1357 17.6855L18.0722 17.6729V16.6729C18.7146 16.6731 19.2351 17.1936 19.2353 17.8359C19.2353 18.4785 18.7147 18.9997 18.0722 19H12.8408C12.2384 18.9998 11.7431 18.5418 11.6836 17.9551L11.6777 17.8359L11.6836 17.7178C11.7429 17.1309 12.2383 16.6731 12.8408 16.6729H13.1416C13.3255 16.6728 13.431 16.6465 13.4834 16.627C13.4858 16.6146 13.4906 16.6007 13.4931 16.585C13.5163 16.4438 13.5332 16.2273 13.5332 15.9199ZM16.3896 15.9199V7.75195C16.3898 7.19979 16.8374 6.75195 17.3896 6.75195H18.2353C18.7765 6.75195 19.2114 6.83491 19.54 7C19.8751 7.15927 20.143 7.40985 20.3428 7.75195C20.4512 7.94012 20.5394 8.23995 20.6074 8.65039C20.6191 8.72062 20.6671 8.77761 20.7305 8.80176L20.7988 8.81445C20.8944 8.81433 20.9728 8.74394 20.9873 8.65332L20.9892 8.61328L20.9043 6.94824C20.8785 6.45004 20.4907 6.05266 20.0039 6.00488L19.9053 6V5C20.9698 5.00004 21.8476 5.83432 21.9023 6.89746L21.9883 8.56152C22.0234 9.24256 21.4807 9.81432 20.7988 9.81445C20.1999 9.81445 19.7142 9.37555 19.6211 8.81348C19.5917 8.63622 19.5607 8.50043 19.5312 8.40039C19.5167 8.35107 19.5037 8.31413 19.4931 8.28809C19.4838 8.26503 19.4777 8.25399 19.4765 8.25195H19.4756C19.3706 8.07404 19.2509 7.96973 19.1113 7.90332C19.1048 7.90024 19.0982 7.89678 19.0918 7.89355C18.9526 7.82357 18.6885 7.75195 18.2353 7.75195H17.3896V15.9199C17.3896 16.2559 17.4094 16.4863 17.4365 16.6309C17.5014 16.6511 17.6109 16.6729 17.7812 16.6729H18.0722V17.6729H17.7812L17.5967 17.667C17.18 17.6399 16.8647 17.5176 16.6504 17.3008C16.4981 17.1407 16.4125 16.7684 16.3935 16.1836L16.3896 15.9199ZM19.9053 5V6H11.1015V5H19.9053Z" fill="#535D6B"/>
<path d="M6.83102 22.5293C9.78801 21.4684 17.3655 19.6624 24.0937 20.9404C24.3646 20.9921 24.5424 21.2534 24.4912 21.5244C24.4396 21.7957 24.1775 21.9744 23.9062 21.9229C17.4232 20.6915 10.0405 22.4404 7.16891 23.4707C6.90901 23.564 6.62254 23.4288 6.52926 23.169C6.43601 22.9091 6.57114 22.6226 6.83102 22.5293Z" fill="#535D6B"/>
</g>
<defs>
<clipPath id="clip0_8_2913">
<rect width="30" height="30" fill="white"/>
</clipPath>
</defs>
</svg>
