<svg width="30" height="30" viewBox="0 0 30 30" fill="none" xmlns="http://www.w3.org/2000/svg">
<g clip-path="url(#clip0_8_2917)">
<rect width="30" height="30" fill="white"/>
<path d="M1 2C1 1.44771 1.44772 1 2 1H28C28.5523 1 29 1.44772 29 2V28C29 28.5523 28.5523 29 28 29H2C1.44771 29 1 28.5523 1 28V2Z" fill="white"/>
<path d="M28.5 2C28.5 1.72386 28.2761 1.5 28 1.5H2C1.72386 1.5 1.5 1.72386 1.5 2V28C1.5 28.2761 1.72386 28.5 2 28.5H28C28.2761 28.5 28.5 28.2761 28.5 28V2ZM29.5 28C29.5 28.8284 28.8284 29.5 28 29.5H2C1.17157 29.5 0.5 28.8284 0.5 28V2C0.5 1.17157 1.17157 0.5 2 0.5H28C28.8284 0.5 29.5 1.17157 29.5 2V28Z" fill="#535D6B"/>
<path d="M20.5 22.5C20.7761 22.5 21 22.7239 21 23C21 23.2761 20.7761 23.5 20.5 23.5H10C9.72386 23.5 9.5 23.2761 9.5 23C9.5 22.7239 9.72386 22.5 10 22.5H20.5Z" fill="#535D6B"/>
<path d="M18 24.5C18.2761 24.5 18.5 24.7239 18.5 25C18.5 25.2761 18.2761 25.5 18 25.5H12C11.7239 25.5 11.5 25.2761 11.5 25C11.5 24.7239 11.7239 24.5 12 24.5H18Z" fill="#535D6B"/>
<path d="M23 12C23 16.4183 19.4183 20 15 20C10.5817 20 7 16.4183 7 12C7 7.58172 10.5817 4 15 4C19.4183 4 23 7.58172 23 12Z" fill="white"/>
<path d="M22.5 12C22.5 7.85786 19.1421 4.5 15 4.5C10.8579 4.5 7.5 7.85786 7.5 12C7.5 16.1421 10.8579 19.5 15 19.5C19.1421 19.5 22.5 16.1421 22.5 12ZM23.5 12C23.5 16.6944 19.6944 20.5 15 20.5C10.3056 20.5 6.5 16.6944 6.5 12C6.5 7.30558 10.3056 3.5 15 3.5C19.6944 3.5 23.5 7.30558 23.5 12Z" fill="#535D6B"/>
<path d="M15 8C16.6569 8 18 9.34315 18 11C18 11.9306 17.5762 12.7622 16.9111 13.3125C19.0086 14.017 20.5876 15.848 20.9297 18.0869C19.3981 19.5791 17.3072 20.5 15 20.5C12.6925 20.5 10.6009 19.5794 9.06934 18.0869C9.4113 15.8482 10.9908 14.0172 13.0879 13.3125C12.4231 12.7622 12 11.9304 12 11C12 9.34315 13.3431 8 15 8Z" fill="#D0EFF7"/>
<path d="M17 11C17 9.89543 16.1046 9 15 9C13.8954 9 13 9.89543 13 11C13 11.6203 13.2809 12.1738 13.7256 12.542C14.0051 12.7734 14.1375 13.1383 14.0713 13.4951C14.005 13.8519 13.7502 14.1451 13.4062 14.2607C11.8204 14.7938 10.592 16.1008 10.165 17.7295C11.4716 18.8338 13.1566 19.5 15 19.5V20.5C12.6925 20.5 10.6009 19.5794 9.06934 18.0869C9.4113 15.8482 10.9908 14.0172 13.0879 13.3125C12.4231 12.7622 12 11.9304 12 11C12 9.34315 13.3431 8 15 8C16.6569 8 18 9.34315 18 11C18 11.9306 17.5762 12.7622 16.9111 13.3125C19.0086 14.017 20.5876 15.848 20.9297 18.0869C19.3981 19.5791 17.3072 20.5 15 20.5V19.5C16.8424 19.5 18.5257 18.8331 19.832 17.7295C19.4049 16.1007 18.1787 14.7935 16.5928 14.2607C16.2487 14.1452 15.994 13.852 15.9277 13.4951C15.8615 13.1383 15.9939 12.7734 16.2734 12.542C16.7188 12.1735 17 11.62 17 11Z" fill="#535D6B"/>
</g>
<defs>
<clipPath id="clip0_8_2917">
<rect width="30" height="30" fill="white"/>
</clipPath>
</defs>
</svg>
