<svg width="30" height="30" viewBox="0 0 30 30" fill="none" xmlns="http://www.w3.org/2000/svg">
<path d="M0.5 28V1H1.5V28C1.5 28.2761 1.72386 28.5 2 28.5H29V29.5H2C1.17157 29.5 0.5 28.8284 0.5 28Z" fill="#D0EFF7"/>
<path d="M1 21C1 20.4477 1.44772 20 2 20H5C5.55228 20 6 20.4477 6 21V28C6 28.5523 5.55228 29 5 29H2C1.44772 29 1 28.5523 1 28V21Z" fill="#3B646B"/>
<path d="M5.5 21C5.5 20.7239 5.27614 20.5 5 20.5H2C1.72386 20.5 1.5 20.7239 1.5 21V28C1.5 28.2761 1.72386 28.5 2 28.5H5C5.27614 28.5 5.5 28.2761 5.5 28V21ZM6.5 28C6.5 28.8284 5.82843 29.5 5 29.5H2C1.17157 29.5 0.5 28.8284 0.5 28V21C0.5 20.1716 1.17157 19.5 2 19.5H5C5.82843 19.5 6.5 20.1716 6.5 21V28Z" fill="#D0EFF7"/>
<path d="M6 13C6 12.4477 6.44772 12 7 12H11C11.5523 12 12 12.4477 12 13V28C12 28.5523 11.5523 29 11 29H7C6.44772 29 6 28.5523 6 28V13Z" fill="#3B646B"/>
<path d="M11.5 13C11.5 12.7239 11.2761 12.5 11 12.5H7C6.72386 12.5 6.5 12.7239 6.5 13V28C6.5 28.2761 6.72386 28.5 7 28.5H11C11.2761 28.5 11.5 28.2761 11.5 28V13ZM12.5 28C12.5 28.8284 11.8284 29.5 11 29.5H7C6.17157 29.5 5.5 28.8284 5.5 28V13C5.5 12.1716 6.17157 11.5 7 11.5H11C11.8284 11.5 12.5 12.1716 12.5 13V28Z" fill="#D0EFF7"/>
<path d="M12 20C12 19.4477 12.4477 19 13 19H16C16.5523 19 17 19.4477 17 20V28C17 28.5523 16.5523 29 16 29H13C12.4477 29 12 28.5523 12 28V20Z" fill="#3B646B"/>
<path d="M16.5 20C16.5 19.7239 16.2761 19.5 16 19.5H13C12.7239 19.5 12.5 19.7239 12.5 20V28C12.5 28.2761 12.7239 28.5 13 28.5H16C16.2761 28.5 16.5 28.2761 16.5 28V20ZM17.5 28C17.5 28.8284 16.8284 29.5 16 29.5H13C12.1716 29.5 11.5 28.8284 11.5 28V20C11.5 19.1716 12.1716 18.5 13 18.5H16C16.8284 18.5 17.5 19.1716 17.5 20V28Z" fill="#D0EFF7"/>
<path d="M17 6C17 5.44772 17.4477 5 18 5H22C22.5523 5 23 5.44772 23 6V28C23 28.5523 22.5523 29 22 29H18C17.4477 29 17 28.5523 17 28V6Z" fill="#3B646B"/>
<path d="M22.5 6C22.5 5.72386 22.2761 5.5 22 5.5H18C17.7239 5.5 17.5 5.72386 17.5 6V28C17.5 28.2761 17.7239 28.5 18 28.5H22C22.2761 28.5 22.5 28.2761 22.5 28V6ZM23.5 28C23.5 28.8284 22.8284 29.5 22 29.5H18C17.1716 29.5 16.5 28.8284 16.5 28V6C16.5 5.17157 17.1716 4.5 18 4.5H22C22.8284 4.5 23.5 5.17157 23.5 6V28Z" fill="#D0EFF7"/>
<path d="M23 24C23 23.4477 23.4477 23 24 23H27C27.5523 23 28 23.4477 28 24V28C28 28.5523 27.5523 29 27 29H24C23.4477 29 23 28.5523 23 28V24Z" fill="#3B646B"/>
<path d="M27.5 24C27.5 23.7239 27.2761 23.5 27 23.5H24C23.7239 23.5 23.5 23.7239 23.5 24V28C23.5 28.2761 23.7239 28.5 24 28.5H27C27.2761 28.5 27.5 28.2761 27.5 28V24ZM28.5 28C28.5 28.8284 27.8284 29.5 27 29.5H24C23.1716 29.5 22.5 28.8284 22.5 28V24C22.5 23.1716 23.1716 22.5 24 22.5H27C27.8284 22.5 28.5 23.1716 28.5 24V28Z" fill="#D0EFF7"/>
</svg>
