<svg width="30" height="30" viewBox="0 0 30 30" fill="none" xmlns="http://www.w3.org/2000/svg">
<path d="M10.382 1C10.7607 1 11.107 1.214 11.2764 1.55279L17.7764 14.5528C17.9172 14.8343 17.9172 15.1657 17.7764 15.4472L11.2764 28.4472C11.107 28.786 10.7607 29 10.382 29H3C2.44772 29 2 28.5523 2 28V2C2 1.44771 2.44772 1 3 1H10.382Z" fill="#3B646B"/>
<path d="M10.3818 0.5C10.95 0.5 11.4695 0.820955 11.7236 1.3291L18.2236 14.3291C18.4348 14.7514 18.4348 15.2486 18.2236 15.6709L11.7236 28.6709C11.4695 29.179 10.95 29.5 10.3818 29.5H3C2.17157 29.5 1.5 28.8284 1.5 28V2C1.5 1.17157 2.17157 0.5 3 0.5H10.3818ZM2.5 28C2.5 28.2761 2.72386 28.5 3 28.5H10.3818C10.5712 28.5 10.7444 28.393 10.8291 28.2236L17.3291 15.2236C17.3995 15.0829 17.3995 14.9171 17.3291 14.7764L10.8291 1.77637C10.7444 1.60701 10.5712 1.5 10.3818 1.5H3C2.72386 1.5 2.5 1.72386 2.5 2V28Z" fill="#D0EFF7"/>
<path d="M19.2056 1C19.5735 1 19.9121 1.20247 20.0865 1.52637L27.0865 14.5264C27.2455 14.8221 27.2455 15.1779 27.0865 15.4736L20.0865 28.4736C19.9121 28.7975 19.5735 29 19.2056 29H18.0014C17.258 29 16.7745 28.2177 17.107 27.5528L23.1597 15.4473C23.3004 15.1658 23.3004 14.8342 23.1597 14.5527L17.107 2.44721C16.7745 1.78231 17.258 1 18.0014 1H19.2056Z" fill="#3B646B"/>
<path d="M19.2052 0.5C19.7572 0.5 20.265 0.8036 20.5265 1.28906L27.5265 14.2891V14.29C27.7649 14.7335 27.7649 15.2665 27.5265 15.71V15.7109L20.5265 28.7109C20.265 29.1964 19.7572 29.5 19.2052 29.5H18.0011C16.8863 29.4998 16.1608 28.3263 16.6593 27.3291L22.7121 15.2236C22.7824 15.0829 22.7824 14.9171 22.7121 14.7764V14.7754L16.6593 2.6709C16.1608 1.67367 16.8863 0.50022 18.0011 0.5H19.2052ZM18.0011 1.5C17.6297 1.50022 17.3878 1.8913 17.5539 2.22363L23.6066 14.3291C23.8175 14.7512 23.8175 15.2488 23.6066 15.6709L17.5539 27.7764C17.3878 28.1087 17.6297 28.4998 18.0011 28.5H19.2052C19.3889 28.5 19.5593 28.3985 19.6466 28.2363L26.6466 15.2363C26.7257 15.0888 26.7257 14.9112 26.6466 14.7637L19.6466 1.76367C19.5593 1.60152 19.3889 1.5 19.2052 1.5H18.0011Z" fill="#D0EFF7"/>
</svg>
