<svg width="30" height="30" viewBox="0 0 30 30" fill="none" xmlns="http://www.w3.org/2000/svg">
<rect width="30" height="30" fill="white"/>
<path d="M10.382 1C10.7607 1 11.107 1.214 11.2764 1.55279L17.7764 14.5528C17.9172 14.8343 17.9172 15.1657 17.7764 15.4472L11.2764 28.4472C11.107 28.786 10.7607 29 10.382 29H3C2.44772 29 2 28.5523 2 28V2C2 1.44771 2.44772 1 3 1H10.382Z" fill="#D0EFF7"/>
<path d="M10.3818 0.5C10.95 0.5 11.4695 0.820955 11.7236 1.3291L18.2236 14.3291C18.4348 14.7514 18.4348 15.2486 18.2236 15.6709L11.7236 28.6709C11.4695 29.179 10.95 29.5 10.3818 29.5H3C2.17157 29.5 1.5 28.8284 1.5 28V2C1.5 1.17157 2.17157 0.5 3 0.5H10.3818ZM2.5 28C2.5 28.2761 2.72386 28.5 3 28.5H10.3818C10.5712 28.5 10.7444 28.393 10.8291 28.2236L17.3291 15.2236C17.3995 15.0829 17.3995 14.9171 17.3291 14.7764L10.8291 1.77637C10.7444 1.60701 10.5712 1.5 10.3818 1.5H3C2.72386 1.5 2.5 1.72386 2.5 2V28Z" fill="#535D6B"/>
<path d="M19.206 1C19.5737 1.00014 19.9125 1.20257 20.0869 1.52637L27.0869 14.5264C27.2458 14.822 27.2458 15.178 27.0869 15.4736L20.0869 28.4736C19.9125 28.7974 19.5737 28.9999 19.206 29H18.0008C17.2574 29 16.7739 28.2177 17.1064 27.5528L23.1591 15.4473C23.2999 15.1657 23.2999 14.8343 23.1591 14.5527L17.1064 2.44721C16.7739 1.78231 17.2574 1 18.0008 1H19.206Z" fill="#D0EFF7"/>
<path d="M19.2066 0.5L19.4107 0.513672C19.8809 0.578509 20.298 0.864246 20.5269 1.28906L27.5269 14.2891V14.29C27.7651 14.7334 27.7651 15.2666 27.5269 15.71V15.7109L20.5269 28.7109C20.2654 29.1964 19.7579 29.4997 19.2066 29.5H18.0005C16.8857 29.4998 16.1602 28.3263 16.6587 27.3291L22.7124 15.2236C22.7827 15.083 22.7827 14.917 22.7124 14.7764L16.6587 2.6709C16.1602 1.67367 16.8857 0.50022 18.0005 0.5H19.2066ZM18.0005 1.5C17.629 1.50022 17.3872 1.8913 17.5532 2.22363L23.606 14.3291C23.8171 14.7514 23.8171 15.2486 23.606 15.6709L17.5532 27.7764C17.3872 28.1087 17.629 28.4998 18.0005 28.5H19.2056C19.3895 28.4999 19.5598 28.3982 19.647 28.2363L26.646 15.2373C26.7255 15.0895 26.7255 14.9105 26.646 14.7627L19.647 1.76367C19.5707 1.622 19.4308 1.52655 19.274 1.50488L19.2056 1.5H18.0005Z" fill="#535D6B"/>
</svg>
