<svg width="30" height="30" viewBox="0 0 30 30" fill="none" xmlns="http://www.w3.org/2000/svg">
<path d="M21 9C21 12.3137 18.3137 15 15 15C11.6863 15 9 12.3137 9 9C9 5.68629 11.6863 3 15 3C18.3137 3 21 5.68629 21 9Z" fill="#3B646B"/>
<path d="M21 9C21 5.68629 18.3137 3 15 3C11.6863 3 9 5.68629 9 9C9 12.3137 11.6863 15 15 15C18.3137 15 21 12.3137 21 9ZM22 9C22 12.866 18.866 16 15 16C11.134 16 8 12.866 8 9C8 5.13401 11.134 2 15 2C18.866 2 22 5.13401 22 9Z" fill="#D0EFF7"/>
<path d="M14 5.5C14 5.22386 14.2239 5 14.5 5C14.7761 5 15 5.22386 15 5.5V9H18.5C18.7761 9 19 9.22386 19 9.5C19 9.77614 18.7761 10 18.5 10H14.5C14.2239 10 14 9.77614 14 9.5V5.5Z" fill="#D0EFF7"/>
<path d="M17 18.5C17.2761 18.5 17.5 18.7239 17.5 19C17.5 19.2761 17.2761 19.5 17 19.5H2C1.72386 19.5 1.5 19.2761 1.5 19C1.5 18.7239 1.72386 18.5 2 18.5H17Z" fill="#D0EFF7"/>
<path d="M28 18.5C28.2761 18.5 28.5 18.7239 28.5 19C28.5 19.2761 28.2761 19.5 28 19.5H25C24.7239 19.5 24.5 19.2761 24.5 19C24.5 18.7239 24.7239 18.5 25 18.5H28Z" fill="#D0EFF7"/>
<path d="M17 22.5C17.2761 22.5 17.5 22.7239 17.5 23C17.5 23.2761 17.2761 23.5 17 23.5H2C1.72386 23.5 1.5 23.2761 1.5 23C1.5 22.7239 1.72386 22.5 2 22.5H17Z" fill="#D0EFF7"/>
<path d="M28 22.5C28.2761 22.5 28.5 22.7239 28.5 23C28.5 23.2761 28.2761 23.5 28 23.5H25C24.7239 23.5 24.5 23.2761 24.5 23C24.5 22.7239 24.7239 22.5 25 22.5H28Z" fill="#D0EFF7"/>
<path d="M17 26.5C17.2761 26.5 17.5 26.7239 17.5 27C17.5 27.2761 17.2761 27.5 17 27.5H2C1.72386 27.5 1.5 27.2761 1.5 27C1.5 26.7239 1.72386 26.5 2 26.5H17Z" fill="#D0EFF7"/>
<path d="M28 26.5C28.2761 26.5 28.5 26.7239 28.5 27C28.5 27.2761 28.2761 27.5 28 27.5H25C24.7239 27.5 24.5 27.2761 24.5 27C24.5 26.7239 24.7239 26.5 25 26.5H28Z" fill="#D0EFF7"/>
</svg>
