<svg width="30" height="30" viewBox="0 0 30 30" fill="none" xmlns="http://www.w3.org/2000/svg">
<rect width="30" height="30" fill="white"/>
<path d="M1 2C1 1.44772 1.44772 1 2 1H28C28.5523 1 29 1.44772 29 2V18C29 18.5523 28.5523 19 28 19H2C1.44771 19 1 18.5523 1 18V2Z" fill="#D0EFF7"/>
<path d="M28.5 2C28.5 1.72386 28.2761 1.5 28 1.5H2C1.72386 1.5 1.5 1.72386 1.5 2V18C1.5 18.2761 1.72386 18.5 2 18.5H28C28.2761 18.5 28.5 18.2761 28.5 18V2ZM29.5 18C29.5 18.8284 28.8284 19.5 28 19.5H2C1.17157 19.5 0.5 18.8284 0.5 18V2C0.5 1.17157 1.17157 0.5 2 0.5H28C28.8284 0.5 29.5 1.17157 29.5 2V18Z" fill="#535D6B"/>
<path d="M28.8415 19.6L15.7415 14.7L20.6415 27.9L22.7415 23.8L26.4415 27.5L28.6415 25.4L24.7415 21.6L28.8415 19.6Z" fill="white"/>
<path d="M15.3879 14.3465C15.5263 14.2084 15.733 14.1629 15.9162 14.2312L29.0168 19.1316C29.2039 19.2017 29.3314 19.3765 29.341 19.576C29.3506 19.7756 29.2404 19.962 29.0608 20.0496L25.5988 21.7371L28.9904 25.0418C29.0876 25.1364 29.1424 25.2666 29.1418 25.4021C29.1411 25.5379 29.0847 25.6678 28.9865 25.7615L26.7863 27.8621C26.5898 28.0493 26.28 28.0453 26.0881 27.8533L22.8733 24.6385L21.0861 28.1277C20.9958 28.3042 20.8095 28.4109 20.6115 28.3992C20.4138 28.3874 20.2421 28.2597 20.1731 28.074L15.2727 14.8738C15.2047 14.6906 15.2497 14.4846 15.3879 14.3465ZM20.7141 26.659L22.2961 23.5721L22.3625 23.4744C22.439 23.3854 22.545 23.3252 22.6633 23.3064C22.8211 23.2816 22.9819 23.3332 23.0949 23.4461L26.4494 26.8006L27.9201 25.3963L24.3928 21.9578C24.2762 21.8442 24.2215 21.681 24.2473 21.5203C24.2732 21.3598 24.3765 21.2215 24.5227 21.1502L27.5754 19.66L16.5901 15.5516L20.7141 26.659Z" fill="#535D6B"/>
</svg>
