<svg width="30" height="30" viewBox="0 0 30 30" fill="none" xmlns="http://www.w3.org/2000/svg">
<g clip-path="url(#clip0_8_2964)">
<rect width="30" height="30" fill="white"/>
<path d="M1 2C1 1.44771 1.44772 1 2 1H28C28.5523 1 29 1.44772 29 2V28C29 28.5523 28.5523 29 28 29H2C1.44771 29 1 28.5523 1 28V2Z" fill="white"/>
<path d="M28.5 2C28.5 1.72386 28.2761 1.5 28 1.5H2C1.72386 1.5 1.5 1.72386 1.5 2V28C1.5 28.2761 1.72386 28.5 2 28.5H28C28.2761 28.5 28.5 28.2761 28.5 28V2ZM29.5 28C29.5 28.8284 28.8284 29.5 28 29.5H2C1.17157 29.5 0.5 28.8284 0.5 28V2C0.5 1.17157 1.17157 0.5 2 0.5H28C28.8284 0.5 29.5 1.17157 29.5 2V28Z" fill="#535D6B"/>
<path d="M6 20C6 18.3431 7.34315 17 9 17H21C22.6569 17 24 18.3431 24 20V20C24 21.6569 22.6569 23 21 23H9C7.34315 23 6 21.6569 6 20V20Z" fill="#D0EFF7"/>
<path d="M23.5 20C23.5 18.6193 22.3807 17.5 21 17.5H9C7.61929 17.5 6.5 18.6193 6.5 20C6.5 21.3807 7.61929 22.5 9 22.5H21C22.3807 22.5 23.5 21.3807 23.5 20ZM24.5 20C24.5 21.933 22.933 23.5 21 23.5H9C7.067 23.5 5.5 21.933 5.5 20C5.5 18.067 7.067 16.5 9 16.5H21C22.933 16.5 24.5 18.067 24.5 20Z" fill="#535D6B"/>
<path d="M23 23.2273L17 21L19.2443 27L20.2061 25.1364L21.9008 26.8182L22.9084 25.8636L21.1221 24.1364L23 23.2273Z" fill="white"/>
<path d="M16.6465 20.6465C16.7846 20.5083 16.9906 20.4633 17.1738 20.5312L23.1738 22.7588C23.3615 22.8285 23.4893 23.0032 23.499 23.2031C23.5086 23.4032 23.3981 23.5904 23.2178 23.6777L21.9834 24.2744L23.2558 25.5039C23.3539 25.5987 23.4089 25.7298 23.4082 25.8662C23.4075 26.0026 23.351 26.1327 23.2519 26.2266L22.2441 27.1816C22.048 27.3669 21.7404 27.363 21.5488 27.1728L20.3369 25.9707L19.6885 27.2295C19.5977 27.4051 19.4121 27.5107 19.2148 27.499C19.0174 27.4873 18.8456 27.36 18.7764 27.1748L16.5312 21.1748C16.4629 20.9916 16.5084 20.7849 16.6465 20.6465ZM19.3174 25.7676L19.7617 24.9072L19.8281 24.8096C19.9045 24.7212 20.0101 24.6612 20.1279 24.6426C20.2852 24.6178 20.4455 24.6691 20.5586 24.7812L21.9082 26.1211L22.1846 25.8594L20.7744 24.4961C20.6571 24.3826 20.6032 24.2188 20.6289 24.0576C20.6547 23.8964 20.7573 23.7577 20.9043 23.6865L21.7266 23.2881L17.8516 21.8486L19.3174 25.7676Z" fill="#535D6B"/>
<path d="M25 5.5C25.2761 5.5 25.5 5.72386 25.5 6C25.5 6.27614 25.2761 6.5 25 6.5H5C4.72386 6.5 4.5 6.27614 4.5 6C4.5 5.72386 4.72386 5.5 5 5.5H25Z" fill="#535D6B"/>
<path d="M25 8.5C25.2761 8.5 25.5 8.72386 25.5 9C25.5 9.27614 25.2761 9.5 25 9.5H5C4.72386 9.5 4.5 9.27614 4.5 9C4.5 8.72386 4.72386 8.5 5 8.5H25Z" fill="#535D6B"/>
<path d="M14 11.5C14.2761 11.5 14.5 11.7239 14.5 12C14.5 12.2761 14.2761 12.5 14 12.5H5C4.72386 12.5 4.5 12.2761 4.5 12C4.5 11.7239 4.72386 11.5 5 11.5H14Z" fill="#535D6B"/>
</g>
<defs>
<clipPath id="clip0_8_2964">
<rect width="30" height="30" fill="white"/>
</clipPath>
</defs>
</svg>
