<svg width="30" height="30" viewBox="0 0 30 30" fill="none" xmlns="http://www.w3.org/2000/svg">
<g clip-path="url(#clip0_8_3335)">
<path d="M1 2C1 1.44772 1.44772 1 2 1H8C8.55228 1 9 1.44772 9 2V8C9 8.55228 8.55228 9 8 9H2C1.44772 9 1 8.55228 1 8V2Z" fill="#3B646B"/>
<path d="M8.5 2C8.5 1.72386 8.27614 1.5 8 1.5H2C1.72386 1.5 1.5 1.72386 1.5 2V8C1.5 8.27614 1.72386 8.5 2 8.5H8C8.27614 8.5 8.5 8.27614 8.5 8V2ZM9.5 8C9.5 8.82843 8.82843 9.5 8 9.5H2C1.17157 9.5 0.5 8.82843 0.5 8V2C0.5 1.17157 1.17157 0.5 2 0.5H8C8.82843 0.5 9.5 1.17157 9.5 2V8Z" fill="#D0EFF7"/>
<path d="M11 2C11 1.44772 11.4477 1 12 1H18C18.5523 1 19 1.44772 19 2V8C19 8.55228 18.5523 9 18 9H12C11.4477 9 11 8.55228 11 8V2Z" fill="#3B646B"/>
<path d="M18.5 2C18.5 1.72386 18.2761 1.5 18 1.5H12C11.7239 1.5 11.5 1.72386 11.5 2V8C11.5 8.27614 11.7239 8.5 12 8.5H18C18.2761 8.5 18.5 8.27614 18.5 8V2ZM19.5 8C19.5 8.82843 18.8284 9.5 18 9.5H12C11.1716 9.5 10.5 8.82843 10.5 8V2C10.5 1.17157 11.1716 0.5 12 0.5H18C18.8284 0.5 19.5 1.17157 19.5 2V8Z" fill="#D0EFF7"/>
<path d="M21 2C21 1.44772 21.4477 1 22 1H28C28.5523 1 29 1.44772 29 2V8C29 8.55228 28.5523 9 28 9H22C21.4477 9 21 8.55228 21 8V2Z" fill="#3B646B"/>
<path d="M28.5 2C28.5 1.72386 28.2761 1.5 28 1.5H22C21.7239 1.5 21.5 1.72386 21.5 2V8C21.5 8.27614 21.7239 8.5 22 8.5H28C28.2761 8.5 28.5 8.27614 28.5 8V2ZM29.5 8C29.5 8.82843 28.8284 9.5 28 9.5H22C21.1716 9.5 20.5 8.82843 20.5 8V2C20.5 1.17157 21.1716 0.5 22 0.5H28C28.8284 0.5 29.5 1.17157 29.5 2V8Z" fill="#D0EFF7"/>
<path d="M1 12C1 11.4477 1.44772 11 2 11H8C8.55228 11 9 11.4477 9 12V18C9 18.5523 8.55228 19 8 19H2C1.44772 19 1 18.5523 1 18V12Z" fill="#3B646B"/>
<path d="M8.5 12C8.5 11.7239 8.27614 11.5 8 11.5H2C1.72386 11.5 1.5 11.7239 1.5 12V18C1.5 18.2761 1.72386 18.5 2 18.5H8C8.27614 18.5 8.5 18.2761 8.5 18V12ZM9.5 18C9.5 18.8284 8.82843 19.5 8 19.5H2C1.17157 19.5 0.5 18.8284 0.5 18V12C0.5 11.1716 1.17157 10.5 2 10.5H8C8.82843 10.5 9.5 11.1716 9.5 12V18Z" fill="#D0EFF7"/>
<path d="M1 22C1 21.4477 1.44772 21 2 21H8C8.55228 21 9 21.4477 9 22V28C9 28.5523 8.55228 29 8 29H2C1.44772 29 1 28.5523 1 28V22Z" fill="#3B646B"/>
<path d="M8.5 22C8.5 21.7239 8.27614 21.5 8 21.5H2C1.72386 21.5 1.5 21.7239 1.5 22V28C1.5 28.2761 1.72386 28.5 2 28.5H8C8.27614 28.5 8.5 28.2761 8.5 28V22ZM9.5 28C9.5 28.8284 8.82843 29.5 8 29.5H2C1.17157 29.5 0.5 28.8284 0.5 28V22C0.5 21.1716 1.17157 20.5 2 20.5H8C8.82843 20.5 9.5 21.1716 9.5 22V28Z" fill="#D0EFF7"/>
<path d="M11 12C11 11.4477 11.4477 11 12 11H18C18.5523 11 19 11.4477 19 12V18C19 18.5523 18.5523 19 18 19H12C11.4477 19 11 18.5523 11 18V12Z" fill="#3B646B"/>
<path d="M18.5 12C18.5 11.7239 18.2761 11.5 18 11.5H12C11.7239 11.5 11.5 11.7239 11.5 12V18C11.5 18.2761 11.7239 18.5 12 18.5H18C18.2761 18.5 18.5 18.2761 18.5 18V12ZM19.5 18C19.5 18.8284 18.8284 19.5 18 19.5H12C11.1716 19.5 10.5 18.8284 10.5 18V12C10.5 11.1716 11.1716 10.5 12 10.5H18C18.8284 10.5 19.5 11.1716 19.5 12V18Z" fill="#D0EFF7"/>
<path d="M11 22C11 21.4477 11.4477 21 12 21H18C18.5523 21 19 21.4477 19 22V28C19 28.5523 18.5523 29 18 29H12C11.4477 29 11 28.5523 11 28V22Z" fill="#3B646B"/>
<path d="M18.5 22C18.5 21.7239 18.2761 21.5 18 21.5H12C11.7239 21.5 11.5 21.7239 11.5 22V28C11.5 28.2761 11.7239 28.5 12 28.5H18C18.2761 28.5 18.5 28.2761 18.5 28V22ZM19.5 28C19.5 28.8284 18.8284 29.5 18 29.5H12C11.1716 29.5 10.5 28.8284 10.5 28V22C10.5 21.1716 11.1716 20.5 12 20.5H18C18.8284 20.5 19.5 21.1716 19.5 22V28Z" fill="#D0EFF7"/>
<path d="M21 12C21 11.4477 21.4477 11 22 11H28C28.5523 11 29 11.4477 29 12V18C29 18.5523 28.5523 19 28 19H22C21.4477 19 21 18.5523 21 18V12Z" fill="#3B646B"/>
<path d="M28.5 12C28.5 11.7239 28.2761 11.5 28 11.5H22C21.7239 11.5 21.5 11.7239 21.5 12V18C21.5 18.2761 21.7239 18.5 22 18.5H28C28.2761 18.5 28.5 18.2761 28.5 18V12ZM29.5 18C29.5 18.8284 28.8284 19.5 28 19.5H22C21.1716 19.5 20.5 18.8284 20.5 18V12C20.5 11.1716 21.1716 10.5 22 10.5H28C28.8284 10.5 29.5 11.1716 29.5 12V18Z" fill="#D0EFF7"/>
<path d="M21 22C21 21.4477 21.4477 21 22 21H28C28.5523 21 29 21.4477 29 22V28C29 28.5523 28.5523 29 28 29H22C21.4477 29 21 28.5523 21 28V22Z" fill="#3B646B"/>
<path d="M28.5 22C28.5 21.7239 28.2761 21.5 28 21.5H22C21.7239 21.5 21.5 21.7239 21.5 22V28C21.5 28.2761 21.7239 28.5 22 28.5H28C28.2761 28.5 28.5 28.2761 28.5 28V22ZM29.5 28C29.5 28.8284 28.8284 29.5 28 29.5H22C21.1716 29.5 20.5 28.8284 20.5 28V22C20.5 21.1716 21.1716 20.5 22 20.5H28C28.8284 20.5 29.5 21.1716 29.5 22V28Z" fill="#D0EFF7"/>
</g>
<defs>
<clipPath id="clip0_8_3335">
<rect width="30" height="30" fill="white"/>
</clipPath>
</defs>
</svg>
