<svg width="30" height="30" viewBox="0 0 30 30" fill="none" xmlns="http://www.w3.org/2000/svg">
<g clip-path="url(#clip0_8_2993)">
<rect width="30" height="30" fill="white"/>
<path d="M29 15C29 22.732 22.732 29 15 29C7.26801 29 1 22.732 1 15C1 7.26801 7.26801 1 15 1C22.732 1 29 7.26801 29 15Z" fill="white"/>
<path d="M28.5 15C28.5 7.54416 22.4558 1.5 15 1.5C7.54416 1.5 1.5 7.54416 1.5 15C1.5 22.4558 7.54416 28.5 15 28.5C22.4558 28.5 28.5 22.4558 28.5 15ZM29.5 15C29.5 23.0081 23.0081 29.5 15 29.5C6.99187 29.5 0.5 23.0081 0.5 15C0.5 6.99187 6.99187 0.5 15 0.5C23.0081 0.5 29.5 6.99187 29.5 15Z" fill="#535D6B"/>
<path d="M2.17136 12.896C1.62636 12.8067 1.25343 12.2912 1.38148 11.754C1.8925 9.60997 2.90385 7.61197 4.33844 5.92632C5.98957 3.98625 8.13878 2.53348 10.5545 1.72454C12.9702 0.915605 15.5609 0.781159 18.0474 1.33569C20.2078 1.8175 22.2184 2.80356 23.9175 4.20748C24.3432 4.55927 24.3559 5.19535 23.9746 5.59492L15.3644 14.6181C15.1364 14.8571 14.805 14.968 14.4791 14.9146L2.17136 12.896Z" fill="#D0EFF7"/>
<path d="M10.3955 1.25001C12.8975 0.412184 15.581 0.273333 18.1563 0.84767C20.3938 1.34669 22.4766 2.36822 24.2364 3.82228C24.9039 4.37413 24.9007 5.34866 24.336 5.94044L15.7266 14.9629C15.3846 15.3213 14.8873 15.4883 14.3985 15.4082L2.09085 13.3897C1.28352 13.2573 0.694682 12.4804 0.895536 11.6377C1.42484 9.41729 2.4723 7.34829 3.95804 5.60255C5.66811 3.59322 7.89358 2.08785 10.3955 1.25001ZM17.9385 1.82326C15.5409 1.28857 13.0423 1.41823 10.7129 2.19826C8.38357 2.97832 6.31089 4.37929 4.71878 6.25001C3.33543 7.87545 2.36096 9.8027 1.86819 11.8701C1.81307 12.1018 1.9696 12.3558 2.25198 12.4024L14.5596 14.4209C14.7226 14.4476 14.8889 14.392 15.003 14.2725L23.6133 5.25001C23.811 5.04277 23.7823 4.74455 23.5987 4.59279C21.9603 3.23914 20.0216 2.28783 17.9385 1.82326Z" fill="#535D6B"/>
<path d="M25 15C25 20.5228 20.5228 25 15 25C9.47715 25 5 20.5228 5 15C5 9.47715 9.47715 5 15 5C20.5228 5 25 9.47715 25 15Z" fill="white"/>
<path d="M24.5 15C24.5 9.75329 20.2467 5.5 15 5.5C9.75329 5.5 5.5 9.75329 5.5 15C5.5 20.2467 9.75329 24.5 15 24.5C20.2467 24.5 24.5 20.2467 24.5 15ZM25.5 15C25.5 20.799 20.799 25.5 15 25.5C9.20101 25.5 4.5 20.799 4.5 15C4.5 9.20101 9.20101 4.5 15 4.5C20.799 4.5 25.5 9.20101 25.5 15Z" fill="#535D6B"/>
</g>
<defs>
<clipPath id="clip0_8_2993">
<rect width="30" height="30" fill="white"/>
</clipPath>
</defs>
</svg>
