<svg width="30" height="30" viewBox="0 0 30 30" fill="none" xmlns="http://www.w3.org/2000/svg">
<g clip-path="url(#clip0_8_3516)">
<path d="M15 0.5C23.0081 0.5 29.5 6.99187 29.5 15C29.5 23.0081 23.0081 29.5 15 29.5C6.99187 29.5 0.5 23.0081 0.5 15C0.5 6.99187 6.99187 0.5 15 0.5ZM15 4.5C9.20101 4.5 4.5 9.20101 4.5 15C4.5 20.799 9.20101 25.5 15 25.5C20.799 25.5 25.5 20.799 25.5 15C25.5 9.20101 20.799 4.5 15 4.5Z" fill="#3B646B"/>
<path d="M29 15C29 7.26801 22.732 1 15 1C7.26801 1 1 7.26801 1 15C1 22.732 7.26801 29 15 29C22.732 29 29 22.732 29 15ZM25 15C25 9.47715 20.5228 5 15 5C9.47715 5 5 9.47715 5 15C5 20.5228 9.47715 25 15 25C20.5228 25 25 20.5228 25 15ZM26 15C26 21.0751 21.0751 26 15 26C8.92487 26 4 21.0751 4 15C4 8.92487 8.92487 4 15 4C21.0751 4 26 8.92487 26 15ZM30 15C30 23.2843 23.2843 30 15 30C6.71573 30 0 23.2843 0 15C0 6.71573 6.71573 0 15 0C23.2843 0 30 6.71573 30 15Z" fill="#D0EFF7"/>
<path d="M10.396 1.24984C12.8979 0.412144 15.5816 0.273191 18.1568 0.847492C20.3688 1.34088 22.4294 2.34554 24.1763 3.77327C24.1998 3.79247 24.2233 3.81156 24.2466 3.83089C24.9037 4.38411 24.8979 5.35151 24.3365 5.94027L22.6001 7.7596C20.6878 5.75288 17.9913 4.49996 15.0005 4.49984C9.60884 4.49984 5.16732 8.56399 4.56985 13.7957L2.09134 13.3895C1.28401 13.2571 0.69517 12.4802 0.896024 11.6375C1.42535 9.41721 2.47284 7.34804 3.95852 5.60238C5.66856 3.5932 7.8942 2.08763 10.396 1.24984Z" fill="#D0EFF7"/>
</g>
<defs>
<clipPath id="clip0_8_3516">
<rect width="30" height="30" fill="white"/>
</clipPath>
</defs>
</svg>
