<svg width="30" height="30" viewBox="0 0 30 30" fill="none" xmlns="http://www.w3.org/2000/svg">
<path d="M23 2.5C23.2761 2.5 23.5 2.72386 23.5 3C23.5 3.27614 23.2761 3.5 23 3.5H7C6.72386 3.5 6.5 3.27614 6.5 3C6.5 2.72386 6.72386 2.5 7 2.5H23Z" fill="#D0EFF7"/>
<path d="M23 5.5C23.2761 5.5 23.5 5.72386 23.5 6C23.5 6.27614 23.2761 6.5 23 6.5H7C6.72386 6.5 6.5 6.27614 6.5 6C6.5 5.72386 6.72386 5.5 7 5.5H23Z" fill="#D0EFF7"/>
<path d="M23 8.5C23.2761 8.5 23.5 8.72386 23.5 9C23.5 9.27614 23.2761 9.5 23 9.5H7C6.72386 9.5 6.5 9.27614 6.5 9C6.5 8.72386 6.72386 8.5 7 8.5H23Z" fill="#D0EFF7"/>
<path d="M12 11.5C12.2761 11.5 12.5 11.7239 12.5 12C12.5 12.2761 12.2761 12.5 12 12.5H7C6.72386 12.5 6.5 12.2761 6.5 12C6.5 11.7239 6.72386 11.5 7 11.5H12Z" fill="#D0EFF7"/>
<path d="M23 14.5C23.2761 14.5 23.5 14.7239 23.5 15C23.5 15.2761 23.2761 15.5 23 15.5H7C6.72386 15.5 6.5 15.2761 6.5 15C6.5 14.7239 6.72386 14.5 7 14.5H23Z" fill="#D0EFF7"/>
<path d="M23 17.5C23.2761 17.5 23.5 17.7239 23.5 18C23.5 18.2761 23.2761 18.5 23 18.5H7C6.72386 18.5 6.5 18.2761 6.5 18C6.5 17.7239 6.72386 17.5 7 17.5H23Z" fill="#D0EFF7"/>
<path d="M23 20.5C23.2761 20.5 23.5 20.7239 23.5 21C23.5 21.2761 23.2761 21.5 23 21.5H7C6.72386 21.5 6.5 21.2761 6.5 21C6.5 20.7239 6.72386 20.5 7 20.5H23Z" fill="#D0EFF7"/>
<path d="M20 23.5C20.2761 23.5 20.5 23.7239 20.5 24C20.5 24.2761 20.2761 24.5 20 24.5H7C6.72386 24.5 6.5 24.2761 6.5 24C6.5 23.7239 6.72386 23.5 7 23.5H20Z" fill="#D0EFF7"/>
<path d="M15 26.5C15.2761 26.5 15.5 26.7239 15.5 27C15.5 27.2761 15.2761 27.5 15 27.5H7C6.72386 27.5 6.5 27.2761 6.5 27C6.5 26.7239 6.72386 26.5 7 26.5H15Z" fill="#D0EFF7"/>
<path d="M25.6464 11.6465C25.8417 11.4512 26.1582 11.4512 26.3535 11.6465L28.8535 14.1465C29.0487 14.3417 29.0487 14.6583 28.8535 14.8535L26.3535 17.3535C26.1582 17.5488 25.8417 17.5488 25.6464 17.3535C25.4512 17.1583 25.4512 16.8417 25.6464 16.6465L27.7929 14.5L25.6464 12.3535C25.4512 12.1583 25.4512 11.8417 25.6464 11.6465Z" fill="#D0EFF7"/>
<path d="M3.85355 11.6465C3.65829 11.4512 3.34178 11.4512 3.14652 11.6465L0.646522 14.1465C0.45126 14.3417 0.45126 14.6583 0.646522 14.8535L3.14652 17.3535C3.34178 17.5488 3.65829 17.5488 3.85355 17.3535C4.04882 17.1583 4.04882 16.8417 3.85355 16.6465L1.70707 14.5L3.85355 12.3535C4.04882 12.1583 4.04882 11.8417 3.85355 11.6465Z" fill="#D0EFF7"/>
</svg>
