<svg width="30" height="30" viewBox="0 0 30 30" fill="none" xmlns="http://www.w3.org/2000/svg">
<g clip-path="url(#clip0_8_3778)">
<path d="M1 2C1 1.44772 1.44772 1 2 1H28C28.5523 1 29 1.44772 29 2V20C29 20.5523 28.5523 21 28 21H2C1.44771 21 1 20.5523 1 20V2Z" fill="#3B646B"/>
<path d="M28.5 2C28.5 1.72386 28.2761 1.5 28 1.5H2C1.72386 1.5 1.5 1.72386 1.5 2V20C1.5 20.2761 1.72386 20.5 2 20.5H28C28.2761 20.5 28.5 20.2761 28.5 20V2ZM29.5 20C29.5 20.8284 28.8284 21.5 28 21.5H2C1.17157 21.5 0.5 20.8284 0.5 20V2C0.5 1.17157 1.17157 0.5 2 0.5H28C28.8284 0.5 29.5 1.17157 29.5 2V20Z" fill="#D0EFF7"/>
<path d="M24 5C24.2761 5 24.5 5.22386 24.5 5.5C24.5 5.77614 24.2761 6 24 6H6C5.72386 6 5.5 5.77614 5.5 5.5C5.5 5.22386 5.72386 5 6 5H24Z" fill="#D0EFF7"/>
<path d="M24 8.5C24.2761 8.5 24.5 8.72386 24.5 9C24.5 9.27614 24.2761 9.5 24 9.5H6C5.72386 9.5 5.5 9.27614 5.5 9C5.5 8.72386 5.72386 8.5 6 8.5H24Z" fill="#D0EFF7"/>
<path d="M24 12C24.2761 12 24.5 12.2239 24.5 12.5C24.5 12.7761 24.2761 13 24 13H6C5.72386 13 5.5 12.7761 5.5 12.5C5.5 12.2239 5.72386 12 6 12H24Z" fill="#D0EFF7"/>
<path d="M24 15.5C24.2761 15.5 24.5 15.7239 24.5 16C24.5 16.2761 24.2761 16.5 24 16.5H6C5.72386 16.5 5.5 16.2761 5.5 16C5.5 15.7239 5.72386 15.5 6 15.5H24Z" fill="#D0EFF7"/>
<path d="M28 25.5C28.2761 25.5 28.5 25.7239 28.5 26C28.5 26.2761 28.2761 26.5 28 26.5L8 26.5C7.72386 26.5 7.5 26.2761 7.5 26C7.5 25.7239 7.72386 25.5 8 25.5L28 25.5Z" fill="#D0EFF7"/>
<path d="M5 25.5C5.27614 25.5 5.5 25.7239 5.5 26C5.5 26.2761 5.27614 26.5 5 26.5L2 26.5C1.72386 26.5 1.5 26.2761 1.5 26C1.5 25.7239 1.72386 25.5 2 25.5L5 25.5Z" fill="#D0EFF7"/>
<path d="M23.5997 22.7002C23.7653 22.4794 24.079 22.4342 24.2999 22.5996L28.2999 25.5996C28.4258 25.694 28.5001 25.8426 28.5001 26C28.5001 26.1574 28.4258 26.306 28.2999 26.4004L24.2999 29.4004C24.079 29.5658 23.7653 29.5206 23.5997 29.2998C23.4343 29.0789 23.4794 28.7652 23.7003 28.5996L27.1661 26L23.7003 23.4004C23.4794 23.2348 23.4343 22.9211 23.5997 22.7002Z" fill="#D0EFF7"/>
</g>
<defs>
<clipPath id="clip0_8_3778">
<rect width="30" height="30" fill="white"/>
</clipPath>
</defs>
</svg>
