<svg width="30" height="30" viewBox="0 0 30 30" fill="none" xmlns="http://www.w3.org/2000/svg">
<path d="M7 6C7 3.79086 8.79086 2 11 2H19C21.2091 2 23 3.79086 23 6V6C23 8.20914 21.2091 10 19 10H11C8.79086 10 7 8.20914 7 6V6Z" fill="#3B646B"/>
<path d="M22.5 6C22.5 4.067 20.933 2.5 19 2.5H11C9.067 2.5 7.5 4.067 7.5 6C7.5 7.933 9.067 9.5 11 9.5H19C20.933 9.5 22.5 7.933 22.5 6ZM23.5 6C23.5 8.48528 21.4853 10.5 19 10.5H11C8.51472 10.5 6.5 8.48528 6.5 6C6.5 3.51472 8.51472 1.5 11 1.5H19C21.4853 1.5 23.5 3.51472 23.5 6Z" fill="#D0EFF7"/>
<path d="M21 6C21 7.10457 20.1046 8 19 8C17.8954 8 17 7.10457 17 6C17 4.89543 17.8954 4 19 4C20.1046 4 21 4.89543 21 6Z" fill="#3B646B"/>
<path d="M20.5 6C20.5 5.17157 19.8284 4.5 19 4.5C18.1716 4.5 17.5 5.17157 17.5 6C17.5 6.82843 18.1716 7.5 19 7.5C19.8284 7.5 20.5 6.82843 20.5 6ZM21.5 6C21.5 7.38071 20.3807 8.5 19 8.5C17.6193 8.5 16.5 7.38071 16.5 6C16.5 4.61929 17.6193 3.5 19 3.5C20.3807 3.5 21.5 4.61929 21.5 6Z" fill="#D0EFF7"/>
<path d="M4 15C4 15.5523 3.55228 16 3 16C2.44772 16 2 15.5523 2 15C2 14.4477 2.44772 14 3 14C3.55228 14 4 14.4477 4 15Z" fill="#3B646B"/>
<path d="M3.5 15C3.5 14.7239 3.27614 14.5 3 14.5C2.72386 14.5 2.5 14.7239 2.5 15C2.5 15.2761 2.72386 15.5 3 15.5C3.27614 15.5 3.5 15.2761 3.5 15ZM4.5 15C4.5 15.8284 3.82843 16.5 3 16.5C2.17157 16.5 1.5 15.8284 1.5 15C1.5 14.1716 2.17157 13.5 3 13.5C3.82843 13.5 4.5 14.1716 4.5 15Z" fill="#D0EFF7"/>
<path d="M28 14.5C28.2761 14.5 28.5 14.7239 28.5 15C28.5 15.2761 28.2761 15.5 28 15.5L6 15.5C5.72386 15.5 5.5 15.2761 5.5 15C5.5 14.7239 5.72386 14.5 6 14.5L28 14.5Z" fill="#D0EFF7"/>
<path d="M4 21C4 21.5523 3.55228 22 3 22C2.44772 22 2 21.5523 2 21C2 20.4477 2.44772 20 3 20C3.55228 20 4 20.4477 4 21Z" fill="#3B646B"/>
<path d="M3.5 21C3.5 20.7239 3.27614 20.5 3 20.5C2.72386 20.5 2.5 20.7239 2.5 21C2.5 21.2761 2.72386 21.5 3 21.5C3.27614 21.5 3.5 21.2761 3.5 21ZM4.5 21C4.5 21.8284 3.82843 22.5 3 22.5C2.17157 22.5 1.5 21.8284 1.5 21C1.5 20.1716 2.17157 19.5 3 19.5C3.82843 19.5 4.5 20.1716 4.5 21Z" fill="#D0EFF7"/>
<path d="M28 20.5C28.2761 20.5 28.5 20.7239 28.5 21C28.5 21.2761 28.2761 21.5 28 21.5L6 21.5C5.72386 21.5 5.5 21.2761 5.5 21C5.5 20.7239 5.72386 20.5 6 20.5L28 20.5Z" fill="#D0EFF7"/>
<path d="M4 27C4 27.5523 3.55228 28 3 28C2.44772 28 2 27.5523 2 27C2 26.4477 2.44772 26 3 26C3.55228 26 4 26.4477 4 27Z" fill="#3B646B"/>
<path d="M3.5 27C3.5 26.7239 3.27614 26.5 3 26.5C2.72386 26.5 2.5 26.7239 2.5 27C2.5 27.2761 2.72386 27.5 3 27.5C3.27614 27.5 3.5 27.2761 3.5 27ZM4.5 27C4.5 27.8284 3.82843 28.5 3 28.5C2.17157 28.5 1.5 27.8284 1.5 27C1.5 26.1716 2.17157 25.5 3 25.5C3.82843 25.5 4.5 26.1716 4.5 27Z" fill="#D0EFF7"/>
<path d="M15 26.5C15.2761 26.5 15.5 26.7239 15.5 27C15.5 27.2761 15.2761 27.5 15 27.5L6 27.5C5.72386 27.5 5.5 27.2761 5.5 27C5.5 26.7239 5.72386 26.5 6 26.5L15 26.5Z" fill="#D0EFF7"/>
</svg>
