<svg width="30" height="30" viewBox="0 0 30 30" fill="none" xmlns="http://www.w3.org/2000/svg">
<g clip-path="url(#clip0_8_3021)">
<rect width="30" height="30" fill="white"/>
<path d="M1 2C1 1.44771 1.44772 1 2 1H28C28.5523 1 29 1.44772 29 2V28C29 28.5523 28.5523 29 28 29H2C1.44771 29 1 28.5523 1 28V2Z" fill="#D0EFF7"/>
<path d="M28.5 2C28.5 1.72386 28.2761 1.5 28 1.5H2C1.72386 1.5 1.5 1.72386 1.5 2V28C1.5 28.2761 1.72386 28.5 2 28.5H28C28.2761 28.5 28.5 28.2761 28.5 28V2ZM29.5 28C29.5 28.8284 28.8284 29.5 28 29.5H2C1.17157 29.5 0.5 28.8284 0.5 28V2C0.5 1.17157 1.17157 0.5 2 0.5H28C28.8284 0.5 29.5 1.17157 29.5 2V28Z" fill="#535D6B"/>
<path d="M12.2734 1.01661C12.54 1.08819 12.6984 1.36325 12.627 1.62989L10.6524 9H20.1436C20.4197 9 20.6436 9.22386 20.6436 9.5C20.6436 9.77615 20.4197 10 20.1436 10H10C9.84469 10 9.69816 9.92784 9.60353 9.80469C9.5089 9.68137 9.47638 9.52027 9.51661 9.37012L11.6611 1.37012C11.7329 1.10373 12.0069 0.945184 12.2734 1.01661Z" fill="#535D6B"/>
<path d="M15.6436 13.5V5.5C15.6436 5.22386 15.8675 5 16.1436 5C16.4198 5 16.6436 5.22386 16.6436 5.5V13.5C16.6436 13.7761 16.4198 14 16.1436 14C15.8675 14 15.6436 13.7761 15.6436 13.5Z" fill="#535D6B"/>
<path d="M19.5 29C19.5 27.7488 19.1213 26.8521 18.5352 26.2012C17.9407 25.5411 17.0981 25.0953 16.1152 24.8193C14.1382 24.2643 11.7263 24.4352 10.1025 24.7754C9.95516 24.8063 9.80145 24.7688 9.68457 24.6738C9.56786 24.579 9.50013 24.4365 9.5 24.2861V18C9.5 17.7239 9.72386 17.5 10 17.5H20C20.2761 17.5 20.5 17.7239 20.5 18C20.5 18.2761 20.2761 18.5 20 18.5H10.5V23.6836C12.1789 23.4046 14.4392 23.3103 16.3848 23.8564C17.485 24.1653 18.5177 24.6888 19.2773 25.5322C20.0454 26.3851 20.5 27.5274 20.5 29C20.5 29.2761 20.2761 29.5 20 29.5C19.7239 29.5 19.5 29.2761 19.5 29Z" fill="#535D6B"/>
</g>
<defs>
<clipPath id="clip0_8_3021">
<rect width="30" height="30" fill="white"/>
</clipPath>
</defs>
</svg>
