<svg width="30" height="30" viewBox="0 0 30 30" fill="none" xmlns="http://www.w3.org/2000/svg">
<rect width="30" height="30" fill="white"/>
<path d="M27 16.5C27 23.1274 21.6274 28.5 15 28.5C8.37258 28.5 3 23.1274 3 16.5C3 9.87258 8.37258 4.5 15 4.5C21.6274 4.5 27 9.87258 27 16.5Z" fill="#D0EFF7"/>
<path d="M26.5 16.5C26.5 10.1487 21.3513 5 15 5C8.64873 5 3.5 10.1487 3.5 16.5C3.5 22.8513 8.64873 28 15 28C21.3513 28 26.5 22.8513 26.5 16.5ZM27.5 16.5C27.5 23.4036 21.9036 29 15 29C8.09644 29 2.5 23.4036 2.5 16.5C2.5 9.59644 8.09644 4 15 4C21.9036 4 27.5 9.59644 27.5 16.5Z" fill="#535D6B"/>
<path d="M14.5 11.5C14.5 11.2239 14.7239 11 15 11C15.2761 11 15.5 11.2239 15.5 11.5V16.5H20.5C20.7761 16.5 21 16.7239 21 17C21 17.2761 20.7761 17.5 20.5 17.5H15C14.7239 17.5 14.5 17.2761 14.5 17V11.5Z" fill="#535D6B"/>
<path d="M14.5 4.5V1C14.5 0.723858 14.7239 0.5 15 0.5C15.2761 0.5 15.5 0.723858 15.5 1V4.5C15.5 4.77614 15.2761 5 15 5C14.7239 5 14.5 4.77614 14.5 4.5Z" fill="#535D6B"/>
<path d="M20 0.5C20.2761 0.5 20.5 0.723858 20.5 1C20.5 1.27614 20.2761 1.5 20 1.5H10C9.72386 1.5 9.5 1.27614 9.5 1C9.5 0.723858 9.72386 0.5 10 0.5H20Z" fill="#535D6B"/>
</svg>
