<svg width="30" height="30" viewBox="0 0 30 30" fill="none" xmlns="http://www.w3.org/2000/svg">
<rect width="30" height="30" fill="white"/>
<path d="M2 2C2 1.44771 2.44772 1 3 1H27C27.5523 1 28 1.44772 28 2V11C28 11.5523 27.5523 12 27 12H3C2.44772 12 2 11.5523 2 11V2Z" fill="#D0EFF7"/>
<path d="M27.5 2C27.5 1.72386 27.2761 1.5 27 1.5H3C2.72386 1.5 2.5 1.72386 2.5 2V11C2.5 11.2761 2.72386 11.5 3 11.5H27C27.2761 11.5 27.5 11.2761 27.5 11V2ZM28.5 11C28.5 11.8284 27.8284 12.5 27 12.5H3C2.17157 12.5 1.5 11.8284 1.5 11V2C1.5 1.17157 2.17157 0.5 3 0.5H27C27.8284 0.5 28.5 1.17157 28.5 2V11Z" fill="#535D6B"/>
<path d="M2 19C2 18.4477 2.44772 18 3 18H27C27.5523 18 28 18.4477 28 19V28C28 28.5523 27.5523 29 27 29H3C2.44772 29 2 28.5523 2 28V19Z" fill="#D0EFF7"/>
<path d="M27.5 19C27.5 18.7239 27.2761 18.5 27 18.5H3C2.72386 18.5 2.5 18.7239 2.5 19V28C2.5 28.2761 2.72386 28.5 3 28.5H27C27.2761 28.5 27.5 28.2761 27.5 28V19ZM28.5 28C28.5 28.8284 27.8284 29.5 27 29.5H3C2.17157 29.5 1.5 28.8284 1.5 28V19C1.5 18.1716 2.17157 17.5 3 17.5H27C27.8284 17.5 28.5 18.1716 28.5 19V28Z" fill="#535D6B"/>
<path d="M28 14.5C28.2761 14.5 28.5 14.7239 28.5 15C28.5 15.2761 28.2761 15.5 28 15.5H2C1.72386 15.5 1.5 15.2761 1.5 15C1.5 14.7239 1.72386 14.5 2 14.5H28Z" fill="#535D6B"/>
</svg>
