<svg width="30" height="30" viewBox="0 0 30 30" fill="none" xmlns="http://www.w3.org/2000/svg">
<path d="M14.5 25V5C14.5 4.72386 14.7239 4.5 15 4.5C15.2761 4.5 15.5 4.72386 15.5 5V25C15.5 25.2761 15.2761 25.5 15 25.5C14.7239 25.5 14.5 25.2761 14.5 25Z" fill="#D0EFF7"/>
<path d="M5.005 14.495L25.005 14.495C25.2811 14.495 25.505 14.7189 25.505 14.995C25.505 15.2711 25.2811 15.495 25.005 15.495L5.005 15.495C4.72886 15.495 4.505 15.2711 4.505 14.995C4.505 14.7189 4.72886 14.495 5.005 14.495Z" fill="#D0EFF7"/>
<path d="M15 4L18 9H12L15 4Z" fill="#3B646B"/>
<path d="M15 3.5C15.1757 3.5 15.3384 3.59256 15.4287 3.74316L18.4287 8.74316C18.5212 8.89745 18.524 9.08951 18.4356 9.24609C18.3468 9.40285 18.1802 9.5 18 9.5H12C11.8199 9.5 11.6532 9.40285 11.5645 9.24609C11.476 9.08951 11.4789 8.89745 11.5713 8.74316L14.5713 3.74316L14.6084 3.68945C14.7025 3.57078 14.8462 3.5 15 3.5ZM12.8828 8.5H17.1172L15 4.9707L12.8828 8.5Z" fill="#D0EFF7"/>
<path d="M15 26L12 21H18L15 26Z" fill="#3B646B"/>
<path d="M15 26.5C14.8243 26.5 14.6616 26.4074 14.5713 26.2568L11.5713 21.2568C11.4788 21.1025 11.476 20.9105 11.5644 20.7539C11.6532 20.5972 11.8198 20.5 12 20.5H18C18.1801 20.5 18.3468 20.5972 18.4355 20.7539C18.524 20.9105 18.5211 21.1025 18.4287 21.2568L15.4287 26.2568L15.3916 26.3105C15.2975 26.4292 15.1538 26.5 15 26.5ZM17.1172 21.5H12.8828L15 25.0293L17.1172 21.5Z" fill="#D0EFF7"/>
<path d="M26 15L21 18L21 12L26 15Z" fill="#3B646B"/>
<path d="M26.5 15C26.5 15.1756 26.4074 15.3383 26.2568 15.4287L21.2568 18.4287C21.1025 18.5211 20.9105 18.524 20.7539 18.4355C20.5972 18.3468 20.5 18.1801 20.5 18L20.5 12C20.5 11.8199 20.5972 11.6532 20.7539 11.5645C20.9105 11.476 21.1025 11.4789 21.2568 11.5713L26.2568 14.5713L26.3105 14.6084C26.4292 14.7025 26.5 14.8462 26.5 15ZM21.5 12.8828L21.5 17.1172L25.0293 15L21.5 12.8828Z" fill="#D0EFF7"/>
<path d="M4 15L9 18L9 12L4 15Z" fill="#3B646B"/>
<path d="M3.5 15C3.5 15.1756 3.59256 15.3383 3.74316 15.4287L8.74316 18.4287C8.89745 18.5211 9.08951 18.524 9.24609 18.4355C9.40285 18.3468 9.5 18.1801 9.5 18L9.5 12C9.5 11.8199 9.40285 11.6532 9.24609 11.5645C9.08951 11.476 8.89745 11.4789 8.74316 11.5713L3.74316 14.5713L3.68945 14.6084C3.57078 14.7025 3.5 14.8462 3.5 15ZM8.5 12.8828L8.5 17.1172L4.9707 15L8.5 12.8828Z" fill="#D0EFF7"/>
<path d="M20 1.5C20.2761 1.5 20.5 1.72386 20.5 2C20.5 2.27614 20.2761 2.5 20 2.5H10C9.72386 2.5 9.5 2.27614 9.5 2C9.5 1.72386 9.72386 1.5 10 1.5H20Z" fill="#D0EFF7"/>
<path d="M20 27.5C20.2761 27.5 20.5 27.7239 20.5 28C20.5 28.2761 20.2761 28.5 20 28.5H10C9.72386 28.5 9.5 28.2761 9.5 28C9.5 27.7239 9.72386 27.5 10 27.5H20Z" fill="#D0EFF7"/>
<path d="M1.5 10C1.5 9.72386 1.72386 9.5 2 9.5C2.27614 9.5 2.5 9.72386 2.5 10L2.5 19C2.5 19.2761 2.27614 19.5 2 19.5C1.72386 19.5 1.5 19.2761 1.5 19L1.5 10Z" fill="#D0EFF7"/>
<path d="M27.5 10C27.5 9.72386 27.7239 9.5 28 9.5C28.2761 9.5 28.5 9.72386 28.5 10L28.5 19C28.5 19.2761 28.2761 19.5 28 19.5C27.7239 19.5 27.5 19.2761 27.5 19L27.5 10Z" fill="#D0EFF7"/>
</svg>
