<svg width="30" height="30" viewBox="0 0 30 30" fill="none" xmlns="http://www.w3.org/2000/svg">
<rect width="30" height="30" fill="white"/>
<path d="M1 4.24L15 1V28L1 24.76V4.24Z" fill="white"/>
<path d="M14.8877 0.512691C15.0361 0.478497 15.1923 0.513633 15.3115 0.608394C15.4308 0.703252 15.5 0.84762 15.5 0.999996V28C15.5 28.1524 15.4308 28.2967 15.3115 28.3916C15.1923 28.4864 15.0361 28.5215 14.8877 28.4873L0.887695 25.2471C0.660977 25.1946 0.5 24.9925 0.5 24.7598V4.24023C0.5 4.00752 0.660977 3.80539 0.887695 3.75293L14.8877 0.512691ZM1.5 4.63769V24.3613L14.5 27.3701V1.6289L1.5 4.63769Z" fill="#535D6B"/>
<path d="M29 4.24L15 1V28L29 24.76V4.24Z" fill="white"/>
<path d="M15.1123 0.512691C14.9639 0.478497 14.8077 0.513633 14.6885 0.608394C14.5692 0.703252 14.5 0.84762 14.5 0.999996V28C14.5 28.1524 14.5692 28.2967 14.6885 28.3916C14.8077 28.4864 14.9639 28.5215 15.1123 28.4873L29.1123 25.2471C29.339 25.1946 29.5 24.9925 29.5 24.7598V4.24023C29.5 4.00752 29.339 3.80539 29.1123 3.75293L15.1123 0.512691ZM28.5 4.63769V24.3613L15.5 27.3701V1.6289L28.5 4.63769Z" fill="#535D6B"/>
<path d="M3 6.74154L12 5V16L3 14.9508V6.74154Z" fill="#D0EFF7"/>
<path d="M11.9053 4.50878C12.0517 4.48054 12.2033 4.51934 12.3184 4.61425C12.4334 4.70923 12.5 4.85077 12.5 4.99999V16C12.5 16.1427 12.4386 16.2782 12.332 16.373C12.2255 16.4678 12.084 16.5135 11.9424 16.4971L2.94238 15.4473C2.69048 15.4179 2.5002 15.2047 2.5 14.9512V6.7412C2.50015 6.50183 2.67023 6.29645 2.90527 6.25097L11.9053 4.50878ZM3.5 7.15331V14.5049L11.5 15.4375V5.60546L3.5 7.15331Z" fill="#535D6B"/>
<path d="M3.05565 17.0029L12.0557 18.0029C12.3299 18.0336 12.5275 18.2814 12.4971 18.5557C12.4664 18.8299 12.2186 19.0276 11.9443 18.9971L2.94432 17.9971C2.67009 17.9664 2.47244 17.7186 2.50292 17.4443C2.53362 17.1701 2.78134 16.9725 3.05565 17.0029Z" fill="#535D6B"/>
<path d="M3.05565 19.5029L12.0557 20.5029C12.3299 20.5336 12.5275 20.7814 12.4971 21.0557C12.4664 21.3299 12.2186 21.5276 11.9443 21.4971L2.94432 20.4971C2.67009 20.4664 2.47244 20.2186 2.50292 19.9443C2.53362 19.6701 2.78134 19.4725 3.05565 19.5029Z" fill="#535D6B"/>
<path d="M3.08987 21.5078L8.58987 22.5078C8.86137 22.5574 9.04159 22.8183 8.99221 23.0898C8.94266 23.3613 8.68176 23.5416 8.41018 23.4922L2.91018 22.4922C2.63869 22.4426 2.45846 22.1817 2.50784 21.9102C2.55739 21.6387 2.8183 21.4584 3.08987 21.5078Z" fill="#535D6B"/>
<path d="M27 6.74154L18 5V16L27 14.9508V6.74154Z" fill="#D0EFF7"/>
<path d="M18.0947 4.50878C17.9483 4.48054 17.7967 4.51934 17.6816 4.61425C17.5666 4.70923 17.5 4.85077 17.5 4.99999V16C17.5 16.1427 17.5614 16.2782 17.668 16.373C17.7745 16.4678 17.916 16.5135 18.0576 16.4971L27.0576 15.4473C27.3095 15.4179 27.4998 15.2047 27.5 14.9512V6.7412C27.4998 6.50183 27.3298 6.29645 27.0947 6.25097L18.0947 4.50878ZM26.5 7.15331V14.5049L18.5 15.4375V5.60546L26.5 7.15331Z" fill="#535D6B"/>
<path d="M26.9443 17.0029L17.9443 18.0029C17.6701 18.0336 17.4725 18.2814 17.5029 18.5557C17.5336 18.8299 17.7814 19.0276 18.0557 18.9971L27.0557 17.9971C27.3299 17.9664 27.5276 17.7186 27.4971 17.4443C27.4664 17.1701 27.2187 16.9725 26.9443 17.0029Z" fill="#535D6B"/>
<path d="M26.9443 19.5029L17.9443 20.5029C17.6701 20.5336 17.4725 20.7814 17.5029 21.0557C17.5336 21.3299 17.7814 21.5276 18.0557 21.4971L27.0557 20.4971C27.3299 20.4664 27.5276 20.2186 27.4971 19.9443C27.4664 19.6701 27.2187 19.4725 26.9443 19.5029Z" fill="#535D6B"/>
<path d="M26.9101 21.5078L21.4101 22.5078C21.1386 22.5574 20.9584 22.8183 21.0078 23.0898C21.0573 23.3613 21.3182 23.5416 21.5898 23.4922L27.0898 22.4922C27.3613 22.4426 27.5415 22.1817 27.4922 21.9102C27.4426 21.6387 27.1817 21.4584 26.9101 21.5078Z" fill="#535D6B"/>
</svg>
