<svg width="30" height="30" viewBox="0 0 30 30" fill="none" xmlns="http://www.w3.org/2000/svg">
<rect width="30" height="30" fill="white"/>
<path d="M2 1H28V9H2V1Z" fill="white"/>
<path d="M28 0.5C28.2761 0.5 28.5 0.723858 28.5 1V9C28.5 9.27614 28.2761 9.5 28 9.5H2C1.72386 9.5 1.5 9.27614 1.5 9V1C1.5 0.723858 1.72386 0.5 2 0.5H28ZM2.5 8.5H27.5V1.5H2.5V8.5Z" fill="#535D6B"/>
<path d="M3.5 7V3C3.5 2.72386 3.72386 2.5 4 2.5C4.27614 2.5 4.5 2.72386 4.5 3V7C4.5 7.27614 4.27614 7.5 4 7.5C3.72386 7.5 3.5 7.27614 3.5 7Z" fill="#535D6B"/>
<path d="M2 12H10V19H2V12Z" fill="white"/>
<path d="M10 11.5C10.2761 11.5 10.5 11.7239 10.5 12V19C10.5 19.2761 10.2761 19.5 10 19.5H2C1.72386 19.5 1.5 19.2761 1.5 19V12C1.5 11.7239 1.72386 11.5 2 11.5H10ZM2.5 18.5H9.5V12.5H2.5V18.5Z" fill="#535D6B"/>
<path d="M13 15.5C13 13.567 14.567 12 16.5 12H24.5C26.433 12 28 13.567 28 15.5V15.5C28 17.433 26.433 19 24.5 19H16.5C14.567 19 13 17.433 13 15.5V15.5Z" fill="#D0EFF7"/>
<path d="M27.5 15.5C27.5 13.8431 26.1569 12.5 24.5 12.5H16.5C14.8431 12.5 13.5 13.8431 13.5 15.5C13.5 17.1569 14.8431 18.5 16.5 18.5H24.5C26.1569 18.5 27.5 17.1569 27.5 15.5ZM28.5 15.5C28.5 17.7091 26.7091 19.5 24.5 19.5H16.5C14.2909 19.5 12.5 17.7091 12.5 15.5C12.5 13.2909 14.2909 11.5 16.5 11.5H24.5C26.7091 11.5 28.5 13.2909 28.5 15.5Z" fill="#535D6B"/>
<path d="M2 22H19V29H2V22Z" fill="#D0EFF7"/>
<path d="M19 21.5C19.2761 21.5 19.5 21.7239 19.5 22V29C19.5 29.2761 19.2761 29.5 19 29.5H2C1.72386 29.5 1.5 29.2761 1.5 29V22C1.5 21.7239 1.72386 21.5 2 21.5H19ZM2.5 28.5H18.5V22.5H2.5V28.5Z" fill="#535D6B"/>
<path d="M18 15.5C18 16.3284 17.3284 17 16.5 17C15.6716 17 15 16.3284 15 15.5C15 14.6716 15.6716 14 16.5 14C17.3284 14 18 14.6716 18 15.5Z" fill="#535D6B"/>
<path d="M7.60938 13.6885C7.78155 13.4726 8.09564 13.4372 8.31153 13.6094C8.52742 13.7815 8.5628 14.0956 8.39063 14.3115L5.99903 17.3115C5.90437 17.4302 5.76023 17.4997 5.60841 17.5C5.45669 17.5002 5.31285 17.4317 5.21778 17.3135L3.61036 15.3135C3.43739 15.0983 3.47145 14.7834 3.68653 14.6103C3.90171 14.4374 4.21662 14.4714 4.38966 14.6865L5.60548 16.2002L7.60938 13.6885Z" fill="#535D6B"/>
<path d="M21 25.5C21 23.567 22.567 22 24.5 22V22C26.433 22 28 23.567 28 25.5V25.5C28 27.433 26.433 29 24.5 29V29C22.567 29 21 27.433 21 25.5V25.5Z" fill="white"/>
<path d="M27.5 25.5C27.5 23.8431 26.1569 22.5 24.5 22.5C22.8431 22.5 21.5 23.8431 21.5 25.5C21.5 27.1569 22.8431 28.5 24.5 28.5C26.1569 28.5 27.5 27.1569 27.5 25.5ZM28.5 25.5C28.5 27.7091 26.7091 29.5 24.5 29.5C22.2909 29.5 20.5 27.7091 20.5 25.5C20.5 23.2909 22.2909 21.5 24.5 21.5C26.7091 21.5 28.5 23.2909 28.5 25.5Z" fill="#535D6B"/>
<path d="M26 25.5C26 26.3284 25.3284 27 24.5 27C23.6716 27 23 26.3284 23 25.5C23 24.6716 23.6716 24 24.5 24C25.3284 24 26 24.6716 26 25.5Z" fill="#535D6B"/>
</svg>
