<svg width="30" height="30" viewBox="0 0 30 30" fill="none" xmlns="http://www.w3.org/2000/svg">
<path d="M17.675 20.7486H8.69375L7.625 23.2283C7.275 24.0549 7.1 24.7375 7.1 25.276C7.1 25.9899 7.3875 26.5159 7.9625 26.854C8.3 27.0544 9.13125 27.2047 10.4563 27.3049V28H2V27.3049C2.9125 27.1671 3.6625 26.7914 4.25 26.1777C4.8375 25.5515 5.5625 24.2678 6.425 22.3266L15.5188 2H15.875L25.0438 22.8902C25.9188 24.869 26.6375 26.1151 27.2 26.6286C27.625 27.0169 28.225 27.2423 29 27.3049V28H16.7V27.3049H17.2063C18.1938 27.3049 18.8875 27.1671 19.2875 26.8916C19.5625 26.6912 19.7 26.4032 19.7 26.0275C19.7 25.802 19.6625 25.5703 19.5875 25.3324C19.5625 25.2197 19.375 24.75 19.025 23.9234L17.675 20.7486ZM17.0375 19.3584L13.25 10.5853L9.35 19.3584H17.0375Z" fill="#3B646B"/>
<path d="M6.59961 25.2764C6.59961 24.6407 6.80405 23.8858 7.16504 23.0332L7.16602 23.0303L8.23438 20.5508L8.26855 20.4854C8.35866 20.3397 8.51869 20.2492 8.69336 20.249H17.6748L17.749 20.2539C17.9191 20.2793 18.066 20.3914 18.1348 20.5527L19.4854 23.7275V23.7285C19.6608 24.1429 19.7969 24.4704 19.8926 24.71C19.9689 24.9011 20.0308 25.0716 20.0615 25.1816H20.0645C20.1531 25.463 20.2002 25.7458 20.2002 26.0273C20.2002 26.5436 20.001 26.9906 19.582 27.2959L19.5713 27.3037C19.4607 27.3799 19.336 27.443 19.2012 27.5H27.6592C27.3619 27.3731 27.0936 27.2093 26.8623 26.998C26.5231 26.6883 26.1721 26.1939 25.8057 25.5586C25.4343 24.9146 25.0283 24.0909 24.5869 23.0928L24.5859 23.0908L15.6934 2.83203L6.88184 22.5312L6.88086 22.5303C6.01962 24.4686 5.26611 25.8247 4.61426 26.5195L4.61133 26.5234C4.19976 26.9533 3.71856 27.2776 3.1748 27.5H8.26465C8.04669 27.441 7.85584 27.3725 7.70703 27.2842V27.2832C6.9683 26.8478 6.59971 26.1512 6.59961 25.2764ZM13.2529 10.085C13.4513 10.0861 13.6302 10.2047 13.709 10.3867L17.4961 19.1602C17.5628 19.3146 17.5475 19.4922 17.4551 19.6328C17.3626 19.7734 17.2054 19.8584 17.0371 19.8584H9.34961C9.1805 19.8583 9.02282 19.7727 8.93066 19.6309C8.83844 19.4889 8.8248 19.3099 8.89355 19.1553L12.793 10.3818C12.8737 10.2005 13.0545 10.0839 13.2529 10.085ZM10.1191 18.8584H16.2764L13.2432 11.8311L10.1191 18.8584ZM7.59961 25.2764C7.5997 25.8279 7.8064 26.182 8.21582 26.4229L8.21777 26.4238C8.30389 26.475 8.51912 26.5511 8.92773 26.625C9.31967 26.6959 9.8403 26.7572 10.4941 26.8066C10.7547 26.8265 10.9559 27.0433 10.9561 27.3047V28C10.9561 28.2761 10.7322 28.5 10.4561 28.5H2C1.72386 28.5 1.5 28.2761 1.5 28V27.3047C1.50011 27.0575 1.68131 26.8475 1.92578 26.8105C2.73874 26.6877 3.38445 26.3587 3.88867 25.832C4.41129 25.273 5.10613 24.0633 5.96777 22.124L5.96875 22.1221L15.0625 1.7959L15.0967 1.73145C15.1875 1.58868 15.3461 1.50007 15.5186 1.5H15.875C16.0734 1.5 16.2532 1.6172 16.333 1.79883L25.501 22.6875C25.9344 23.6676 26.3247 24.4566 26.6719 25.0586C26.9799 25.5927 27.2405 25.9551 27.4502 26.1738L27.5371 26.2598L27.6641 26.3643C27.9792 26.5982 28.425 26.7569 29.04 26.8066C29.2996 26.8276 29.4999 27.0443 29.5 27.3047V28C29.5 28.2761 29.2761 28.5 29 28.5H16.7002C16.4241 28.5 16.2002 28.2761 16.2002 28V27.3047C16.2003 27.0286 16.4241 26.8047 16.7002 26.8047H17.2061C18.1713 26.8047 18.7285 26.6639 18.9971 26.4824C19.125 26.3873 19.2002 26.2595 19.2002 26.0273C19.2002 25.8581 19.1716 25.6768 19.1104 25.4824C19.106 25.4687 19.1027 25.4545 19.0996 25.4404C19.1015 25.4488 19.0958 25.4278 19.0684 25.3525C19.0442 25.2864 19.0099 25.1963 18.9639 25.0811C18.8721 24.8511 18.7388 24.531 18.5645 24.1191L17.3447 21.249H9.02246L8.08398 23.4258C7.74577 24.2251 7.59961 24.8355 7.59961 25.2764Z" fill="#D0EFF7"/>
</svg>
