<svg width="30" height="30" viewBox="0 0 30 30" fill="none" xmlns="http://www.w3.org/2000/svg">
<rect width="30" height="30" fill="white"/>
<path d="M1 3C1 2.44772 1.44772 2 2 2H8C8.55228 2 9 2.44772 9 3V21C9 21.5523 8.55228 22 8 22H2C1.44772 22 1 21.5523 1 21V3Z" fill="#D0EFF7"/>
<path d="M8.5 3C8.5 2.72386 8.27614 2.5 8 2.5H2C1.72386 2.5 1.5 2.72386 1.5 3V21C1.5 21.2761 1.72386 21.5 2 21.5H8C8.27614 21.5 8.5 21.2761 8.5 21V3ZM9.5 21C9.5 21.8284 8.82843 22.5 8 22.5H2C1.17157 22.5 0.5 21.8284 0.5 21V3C0.5 2.17157 1.17157 1.5 2 1.5H8C8.82843 1.5 9.5 2.17157 9.5 3V21Z" fill="#535D6B"/>
<path d="M11 3C11 2.44772 11.4477 2 12 2H18C18.5523 2 19 2.44772 19 3V21C19 21.5523 18.5523 22 18 22H12C11.4477 22 11 21.5523 11 21V3Z" fill="#D0EFF7"/>
<path d="M18.5 3C18.5 2.72386 18.2761 2.5 18 2.5H12C11.7239 2.5 11.5 2.72386 11.5 3V21C11.5 21.2761 11.7239 21.5 12 21.5H18C18.2761 21.5 18.5 21.2761 18.5 21V3ZM19.5 21C19.5 21.8284 18.8284 22.5 18 22.5H12C11.1716 22.5 10.5 21.8284 10.5 21V3C10.5 2.17157 11.1716 1.5 12 1.5H18C18.8284 1.5 19.5 2.17157 19.5 3V21Z" fill="#535D6B"/>
<path d="M21 3C21 2.44772 21.4477 2 22 2H28C28.5523 2 29 2.44772 29 3V21C29 21.5523 28.5523 22 28 22H22C21.4477 22 21 21.5523 21 21V3Z" fill="#D0EFF7"/>
<path d="M28.5 3C28.5 2.72386 28.2761 2.5 28 2.5H22C21.7239 2.5 21.5 2.72386 21.5 3V21C21.5 21.2761 21.7239 21.5 22 21.5H28C28.2761 21.5 28.5 21.2761 28.5 21V3ZM29.5 21C29.5 21.8284 28.8284 22.5 28 22.5H22C21.1716 22.5 20.5 21.8284 20.5 21V3C20.5 2.17157 21.1716 1.5 22 1.5H28C28.8284 1.5 29.5 2.17157 29.5 3V21Z" fill="#535D6B"/>
<path d="M11 27.5L7 27.5C6.72386 27.5 6.5 27.2761 6.5 27C6.5 26.7239 6.72386 26.5 7 26.5L11 26.5C11.2761 26.5 11.5 26.7239 11.5 27C11.5 27.2761 11.2761 27.5 11 27.5Z" fill="#535D6B"/>
<path d="M23 27.5L19 27.5C18.7239 27.5 18.5 27.2761 18.5 27C18.5 26.7239 18.7239 26.5 19 26.5L23 26.5C23.2761 26.5 23.5 26.7239 23.5 27C23.5 27.2761 23.2761 27.5 23 27.5Z" fill="#535D6B"/>
<path d="M3 25C4.10457 25 5 25.8954 5 27C5 28.1046 4.10457 29 3 29C1.89543 29 1 28.1046 1 27C1 25.8954 1.89543 25 3 25Z" fill="#535D6B"/>
<path d="M15 25C16.1046 25 17 25.8954 17 27C17 28.1046 16.1046 29 15 29C13.8954 29 13 28.1046 13 27C13 25.8954 13.8954 25 15 25Z" fill="#535D6B"/>
<path d="M27 25C28.1046 25 29 25.8954 29 27C29 28.1046 28.1046 29 27 29C25.8954 29 25 28.1046 25 27C25 25.8954 25.8954 25 27 25Z" fill="#535D6B"/>
</svg>
