<svg width="30" height="30" viewBox="0 0 30 30" fill="none" xmlns="http://www.w3.org/2000/svg">
<path d="M1 4C1 2.89543 1.89543 2 3 2H7C8.10457 2 9 2.89543 9 4V20C9 21.1046 8.10457 22 7 22H3C1.89543 22 1 21.1046 1 20V4Z" fill="#3B646B"/>
<path d="M8.5 4C8.5 3.17157 7.82843 2.5 7 2.5H3C2.17157 2.5 1.5 3.17157 1.5 4V20C1.5 20.8284 2.17157 21.5 3 21.5H7C7.82843 21.5 8.5 20.8284 8.5 20V4ZM9.5 20C9.5 21.3807 8.38071 22.5 7 22.5H3C1.61929 22.5 0.5 21.3807 0.5 20V4C0.5 2.61929 1.61929 1.5 3 1.5H7C8.38071 1.5 9.5 2.61929 9.5 4V20Z" fill="#D0EFF7"/>
<path d="M11 4C11 2.89543 11.8954 2 13 2H17C18.1046 2 19 2.89543 19 4V20C19 21.1046 18.1046 22 17 22H13C11.8954 22 11 21.1046 11 20V4Z" fill="#3B646B"/>
<path d="M18.5 4C18.5 3.17157 17.8284 2.5 17 2.5H13C12.1716 2.5 11.5 3.17157 11.5 4V20C11.5 20.8284 12.1716 21.5 13 21.5H17C17.8284 21.5 18.5 20.8284 18.5 20V4ZM19.5 20C19.5 21.3807 18.3807 22.5 17 22.5H13C11.6193 22.5 10.5 21.3807 10.5 20V4C10.5 2.61929 11.6193 1.5 13 1.5H17C18.3807 1.5 19.5 2.61929 19.5 4V20Z" fill="#D0EFF7"/>
<path d="M21 4C21 2.89543 21.8954 2 23 2H27C28.1046 2 29 2.89543 29 4V20C29 21.1046 28.1046 22 27 22H23C21.8954 22 21 21.1046 21 20V4Z" fill="#3B646B"/>
<path d="M28.5 4C28.5 3.17157 27.8284 2.5 27 2.5H23C22.1716 2.5 21.5 3.17157 21.5 4V20C21.5 20.8284 22.1716 21.5 23 21.5H27C27.8284 21.5 28.5 20.8284 28.5 20V4ZM29.5 20C29.5 21.3807 28.3807 22.5 27 22.5H23C21.6193 22.5 20.5 21.3807 20.5 20V4C20.5 2.61929 21.6193 1.5 23 1.5H27C28.3807 1.5 29.5 2.61929 29.5 4V20Z" fill="#D0EFF7"/>
<path d="M11 27.5L7 27.5C6.72386 27.5 6.5 27.2761 6.5 27C6.5 26.7239 6.72386 26.5 7 26.5L11 26.5C11.2761 26.5 11.5 26.7239 11.5 27C11.5 27.2761 11.2761 27.5 11 27.5Z" fill="#D0EFF7"/>
<path d="M23 27.5L19 27.5C18.7239 27.5 18.5 27.2761 18.5 27C18.5 26.7239 18.7239 26.5 19 26.5L23 26.5C23.2761 26.5 23.5 26.7239 23.5 27C23.5 27.2761 23.2761 27.5 23 27.5Z" fill="#D0EFF7"/>
<path d="M3 25C4.10457 25 5 25.8954 5 27C5 28.1046 4.10457 29 3 29C1.89543 29 1 28.1046 1 27C1 25.8954 1.89543 25 3 25Z" fill="#D0EFF7"/>
<path d="M15 25C16.1046 25 17 25.8954 17 27C17 28.1046 16.1046 29 15 29C13.8954 29 13 28.1046 13 27C13 25.8954 13.8954 25 15 25Z" fill="#D0EFF7"/>
<path d="M27 25C28.1046 25 29 25.8954 29 27C29 28.1046 28.1046 29 27 29C25.8954 29 25 28.1046 25 27C25 25.8954 25.8954 25 27 25Z" fill="#D0EFF7"/>
</svg>
