<svg width="30" height="30" viewBox="0 0 30 30" fill="none" xmlns="http://www.w3.org/2000/svg">
<g clip-path="url(#clip0_8_3618)">
<path d="M5 9C7.20914 9 9 7.20914 9 5C9 2.79086 7.20914 1 5 1C2.79086 1 1 2.79086 1 5C1 7.20914 2.79086 9 5 9Z" fill="#3B646B"/>
<path d="M8.5 5C8.5 3.067 6.933 1.5 5 1.5C3.067 1.5 1.5 3.067 1.5 5C1.5 6.933 3.067 8.5 5 8.5C6.933 8.5 8.5 6.933 8.5 5ZM5.5 3.40039V4.5H6.59961V5.5H5.5V6.59961H4.5V5.5H3.40039V4.5H4.5V3.40039H5.5ZM9.5 5C9.5 7.48528 7.48528 9.5 5 9.5C2.51472 9.5 0.5 7.48528 0.5 5C0.5 2.51472 2.51472 0.5 5 0.5C7.48528 0.5 9.5 2.51472 9.5 5Z" fill="#D0EFF7"/>
<path d="M25 19C27.2091 19 29 17.2091 29 15C29 12.7909 27.2091 11 25 11C22.7909 11 21 12.7909 21 15C21 17.2091 22.7909 19 25 19Z" fill="#3B646B"/>
<path d="M28.5 15C28.5 13.067 26.933 11.5 25 11.5C23.067 11.5 21.5 13.067 21.5 15C21.5 16.933 23.067 18.5 25 18.5C26.933 18.5 28.5 16.933 28.5 15ZM25.5 13.4004V14.5H26.5996V15.5H25.5V16.5996H24.5V15.5H23.4004V14.5H24.5V13.4004H25.5ZM29.5 15C29.5 17.4853 27.4853 19.5 25 19.5C22.5147 19.5 20.5 17.4853 20.5 15C20.5 12.5147 22.5147 10.5 25 10.5C27.4853 10.5 29.5 12.5147 29.5 15Z" fill="#D0EFF7"/>
<path d="M5 29C7.20914 29 9 27.2091 9 25C9 22.7909 7.20914 21 5 21C2.79086 21 1 22.7909 1 25C1 27.2091 2.79086 29 5 29Z" fill="#3B646B"/>
<path d="M8.5 25C8.5 23.067 6.933 21.5 5 21.5C3.067 21.5 1.5 23.067 1.5 25C1.5 26.933 3.067 28.5 5 28.5C6.933 28.5 8.5 26.933 8.5 25ZM5.5 23.4004V24.5H6.59961V25.5H5.5V26.5996H4.5V25.5H3.40039V24.5H4.5V23.4004H5.5ZM9.5 25C9.5 27.4853 7.48528 29.5 5 29.5C2.51472 29.5 0.5 27.4853 0.5 25C0.5 22.5147 2.51472 20.5 5 20.5C7.48528 20.5 9.5 22.5147 9.5 25Z" fill="#D0EFF7"/>
<path d="M16 13.333L19 15L16 16.667V19H2V11H16V13.333Z" fill="#3B646B"/>
<path d="M16 10.5C16.2761 10.5 16.5 10.7239 16.5 11V13.0381L19.2432 14.5625C19.4018 14.6507 19.5 14.8184 19.5 15C19.5 15.1816 19.4018 15.3493 19.2432 15.4375L16.5 16.9609V19C16.5 19.2761 16.2761 19.5 16 19.5H2C1.72386 19.5 1.5 19.2761 1.5 19V11C1.5 10.7239 1.72386 10.5 2 10.5H16ZM2.5 18.5H15.5V16.667C15.5 16.4854 15.5982 16.3177 15.7568 16.2295L17.9688 15L15.7568 13.7705C15.5982 13.6823 15.5 13.5146 15.5 13.333V11.5H2.5V18.5Z" fill="#D0EFF7"/>
</g>
<defs>
<clipPath id="clip0_8_3618">
<rect width="30" height="30" fill="white"/>
</clipPath>
</defs>
</svg>
