<svg width="30" height="30" viewBox="0 0 30 30" fill="none" xmlns="http://www.w3.org/2000/svg">
<g clip-path="url(#clip0_8_3097)">
<rect width="30" height="30" fill="white"/>
<path d="M23.2617 5.19791C23.5499 5.89515 24.1033 6.44936 24.8001 6.7387L27.2433 7.75077C27.9406 8.0396 28.4946 8.59359 28.7834 9.29088C29.0722 9.98817 29.0722 10.7716 28.7834 11.4689L27.7721 13.9105C27.4831 14.6081 27.4827 15.3924 27.773 16.0896L28.7825 18.5305C28.9257 18.8759 28.9994 19.2461 28.9995 19.6199C28.9996 19.9938 28.926 20.364 28.7829 20.7094C28.6398 21.0548 28.4301 21.3686 28.1657 21.633C27.9013 21.8973 27.5874 22.1069 27.242 22.2499L24.8005 23.2612C24.1033 23.5495 23.5491 24.1029 23.2598 24.7997L22.2477 27.243C21.9589 27.9403 21.4049 28.4943 20.7077 28.7831C20.0104 29.072 19.227 29.072 18.5297 28.7831L16.0882 27.7718C15.3909 27.4837 14.6078 27.4843 13.9109 27.7734L11.4676 28.7841C10.7708 29.0722 9.98801 29.072 9.29132 28.7834C8.59462 28.4948 8.04095 27.9414 7.75194 27.2449L6.73961 24.8008C6.45132 24.1036 5.89796 23.5494 5.20119 23.26L2.75793 22.248C2.06097 21.9593 1.50716 21.4056 1.21824 20.7087C0.929312 20.0118 0.928919 19.2287 1.21715 18.5316L2.22845 16.09C2.51656 15.3927 2.51597 14.6095 2.22681 13.9126L1.21696 11.4675C1.07378 11.1221 1.00006 10.7519 1 10.3781C0.99994 10.0042 1.07355 9.63401 1.21661 9.28861C1.35968 8.9432 1.5694 8.62937 1.83379 8.36505C2.09819 8.10073 2.41207 7.89111 2.75751 7.74815L5.19902 6.7368C5.89562 6.44876 6.44948 5.89608 6.73902 5.20008L7.75105 2.75673C8.03987 2.05944 8.59385 1.50545 9.29111 1.21662C9.98838 0.927793 10.7718 0.927793 11.4691 1.21662L13.9106 2.22796C14.6079 2.51608 15.391 2.51549 16.0879 2.22632L18.5322 1.21819C19.2293 0.929524 20.0126 0.929583 20.7097 1.21835C21.4069 1.50712 21.9608 2.06096 22.2496 2.75807L23.262 5.20214L23.2617 5.19791Z" fill="#D0EFF7"/>
<path d="M0.5 10.3779C0.499961 9.93855 0.58678 9.5036 0.754883 9.09765C0.923077 8.69158 1.16964 8.32247 1.48047 8.01171C1.79132 7.70095 2.16027 7.45421 2.56641 7.28613L5.00781 6.27441C5.58202 6.03698 6.03867 5.58153 6.27734 5.00781L7.28906 2.56543C7.6286 1.74569 8.27992 1.09448 9.09961 0.754879C9.91934 0.415323 10.8404 0.415368 11.6602 0.754879L14.1016 1.76562L14.3203 1.84375C14.8367 1.99943 15.3939 1.97318 15.8965 1.76464L15.8975 1.76367L18.3408 0.756832V0.755855C19.1605 0.416501 20.0818 0.417332 20.9014 0.756832C21.7208 1.09638 22.3723 1.74699 22.7119 2.5664L23.7158 4.99218C23.7181 4.9972 23.7215 5.00171 23.7236 5.00683C23.9611 5.58105 24.4166 6.03768 24.9902 6.27636H24.9912L27.4346 7.28906C28.2543 7.62863 28.9056 8.27981 29.2451 9.09961C29.5847 9.9194 29.5847 10.8404 29.2451 11.6602L28.2344 14.1016C27.9961 14.6768 27.9954 15.3234 28.2344 15.8975L28.2354 15.8984L29.2441 18.3389C29.4125 18.7449 29.499 19.1806 29.499 19.6201C29.4991 20.0594 29.4132 20.4945 29.2451 20.9004C29.077 21.3064 28.8302 21.6756 28.5195 21.9863C28.2088 22.297 27.8396 22.5438 27.4336 22.7119L24.9922 23.7236H24.9912C24.4885 23.9316 24.0763 24.3069 23.8213 24.7822L23.7217 24.9912L22.71 27.4346C22.3704 28.2542 21.719 28.9055 20.8994 29.2451C20.0796 29.5847 19.1577 29.5847 18.3379 29.2451L15.8975 28.2334V28.2344C15.3227 27.9969 14.6769 27.997 14.1025 28.2353H14.1016L11.6592 29.2461C10.8399 29.5849 9.91873 29.5844 9.09961 29.2451C8.33181 28.927 7.71185 28.3353 7.35742 27.5879L7.29004 27.4365L6.27734 24.9922C6.06938 24.4892 5.69419 24.0764 5.21875 23.8213L5.00977 23.7217L2.56641 22.71C1.74715 22.3706 1.09654 21.7195 0.756836 20.9004C0.41715 20.0811 0.416017 19.1595 0.754883 18.3398L1.7666 15.8984C2.00382 15.3238 2.00287 14.6787 1.76465 14.1045V14.1035L0.754883 11.6592L0.695313 11.5059C0.565891 11.1445 0.500062 10.7626 0.5 10.3779ZM1.5 10.3779C1.50004 10.609 1.53472 10.8383 1.60156 11.0586L1.67871 11.2764L2.68848 13.7207C3.00718 14.4888 3.02777 15.3463 2.75 16.126L2.69043 16.2812L1.67871 18.7217C1.44112 19.2964 1.44153 19.9431 1.67969 20.5176C1.91786 21.092 2.37477 21.5482 2.94922 21.7861L5.39258 22.7978L5.54492 22.8652C6.29252 23.2201 6.8844 23.841 7.20215 24.6094L8.21387 27.0537L8.31348 27.2627C8.56824 27.7378 8.98005 28.1131 9.48242 28.3213C10.0566 28.5591 10.702 28.5597 11.2764 28.3223L13.7197 27.3115L13.874 27.2519C14.6012 26.9916 15.3964 26.9908 16.124 27.25L16.2793 27.3096L18.7207 28.3213C19.2955 28.5594 19.9419 28.5594 20.5166 28.3213C21.0913 28.0832 21.5481 27.6265 21.7861 27.0518L22.7979 24.6084L22.8652 24.4561C23.2201 23.7084 23.841 23.1166 24.6094 22.7988L27.0508 21.7881L27.2588 21.6894C27.4621 21.5809 27.6489 21.4428 27.8125 21.2793C28.0303 21.0615 28.2034 20.8031 28.3213 20.5186C28.4392 20.2339 28.4991 19.9283 28.499 19.6201C28.499 19.3891 28.4652 19.1597 28.3984 18.9394L28.3203 18.7217L27.3105 16.2803V16.2793C26.97 15.4595 26.9713 14.5378 27.3105 13.7187L28.3213 11.2773C28.5593 10.7026 28.5593 10.0571 28.3213 9.48242C28.0832 8.90764 27.6265 8.45096 27.0518 8.21289L24.6084 7.20019C23.7976 6.86351 23.1523 6.2219 22.8105 5.41406C22.8073 5.40711 22.8028 5.4007 22.7998 5.39355L21.7881 2.94921C21.55 2.37472 21.093 1.91871 20.5186 1.68066C19.944 1.44268 19.2982 1.44188 18.7236 1.67968L18.7227 1.68066L16.2783 2.6875L16.2793 2.68847C15.4601 3.02829 14.5394 3.02904 13.7197 2.69043L13.7188 2.68945L11.2773 1.67871C10.7027 1.44074 10.0571 1.44067 9.48242 1.67871C8.90771 1.91679 8.45095 2.37349 8.21289 2.94824L7.20117 5.3916L7.2002 5.39257C6.85971 6.2106 6.20847 6.85966 5.38965 7.19824L2.94922 8.20996H2.94824C2.66366 8.32778 2.40534 8.50098 2.1875 8.71875C1.96967 8.93651 1.79664 9.19494 1.67871 9.47949C1.56079 9.76418 1.49996 10.0698 1.5 10.3779Z" fill="#535D6B"/>
</g>
<defs>
<clipPath id="clip0_8_3097">
<rect width="30" height="30" fill="white"/>
</clipPath>
</defs>
</svg>
