<svg width="30" height="30" viewBox="0 0 30 30" fill="none" xmlns="http://www.w3.org/2000/svg">
<g clip-path="url(#clip0_8_3103)">
<rect width="30" height="30" fill="white"/>
<path d="M1 8C1 7.44772 1.44772 7 2 7H28C28.5523 7 29 7.44772 29 8V22C29 22.5523 28.5523 23 28 23H2C1.44771 23 1 22.5523 1 22V8Z" fill="#D0EFF7"/>
<path d="M28.5 8C28.5 7.72386 28.2761 7.5 28 7.5H2C1.72386 7.5 1.5 7.72386 1.5 8V22C1.5 22.2761 1.72386 22.5 2 22.5H28C28.2761 22.5 28.5 22.2761 28.5 22V8ZM29.5 22C29.5 22.8284 28.8284 23.5 28 23.5H2C1.17157 23.5 0.5 22.8284 0.5 22V8C0.5 7.17157 1.17157 6.5 2 6.5H28C28.8284 6.5 29.5 7.17157 29.5 8V22Z" fill="#535D6B"/>
<path d="M1 2C1 1.44772 1.44772 1 2 1H28C28.5523 1 29 1.44772 29 2V4C29 4.55228 28.5523 5 28 5H2C1.44771 5 1 4.55228 1 4V2Z" fill="white"/>
<path d="M28.5 2C28.5 1.72386 28.2761 1.5 28 1.5H2C1.72386 1.5 1.5 1.72386 1.5 2V4C1.5 4.27614 1.72386 4.5 2 4.5H28C28.2761 4.5 28.5 4.27614 28.5 4V2ZM29.5 4C29.5 4.82843 28.8284 5.5 28 5.5H2C1.17157 5.5 0.5 4.82843 0.5 4V2C0.5 1.17157 1.17157 0.5 2 0.5H28C28.8284 0.5 29.5 1.17157 29.5 2V4Z" fill="#535D6B"/>
<path d="M1 26C1 25.4477 1.44772 25 2 25H28C28.5523 25 29 25.4477 29 26V28C29 28.5523 28.5523 29 28 29H2C1.44771 29 1 28.5523 1 28V26Z" fill="white"/>
<path d="M28.5 26C28.5 25.7239 28.2761 25.5 28 25.5H2C1.72386 25.5 1.5 25.7239 1.5 26V28C1.5 28.2761 1.72386 28.5 2 28.5H28C28.2761 28.5 28.5 28.2761 28.5 28V26ZM29.5 28C29.5 28.8284 28.8284 29.5 28 29.5H2C1.17157 29.5 0.5 28.8284 0.5 28V26C0.5 25.1716 1.17157 24.5 2 24.5H28C28.8284 24.5 29.5 25.1716 29.5 26V28Z" fill="#535D6B"/>
<path d="M11.3861 14L3 23H27L20.7058 16.5L17.2564 20.0622L11.3861 14Z" fill="white"/>
<path d="M11.3808 13.5C11.5179 13.4987 11.6497 13.5539 11.7451 13.6523L17.2558 19.3437L20.3466 16.1523L20.4238 16.0869C20.5062 16.0306 20.6047 16 20.706 16C20.8413 16.0001 20.9713 16.0551 21.0654 16.1523L27.3593 22.6523C27.4989 22.7966 27.5382 23.0105 27.4599 23.1953C27.3815 23.38 27.2006 23.5 27 23.5H2.99996C2.80093 23.5 2.62134 23.3817 2.54195 23.1992C2.46261 23.0168 2.49824 22.8048 2.63375 22.6592L11.0205 13.6592L11.0966 13.5918C11.1791 13.5334 11.2782 13.5011 11.3808 13.5ZM4.14937 22.5H25.8203L20.705 17.2187L17.6152 20.4101C17.5211 20.5072 17.3919 20.5624 17.2568 20.5625C17.1215 20.5625 16.9916 20.5073 16.8974 20.4101L11.3925 14.7256L4.14937 22.5Z" fill="#535D6B"/>
<path d="M21 11.5C21 12.8807 19.8807 14 18.5 14C17.1193 14 16 12.8807 16 11.5C16 10.1193 17.1193 9 18.5 9C19.8807 9 21 10.1193 21 11.5Z" fill="#535D6B"/>
</g>
<defs>
<clipPath id="clip0_8_3103">
<rect width="30" height="30" fill="white"/>
</clipPath>
</defs>
</svg>
