<svg width="30" height="30" viewBox="0 0 30 30" fill="none" xmlns="http://www.w3.org/2000/svg">
<rect width="30" height="30" fill="white"/>
<path d="M1 3C1 2.44772 1.44772 2 2 2H28C28.5523 2 29 2.44772 29 3V27C29 27.5523 28.5523 28 28 28H2C1.44771 28 1 27.5523 1 27V3Z" fill="#D0EFF7"/>
<path d="M28.5 3C28.5 2.72386 28.2761 2.5 28 2.5H2C1.72386 2.5 1.5 2.72386 1.5 3V27C1.5 27.2761 1.72386 27.5 2 27.5H28C28.2761 27.5 28.5 27.2761 28.5 27V3ZM29.5 27C29.5 27.8284 28.8284 28.5 28 28.5H2C1.17157 28.5 0.5 27.8284 0.5 27V3C0.5 2.17157 1.17157 1.5 2 1.5H28C28.8284 1.5 29.5 2.17157 29.5 3V27Z" fill="#535D6B"/>
<path d="M1 3C1 2.44772 1.44772 2 2 2H14C14.5523 2 15 2.44772 15 3V27C15 27.5523 14.5523 28 14 28H2C1.44772 28 1 27.5523 1 27V3Z" fill="white"/>
<path d="M14.5 3C14.5 2.72386 14.2761 2.5 14 2.5H2C1.72386 2.5 1.5 2.72386 1.5 3V27C1.5 27.2761 1.72386 27.5 2 27.5H14C14.2761 27.5 14.5 27.2761 14.5 27V3ZM15.5 27C15.5 27.8284 14.8284 28.5 14 28.5H2C1.17157 28.5 0.5 27.8284 0.5 27V3C0.5 2.17157 1.17157 1.5 2 1.5H14C14.8284 1.5 15.5 2.17157 15.5 3V27Z" fill="#535D6B"/>
<path d="M21 15C21 18.3137 18.3137 21 15 21C11.6863 21 9 18.3137 9 15C9 11.6863 11.6863 9 15 9C18.3137 9 21 11.6863 21 15Z" fill="white"/>
<path d="M20.5 15C20.5 11.9624 18.0376 9.5 15 9.5C11.9624 9.5 9.5 11.9624 9.5 15C9.5 18.0376 11.9624 20.5 15 20.5C18.0376 20.5 20.5 18.0376 20.5 15ZM21.5 15C21.5 18.5899 18.5899 21.5 15 21.5C11.4101 21.5 8.5 18.5899 8.5 15C8.5 11.4101 11.4101 8.5 15 8.5C18.5899 8.5 21.5 11.4101 21.5 15Z" fill="#535D6B"/>
<path d="M16.2001 12.5996C16.421 12.4342 16.7347 12.4794 16.9003 12.7002L18.4003 14.7002C18.5333 14.8778 18.5333 15.1222 18.4003 15.2998L16.9003 17.2998C16.7347 17.5206 16.421 17.5658 16.2001 17.4004C15.9793 17.2348 15.9341 16.9211 16.0995 16.7002L17.374 15L16.0995 13.2998C15.9341 13.0789 15.9793 12.7652 16.2001 12.5996Z" fill="#535D6B"/>
<path d="M13.7997 12.5996C13.5788 12.4342 13.2652 12.4794 13.0996 12.7002L11.5996 14.7002C11.4665 14.8778 11.4665 15.1222 11.5996 15.2998L13.0996 17.2998C13.2652 17.5206 13.5788 17.5658 13.7997 17.4004C14.0206 17.2348 14.0657 16.9211 13.9003 16.7002L12.6259 15L13.9003 13.2998C14.0657 13.0789 14.0206 12.7652 13.7997 12.5996Z" fill="#535D6B"/>
</svg>
