<svg width="30" height="30" viewBox="0 0 30 30" fill="none" xmlns="http://www.w3.org/2000/svg">
<path d="M1 3C1 2.44772 1.44772 2 2 2H28C28.5523 2 29 2.44772 29 3V27C29 27.5523 28.5523 28 28 28H2C1.44771 28 1 27.5523 1 27V3Z" fill="#3B646B"/>
<path d="M28.5 3C28.5 2.72386 28.2761 2.5 28 2.5H2C1.72386 2.5 1.5 2.72386 1.5 3V27C1.5 27.2761 1.72386 27.5 2 27.5H28C28.2761 27.5 28.5 27.2761 28.5 27V3ZM29.5 27C29.5 27.8284 28.8284 28.5 28 28.5H2C1.17157 28.5 0.5 27.8284 0.5 27V3C0.5 2.17157 1.17157 1.5 2 1.5H28C28.8284 1.5 29.5 2.17157 29.5 3V27Z" fill="#D0EFF7"/>
<path d="M11.3861 14L3 28H27L20.7058 17.8889L17.2564 23.4301L11.3861 14Z" fill="#3B646B"/>
<path d="M11.3818 13.5C11.5559 13.4985 11.7184 13.5876 11.8105 13.7354L17.2559 22.4834L20.2812 17.625L20.3184 17.5723C20.4126 17.4569 20.5549 17.3887 20.706 17.3887C20.8787 17.3888 21.0387 17.4785 21.1299 17.625L27.4248 27.7354C27.5208 27.8895 27.5257 28.0844 27.4375 28.2432C27.3493 28.4018 27.1815 28.5 27 28.5H2.99999C2.81992 28.5 2.6542 28.4028 2.56542 28.2461C2.47672 28.0894 2.47878 27.8976 2.57128 27.7432L10.957 13.7432C11.0466 13.5937 11.2076 13.5015 11.3818 13.5ZM3.88183 27.5H26.0996L20.7051 18.835L17.6807 23.6943C17.5895 23.8408 17.4293 23.9295 17.2568 23.9297C17.0842 23.9297 16.9233 23.8409 16.832 23.6943L11.3935 14.959L3.88183 27.5Z" fill="#D0EFF7"/>
<path d="M21 11.5C21 12.8807 19.8807 14 18.5 14C17.1193 14 16 12.8807 16 11.5C16 10.1193 17.1193 9 18.5 9C19.8807 9 21 10.1193 21 11.5Z" fill="#D0EFF7"/>
</svg>
