<svg width="30" height="30" viewBox="0 0 30 30" fill="none" xmlns="http://www.w3.org/2000/svg">
<path d="M15 9.5C23.0081 9.5 29.5 15.9919 29.5 24H28.5C28.5 16.5442 22.4558 10.5 15 10.5C7.54416 10.5 1.5 16.5442 1.5 24H0.5C0.5 15.9919 6.99187 9.5 15 9.5Z" fill="#D0EFF7"/>
<path d="M26.5 9C26.7761 9 27 9.22386 27 9.5C27 9.77614 26.7761 10 26.5 10H3C2.72386 10 2.5 9.77614 2.5 9.5C2.5 9.22386 2.72386 9 3 9H26.5Z" fill="#D0EFF7"/>
<path d="M29 9.5C29 10.8807 27.8807 12 26.5 12C25.1193 12 24 10.8807 24 9.5C24 8.11929 25.1193 7 26.5 7C27.8807 7 29 8.11929 29 9.5Z" fill="#3B646B"/>
<path d="M28.5 9.5C28.5 8.39543 27.6046 7.5 26.5 7.5C25.3954 7.5 24.5 8.39543 24.5 9.5C24.5 10.6046 25.3954 11.5 26.5 11.5C27.6046 11.5 28.5 10.6046 28.5 9.5ZM29.5 9.5C29.5 11.1569 28.1569 12.5 26.5 12.5C24.8431 12.5 23.5 11.1569 23.5 9.5C23.5 7.84315 24.8431 6.5 26.5 6.5C28.1569 6.5 29.5 7.84315 29.5 9.5Z" fill="#D0EFF7"/>
<path d="M6 9.5C6 10.8807 4.88071 12 3.5 12C2.11929 12 1 10.8807 1 9.5C1 8.11929 2.11929 7 3.5 7C4.88071 7 6 8.11929 6 9.5Z" fill="#3B646B"/>
<path d="M5.5 9.5C5.5 8.39543 4.60457 7.5 3.5 7.5C2.39543 7.5 1.5 8.39543 1.5 9.5C1.5 10.6046 2.39543 11.5 3.5 11.5C4.60457 11.5 5.5 10.6046 5.5 9.5ZM6.5 9.5C6.5 11.1569 5.15685 12.5 3.5 12.5C1.84315 12.5 0.5 11.1569 0.5 9.5C0.5 7.84315 1.84315 6.5 3.5 6.5C5.15685 6.5 6.5 7.84315 6.5 9.5Z" fill="#D0EFF7"/>
<path d="M12 7C12 6.44772 12.4477 6 13 6H17C17.5523 6 18 6.44772 18 7V11C18 11.5523 17.5523 12 17 12H13C12.4477 12 12 11.5523 12 11V7Z" fill="#3B646B"/>
<path d="M17.5 7C17.5 6.72386 17.2761 6.5 17 6.5H13C12.7239 6.5 12.5 6.72386 12.5 7V11C12.5 11.2761 12.7239 11.5 13 11.5H17C17.2761 11.5 17.5 11.2761 17.5 11V7ZM18.5 11C18.5 11.8284 17.8284 12.5 17 12.5H13C12.1716 12.5 11.5 11.8284 11.5 11V7C11.5 6.17157 12.1716 5.5 13 5.5H17C17.8284 5.5 18.5 6.17157 18.5 7V11Z" fill="#D0EFF7"/>
</svg>
