<svg width="30" height="30" viewBox="0 0 30 30" fill="none" xmlns="http://www.w3.org/2000/svg">
<g clip-path="url(#clip0_10_554)">
<rect width="30" height="30" fill="white"/>
<path d="M28.5 9C28.5 4.85786 25.1421 1.5 21 1.5H9C4.85786 1.5 1.5 4.85786 1.5 9V21C1.5 25.1421 4.85786 28.5 9 28.5H21C25.1421 28.5 28.5 25.1421 28.5 21V9ZM29.5 21C29.5 25.6944 25.6944 29.5 21 29.5H9C4.30558 29.5 0.5 25.6944 0.5 21V9C0.5 4.30558 4.30558 0.5 9 0.5H21C25.6944 0.5 29.5 4.30558 29.5 9V21Z" fill="#535D6B"/>
<path d="M21 15C21 18.3137 18.3137 21 15 21C11.6863 21 9 18.3137 9 15C9 11.6863 11.6863 9 15 9C18.3137 9 21 11.6863 21 15Z" fill="#D0EFF7"/>
<path d="M20.5 15C20.5 11.9624 18.0376 9.5 15 9.5C11.9624 9.5 9.5 11.9624 9.5 15C9.5 18.0376 11.9624 20.5 15 20.5C18.0376 20.5 20.5 18.0376 20.5 15ZM21.5 15C21.5 18.5899 18.5899 21.5 15 21.5C11.4101 21.5 8.5 18.5899 8.5 15C8.5 11.4101 11.4101 8.5 15 8.5C18.5899 8.5 21.5 11.4101 21.5 15Z" fill="#535D6B"/>
<path d="M25 7C25 8.10457 24.1046 9 23 9C21.8954 9 21 8.10457 21 7C21 5.89543 21.8954 5 23 5C24.1046 5 25 5.89543 25 7Z" fill="#535D6B"/>
</g>
<defs>
<clipPath id="clip0_10_554">
<rect width="30" height="30" fill="white"/>
</clipPath>
</defs>
</svg>
