<svg width="30" height="30" viewBox="0 0 30 30" fill="none" xmlns="http://www.w3.org/2000/svg">
<g clip-path="url(#clip0_8_3272)">
<rect width="30" height="30" fill="white"/>
<path d="M1 2C1 1.44771 1.44772 1 2 1H28C28.5523 1 29 1.44772 29 2V28C29 28.5523 28.5523 29 28 29H2C1.44771 29 1 28.5523 1 28V2Z" fill="#D0EFF7"/>
<path d="M28.5 2C28.5 1.72386 28.2761 1.5 28 1.5H2C1.72386 1.5 1.5 1.72386 1.5 2V28C1.5 28.2761 1.72386 28.5 2 28.5H28C28.2761 28.5 28.5 28.2761 28.5 28V2ZM29.5 28C29.5 28.8284 28.8284 29.5 28 29.5H2C1.17157 29.5 0.5 28.8284 0.5 28V2C0.5 1.17157 1.17157 0.5 2 0.5H28C28.8284 0.5 29.5 1.17157 29.5 2V28Z" fill="#535D6B"/>
<path d="M25.1465 8.23901C25.3418 8.04374 25.6583 8.04374 25.8535 8.23901C26.0488 8.43427 26.0488 8.75078 25.8535 8.94604L19.8535 14.946C19.6583 15.1413 19.3418 15.1413 19.1465 14.946L16.5147 12.3142L11.9326 20.2497C11.8549 20.3843 11.7195 20.4755 11.5655 20.4958C11.4113 20.5161 11.2564 20.4632 11.1465 20.3533L9.00002 18.2068L4.35354 22.8533C4.15828 23.0485 3.84177 23.0485 3.64651 22.8533C3.45137 22.658 3.45129 22.3415 3.64651 22.1462L8.64651 17.1462L8.72463 17.0828C8.91869 16.9544 9.18257 16.9754 9.35354 17.1462L11.3926 19.1853L15.9746 11.2497L16.043 11.158C16.1211 11.0747 16.2263 11.0199 16.3418 11.0046C16.4958 10.9844 16.6509 11.0365 16.7608 11.1462L19.5 13.8855L25.1465 8.23901Z" fill="#535D6B"/>
</g>
<defs>
<clipPath id="clip0_8_3272">
<rect width="30" height="30" fill="white"/>
</clipPath>
</defs>
</svg>
