<svg width="30" height="30" viewBox="0 0 30 30" fill="none" xmlns="http://www.w3.org/2000/svg">
<rect width="30" height="30" fill="white"/>
<path d="M1.5 13.7207C1.50012 6.97145 6.97145 1.50012 13.7207 1.5C20.4701 1.5 25.9413 6.97137 25.9414 13.7207H24.9414C24.9413 7.52366 19.9178 2.5 13.7207 2.5C7.52374 2.50012 2.50012 7.52374 2.5 13.7207C2.5 19.9178 7.52366 24.9413 13.7207 24.9414V25.9414C6.97137 25.9413 1.5 20.4701 1.5 13.7207Z" fill="#535D6B"/>
<path d="M13.7217 7.86047C16.1488 7.86088 18.1172 9.82875 18.1172 12.256C18.1171 13.6195 17.495 14.8375 16.5205 15.6437C19.5069 16.6466 21.7755 19.2083 22.3613 22.3624C20.1499 24.5736 17.0952 25.9415 13.7207 25.9415C10.3461 25.9415 7.29061 24.5739 5.0791 22.3624C5.66491 19.2082 7.93534 16.6466 10.9219 15.6437C9.94738 14.8375 9.32622 13.6195 9.32617 12.256C9.32617 9.8285 11.2942 7.86047 13.7217 7.86047Z" fill="#D0EFF7"/>
<path d="M17.1172 12.256C17.1172 10.4399 15.6903 8.95673 13.8965 8.86536L13.7217 8.86047C11.8465 8.86047 10.3262 10.3808 10.3262 12.256C10.3262 13.3087 10.8047 14.2487 11.5596 14.8732C11.8392 15.1046 11.9715 15.4695 11.9053 15.8263C11.839 16.1832 11.5843 16.4764 11.2402 16.5919C8.7586 17.4253 6.83387 19.4736 6.17578 22.0275C8.16915 23.8392 10.8156 24.9415 13.7207 24.9415V25.9415C10.3461 25.9415 7.29061 24.5739 5.0791 22.3624C5.66491 19.2082 7.93534 16.6466 10.9219 15.6437C9.94738 14.8375 9.32622 13.6195 9.32617 12.256C9.32617 9.8285 11.2942 7.86047 13.7217 7.86047C16.1488 7.86088 18.1172 9.82875 18.1172 12.256C18.1171 13.6195 17.495 14.8375 16.5205 15.6437C19.5069 16.6466 21.7755 19.2083 22.3613 22.3624C20.1499 24.5736 17.0952 25.9415 13.7207 25.9415V24.9415C16.6252 24.9415 19.2694 23.8378 21.2627 22.0265C20.6044 19.4731 18.6829 17.425 16.2021 16.5919C15.858 16.4764 15.6034 16.1832 15.5371 15.8263C15.4709 15.4695 15.6032 15.1046 15.8828 14.8732C16.5908 14.2875 17.0558 13.4246 17.1113 12.4523L17.1172 12.256Z" fill="#535D6B"/>
<path d="M19 24.8667C19 23.7466 19 23.1865 19.2044 22.7587C19.3841 22.3824 19.671 22.0764 20.0238 21.8847C20.4249 21.6667 20.9499 21.6667 22 21.6667H26C27.0501 21.6667 27.5751 21.6667 27.9762 21.8847C28.329 22.0764 28.6159 22.3824 28.7956 22.7587C29 23.1865 29 23.7466 29 24.8667V25.8C29 26.9201 29 27.4802 28.7956 27.908C28.6159 28.2843 28.329 28.5903 27.9762 28.782C27.5751 29 27.0501 29 26 29H22C20.9499 29 20.4249 29 20.0238 28.782C19.671 28.5903 19.3841 28.2843 19.2044 27.908C19 27.4802 19 26.9201 19 25.8V24.8667Z" fill="white"/>
<path d="M28.5 24.8662C28.5 24.2987 28.4993 23.9007 28.4756 23.5908C28.4522 23.2864 28.4089 23.1091 28.3447 22.9746C28.2085 22.6895 27.9937 22.4636 27.7373 22.3242C27.6218 22.2615 27.4673 22.2167 27.1885 22.1924C26.9026 22.1675 26.5338 22.167 26 22.167H22C21.4662 22.167 21.0974 22.1675 20.8115 22.1924C20.5327 22.2167 20.3782 22.2615 20.2627 22.3242C20.0063 22.4636 19.7915 22.6895 19.6553 22.9746C19.5911 23.1091 19.5478 23.2864 19.5244 23.5908C19.5007 23.9007 19.5 24.2987 19.5 24.8662V25.7998C19.5 26.3675 19.5007 26.7652 19.5244 27.0752C19.5478 27.3801 19.591 27.5578 19.6553 27.6924C19.7915 27.9775 20.0063 28.2034 20.2627 28.3428C20.3782 28.4055 20.5328 28.4503 20.8115 28.4746C21.0974 28.4995 21.4662 28.5 22 28.5H26C26.5338 28.5 26.9026 28.4995 27.1885 28.4746C27.4672 28.4503 27.6218 28.4055 27.7373 28.3428C27.9937 28.2034 28.2085 27.9775 28.3447 27.6924C28.409 27.5578 28.4522 27.3801 28.4756 27.0752C28.4993 26.7652 28.5 26.3675 28.5 25.7998V24.8662ZM24.5 24.667V26H23.5V24.667H24.5ZM26.625 20.333C26.6248 18.7375 25.4197 17.5 24 17.5C22.5803 17.5 21.3752 18.7375 21.375 20.333V21.1689C21.5656 21.1665 21.7735 21.167 22 21.167H26C26.2265 21.167 26.4344 21.1665 26.625 21.1689V20.333ZM27.625 21.2441C27.8339 21.2838 28.0293 21.3445 28.2148 21.4453C28.664 21.6894 29.0237 22.0755 29.2471 22.543C29.3871 22.8361 29.4449 23.1528 29.4727 23.5146C29.5 23.8716 29.5 24.3141 29.5 24.8662V25.7998C29.5 26.3519 29.5 26.7944 29.4727 27.1514C29.4449 27.5132 29.387 27.83 29.2471 28.123C29.0237 28.5906 28.664 28.9776 28.2148 29.2217C27.9295 29.3767 27.6213 29.4405 27.2754 29.4707C26.936 29.5003 26.5163 29.5 26 29.5H22C21.4837 29.5 21.064 29.5003 20.7246 29.4707C20.3787 29.4405 20.0705 29.3767 19.7852 29.2217C19.336 28.9776 18.9763 28.5906 18.7529 28.123C18.613 27.83 18.5551 27.5132 18.5273 27.1514C18.5 26.7944 18.5 26.3519 18.5 25.7998V24.8662C18.5 24.3141 18.5 23.8716 18.5273 23.5146C18.5551 23.1528 18.6129 22.8361 18.7529 22.543C18.9763 22.0755 19.336 21.6894 19.7852 21.4453C19.9707 21.3445 20.1661 21.2838 20.375 21.2441V20.333C20.3752 18.2469 21.9682 16.5 24 16.5C26.0318 16.5 27.6248 18.2469 27.625 20.333V21.2441Z" fill="#535D6B"/>
</svg>
