<svg width="30" height="30" viewBox="0 0 30 30" fill="none" xmlns="http://www.w3.org/2000/svg">
<path d="M1 3C1 1.89543 1.89543 1 3 1H11C12.1046 1 13 1.89543 13 3V7C13 8.10457 12.1046 9 11 9H3C1.89543 9 1 8.10457 1 7V3Z" fill="#3B646B"/>
<path d="M12.5 3C12.5 2.17157 11.8284 1.5 11 1.5H3C2.17157 1.5 1.5 2.17157 1.5 3V7C1.5 7.82843 2.17157 8.5 3 8.5H11C11.8284 8.5 12.5 7.82843 12.5 7V3ZM13.5 7C13.5 8.38071 12.3807 9.5 11 9.5H3C1.61929 9.5 0.5 8.38071 0.5 7V3C0.5 1.61929 1.61929 0.5 3 0.5H11C12.3807 0.5 13.5 1.61929 13.5 3V7Z" fill="#D0EFF7"/>
<path d="M17 3C17 1.89543 17.8954 1 19 1H27C28.1046 1 29 1.89543 29 3V7C29 8.10457 28.1046 9 27 9H19C17.8954 9 17 8.10457 17 7V3Z" fill="#3B646B"/>
<path d="M28.5 3C28.5 2.17157 27.8284 1.5 27 1.5H19C18.1716 1.5 17.5 2.17157 17.5 3V7C17.5 7.82843 18.1716 8.5 19 8.5H27C27.8284 8.5 28.5 7.82843 28.5 7V3ZM29.5 7C29.5 8.38071 28.3807 9.5 27 9.5H19C17.6193 9.5 16.5 8.38071 16.5 7V3C16.5 1.61929 17.6193 0.5 19 0.5H27C28.3807 0.5 29.5 1.61929 29.5 3V7Z" fill="#D0EFF7"/>
<path d="M11 10.5C11.2761 10.5 11.5 10.7239 11.5 11C11.5 11.2761 11.2761 11.5 11 11.5H2C1.72386 11.5 1.5 11.2761 1.5 11C1.5 10.7239 1.72386 10.5 2 10.5H11Z" fill="#D0EFF7"/>
<path d="M7 12.5C7.27614 12.5 7.5 12.7239 7.5 13C7.5 13.2761 7.27614 13.5 7 13.5L2 13.5C1.72386 13.5 1.5 13.2761 1.5 13C1.5 12.7239 1.72386 12.5 2 12.5L7 12.5Z" fill="#D0EFF7"/>
<path d="M27 10.5C27.2761 10.5 27.5 10.7239 27.5 11C27.5 11.2761 27.2761 11.5 27 11.5H18C17.7239 11.5 17.5 11.2761 17.5 11C17.5 10.7239 17.7239 10.5 18 10.5H27Z" fill="#D0EFF7"/>
<path d="M23 12.5C23.2761 12.5 23.5 12.7239 23.5 13C23.5 13.2761 23.2761 13.5 23 13.5L18 13.5C17.7239 13.5 17.5 13.2761 17.5 13C17.5 12.7239 17.7239 12.5 18 12.5L23 12.5Z" fill="#D0EFF7"/>
<path d="M1 18C1 16.8954 1.89543 16 3 16H11C12.1046 16 13 16.8954 13 18V22C13 23.1046 12.1046 24 11 24H3C1.89543 24 1 23.1046 1 22V18Z" fill="#3B646B"/>
<path d="M12.5 18C12.5 17.1716 11.8284 16.5 11 16.5H3C2.17157 16.5 1.5 17.1716 1.5 18V22C1.5 22.8284 2.17157 23.5 3 23.5H11C11.8284 23.5 12.5 22.8284 12.5 22V18ZM13.5 22C13.5 23.3807 12.3807 24.5 11 24.5H3C1.61929 24.5 0.5 23.3807 0.5 22V18C0.5 16.6193 1.61929 15.5 3 15.5H11C12.3807 15.5 13.5 16.6193 13.5 18V22Z" fill="#D0EFF7"/>
<path d="M17 18C17 16.8954 17.8954 16 19 16H27C28.1046 16 29 16.8954 29 18V22C29 23.1046 28.1046 24 27 24H19C17.8954 24 17 23.1046 17 22V18Z" fill="#3B646B"/>
<path d="M28.5 18C28.5 17.1716 27.8284 16.5 27 16.5H19C18.1716 16.5 17.5 17.1716 17.5 18V22C17.5 22.8284 18.1716 23.5 19 23.5H27C27.8284 23.5 28.5 22.8284 28.5 22V18ZM29.5 22C29.5 23.3807 28.3807 24.5 27 24.5H19C17.6193 24.5 16.5 23.3807 16.5 22V18C16.5 16.6193 17.6193 15.5 19 15.5H27C28.3807 15.5 29.5 16.6193 29.5 18V22Z" fill="#D0EFF7"/>
<path d="M11 25.5C11.2761 25.5 11.5 25.7239 11.5 26C11.5 26.2761 11.2761 26.5 11 26.5H2C1.72386 26.5 1.5 26.2761 1.5 26C1.5 25.7239 1.72386 25.5 2 25.5H11Z" fill="#D0EFF7"/>
<path d="M7 27.5C7.27614 27.5 7.5 27.7239 7.5 28C7.5 28.2761 7.27614 28.5 7 28.5L2 28.5C1.72386 28.5 1.5 28.2761 1.5 28C1.5 27.7239 1.72386 27.5 2 27.5L7 27.5Z" fill="#D0EFF7"/>
<path d="M27 25.5C27.2761 25.5 27.5 25.7239 27.5 26C27.5 26.2761 27.2761 26.5 27 26.5H18C17.7239 26.5 17.5 26.2761 17.5 26C17.5 25.7239 17.7239 25.5 18 25.5H27Z" fill="#D0EFF7"/>
<path d="M23 27.5C23.2761 27.5 23.5 27.7239 23.5 28C23.5 28.2761 23.2761 28.5 23 28.5L18 28.5C17.7239 28.5 17.5 28.2761 17.5 28C17.5 27.7239 17.7239 27.5 18 27.5L23 27.5Z" fill="#D0EFF7"/>
</svg>
