<svg width="30" height="30" viewBox="0 0 30 30" fill="none" xmlns="http://www.w3.org/2000/svg">
<path d="M1 5C1 3.89543 1.89543 3 3 3H11C12.1046 3 13 3.89543 13 5V9C13 10.1046 12.1046 11 11 11H3C1.89543 11 1 10.1046 1 9V5Z" fill="#3B646B"/>
<path d="M12.5 5C12.5 4.17157 11.8284 3.5 11 3.5H3C2.17157 3.5 1.5 4.17157 1.5 5V9C1.5 9.82843 2.17157 10.5 3 10.5H11C11.8284 10.5 12.5 9.82843 12.5 9V5ZM13.5 9C13.5 10.3807 12.3807 11.5 11 11.5H3C1.61929 11.5 0.5 10.3807 0.5 9V5C0.5 3.61929 1.61929 2.5 3 2.5H11C12.3807 2.5 13.5 3.61929 13.5 5V9Z" fill="#D0EFF7"/>
<path d="M8 14C8 13.4477 8.44772 13 9 13H12C12.5523 13 13 13.4477 13 14V14C13 14.5523 12.5523 15 12 15H9C8.44772 15 8 14.5523 8 14V14Z" fill="#3B646B"/>
<path d="M12.5 14C12.5 13.7239 12.2761 13.5 12 13.5H9C8.72386 13.5 8.5 13.7239 8.5 14C8.5 14.2761 8.72386 14.5 9 14.5H12C12.2761 14.5 12.5 14.2761 12.5 14ZM13.5 14C13.5 14.8284 12.8284 15.5 12 15.5H9C8.17157 15.5 7.5 14.8284 7.5 14C7.5 13.1716 8.17157 12.5 9 12.5H12C12.8284 12.5 13.5 13.1716 13.5 14Z" fill="#D0EFF7"/>
<path d="M23 14C23 13.4477 23.4477 13 24 13H27C27.5523 13 28 13.4477 28 14V14C28 14.5523 27.5523 15 27 15H24C23.4477 15 23 14.5523 23 14V14Z" fill="#3B646B"/>
<path d="M27.5 14C27.5 13.7239 27.2761 13.5 27 13.5H24C23.7239 13.5 23.5 13.7239 23.5 14C23.5 14.2761 23.7239 14.5 24 14.5H27C27.2761 14.5 27.5 14.2761 27.5 14ZM28.5 14C28.5 14.8284 27.8284 15.5 27 15.5H24C23.1716 15.5 22.5 14.8284 22.5 14C22.5 13.1716 23.1716 12.5 24 12.5H27C27.8284 12.5 28.5 13.1716 28.5 14Z" fill="#D0EFF7"/>
<path d="M16 5C16 3.89543 16.8954 3 18 3H26C27.1046 3 28 3.89543 28 5V9C28 10.1046 27.1046 11 26 11H18C16.8954 11 16 10.1046 16 9V5Z" fill="#3B646B"/>
<path d="M27.5 5C27.5 4.17157 26.8284 3.5 26 3.5H18C17.1716 3.5 16.5 4.17157 16.5 5V9C16.5 9.82843 17.1716 10.5 18 10.5H26C26.8284 10.5 27.5 9.82843 27.5 9V5ZM28.5 9C28.5 10.3807 27.3807 11.5 26 11.5H18C16.6193 11.5 15.5 10.3807 15.5 9V5C15.5 3.61929 16.6193 2.5 18 2.5H26C27.3807 2.5 28.5 3.61929 28.5 5V9Z" fill="#D0EFF7"/>
<path d="M11 16.5C11.2761 16.5 11.5 16.7239 11.5 17C11.5 17.2761 11.2761 17.5 11 17.5H2C1.72386 17.5 1.5 17.2761 1.5 17C1.5 16.7239 1.72386 16.5 2 16.5H11Z" fill="#D0EFF7"/>
<path d="M7 18.5C7.27614 18.5 7.5 18.7239 7.5 19C7.5 19.2761 7.27614 19.5 7 19.5L2 19.5C1.72386 19.5 1.5 19.2761 1.5 19C1.5 18.7239 1.72386 18.5 2 18.5L7 18.5Z" fill="#D0EFF7"/>
<path d="M11 20.5C11.2761 20.5 11.5 20.7239 11.5 21C11.5 21.2761 11.2761 21.5 11 21.5H2C1.72386 21.5 1.5 21.2761 1.5 21C1.5 20.7239 1.72386 20.5 2 20.5H11Z" fill="#D0EFF7"/>
<path d="M7 22.5C7.27614 22.5 7.5 22.7239 7.5 23C7.5 23.2761 7.27614 23.5 7 23.5L2 23.5C1.72386 23.5 1.5 23.2761 1.5 23C1.5 22.7239 1.72386 22.5 2 22.5L7 22.5Z" fill="#D0EFF7"/>
<path d="M11 24.5C11.2761 24.5 11.5 24.7239 11.5 25C11.5 25.2761 11.2761 25.5 11 25.5H2C1.72386 25.5 1.5 25.2761 1.5 25C1.5 24.7239 1.72386 24.5 2 24.5H11Z" fill="#D0EFF7"/>
<path d="M7 26.5C7.27614 26.5 7.5 26.7239 7.5 27C7.5 27.2761 7.27614 27.5 7 27.5L2 27.5C1.72386 27.5 1.5 27.2761 1.5 27C1.5 26.7239 1.72386 26.5 2 26.5L7 26.5Z" fill="#D0EFF7"/>
<path d="M26 16.5C26.2761 16.5 26.5 16.7239 26.5 17C26.5 17.2761 26.2761 17.5 26 17.5H17C16.7239 17.5 16.5 17.2761 16.5 17C16.5 16.7239 16.7239 16.5 17 16.5H26Z" fill="#D0EFF7"/>
<path d="M22 18.5C22.2761 18.5 22.5 18.7239 22.5 19C22.5 19.2761 22.2761 19.5 22 19.5L17 19.5C16.7239 19.5 16.5 19.2761 16.5 19C16.5 18.7239 16.7239 18.5 17 18.5L22 18.5Z" fill="#D0EFF7"/>
<path d="M26 20.5C26.2761 20.5 26.5 20.7239 26.5 21C26.5 21.2761 26.2761 21.5 26 21.5H17C16.7239 21.5 16.5 21.2761 16.5 21C16.5 20.7239 16.7239 20.5 17 20.5H26Z" fill="#D0EFF7"/>
<path d="M22 22.5C22.2761 22.5 22.5 22.7239 22.5 23C22.5 23.2761 22.2761 23.5 22 23.5L17 23.5C16.7239 23.5 16.5 23.2761 16.5 23C16.5 22.7239 16.7239 22.5 17 22.5L22 22.5Z" fill="#D0EFF7"/>
<path d="M26 24.5C26.2761 24.5 26.5 24.7239 26.5 25C26.5 25.2761 26.2761 25.5 26 25.5H17C16.7239 25.5 16.5 25.2761 16.5 25C16.5 24.7239 16.7239 24.5 17 24.5H26Z" fill="#D0EFF7"/>
<path d="M22 26.5C22.2761 26.5 22.5 26.7239 22.5 27C22.5 27.2761 22.2761 27.5 22 27.5L17 27.5C16.7239 27.5 16.5 27.2761 16.5 27C16.5 26.7239 16.7239 26.5 17 26.5L22 26.5Z" fill="#D0EFF7"/>
</svg>
