<svg width="30" height="30" viewBox="0 0 30 30" fill="none" xmlns="http://www.w3.org/2000/svg">
<path d="M14 14H20V20H14V14Z" fill="#3B646B"/>
<path d="M20 13.5C20.2761 13.5 20.5 13.7239 20.5 14V20C20.5 20.2761 20.2761 20.5 20 20.5H14C13.7239 20.5 13.5 20.2761 13.5 20V14C13.5 13.7239 13.7239 13.5 14 13.5H20ZM14.5 19.5H19.5V14.5H14.5V19.5Z" fill="#D0EFF7"/>
<path d="M23 14H29V20H23V14Z" fill="#3B646B"/>
<path d="M29 13.5C29.2761 13.5 29.5 13.7239 29.5 14V20C29.5 20.2761 29.2761 20.5 29 20.5H23C22.7239 20.5 22.5 20.2761 22.5 20V14C22.5 13.7239 22.7239 13.5 23 13.5H29ZM23.5 19.5H28.5V14.5H23.5V19.5Z" fill="#D0EFF7"/>
<path d="M14 23H20V29H14V23Z" fill="#3B646B"/>
<path d="M20 22.5C20.2761 22.5 20.5 22.7239 20.5 23V29C20.5 29.2761 20.2761 29.5 20 29.5H14C13.7239 29.5 13.5 29.2761 13.5 29V23C13.5 22.7239 13.7239 22.5 14 22.5H20ZM14.5 28.5H19.5V23.5H14.5V28.5Z" fill="#D0EFF7"/>
<path d="M23 23H29V29H23V23Z" fill="#3B646B"/>
<path d="M29 22.5C29.2761 22.5 29.5 22.7239 29.5 23V29C29.5 29.2761 29.2761 29.5 29 29.5H23C22.7239 29.5 22.5 29.2761 22.5 29V23C22.5 22.7239 22.7239 22.5 23 22.5H29ZM23.5 28.5H28.5V23.5H23.5V28.5Z" fill="#D0EFF7"/>
<path d="M12.4095 2.36523C13.596 2.36545 14.3127 3.67859 13.6712 4.67676L9.12624 11.7461V18.6709C9.12616 19.2231 8.67846 19.6709 8.12624 19.6709H7.20338C6.6512 19.6708 6.20345 19.2231 6.20337 18.6709V11.7451L1.6594 4.67676C1.01765 3.67849 1.73437 2.36523 2.92112 2.36523H12.4095Z" fill="#3B646B"/>
<path d="M8.62575 11.7461C8.62575 11.6502 8.65398 11.5562 8.70583 11.4756L13.2508 4.40625C13.6782 3.74078 13.1998 2.86538 12.409 2.86523H2.92068C2.13 2.86557 1.6522 3.74076 2.07986 4.40625L6.6238 11.4746C6.67565 11.5553 6.7029 11.6492 6.7029 11.7451V18.6709L6.71364 18.7715C6.76028 18.9993 6.96229 19.1709 7.20388 19.1709H8.12575C8.40176 19.1709 8.62567 18.947 8.62575 18.6709V11.7461ZM9.62575 18.6709C9.62563 19.4991 8.95416 20.1709 8.12575 20.1709H7.2029C6.37481 20.1706 5.70302 19.499 5.7029 18.6709V11.8906L1.23903 4.94727C0.383543 3.6165 1.33846 1.86557 2.92068 1.86523H12.4099C13.9918 1.86584 14.9469 3.61655 14.0916 4.94727L9.62575 11.8936V18.6709Z" fill="#D0EFF7"/>
</svg>
