<svg width="30" height="30" viewBox="0 0 30 30" fill="none" xmlns="http://www.w3.org/2000/svg">
<rect width="30" height="30" fill="white"/>
<path d="M14 15C14 14.4477 14.4477 14 15 14H19C19.5523 14 20 14.4477 20 15V19C20 19.5523 19.5523 20 19 20H15C14.4477 20 14 19.5523 14 19V15Z" fill="#D0EFF7"/>
<path d="M19.5 15C19.5 14.7239 19.2761 14.5 19 14.5H15C14.7239 14.5 14.5 14.7239 14.5 15V19C14.5 19.2761 14.7239 19.5 15 19.5H19C19.2761 19.5 19.5 19.2761 19.5 19V15ZM20.5 19C20.5 19.8284 19.8284 20.5 19 20.5H15C14.1716 20.5 13.5 19.8284 13.5 19V15C13.5 14.1716 14.1716 13.5 15 13.5H19C19.8284 13.5 20.5 14.1716 20.5 15V19Z" fill="#535D6B"/>
<path d="M23 15C23 14.4477 23.4477 14 24 14H28C28.5523 14 29 14.4477 29 15V19C29 19.5523 28.5523 20 28 20H24C23.4477 20 23 19.5523 23 19V15Z" fill="#D0EFF7"/>
<path d="M28.5 15C28.5 14.7239 28.2761 14.5 28 14.5H24C23.7239 14.5 23.5 14.7239 23.5 15V19C23.5 19.2761 23.7239 19.5 24 19.5H28C28.2761 19.5 28.5 19.2761 28.5 19V15ZM29.5 19C29.5 19.8284 28.8284 20.5 28 20.5H24C23.1716 20.5 22.5 19.8284 22.5 19V15C22.5 14.1716 23.1716 13.5 24 13.5H28C28.8284 13.5 29.5 14.1716 29.5 15V19Z" fill="#535D6B"/>
<path d="M14 24C14 23.4477 14.4477 23 15 23H19C19.5523 23 20 23.4477 20 24V28C20 28.5523 19.5523 29 19 29H15C14.4477 29 14 28.5523 14 28V24Z" fill="#D0EFF7"/>
<path d="M19.5 24C19.5 23.7239 19.2761 23.5 19 23.5H15C14.7239 23.5 14.5 23.7239 14.5 24V28C14.5 28.2761 14.7239 28.5 15 28.5H19C19.2761 28.5 19.5 28.2761 19.5 28V24ZM20.5 28C20.5 28.8284 19.8284 29.5 19 29.5H15C14.1716 29.5 13.5 28.8284 13.5 28V24C13.5 23.1716 14.1716 22.5 15 22.5H19C19.8284 22.5 20.5 23.1716 20.5 24V28Z" fill="#535D6B"/>
<path d="M23 24C23 23.4477 23.4477 23 24 23H28C28.5523 23 29 23.4477 29 24V28C29 28.5523 28.5523 29 28 29H24C23.4477 29 23 28.5523 23 28V24Z" fill="#D0EFF7"/>
<path d="M28.5 24C28.5 23.7239 28.2761 23.5 28 23.5H24C23.7239 23.5 23.5 23.7239 23.5 24V28C23.5 28.2761 23.7239 28.5 24 28.5H28C28.2761 28.5 28.5 28.2761 28.5 28V24ZM29.5 28C29.5 28.8284 28.8284 29.5 28 29.5H24C23.1716 29.5 22.5 28.8284 22.5 28V24C22.5 23.1716 23.1716 22.5 24 22.5H28C28.8284 22.5 29.5 23.1716 29.5 24V28Z" fill="#535D6B"/>
<path d="M12.4088 2.36523C13.5956 2.36523 14.3123 3.67849 13.6705 4.67676L9.28536 11.4981C9.18167 11.6594 9.12654 11.8471 9.12654 12.0388V18.6709C9.12646 19.223 8.67862 19.6707 8.12653 19.6709H7.20367C6.65143 19.6709 6.20374 19.2231 6.20366 18.6709V12.0398C6.20366 11.8481 6.14853 11.6603 6.04482 11.499L1.6587 4.67676C1.0172 3.67861 1.73395 2.36551 2.92043 2.36523H12.4088Z" fill="#D0EFF7"/>
<path d="M8.62616 12.0391C8.62616 11.7514 8.70891 11.4695 8.86444 11.2275L13.2502 4.40625C13.6778 3.74064 13.1993 2.86523 12.4084 2.86523H2.92011C2.1295 2.86573 1.65184 3.74092 2.07929 4.40625L6.46503 11.2285C6.62058 11.4705 6.70331 11.7524 6.70331 12.04V18.6709L6.71405 18.7715C6.76067 18.9993 6.9619 19.1708 7.20331 19.1709H8.12616C8.36783 19.1708 8.56975 18.9992 8.61639 18.7715L8.62616 18.6709V12.0391ZM9.62616 18.6709C9.62604 19.4992 8.95415 20.1706 8.12616 20.1709H7.20331C6.375 20.1707 5.70343 19.499 5.70331 18.6709V12.04C5.70331 11.9442 5.67603 11.8502 5.62421 11.7695L1.23847 4.94727C0.383197 3.6165 1.33821 1.86574 2.92011 1.86523H12.4084C13.9909 1.86523 14.9466 3.61637 14.091 4.94727L9.70624 11.7686C9.65439 11.8492 9.62616 11.9432 9.62616 12.0391V18.6709Z" fill="#535D6B"/>
</svg>
