<svg width="30" height="30" viewBox="0 0 30 30" fill="none" xmlns="http://www.w3.org/2000/svg">
<rect width="30" height="30" fill="white"/>
<path d="M1 2C1 1.44772 1.44772 1 2 1H12C12.5523 1 13 1.44772 13 2V8C13 8.55228 12.5523 9 12 9H2C1.44772 9 1 8.55228 1 8V2Z" fill="#D0EFF7"/>
<path d="M12.5 2C12.5 1.72386 12.2761 1.5 12 1.5H2C1.72386 1.5 1.5 1.72386 1.5 2V8C1.5 8.27614 1.72386 8.5 2 8.5H12C12.2761 8.5 12.5 8.27614 12.5 8V2ZM13.5 8C13.5 8.82843 12.8284 9.5 12 9.5H2C1.17157 9.5 0.5 8.82843 0.5 8V2C0.5 1.17157 1.17157 0.5 2 0.5H12C12.8284 0.5 13.5 1.17157 13.5 2V8Z" fill="#535D6B"/>
<path d="M11 10.5C11.2761 10.5 11.5 10.7239 11.5 11C11.5 11.2761 11.2761 11.5 11 11.5H2C1.72386 11.5 1.5 11.2761 1.5 11C1.5 10.7239 1.72386 10.5 2 10.5H11Z" fill="#535D6B"/>
<path d="M7 12.5C7.27614 12.5 7.5 12.7239 7.5 13C7.5 13.2761 7.27614 13.5 7 13.5L2 13.5C1.72386 13.5 1.5 13.2761 1.5 13C1.5 12.7239 1.72386 12.5 2 12.5L7 12.5Z" fill="#535D6B"/>
<path d="M11 14.5C11.2761 14.5 11.5 14.7239 11.5 15C11.5 15.2761 11.2761 15.5 11 15.5H2C1.72386 15.5 1.5 15.2761 1.5 15C1.5 14.7239 1.72386 14.5 2 14.5H11Z" fill="#535D6B"/>
<path d="M7 16.5C7.27614 16.5 7.5 16.7239 7.5 17C7.5 17.2761 7.27614 17.5 7 17.5L2 17.5C1.72386 17.5 1.5 17.2761 1.5 17C1.5 16.7239 1.72386 16.5 2 16.5L7 16.5Z" fill="#535D6B"/>
<path d="M11 18.5C11.2761 18.5 11.5 18.7239 11.5 19C11.5 19.2761 11.2761 19.5 11 19.5H2C1.72386 19.5 1.5 19.2761 1.5 19C1.5 18.7239 1.72386 18.5 2 18.5H11Z" fill="#535D6B"/>
<path d="M7 20.5C7.27614 20.5 7.5 20.7239 7.5 21C7.5 21.2761 7.27614 21.5 7 21.5L2 21.5C1.72386 21.5 1.5 21.2761 1.5 21C1.5 20.7239 1.72386 20.5 2 20.5L7 20.5Z" fill="#535D6B"/>
<path d="M11 22.5C11.2761 22.5 11.5 22.7239 11.5 23C11.5 23.2761 11.2761 23.5 11 23.5H2C1.72386 23.5 1.5 23.2761 1.5 23C1.5 22.7239 1.72386 22.5 2 22.5H11Z" fill="#535D6B"/>
<path d="M7 24.5C7.27614 24.5 7.5 24.7239 7.5 25C7.5 25.2761 7.27614 25.5 7 25.5L2 25.5C1.72386 25.5 1.5 25.2761 1.5 25C1.5 24.7239 1.72386 24.5 2 24.5L7 24.5Z" fill="#535D6B"/>
<path d="M17 2C17 1.44772 17.4477 1 18 1H28C28.5523 1 29 1.44772 29 2V8C29 8.55228 28.5523 9 28 9H18C17.4477 9 17 8.55228 17 8V2Z" fill="#D0EFF7"/>
<path d="M28.5 2C28.5 1.72386 28.2761 1.5 28 1.5H18C17.7239 1.5 17.5 1.72386 17.5 2V8C17.5 8.27614 17.7239 8.5 18 8.5H28C28.2761 8.5 28.5 8.27614 28.5 8V2ZM29.5 8C29.5 8.82843 28.8284 9.5 28 9.5H18C17.1716 9.5 16.5 8.82843 16.5 8V2C16.5 1.17157 17.1716 0.5 18 0.5H28C28.8284 0.5 29.5 1.17157 29.5 2V8Z" fill="#535D6B"/>
<path d="M27 10.5C27.2761 10.5 27.5 10.7239 27.5 11C27.5 11.2761 27.2761 11.5 27 11.5H18C17.7239 11.5 17.5 11.2761 17.5 11C17.5 10.7239 17.7239 10.5 18 10.5H27Z" fill="#535D6B"/>
<path d="M23 12.5C23.2761 12.5 23.5 12.7239 23.5 13C23.5 13.2761 23.2761 13.5 23 13.5L18 13.5C17.7239 13.5 17.5 13.2761 17.5 13C17.5 12.7239 17.7239 12.5 18 12.5L23 12.5Z" fill="#535D6B"/>
<path d="M27 14.5C27.2761 14.5 27.5 14.7239 27.5 15C27.5 15.2761 27.2761 15.5 27 15.5H18C17.7239 15.5 17.5 15.2761 17.5 15C17.5 14.7239 17.7239 14.5 18 14.5H27Z" fill="#535D6B"/>
<path d="M23 16.5C23.2761 16.5 23.5 16.7239 23.5 17C23.5 17.2761 23.2761 17.5 23 17.5L18 17.5C17.7239 17.5 17.5 17.2761 17.5 17C17.5 16.7239 17.7239 16.5 18 16.5L23 16.5Z" fill="#535D6B"/>
<path d="M27 18.5C27.2761 18.5 27.5 18.7239 27.5 19C27.5 19.2761 27.2761 19.5 27 19.5H18C17.7239 19.5 17.5 19.2761 17.5 19C17.5 18.7239 17.7239 18.5 18 18.5H27Z" fill="#535D6B"/>
<path d="M23 20.5C23.2761 20.5 23.5 20.7239 23.5 21C23.5 21.2761 23.2761 21.5 23 21.5L18 21.5C17.7239 21.5 17.5 21.2761 17.5 21C17.5 20.7239 17.7239 20.5 18 20.5L23 20.5Z" fill="#535D6B"/>
<path d="M27 22.5C27.2761 22.5 27.5 22.7239 27.5 23C27.5 23.2761 27.2761 23.5 27 23.5H18C17.7239 23.5 17.5 23.2761 17.5 23C17.5 22.7239 17.7239 22.5 18 22.5H27Z" fill="#535D6B"/>
<path d="M23 24.5C23.2761 24.5 23.5 24.7239 23.5 25C23.5 25.2761 23.2761 25.5 23 25.5L18 25.5C17.7239 25.5 17.5 25.2761 17.5 25C17.5 24.7239 17.7239 24.5 18 24.5L23 24.5Z" fill="#535D6B"/>
</svg>
