<svg width="30" height="30" viewBox="0 0 30 30" fill="none" xmlns="http://www.w3.org/2000/svg">
<path d="M15 8C15 7.44772 15.4477 7 16 7H24C24.5523 7 25 7.44772 25 8V21C25 21.5523 24.5523 22 24 22H16C15.4477 22 15 21.5523 15 21V8Z" fill="#3B646B"/>
<path d="M24.5 8C24.5 7.72386 24.2761 7.5 24 7.5H16C15.7239 7.5 15.5 7.72386 15.5 8V21C15.5 21.2761 15.7239 21.5 16 21.5H24C24.2761 21.5 24.5 21.2761 24.5 21V8ZM25.5 21C25.5 21.8284 24.8284 22.5 24 22.5H16C15.1716 22.5 14.5 21.8284 14.5 21V8C14.5 7.17157 15.1716 6.5 16 6.5H24C24.8284 6.5 25.5 7.17157 25.5 8V21Z" fill="#D0EFF7"/>
<path d="M5 8C5 7.44772 5.44772 7 6 7H14C14.5523 7 15 7.44772 15 8V21C15 21.5523 14.5523 22 14 22H6C5.44772 22 5 21.5523 5 21V8Z" fill="#3B646B"/>
<path d="M14.5 8C14.5 7.72386 14.2761 7.5 14 7.5H6C5.72386 7.5 5.5 7.72386 5.5 8V21C5.5 21.2761 5.72386 21.5 6 21.5H14C14.2761 21.5 14.5 21.2761 14.5 21V8ZM15.5 21C15.5 21.8284 14.8284 22.5 14 22.5H6C5.17157 22.5 4.5 21.8284 4.5 21V8C4.5 7.17157 5.17157 6.5 6 6.5H14C14.8284 6.5 15.5 7.17157 15.5 8V21Z" fill="#D0EFF7"/>
<path d="M9 7C9 6.44772 9.44772 6 10 6H20C20.5523 6 21 6.44772 21 7V23C21 23.5523 20.5523 24 20 24H10C9.44772 24 9 23.5523 9 23V7Z" fill="#3B646B"/>
<path d="M20.5 7C20.5 6.72386 20.2761 6.5 20 6.5H10C9.72386 6.5 9.5 6.72386 9.5 7V23C9.5 23.2761 9.72386 23.5 10 23.5H20C20.2761 23.5 20.5 23.2761 20.5 23V7ZM21.5 23C21.5 23.8284 20.8284 24.5 20 24.5H10C9.17157 24.5 8.5 23.8284 8.5 23V7C8.5 6.17157 9.17157 5.5 10 5.5H20C20.8284 5.5 21.5 6.17157 21.5 7V23Z" fill="#D0EFF7"/>
<path d="M29.707 15L26.5 18.207L25.793 17.5L28.293 15L25.793 12.5L26.5 11.793L29.707 15Z" fill="#D0EFF7"/>
<path d="M0.292969 15L3.14648 17.8535L3.85352 17.1465L1.70703 15L3.85352 12.8535L3.14648 12.1465L0.292969 15Z" fill="#D0EFF7"/>
</svg>
