<svg width="30" height="30" viewBox="0 0 30 30" fill="none" xmlns="http://www.w3.org/2000/svg">
<rect width="30" height="30" fill="white"/>
<path d="M1 2C1 1.44772 1.44772 1 2 1H12C12.5523 1 13 1.44772 13 2V8C13 8.55228 12.5523 9 12 9H2C1.44772 9 1 8.55228 1 8V2Z" fill="#D0EFF7"/>
<path d="M12.5 2C12.5 1.72386 12.2761 1.5 12 1.5H2C1.72386 1.5 1.5 1.72386 1.5 2V8C1.5 8.27614 1.72386 8.5 2 8.5H12C12.2761 8.5 12.5 8.27614 12.5 8V2ZM13.5 8C13.5 8.82843 12.8284 9.5 12 9.5H2C1.17157 9.5 0.5 8.82843 0.5 8V2C0.5 1.17157 1.17157 0.5 2 0.5H12C12.8284 0.5 13.5 1.17157 13.5 2V8Z" fill="#535D6B"/>
<path d="M17 2C17 1.44772 17.4477 1 18 1H28C28.5523 1 29 1.44772 29 2V8C29 8.55228 28.5523 9 28 9H18C17.4477 9 17 8.55228 17 8V2Z" fill="#D0EFF7"/>
<path d="M28.5 2C28.5 1.72386 28.2761 1.5 28 1.5H18C17.7239 1.5 17.5 1.72386 17.5 2V8C17.5 8.27614 17.7239 8.5 18 8.5H28C28.2761 8.5 28.5 8.27614 28.5 8V2ZM29.5 8C29.5 8.82843 28.8284 9.5 28 9.5H18C17.1716 9.5 16.5 8.82843 16.5 8V2C16.5 1.17157 17.1716 0.5 18 0.5H28C28.8284 0.5 29.5 1.17157 29.5 2V8Z" fill="#535D6B"/>
<path d="M11 10.5C11.2761 10.5 11.5 10.7239 11.5 11C11.5 11.2761 11.2761 11.5 11 11.5H2C1.72386 11.5 1.5 11.2761 1.5 11C1.5 10.7239 1.72386 10.5 2 10.5H11Z" fill="#535D6B"/>
<path d="M7 12.5C7.27614 12.5 7.5 12.7239 7.5 13C7.5 13.2761 7.27614 13.5 7 13.5L2 13.5C1.72386 13.5 1.5 13.2761 1.5 13C1.5 12.7239 1.72386 12.5 2 12.5L7 12.5Z" fill="#535D6B"/>
<path d="M27 10.5C27.2761 10.5 27.5 10.7239 27.5 11C27.5 11.2761 27.2761 11.5 27 11.5H18C17.7239 11.5 17.5 11.2761 17.5 11C17.5 10.7239 17.7239 10.5 18 10.5H27Z" fill="#535D6B"/>
<path d="M23 12.5C23.2761 12.5 23.5 12.7239 23.5 13C23.5 13.2761 23.2761 13.5 23 13.5L18 13.5C17.7239 13.5 17.5 13.2761 17.5 13C17.5 12.7239 17.7239 12.5 18 12.5L23 12.5Z" fill="#535D6B"/>
<path d="M1 17C1 16.4477 1.44772 16 2 16H12C12.5523 16 13 16.4477 13 17V23C13 23.5523 12.5523 24 12 24H2C1.44772 24 1 23.5523 1 23V17Z" fill="#D0EFF7"/>
<path d="M12.5 17C12.5 16.7239 12.2761 16.5 12 16.5H2C1.72386 16.5 1.5 16.7239 1.5 17V23C1.5 23.2761 1.72386 23.5 2 23.5H12C12.2761 23.5 12.5 23.2761 12.5 23V17ZM13.5 23C13.5 23.8284 12.8284 24.5 12 24.5H2C1.17157 24.5 0.5 23.8284 0.5 23V17C0.5 16.1716 1.17157 15.5 2 15.5H12C12.8284 15.5 13.5 16.1716 13.5 17V23Z" fill="#535D6B"/>
<path d="M17 17C17 16.4477 17.4477 16 18 16H28C28.5523 16 29 16.4477 29 17V23C29 23.5523 28.5523 24 28 24H18C17.4477 24 17 23.5523 17 23V17Z" fill="#D0EFF7"/>
<path d="M28.5 17C28.5 16.7239 28.2761 16.5 28 16.5H18C17.7239 16.5 17.5 16.7239 17.5 17V23C17.5 23.2761 17.7239 23.5 18 23.5H28C28.2761 23.5 28.5 23.2761 28.5 23V17ZM29.5 23C29.5 23.8284 28.8284 24.5 28 24.5H18C17.1716 24.5 16.5 23.8284 16.5 23V17C16.5 16.1716 17.1716 15.5 18 15.5H28C28.8284 15.5 29.5 16.1716 29.5 17V23Z" fill="#535D6B"/>
<path d="M11 25.5C11.2761 25.5 11.5 25.7239 11.5 26C11.5 26.2761 11.2761 26.5 11 26.5H2C1.72386 26.5 1.5 26.2761 1.5 26C1.5 25.7239 1.72386 25.5 2 25.5H11Z" fill="#535D6B"/>
<path d="M7 27.5C7.27614 27.5 7.5 27.7239 7.5 28C7.5 28.2761 7.27614 28.5 7 28.5L2 28.5C1.72386 28.5 1.5 28.2761 1.5 28C1.5 27.7239 1.72386 27.5 2 27.5L7 27.5Z" fill="#535D6B"/>
<path d="M27 25.5C27.2761 25.5 27.5 25.7239 27.5 26C27.5 26.2761 27.2761 26.5 27 26.5H18C17.7239 26.5 17.5 26.2761 17.5 26C17.5 25.7239 17.7239 25.5 18 25.5H27Z" fill="#535D6B"/>
<path d="M23 27.5C23.2761 27.5 23.5 27.7239 23.5 28C23.5 28.2761 23.2761 28.5 23 28.5L18 28.5C17.7239 28.5 17.5 28.2761 17.5 28C17.5 27.7239 17.7239 27.5 18 27.5L23 27.5Z" fill="#535D6B"/>
</svg>
