<svg width="30" height="30" viewBox="0 0 30 30" fill="none" xmlns="http://www.w3.org/2000/svg">
<g clip-path="url(#clip0_10_684)">
<path d="M1 2C1 1.44772 1.44772 1 2 1H12C12.5523 1 13 1.44772 13 2V12C13 12.5523 12.5523 13 12 13H2C1.44772 13 1 12.5523 1 12V2Z" fill="#3B646B"/>
<path d="M12.5 2C12.5 1.72386 12.2761 1.5 12 1.5H2C1.72386 1.5 1.5 1.72386 1.5 2V12C1.5 12.2761 1.72386 12.5 2 12.5H12C12.2761 12.5 12.5 12.2761 12.5 12V2ZM13.5 12C13.5 12.8284 12.8284 13.5 12 13.5H2C1.17157 13.5 0.5 12.8284 0.5 12V2C0.5 1.17157 1.17157 0.5 2 0.5H12C12.8284 0.5 13.5 1.17157 13.5 2V12Z" fill="#D0EFF7"/>
<path d="M17 2C17 1.44772 17.4477 1 18 1H28C28.5523 1 29 1.44772 29 2V12C29 12.5523 28.5523 13 28 13H18C17.4477 13 17 12.5523 17 12V2Z" fill="#3B646B"/>
<path d="M28.5 2C28.5 1.72386 28.2761 1.5 28 1.5H18C17.7239 1.5 17.5 1.72386 17.5 2V12C17.5 12.2761 17.7239 12.5 18 12.5H28C28.2761 12.5 28.5 12.2761 28.5 12V2ZM29.5 12C29.5 12.8284 28.8284 13.5 28 13.5H18C17.1716 13.5 16.5 12.8284 16.5 12V2C16.5 1.17157 17.1716 0.5 18 0.5H28C28.8284 0.5 29.5 1.17157 29.5 2V12Z" fill="#D0EFF7"/>
<path d="M1 18C1 17.4477 1.44772 17 2 17H12C12.5523 17 13 17.4477 13 18V28C13 28.5523 12.5523 29 12 29H2C1.44772 29 1 28.5523 1 28V18Z" fill="#3B646B"/>
<path d="M12.5 18C12.5 17.7239 12.2761 17.5 12 17.5H2C1.72386 17.5 1.5 17.7239 1.5 18V28C1.5 28.2761 1.72386 28.5 2 28.5H12C12.2761 28.5 12.5 28.2761 12.5 28V18ZM13.5 28C13.5 28.8284 12.8284 29.5 12 29.5H2C1.17157 29.5 0.5 28.8284 0.5 28V18C0.5 17.1716 1.17157 16.5 2 16.5H12C12.8284 16.5 13.5 17.1716 13.5 18V28Z" fill="#D0EFF7"/>
<path d="M17 18C17 17.4477 17.4477 17 18 17H28C28.5523 17 29 17.4477 29 18V28C29 28.5523 28.5523 29 28 29H18C17.4477 29 17 28.5523 17 28V18Z" fill="#3B646B"/>
<path d="M28.5 18C28.5 17.7239 28.2761 17.5 28 17.5H18C17.7239 17.5 17.5 17.7239 17.5 18V28C17.5 28.2761 17.7239 28.5 18 28.5H28C28.2761 28.5 28.5 28.2761 28.5 28V18ZM29.5 28C29.5 28.8284 28.8284 29.5 28 29.5H18C17.1716 29.5 16.5 28.8284 16.5 28V18C16.5 17.1716 17.1716 16.5 18 16.5H28C28.8284 16.5 29.5 17.1716 29.5 18V28Z" fill="#D0EFF7"/>
</g>
<defs>
<clipPath id="clip0_10_684">
<rect width="30" height="30" fill="white"/>
</clipPath>
</defs>
</svg>
