<svg width="30" height="30" viewBox="0 0 30 30" fill="none" xmlns="http://www.w3.org/2000/svg">
<g clip-path="url(#clip0_8_3123)">
<rect width="30" height="30" fill="white"/>
<path d="M1 7C1 3.68629 3.68629 1 7 1H23C26.3137 1 29 3.68629 29 7V23C29 26.3137 26.3137 29 23 29H7C3.68629 29 1 26.3137 1 23V7Z" fill="#D0EFF7"/>
<path d="M28.5 7C28.5 3.96243 26.0376 1.5 23 1.5H7C3.96243 1.5 1.5 3.96243 1.5 7V23C1.5 26.0376 3.96243 28.5 7 28.5H23C26.0376 28.5 28.5 26.0376 28.5 23V7ZM29.5 23C29.5 26.5898 26.5899 29.5 23 29.5H7C3.41015 29.5 0.5 26.5899 0.5 23V7C0.5 3.41015 3.41015 0.5 7 0.5H23C26.5898 0.5 29.5 3.41015 29.5 7V23Z" fill="#535D6B"/>
<path d="M24 7C24.2761 7 24.5 7.22386 24.5 7.5C24.5 7.77614 24.2761 8 24 8C21.3884 8 19.7773 8.89375 18.626 10.209C17.4438 11.5595 16.7223 13.3758 15.9648 15.2988C15.2224 17.1837 14.4438 19.1762 13.126 20.6816C11.7773 22.2222 9.88821 23.2324 7 23.2324C6.72398 23.2324 6.5002 23.0084 6.5 22.7324C6.5 22.4563 6.72386 22.2324 7 22.2324C9.61162 22.2324 11.2227 21.3377 12.374 20.0225C13.5561 18.6719 14.2777 16.8556 15.0352 14.9326C15.7776 13.0478 16.5563 11.0562 17.874 9.55078C19.2227 8.01009 21.1117 7 24 7Z" fill="#535D6B"/>
</g>
<defs>
<clipPath id="clip0_8_3123">
<rect width="30" height="30" fill="white"/>
</clipPath>
</defs>
</svg>
