<svg width="30" height="30" viewBox="0 0 30 30" fill="none" xmlns="http://www.w3.org/2000/svg">
<g clip-path="url(#clip0_8_3697)">
<path d="M1 1H14V14H1V1Z" fill="#3B646B"/>
<path d="M14 0.5C14.2761 0.5 14.5 0.723858 14.5 1V14C14.5 14.2761 14.2761 14.5 14 14.5H1C0.723858 14.5 0.5 14.2761 0.5 14V1C0.5 0.723858 0.723858 0.5 1 0.5H14ZM1.5 13.5H13.5V1.5H1.5V13.5Z" fill="#D0EFF7"/>
<path d="M16 1H29V14H16V1Z" fill="#3B646B"/>
<path d="M29 0.5C29.2761 0.5 29.5 0.723858 29.5 1V14C29.5 14.2761 29.2761 14.5 29 14.5H16C15.7239 14.5 15.5 14.2761 15.5 14V1C15.5 0.723858 15.7239 0.5 16 0.5H29ZM16.5 13.5H28.5V1.5H16.5V13.5Z" fill="#D0EFF7"/>
<path d="M1 16H14V29H1V16Z" fill="#3B646B"/>
<path d="M14 15.5C14.2761 15.5 14.5 15.7239 14.5 16V29C14.5 29.2761 14.2761 29.5 14 29.5H1C0.723858 29.5 0.5 29.2761 0.5 29V16C0.5 15.7239 0.723858 15.5 1 15.5H14ZM1.5 28.5H13.5V16.5H1.5V28.5Z" fill="#D0EFF7"/>
<path d="M16 16H29V29H16V16Z" fill="#3B646B"/>
<path d="M29 15.5C29.2761 15.5 29.5 15.7239 29.5 16V29C29.5 29.2761 29.2761 29.5 29 29.5H16C15.7239 29.5 15.5 29.2761 15.5 29V16C15.5 15.7239 15.7239 15.5 16 15.5H29ZM16.5 28.5H28.5V16.5H16.5V28.5Z" fill="#D0EFF7"/>
<path d="M5 4L1 8V14H11.5L5 4Z" fill="#3B646B"/>
<path d="M5.05176 3.50293C5.20171 3.51866 5.33675 3.60115 5.41895 3.72754L11.9189 13.7275C12.0188 13.8812 12.0268 14.0772 11.9395 14.2383C11.852 14.3994 11.6834 14.5 11.5 14.5H1C0.723858 14.5 0.5 14.2761 0.5 14V8C0.5 7.86739 0.552716 7.74025 0.646484 7.64648L4.64648 3.64648L4.7334 3.57715C4.82733 3.51793 4.93923 3.49121 5.05176 3.50293ZM1.5 8.20703V13.5H10.5791L4.91699 4.78906L1.5 8.20703Z" fill="#D0EFF7"/>
<path d="M12 5.5C12 6.32843 11.3284 7 10.5 7C9.67157 7 9 6.32843 9 5.5C9 4.67157 9.67157 4 10.5 4C11.3284 4 12 4.67157 12 5.5Z" fill="#3B646B"/>
<path d="M11.5 5.5C11.5 4.94772 11.0523 4.5 10.5 4.5C9.94772 4.5 9.5 4.94772 9.5 5.5C9.5 6.05228 9.94772 6.5 10.5 6.5C11.0523 6.5 11.5 6.05228 11.5 5.5ZM12.5 5.5C12.5 6.60457 11.6046 7.5 10.5 7.5C9.39543 7.5 8.5 6.60457 8.5 5.5C8.5 4.39543 9.39543 3.5 10.5 3.5C11.6046 3.5 12.5 4.39543 12.5 5.5Z" fill="#D0EFF7"/>
<path d="M25 7.5L20 11L20 4L25 7.5Z" fill="#3B646B"/>
<path d="M25.5 7.5C25.5 7.66297 25.4205 7.81559 25.2871 7.90918L20.2871 11.4092C20.1345 11.516 19.9348 11.5293 19.7695 11.4434C19.6042 11.3573 19.5 11.1864 19.5 11L19.5 4C19.5 3.81356 19.6042 3.64274 19.7695 3.55664C19.9348 3.47071 20.1345 3.48397 20.2871 3.59082L25.2871 7.09082L25.376 7.1709C25.4549 7.26105 25.5 7.37752 25.5 7.5ZM20.5 4.95996L20.5 10.04L24.1289 7.5L20.5 4.95996Z" fill="#D0EFF7"/>
<path d="M6.5 26C7.32843 26 8 25.3817 8 24.6189C8 23.8562 7.32843 23.2379 6.5 23.2379C5.67157 23.2379 5 23.8562 5 24.6189C5 25.3817 5.67157 26 6.5 26Z" fill="#3B646B"/>
<path d="M7.5 24.6191C7.5 24.1706 7.09198 23.7383 6.5 23.7383C5.90802 23.7383 5.5 24.1706 5.5 24.6191C5.50012 25.0676 5.90811 25.5 6.5 25.5C7.09189 25.5 7.49988 25.0676 7.5 24.6191ZM8.48926 24.8174C8.3827 25.7932 7.49838 26.5 6.5 26.5C5.43519 26.5 4.50012 25.696 4.5 24.6191C4.5 23.5422 5.43512 22.7383 6.5 22.7383C6.8585 22.7383 7.20165 22.8302 7.5 22.9922V19.9053C7.5 19.7187 7.49938 19.5415 7.51367 19.3975C7.52813 19.2521 7.56372 19.062 7.69238 18.8926L7.75684 18.8154C7.91678 18.6448 8.13208 18.5388 8.35938 18.5078C8.55702 18.4809 8.73555 18.5296 8.87598 18.5801C9.01643 18.6306 9.1838 18.7076 9.36719 18.792L11.209 19.6406C11.4598 19.7561 11.5696 20.0529 11.4541 20.3037C11.3386 20.5545 11.0418 20.6643 10.791 20.5488L8.94824 19.7012C8.74864 19.6093 8.6282 19.5539 8.53809 19.5215C8.52667 19.5174 8.5163 19.5144 8.50781 19.5117C8.50093 19.5938 8.5 19.7102 8.5 19.9053V24.6191L8.48926 24.8174Z" fill="#D0EFF7"/>
<path d="M22.5 19L23.6973 20.852L25.8287 21.4184L24.4373 23.1295L24.5572 25.3316L22.5 24.537L20.4427 25.3316L20.5627 23.1295L19.1713 21.4184L21.3026 20.852L22.5 19Z" fill="#3B646B"/>
<path d="M22.5 18.5C22.6697 18.5 22.8278 18.586 22.9199 18.7285L24.0117 20.418L25.957 20.9355C26.121 20.9791 26.2522 21.1024 26.3047 21.2637C26.3571 21.425 26.3238 21.6027 26.2168 21.7344L24.9463 23.2949L25.0566 25.3047C25.0657 25.4739 24.9886 25.6366 24.8516 25.7363C24.7143 25.8361 24.5352 25.859 24.377 25.7979L22.5 25.0732L20.623 25.7979C20.4648 25.859 20.2857 25.8361 20.1484 25.7363C20.0113 25.6366 19.9342 25.4739 19.9434 25.3047L20.0527 23.2949L18.7832 21.7344C18.6761 21.6027 18.6429 21.425 18.6953 21.2637C18.7478 21.1024 18.879 20.9791 19.043 20.9355L20.9873 20.418L22.0801 18.7285L22.1172 18.6777C22.2115 18.5657 22.3515 18.5 22.5 18.5ZM21.7227 21.123C21.6552 21.2274 21.5508 21.303 21.4307 21.335L20.0469 21.7021L20.9502 22.8145C21.0285 22.9108 21.0682 23.0323 21.0615 23.1562L20.9834 24.5859L22.3203 24.0703L22.4092 24.0449C22.4993 24.0283 22.593 24.037 22.6797 24.0703L24.0156 24.5859L23.9385 23.1562C23.9318 23.0323 23.9715 22.9108 24.0498 22.8145L24.9521 21.7021L23.5693 21.335C23.4492 21.303 23.3448 21.2274 23.2773 21.123L22.5 19.9199L21.7227 21.123Z" fill="#D0EFF7"/>
</g>
<defs>
<clipPath id="clip0_8_3697">
<rect width="30" height="30" fill="white"/>
</clipPath>
</defs>
</svg>
