<svg width="30" height="30" viewBox="0 0 30 30" fill="none" xmlns="http://www.w3.org/2000/svg">
<rect width="30" height="30" fill="white"/>
<path d="M5 8C5 7.44772 5.44772 7 6 7H24C24.5523 7 25 7.44772 25 8V22C25 22.5523 24.5523 23 24 23H6C5.44772 23 5 22.5523 5 22V8Z" fill="#D0EFF7"/>
<path d="M24.5 8C24.5 7.72386 24.2761 7.5 24 7.5H6C5.72386 7.5 5.5 7.72386 5.5 8V22C5.5 22.2761 5.72386 22.5 6 22.5H24C24.2761 22.5 24.5 22.2761 24.5 22V8ZM25.5 22C25.5 22.8284 24.8284 23.5 24 23.5H6C5.17157 23.5 4.5 22.8284 4.5 22V8C4.5 7.17157 5.17157 6.5 6 6.5H24C24.8284 6.5 25.5 7.17157 25.5 8V22Z" fill="#535D6B"/>
<path d="M3.5 22V8C3.5 7.17157 2.82843 6.5 2 6.5H0V7.5H2C2.27614 7.5 2.5 7.72386 2.5 8V22C2.5 22.2761 2.27614 22.5 2 22.5H0V23.5H2C2.82843 23.5 3.5 22.8284 3.5 22Z" fill="#535D6B"/>
<path d="M26.5 22V8C26.5 7.17157 27.1716 6.5 28 6.5H30V7.5H28C27.7239 7.5 27.5 7.72386 27.5 8V22C27.5 22.2761 27.7239 22.5 28 22.5H30V23.5H28C27.1716 23.5 26.5 22.8284 26.5 22Z" fill="#535D6B"/>
<path d="M12.5 14L7.5 23H21.8094L18.0566 16.5L16 20.0622L12.5 14Z" fill="white"/>
<path d="M12.4961 13.5C12.676 13.4986 12.8425 13.5942 12.9326 13.75L15.999 19.0625L17.624 16.25L17.6601 16.1953C17.754 16.0732 17.9001 16 18.0566 16C18.2352 16 18.3999 16.0954 18.4892 16.25L22.2422 22.75C22.3315 22.9047 22.3315 23.0953 22.2422 23.25C22.1529 23.4046 21.9881 23.5 21.8095 23.5H7.49997C7.32295 23.5 7.15919 23.4064 7.0693 23.2539C6.97946 23.1012 6.97643 22.9117 7.06247 22.7569L12.0625 13.7569L12.0996 13.7012C12.1923 13.5769 12.3385 13.5013 12.4961 13.5ZM8.35055 22.5H20.9433L18.0556 17.499L16.4326 20.3125C16.3432 20.467 16.1784 20.5625 16 20.5625C15.8215 20.5625 15.6567 20.467 15.5673 20.3125L12.5088 15.0147L8.35055 22.5Z" fill="#535D6B"/>
<path d="M19 12.5C19 13.3284 18.3284 14 17.5 14C16.6716 14 16 13.3284 16 12.5C16 11.6716 16.6716 11 17.5 11C18.3284 11 19 11.6716 19 12.5Z" fill="#535D6B"/>
</svg>
