<svg width="30" height="30" viewBox="0 0 30 30" fill="none" xmlns="http://www.w3.org/2000/svg">
<path d="M23.8485 8.61723C24.1602 6.58517 23.8485 5.23046 22.7576 3.97996C21.5629 2.57315 19.3813 2 16.5762 2H8.52484C7.95345 2 7.48595 2.41683 7.38206 2.98998L4.00566 24.3527C3.95372 24.7695 4.26539 25.1343 4.68094 25.1343H8.48776C9.10549 25.1343 9.57548 25.6888 9.47423 26.2982L9.30401 27.3226C9.25206 27.6874 9.51179 28 9.92734 28H14.1349C14.6543 28 15.0699 27.6353 15.1218 27.1663L16.0049 21.6433C16.0568 21.1744 16.5243 20.8096 16.9918 20.8096H17.6151C21.6668 20.8096 24.8874 19.1423 25.8224 14.3487C26.186 12.3687 26.0302 10.6493 24.9913 9.50301C24.6796 9.13828 24.316 8.87776 23.8485 8.61723Z" fill="#3B646B"/>
<path d="M16.5762 1.5C19.4098 1.5 21.789 2.0712 23.1348 3.65137L23.3477 3.9082C23.8222 4.51285 24.1439 5.15847 24.3155 5.8916C24.4891 6.63327 24.5017 7.44151 24.3877 8.35645C24.7571 8.58573 25.0819 8.83938 25.3711 9.17773C26.5618 10.5004 26.6859 12.417 26.3145 14.4395L26.3135 14.4443C25.8263 16.9422 24.7294 18.6805 23.1778 19.7842C21.6365 20.8804 19.704 21.3096 17.6153 21.3096H16.9922C16.7421 21.3096 16.522 21.5183 16.502 21.6982C16.5011 21.7062 16.5003 21.7147 16.4991 21.7227L15.6182 27.2207C15.536 27.9633 14.8881 28.5 14.1348 28.5H9.92779C9.59062 28.5 9.28108 28.3703 9.06744 28.1309C8.85448 27.8921 8.76288 27.5733 8.80865 27.252L8.9815 26.2158C9.03181 25.9113 8.79607 25.6338 8.48736 25.6338H4.68072C3.95208 25.6336 3.42234 24.9935 3.50982 24.291L3.51177 24.2744L6.88872 2.91211L6.8897 2.90039C7.0333 2.109 7.69252 1.50021 8.52447 1.5H16.5762ZM8.52447 2.5C8.21414 2.50021 7.93834 2.72469 7.87408 3.0791L4.50103 24.418C4.48677 24.547 4.57944 24.6336 4.68072 24.6338H8.48736C9.41387 24.6338 10.1195 25.4659 9.96783 26.3799L9.7979 27.3926L9.79888 27.3936C9.7929 27.4362 9.80572 27.456 9.81353 27.4648C9.82065 27.4728 9.84941 27.5 9.92779 27.5H14.1348C14.4204 27.5 14.6034 27.3066 14.6251 27.1113L14.628 27.0869L15.5108 21.5645C15.607 20.8195 16.3147 20.3096 16.9922 20.3096H17.6153C19.578 20.3096 21.2821 19.9054 22.5977 18.9697C23.9029 18.0414 24.8843 16.5485 25.3321 14.2529C25.6856 12.3233 25.4989 10.8076 24.6211 9.83887C24.618 9.83535 24.6145 9.83173 24.6114 9.82812C24.3524 9.52507 24.0442 9.29818 23.6055 9.05371C23.4231 8.95203 23.3229 8.74749 23.3545 8.54102C23.5043 7.56411 23.4979 6.78576 23.3419 6.11914C23.1873 5.45932 22.8794 4.88004 22.3809 4.30859L22.377 4.30371C21.3326 3.07392 19.3497 2.5 16.5762 2.5H8.52447Z" fill="#D0EFF7"/>
<path d="M23.8255 8.69857C23.8386 8.64386 23.8529 8.58876 23.8611 8.53311C24.1514 6.54763 23.8334 5.21312 22.7576 3.97996C21.5629 2.57315 19.3813 2 16.5762 2H8.52484C7.95345 2 7.48595 2.41683 7.38206 2.98998L4.00566 24.3527C3.95372 24.7695 4.26539 25.1343 4.68094 25.1343H8.81062C9.30379 25.1343 9.72332 24.7747 9.79883 24.2874L10.8623 17.4228C10.9662 16.8497 11.4337 16.4329 12.0051 16.4329H14.3946C19.0303 16.4329 22.6446 14.5885 23.7179 9.1724C23.7358 9.08185 23.7672 8.992 23.7858 8.90159C23.7986 8.83924 23.8085 8.76987 23.8255 8.69857Z" fill="#3B646B"/>
<path d="M16.5762 1.5C19.4098 1.5 21.789 2.0712 23.1348 3.65137L23.3448 3.9043C23.8134 4.50038 24.1337 5.13673 24.3077 5.85742C24.505 6.67484 24.5065 7.57307 24.3555 8.60547C24.3433 8.68931 24.3213 8.77376 24.3116 8.81445C24.2944 8.88606 24.2987 8.88904 24.2754 9.00195C24.2622 9.06621 24.2448 9.12853 24.2335 9.16992C24.2205 9.21701 24.2129 9.24494 24.2081 9.26953C23.6515 12.0779 22.4217 14.0163 20.6797 15.2422C18.949 16.4602 16.7726 16.9326 14.3946 16.9326H12.0049C11.6946 16.9327 11.4189 17.1574 11.3545 17.5117L10.293 24.3643C10.1796 25.0951 9.55025 25.6338 8.8106 25.6338H4.68072C3.95208 25.6336 3.42234 24.9935 3.50982 24.291L3.51177 24.2744L6.88872 2.91211L6.8897 2.90039C7.0333 2.109 7.69252 1.50021 8.52447 1.5H16.5762ZM8.52447 2.5C8.21414 2.50021 7.93834 2.72469 7.87408 3.0791L4.50103 24.418C4.48677 24.547 4.57944 24.6336 4.68072 24.6338H8.8106C9.05714 24.6338 9.26694 24.4546 9.30474 24.2109L10.3682 17.3467L10.3702 17.334C10.5137 16.5424 11.1728 15.9327 12.0049 15.9326H14.3946C16.6523 15.9326 18.6009 15.483 20.1045 14.4248C21.5969 13.3745 22.7108 11.6829 23.2276 9.0752C23.2406 9.00932 23.2578 8.94714 23.2696 8.9043C23.283 8.85556 23.2906 8.82692 23.296 8.80078C23.2983 8.78941 23.322 8.65293 23.3389 8.58203C23.3553 8.51344 23.3623 8.48806 23.3663 8.46094C23.5056 7.50805 23.494 6.74617 23.336 6.0918C23.1795 5.44358 22.8727 4.87239 22.3809 4.30859L22.377 4.30371C21.3326 3.07392 19.3497 2.5 16.5762 2.5H8.52447Z" fill="#D0EFF7"/>
<path d="Mnan nanL12.2648 8.66934C12.3168 8.30461 12.7843 7.83567 13.2518 7.83567H19.589C20.3163 7.83567 21.0435 7.88778 21.6668 7.99198C21.8679 8.02866 22.1269 8.08469 22.4008 8.15554C23.0894 8.3337 23.9226 7.89471 23.91 7.18348C23.8878 5.92535 23.507 4.9506 22.7057 4.03206C21.5629 2.57315 19.3813 2 16.5762 2H8.52484C7.95345 2 7.48595 2.41683 7.38206 2.98998L4.00566 24.3527C3.95372 24.7695 4.26539 25.1343 4.68094 25.1343H8.813C9.30513 25.1343 9.7241 24.7762 9.80078 24.2901L12.2648 8.66934Lnan nanLnan nanZ" fill="#3B646B"/>
<path d="M16.5762 1.5C19.4076 1.5 21.8045 2.07019 23.0997 3.72363C23.9669 4.72571 24.3861 5.80848 24.4102 7.1748C24.4203 7.74989 24.0835 8.18661 23.6768 8.43164C23.2752 8.67357 22.7567 8.76416 22.2754 8.63965C22.0159 8.57251 21.7717 8.5188 21.584 8.48438C20.9935 8.38568 20.2944 8.33594 19.5889 8.33594H13.252C13.1794 8.33594 13.0595 8.37825 12.9366 8.48828C12.8085 8.60295 12.7637 8.71266 12.7598 8.74023L12.2647 8.66895L12.7588 8.74707L10.295 24.3682C10.1799 25.0971 9.55147 25.6336 8.81353 25.6338H4.68072C3.95208 25.6336 3.42234 24.9935 3.50982 24.291L3.51177 24.2744L6.88872 2.91211L6.8897 2.90039C7.0333 2.109 7.69252 1.50021 8.52447 1.5H16.5762ZM8.52447 2.5C8.21414 2.50021 7.93834 2.72469 7.87408 3.0791L4.50103 24.418C4.48677 24.547 4.57944 24.6336 4.68072 24.6338H8.81353C9.05939 24.6336 9.26838 24.4548 9.30669 24.2119L11.7706 8.5918C11.8205 8.25746 12.0347 7.95268 12.2686 7.74316C12.5092 7.52768 12.8572 7.33594 13.252 7.33594H19.5889C20.1505 7.33594 20.716 7.36545 21.2403 7.42676L21.7491 7.49902L21.7569 7.5C21.9704 7.53895 22.2415 7.59817 22.5264 7.67188C22.7336 7.72532 22.9764 7.68579 23.1602 7.5752C23.339 7.46749 23.4126 7.32836 23.4102 7.19238C23.3901 6.05156 23.0526 5.18974 22.3292 4.36035C22.3235 4.35391 22.3178 4.34754 22.3126 4.34082C21.3221 3.07643 19.3549 2.5 16.5762 2.5H8.52447Z" fill="#D0EFF7"/>
</svg>
