<svg width="30" height="30" viewBox="0 0 30 30" fill="none" xmlns="http://www.w3.org/2000/svg">
<rect width="30" height="30" fill="white"/>
<path d="M23.8485 8.61723C24.1602 6.58517 23.8485 5.23046 22.7576 3.97996C21.5629 2.57315 19.3813 2 16.5762 2H8.52484C7.95345 2 7.48595 2.41683 7.38206 2.98998L4.00566 24.3527C3.95372 24.7695 4.26539 25.1343 4.68094 25.1343H9.66762L9.30401 27.3226C9.25206 27.6874 9.51179 28 9.92734 28H14.1349C14.6543 28 15.0699 27.6353 15.1218 27.1663L16.0049 21.6433C16.0568 21.1744 16.5243 20.8096 16.9918 20.8096H17.6151C21.6668 20.8096 24.8874 19.1423 25.8224 14.3487C26.186 12.3687 26.0302 10.6493 24.9913 9.50301C24.6796 9.13828 24.316 8.87776 23.8485 8.61723" fill="#D0EFF7"/>
<path d="M16.5762 1.5C19.4098 1.5 21.789 2.0712 23.1348 3.65137L23.3477 3.9082C23.8222 4.51285 24.1439 5.15847 24.3155 5.8916C24.4891 6.63327 24.5017 7.44151 24.3877 8.35645C24.7571 8.58573 25.0819 8.83938 25.3711 9.17773C26.5618 10.5004 26.6859 12.417 26.3145 14.4395L26.3135 14.4443C25.8263 16.9422 24.7294 18.6805 23.1778 19.7842C21.6365 20.8804 19.704 21.3096 17.6153 21.3096H16.9922C16.7421 21.3096 16.522 21.5183 16.502 21.6982C16.5011 21.7062 16.5003 21.7147 16.4991 21.7227L15.6182 27.2207C15.536 27.9633 14.8881 28.5 14.1348 28.5H9.92779C9.59062 28.5 9.28108 28.3703 9.06744 28.1309C8.85448 27.8921 8.76288 27.5733 8.80865 27.252L9.07818 25.6338H4.68072C3.95208 25.6336 3.42234 24.9935 3.50982 24.291L3.51177 24.2744L6.88872 2.91211L6.8897 2.90039C7.0333 2.109 7.69252 1.50021 8.52447 1.5H16.5762ZM8.52447 2.5C8.21414 2.50021 7.93834 2.72469 7.87408 3.0791L4.50103 24.418C4.48677 24.547 4.57944 24.6336 4.68072 24.6338H9.66802C9.81467 24.6339 9.95396 24.6988 10.0489 24.8105C10.1438 24.9225 10.1851 25.071 10.1612 25.2158L9.7979 27.3926L9.79888 27.3936C9.7929 27.4362 9.80572 27.456 9.81353 27.4648C9.82065 27.4728 9.84941 27.5 9.92779 27.5H14.1348C14.4204 27.5 14.6034 27.3066 14.6251 27.1113L14.628 27.0869L15.5108 21.5645C15.607 20.8195 16.3147 20.3096 16.9922 20.3096H17.6153C19.578 20.3096 21.2821 19.9054 22.5977 18.9697C23.9029 18.0414 24.8843 16.5485 25.3321 14.2529C25.6856 12.3233 25.4989 10.8076 24.6211 9.83887C24.618 9.83535 24.6145 9.83173 24.6114 9.82812C24.3524 9.52507 24.0442 9.29818 23.6055 9.05371C23.6031 9.05238 23.601 9.05019 23.5987 9.04883C23.5807 9.03841 23.5643 9.02613 23.5479 9.01367C23.5367 9.00518 23.525 8.99756 23.5147 8.98828C23.5037 8.97837 23.4945 8.96687 23.4844 8.95605C23.4726 8.94331 23.4596 8.93174 23.4493 8.91797C23.4403 8.90604 23.4337 8.89257 23.4258 8.87988C23.4166 8.86492 23.4061 8.85075 23.3985 8.83496C23.3917 8.82088 23.3874 8.80574 23.3819 8.79102C23.3765 8.77662 23.3693 8.76287 23.3653 8.74805C23.3593 8.72585 23.3565 8.70283 23.3536 8.67969C23.3525 8.67155 23.3513 8.66347 23.3506 8.65527C23.3492 8.63624 23.3499 8.61709 23.3506 8.59766C23.3512 8.58203 23.3515 8.5664 23.3536 8.55078C23.354 8.54769 23.3541 8.54411 23.3545 8.54102C23.5043 7.56411 23.4979 6.78576 23.3419 6.11914C23.1873 5.45932 22.8794 4.88004 22.3809 4.30859L22.377 4.30371C21.3326 3.07392 19.3497 2.5 16.5762 2.5H8.52447Z" fill="#535D6B"/>
<path d="M23.8485 8.61723C24.1601 6.58517 23.8485 5.23046 22.7576 3.97996C21.5629 2.57315 19.3813 2 16.5762 2H8.52484C7.95345 2 7.48595 2.41683 7.38206 2.98998L4.00566 24.3527C3.95372 24.7695 4.26539 25.1343 4.68094 25.1343H9.66762L10.8623 17.4228C10.9662 16.8497 11.4337 16.4329 12.0051 16.4329H14.3946C19.0696 16.4329 22.7057 14.5571 23.7446 9.03407C23.7965 8.92986 23.7965 8.77355 23.8485 8.61723Z" fill="#D0EFF7"/>
<path d="M16.5762 1.5C19.4098 1.5 21.789 2.0712 23.1348 3.65137L23.3477 3.9082C23.8222 4.51285 24.1439 5.15847 24.3155 5.8916C24.5101 6.72288 24.5046 7.6384 24.3428 8.69336C24.3386 8.72105 24.3321 8.7488 24.3233 8.77539C24.311 8.81256 24.3032 8.85159 24.2881 8.93457C24.2795 8.98209 24.2632 9.07736 24.2256 9.17773C23.6825 12.0112 22.462 13.9704 20.7237 15.2119C18.986 16.4528 16.7926 16.9326 14.3946 16.9326H12.0049C11.6946 16.9327 11.4189 17.1574 11.3545 17.5117L10.1622 25.2109C10.1244 25.4545 9.91444 25.6336 9.66802 25.6338H4.68072C3.95208 25.6336 3.42234 24.9935 3.50982 24.291L3.51177 24.2744L6.88872 2.91211L6.8897 2.90039C7.0333 2.109 7.69252 1.50021 8.52447 1.5H16.5762ZM8.52447 2.5C8.21414 2.50021 7.93834 2.72469 7.87408 3.0791L4.50103 24.418C4.48677 24.547 4.57944 24.6336 4.68072 24.6338H9.23931L10.3682 17.3467L10.3702 17.334C10.5137 16.5424 11.1728 15.9327 12.0049 15.9326H14.3946C16.6715 15.9326 18.6338 15.475 20.1426 14.3975C21.6403 13.3278 22.7523 11.6032 23.253 8.94141C23.2615 8.89611 23.2764 8.8518 23.2969 8.81055C23.2885 8.82745 23.2879 8.83548 23.2911 8.82324C23.2943 8.81042 23.2983 8.79154 23.3047 8.75586C23.3137 8.70636 23.3296 8.6185 23.3565 8.52246C23.5034 7.55419 23.4969 6.78156 23.3419 6.11914C23.1873 5.45932 22.8794 4.88004 22.3809 4.30859L22.377 4.30371C21.3326 3.07392 19.3497 2.5 16.5762 2.5H8.52447Z" fill="#535D6B"/>
<path d="M12.2648 8.66934C12.3168 8.30461 12.7843 7.83567 13.2518 7.83567H19.589C20.3163 7.83567 21.0435 7.88778 21.6668 7.99198C22.2382 8.09619 23.2771 8.35671 23.7965 8.66934C24.1082 6.63727 23.7965 5.28256 22.7057 4.03206C21.5629 2.57315 19.3813 2 16.5762 2H8.52484C7.95345 2 7.48595 2.41683 7.38206 2.98998L4.00566 24.3527C3.95372 24.7695 4.26539 25.1343 4.68094 25.1343H9.66762L12.2648 8.66934V8.66934Z" fill="#D0EFF7"/>
<path d="M16.5762 1.5C19.4076 1.5 21.8045 2.07019 23.0997 3.72363H23.0987C23.6814 4.39682 24.0694 5.11351 24.2637 5.94336C24.4583 6.77462 24.4529 7.69019 24.2911 8.74512C24.2658 8.90991 24.1598 9.0513 24.0088 9.12207C23.858 9.1928 23.6819 9.1835 23.5391 9.09766C23.3362 8.97553 22.9968 8.84709 22.6094 8.73242C22.2348 8.62154 21.853 8.53371 21.584 8.48438C20.9935 8.38568 20.2944 8.33594 19.5889 8.33594H13.252C13.1794 8.33594 13.0595 8.37825 12.9366 8.48828C12.8085 8.60295 12.7637 8.71266 12.7598 8.74023L12.2647 8.66895L12.7588 8.74707L10.1612 25.2119C10.1229 25.4549 9.91394 25.6336 9.66802 25.6338H4.68072C3.95208 25.6336 3.42234 24.9935 3.50982 24.291L3.51177 24.2744L6.88872 2.91211L6.8897 2.90039C7.0333 2.109 7.69252 1.50021 8.52447 1.5H16.5762ZM8.52447 2.5C8.21414 2.50021 7.93834 2.72469 7.87408 3.0791L4.50103 24.418C4.48677 24.547 4.57944 24.6336 4.68072 24.6338H9.24029L11.7706 8.5918C11.8205 8.25746 12.0347 7.95268 12.2686 7.74316C12.5092 7.52768 12.8572 7.33594 13.252 7.33594H19.5889C20.1505 7.33594 20.716 7.36545 21.2403 7.42676L21.7491 7.49902L21.7569 7.5C22.0589 7.55509 22.4785 7.65087 22.8926 7.77344C23.0531 7.82095 23.2192 7.87547 23.3809 7.93457C23.4396 7.25582 23.4093 6.6814 23.2901 6.17188C23.1356 5.5119 22.8277 4.93191 22.3292 4.36035C22.3235 4.35391 22.3178 4.34754 22.3126 4.34082C21.3221 3.07643 19.3549 2.5 16.5762 2.5H8.52447Z" fill="#535D6B"/>
</svg>
