<svg width="30" height="30" viewBox="0 0 30 30" fill="none" xmlns="http://www.w3.org/2000/svg">
<g clip-path="url(#clip0_8_3126)">
<rect width="30" height="30" fill="white"/>
<path d="M6 10C6 8.89543 6.89543 8 8 8H22C23.1046 8 24 8.89543 24 10V27C24 28.1046 23.1046 29 22 29H8C6.89543 29 6 28.1046 6 27V10Z" fill="white"/>
<path d="M23.5 10C23.5 9.17157 22.8284 8.5 22 8.5H8C7.17157 8.5 6.5 9.17157 6.5 10V27C6.5 27.8284 7.17157 28.5 8 28.5H22C22.8284 28.5 23.5 27.8284 23.5 27V10ZM24.5 27C24.5 28.3807 23.3807 29.5 22 29.5H8C6.61929 29.5 5.5 28.3807 5.5 27V10C5.5 8.61929 6.61929 7.5 8 7.5H22C23.3807 7.5 24.5 8.61929 24.5 10V27Z" fill="#535D6B"/>
<path d="M3 7C3 5.89543 3.89543 5 5 5H25C26.1046 5 27 5.89543 27 7V24C27 25.1046 26.1046 26 25 26H5C3.89543 26 3 25.1046 3 24V7Z" fill="white"/>
<path d="M26.5 7C26.5 6.17157 25.8284 5.5 25 5.5H5C4.17157 5.5 3.5 6.17157 3.5 7V24C3.5 24.8284 4.17157 25.5 5 25.5H25C25.8284 25.5 26.5 24.8284 26.5 24V7ZM27.5 24C27.5 25.3807 26.3807 26.5 25 26.5H5C3.61929 26.5 2.5 25.3807 2.5 24V7C2.5 5.61929 3.61929 4.5 5 4.5H25C26.3807 4.5 27.5 5.61929 27.5 7V24Z" fill="#535D6B"/>
<path d="M1 3C1 1.89543 1.89543 1 3 1H27C28.1046 1 29 1.89543 29 3V21C29 22.1046 28.1046 23 27 23H3C1.89543 23 1 22.1046 1 21V3Z" fill="white"/>
<path d="M28.5 3C28.5 2.17157 27.8284 1.5 27 1.5H3C2.17157 1.5 1.5 2.17157 1.5 3V21C1.5 21.8284 2.17157 22.5 3 22.5H27C27.8284 22.5 28.5 21.8284 28.5 21V3ZM29.5 21C29.5 22.3807 28.3807 23.5 27 23.5H3C1.61929 23.5 0.5 22.3807 0.5 21V3C0.5 1.61929 1.61929 0.5 3 0.5H27C28.3807 0.5 29.5 1.61929 29.5 3V21Z" fill="#535D6B"/>
<path d="M24 12C24 16.9706 19.9706 21 15 21C10.0294 21 6 16.9706 6 12C6 7.02944 10.0294 3 15 3C19.9706 3 24 7.02944 24 12Z" fill="#D0EFF7"/>
<path d="M23.5 12C23.5 7.30558 19.6944 3.5 15 3.5C10.3056 3.5 6.5 7.30558 6.5 12C6.5 16.6944 10.3056 20.5 15 20.5C19.6944 20.5 23.5 16.6944 23.5 12ZM24.5 12C24.5 17.2467 20.2467 21.5 15 21.5C9.75329 21.5 5.5 17.2467 5.5 12C5.5 6.75329 9.75329 2.5 15 2.5C20.2467 2.5 24.5 6.75329 24.5 12Z" fill="#535D6B"/>
<path d="M15.2588 14.2861L17.333 11.6074L21.7412 18.6924C20.0202 20.4259 17.6358 21.5 15 21.5C12.4626 21.5 10.1591 20.5036 8.45508 18.8828L8.51855 18.0361L12.667 10L15.2588 14.2861Z" fill="white"/>
<path d="M15.2588 14.2861L17.333 11.6074L21.7412 18.6924C20.0202 20.4259 17.6358 21.5 15 21.5V20.5C17.0768 20.5 18.9772 19.7545 20.4541 18.5166L17.2432 13.3555L15.1572 16.0508L12.7354 12.0459L9.5 18.3145L9.48828 18.4668C10.9734 19.7344 12.8959 20.5 15 20.5V21.5C12.4626 21.5 10.1591 20.5036 8.45508 18.8828L8.51855 18.0361L12.667 10L15.2588 14.2861Z" fill="#535D6B"/>
<path d="M18 8.5C18 9.32843 17.3284 10 16.5 10C15.6716 10 15 9.32843 15 8.5C15 7.67157 15.6716 7 16.5 7C17.3284 7 18 7.67157 18 8.5Z" fill="white"/>
<path d="M17.5 8.5C17.5 7.94772 17.0523 7.5 16.5 7.5C15.9477 7.5 15.5 7.94772 15.5 8.5C15.5 9.05228 15.9477 9.5 16.5 9.5C17.0523 9.5 17.5 9.05228 17.5 8.5ZM18.5 8.5C18.5 9.60457 17.6046 10.5 16.5 10.5C15.3954 10.5 14.5 9.60457 14.5 8.5C14.5 7.39543 15.3954 6.5 16.5 6.5C17.6046 6.5 18.5 7.39543 18.5 8.5Z" fill="#535D6B"/>
</g>
<defs>
<clipPath id="clip0_8_3126">
<rect width="30" height="30" fill="white"/>
</clipPath>
</defs>
</svg>
