<svg width="30" height="30" viewBox="0 0 30 30" fill="none" xmlns="http://www.w3.org/2000/svg">
<path d="M7 6C7 5.44772 7.44772 5 8 5H28C28.5523 5 29 5.44772 29 6V24C29 24.5523 28.5523 25 28 25H8C7.44772 25 7 24.5523 7 24V6Z" fill="#3B646B"/>
<path d="M28.5 6C28.5 5.72386 28.2761 5.5 28 5.5H8C7.72386 5.5 7.5 5.72386 7.5 6V24C7.5 24.2761 7.72386 24.5 8 24.5H28C28.2761 24.5 28.5 24.2761 28.5 24V6ZM29.5 24C29.5 24.8284 28.8284 25.5 28 25.5H8C7.17157 25.5 6.5 24.8284 6.5 24V6C6.5 5.17157 7.17157 4.5 8 4.5H28C28.8284 4.5 29.5 5.17157 29.5 6V24Z" fill="#D0EFF7"/>
<path d="M16.5 14L11.5 23H25.8094L22.0566 16.5L20 20.0622L16.5 14Z" fill="#3B646B"/>
<path d="M16.4961 13.5C16.676 13.4986 16.8425 13.5942 16.9326 13.75L19.999 19.0625L21.624 16.25L21.6601 16.1953C21.754 16.0731 21.9001 16 22.0566 16C22.2352 16 22.3999 16.0954 22.4892 16.25L26.2422 22.75C26.3315 22.9047 26.3315 23.0953 26.2422 23.25C26.1529 23.4046 25.9881 23.4999 25.8095 23.5H11.5C11.323 23.5 11.1592 23.4064 11.0693 23.2539C10.9795 23.1012 10.9764 22.9117 11.0625 22.7568L16.0625 13.7568L16.0996 13.7012C16.1923 13.5769 16.3385 13.5013 16.4961 13.5ZM12.3506 22.5H24.9433L22.0556 17.499L20.4326 20.3125C20.3432 20.467 20.1784 20.5625 20 20.5625C19.8215 20.5625 19.6567 20.467 19.5673 20.3125L16.5088 15.0146L12.3506 22.5Z" fill="#D0EFF7"/>
<path d="M23 12.5C23 13.3284 22.3284 14 21.5 14C20.6716 14 20 13.3284 20 12.5C20 11.6716 20.6716 11 21.5 11C22.3284 11 23 11.6716 23 12.5Z" fill="#D0EFF7"/>
<path d="M11.5 9.5C11.7761 9.5 12 9.72386 12 10C12 10.2761 11.7761 10.5 11.5 10.5H2C1.72386 10.5 1.5 10.2761 1.5 10C1.5 9.72386 1.72386 9.5 2 9.5H11.5Z" fill="#D0EFF7"/>
<path d="M9 14.5C9.27614 14.5 9.5 14.7239 9.5 15C9.5 15.2761 9.27614 15.5 9 15.5L5 15.5C4.72386 15.5 4.5 15.2761 4.5 15C4.5 14.7239 4.72386 14.5 5 14.5L9 14.5Z" fill="#D0EFF7"/>
<path d="M5 18.5C5.27614 18.5 5.5 18.7239 5.5 19C5.5 19.2761 5.27614 19.5 5 19.5H2C1.72386 19.5 1.5 19.2761 1.5 19C1.5 18.7239 1.72386 18.5 2 18.5H5Z" fill="#D0EFF7"/>
</svg>
