<svg width="30" height="30" viewBox="0 0 30 30" fill="none" xmlns="http://www.w3.org/2000/svg">
<rect width="30" height="30" fill="white"/>
<path d="M15 2C16.7072 2 18.3977 2.33626 19.9749 2.98957C21.5521 3.64288 22.9852 4.60045 24.1924 5.80761C25.3996 7.01478 26.3571 8.44789 27.0104 10.0251C27.6637 11.6024 28 13.2928 28 15L15 15V2Z" fill="#D0EFF7"/>
<path d="M28 15C28 17.0515 27.5145 19.0739 26.5831 20.9019C25.6517 22.7298 24.3009 24.3114 22.6412 25.5172L15 15L28 15Z" fill="#D0EFF7"/>
<path d="M28 15C28 22.1797 22.1797 28 15 28C7.8203 28 2 22.1797 2 15C2 7.8203 7.8203 2 15 2C22.1797 2 28 7.82031 28 15Z" fill="#D0EFF7"/>
<path d="M15 1.5C15.1917 1.5 15.3831 1.50553 15.5742 1.51367C18.5767 1.63932 21.3252 2.74456 23.5088 4.51953C23.5325 4.53879 23.5565 4.55773 23.5801 4.57715C23.916 4.85398 24.2384 5.14658 24.5459 5.4541L24.7783 5.69141C24.8769 5.79493 24.9733 5.90037 25.0684 6.00684C25.1206 6.0653 25.1724 6.12422 25.2236 6.18359C25.3106 6.28445 25.3956 6.38693 25.4795 6.49023C27.2373 8.65221 28.3396 11.368 28.4834 14.3359C28.4888 14.4465 28.4934 14.5572 28.4961 14.668L28.5 15C28.5 15.1669 28.4954 15.3336 28.4893 15.5C28.4864 15.5796 28.4838 15.659 28.4795 15.7383C28.4776 15.7731 28.4748 15.8079 28.4727 15.8428C28.2884 18.8337 27.1303 21.5601 25.3115 23.7109C25.2892 23.7374 25.2667 23.7637 25.2441 23.79C25.0018 24.0723 24.748 24.3442 24.4834 24.6055C24.4608 24.6278 24.4388 24.6507 24.416 24.6729C24.3428 24.7442 24.2682 24.8141 24.1934 24.8838C24.1777 24.8984 24.1622 24.9132 24.1465 24.9277C23.984 25.0775 23.8181 25.2235 23.6484 25.3652C23.5982 25.4072 23.547 25.448 23.4961 25.4893C21.1758 27.371 18.2202 28.5 15 28.5C7.54416 28.5 1.5 22.4558 1.5 15C1.5 7.54416 7.54416 1.5 15 1.5ZM22.7432 24.8076C22.8288 24.7399 22.9152 24.6734 22.999 24.6035C23.1231 24.5002 23.2445 24.394 23.3643 24.2861C23.3833 24.269 23.403 24.2526 23.4219 24.2354C23.5523 24.1164 23.6796 23.9943 23.8047 23.8701C24.1165 23.5606 24.4115 23.2344 24.6895 22.8936C24.7941 22.7651 24.8975 22.6355 24.9971 22.5029C25.0252 22.4655 25.0513 22.4265 25.0791 22.3887C25.268 22.131 25.4482 21.8667 25.6172 21.5947C25.665 21.5179 25.7116 21.4403 25.7578 21.3623C25.8752 21.1639 25.9873 20.9621 26.0938 20.7568C26.1184 20.7094 26.1429 20.662 26.167 20.6143C26.9677 19.0215 27.4171 17.2779 27.4883 15.5H15.9814L22.7432 24.8076ZM15.5 14.5H27.4893C27.4867 14.4351 27.484 14.3703 27.4805 14.3057C27.4024 12.9016 27.0882 11.519 26.5488 10.2168C26.2348 9.45862 25.8473 8.73474 25.3936 8.05566C25.3606 8.00642 25.3266 7.95792 25.293 7.90918C25.2068 7.78407 25.119 7.66001 25.0283 7.53809C25.0158 7.52133 25.0028 7.50498 24.9902 7.48828C24.8841 7.34711 24.7752 7.20794 24.6631 7.07129C24.1638 6.46346 23.6077 5.90439 23.0039 5.40039C22.8426 5.26587 22.6785 5.13489 22.5107 5.00879C22.494 4.99622 22.4777 4.98319 22.4609 4.9707C21.6364 4.35728 20.737 3.84624 19.7832 3.45117C18.4767 2.91007 17.0894 2.59538 15.6807 2.51855C15.6206 2.51533 15.5603 2.51312 15.5 2.51074V14.5ZM2.5 15C2.5 21.9036 8.09644 27.5 15 27.5C17.5666 27.5 19.9517 26.7251 21.9365 25.3984L14.5957 15.2939C14.5336 15.2085 14.5 15.1056 14.5 15V2.51074C7.82825 2.77321 2.5 8.26391 2.5 15Z" fill="#535D6B"/>
</svg>
