<svg width="30" height="30" viewBox="0 0 30 30" fill="none" xmlns="http://www.w3.org/2000/svg">
<rect width="30" height="30" fill="white"/>
<path d="M23 24H10L6 28V24H2V16H23V24Z" fill="#D0EFF7"/>
<path d="M2 16V24H6V28L10 24H23V16H2ZM24 24C24 24.5523 23.5523 25 23 25H10.4141L6.70703 28.707C6.42103 28.993 5.99086 29.0786 5.61719 28.9238C5.24359 28.769 5 28.4044 5 28V25H2C1.44772 25 1 24.5523 1 24V16C1 15.4477 1.44772 15 2 15H23C23.5523 15 24 15.4477 24 16V24Z" fill="#535D6B"/>
<path d="M12.0771 9.92285H22L25.0771 13V9.92285H28.0771V1.92285H12.0771V9.92285Z" fill="#D0EFF7"/>
<path d="M28.0771 1.92285V9.92285H25.0771V13L22 9.92285H12.0771V1.92285H28.0771ZM11.0771 9.92285C11.0771 10.4751 11.5249 10.9229 12.0771 10.9229H21.5859L24.3701 13.707C24.6561 13.993 25.0863 14.0786 25.46 13.9238C25.8336 13.769 26.0771 13.4044 26.0771 13V10.9229H28.0771C28.6294 10.9229 29.0771 10.4751 29.0771 9.92285V1.92285C29.0771 1.37057 28.6294 0.922852 28.0771 0.922852H12.0771C11.5249 0.922852 11.0771 1.37057 11.0771 1.92285V9.92285Z" fill="#535D6B"/>
</svg>
