<svg width="30" height="30" viewBox="0 0 30 30" fill="none" xmlns="http://www.w3.org/2000/svg">
<g clip-path="url(#clip0_8_3388)">
<path d="M0 1C0 0.447716 0.447715 0 1 0H29C29.5523 0 30 0.447715 30 1V29C30 29.5523 29.5523 30 29 30H1C0.447716 30 0 29.5523 0 29V1Z" fill="#3B646B"/>
<path d="M29 29V30H1V29H29ZM29 1H1V30C0.482324 30 0.0562145 29.6067 0.00488281 29.1025L0 29V1C4.50982e-07 0.447716 0.447716 2.81862e-08 1 0H29L29.1025 0.00488281C29.6067 0.0562148 30 0.482324 30 1V29L29.9951 29.1025C29.9472 29.573 29.573 29.9472 29.1025 29.9951L29 30V1Z" fill="#D0EFF7"/>
<path d="M25.6 7.5H17.6V10.5996C17.6 11.0279 17.6001 11.3199 17.6185 11.5449C17.6364 11.7639 17.6695 11.876 17.7094 11.9541C17.8052 12.1421 17.9579 12.2948 18.1459 12.3906C18.224 12.4304 18.3361 12.4635 18.5551 12.4814C18.7801 12.4998 19.0721 12.5 19.5004 12.5H23.6996C24.1279 12.5 24.4199 12.4998 24.6449 12.4814C24.8638 12.4635 24.9759 12.4304 25.0541 12.3906C25.242 12.2948 25.3948 12.1421 25.4906 11.9541C25.5304 11.876 25.5635 11.7639 25.5814 11.5449C25.5998 11.3199 25.6 11.0279 25.6 10.5996V7.5ZM23.1 5V4.5H20.1V5C20.1 5.27614 19.8761 5.5 19.6 5.5C19.3238 5.5 19.1 5.27614 19.1 5V4.50195C18.8772 4.50352 18.7018 4.50656 18.5551 4.51855C18.3361 4.53647 18.224 4.56956 18.1459 4.60938C17.9579 4.70521 17.8052 4.85793 17.7094 5.0459C17.6695 5.12405 17.6364 5.23615 17.6185 5.45508C17.6001 5.68012 17.6 5.9721 17.6 6.40039V6.5H25.6V6.40039C25.6 5.9721 25.5998 5.68012 25.5814 5.45508C25.5635 5.23615 25.5304 5.12405 25.4906 5.0459C25.3948 4.85793 25.242 4.70522 25.0541 4.60938C24.9759 4.56956 24.8638 4.53647 24.6449 4.51855C24.4981 4.50656 24.3227 4.50352 24.1 4.50195V5C24.1 5.27614 23.8761 5.5 23.6 5.5C23.3238 5.5 23.1 5.27614 23.1 5ZM26.6 10.5996C26.6 11.0114 26.6 11.3508 26.5775 11.626C26.5545 11.907 26.5058 12.1656 26.3822 12.4082C26.1905 12.7845 25.8844 13.0905 25.5082 13.2822C25.2655 13.4059 25.007 13.4546 24.726 13.4775C24.4507 13.5 24.1114 13.5 23.6996 13.5H19.5004C19.0886 13.5 18.7492 13.5 18.474 13.4775C18.193 13.4546 17.9344 13.4059 17.6918 13.2822C17.3155 13.0905 17.0095 12.7845 16.8177 12.4082C16.6941 12.1656 16.6454 11.907 16.6224 11.626C16.6 11.3508 16.6 11.0114 16.6 10.5996V6.40039C16.6 5.9886 16.6 5.64924 16.6224 5.37402C16.6454 5.09301 16.6941 4.83444 16.8177 4.5918C17.0095 4.21554 17.3155 3.90951 17.6918 3.71777C17.9344 3.59414 18.193 3.54543 18.474 3.52246C18.6544 3.50772 18.8622 3.50359 19.1 3.50195V3C19.1 2.72386 19.3238 2.5 19.6 2.5C19.8761 2.5 20.1 2.72386 20.1 3V3.5H23.1V3C23.1 2.72386 23.3238 2.5 23.6 2.5C23.8761 2.5 24.1 2.72386 24.1 3V3.50195C24.3377 3.50359 24.5455 3.50772 24.726 3.52246C25.007 3.54543 25.2655 3.59414 25.5082 3.71777C25.8844 3.90951 26.1905 4.21554 26.3822 4.5918C26.5058 4.83444 26.5545 5.09301 26.5775 5.37402C26.6 5.64924 26.6 5.9886 26.6 6.40039V10.5996Z" fill="#D0EFF7"/>
<path d="M7.50003 9.16699C9.37897 9.16699 11.0419 10.1034 12.0948 11.541C12.2665 11.7755 12.5071 12.0674 12.5 12.4639C12.4971 12.627 12.4487 12.7818 12.3887 12.9062C12.3288 13.0303 12.2368 13.1666 12.1084 13.2705C11.9364 13.4097 11.7471 13.4602 11.5752 13.4814C11.4177 13.5009 11.2293 13.5 11.0391 13.5H3.96097C3.77074 13.5 3.58231 13.5009 3.42483 13.4814C3.25294 13.4602 3.06368 13.4097 2.89163 13.2705C2.7633 13.1666 2.67121 13.0303 2.61136 12.9062C2.55138 12.7818 2.50299 12.627 2.50003 12.4639C2.493 12.0674 2.73357 11.7755 2.9053 11.541C3.95815 10.1034 5.62109 9.16699 7.50003 9.16699ZM7.50003 10.167C5.96518 10.167 4.59194 10.9303 3.71194 12.1318C3.60022 12.2844 3.54646 12.3604 3.51468 12.4189C3.50829 12.4307 3.50327 12.439 3.50101 12.4443C3.50306 12.4515 3.50668 12.4611 3.51175 12.4717C3.51379 12.4759 3.5166 12.4799 3.51858 12.4834C3.52587 12.4848 3.5355 12.4877 3.54788 12.4893C3.6298 12.4994 3.74577 12.5 3.96097 12.5H11.0391C11.2543 12.5 11.3703 12.4994 11.4522 12.4893C11.464 12.4878 11.4733 12.4847 11.4805 12.4834C11.4826 12.4798 11.4862 12.4761 11.4883 12.4717C11.4933 12.4612 11.496 12.4515 11.4981 12.4443C11.4958 12.439 11.4918 12.4307 11.4854 12.4189C11.4536 12.3604 11.3998 12.2844 11.2881 12.1318C10.4081 10.9303 9.03488 10.167 7.50003 10.167ZM9.42288 5.5C9.42288 4.38058 8.54747 3.5 7.50003 3.5C6.45259 3.5 5.57718 4.38058 5.57718 5.5C5.57718 6.61942 6.45259 7.5 7.50003 7.5C8.54747 7.5 9.42288 6.61942 9.42288 5.5ZM10.4229 5.5C10.4229 7.142 9.129 8.5 7.50003 8.5C5.87106 8.5 4.57718 7.142 4.57718 5.5C4.57718 3.858 5.87106 2.5 7.50003 2.5C9.129 2.5 10.4229 3.858 10.4229 5.5Z" fill="#D0EFF7"/>
<path d="M2.5 22C2.5 18.96 4.97619 16.5 8.02539 16.5C10.9015 16.5 13.267 18.6887 13.5264 21.4883L13.6475 21.3682C13.8431 21.1734 14.1597 21.1736 14.3545 21.3691C14.5492 21.5648 14.5481 21.8814 14.3525 22.0762L13.2363 23.1875C13.0413 23.3816 12.7263 23.3815 12.5312 23.1875L11.4141 22.0771C11.2183 21.8824 11.2174 21.5649 11.4121 21.3691C11.6069 21.1737 11.9235 21.1735 12.1191 21.3682L12.5449 21.791C12.4351 19.4049 10.4565 17.5 8.02539 17.5C5.52369 17.5 3.5 19.5171 3.5 22C3.5 24.4829 5.52369 26.5 8.02539 26.5C9.44778 26.5 10.7158 25.8478 11.5459 24.8271C11.7201 24.613 12.0358 24.5807 12.25 24.7549C12.4639 24.929 12.4961 25.2439 12.3223 25.458C11.3098 26.7029 9.76037 27.5 8.02539 27.5C4.97619 27.5 2.5 25.04 2.5 22ZM7.52539 19.2227C7.52539 18.9465 7.74925 18.7227 8.02539 18.7227C8.30153 18.7227 8.52539 18.9465 8.52539 19.2227V21.7305L9.97656 22.6943C10.2067 22.847 10.2698 23.1576 10.1172 23.3877C9.96451 23.6177 9.6539 23.68 9.42383 23.5273L7.74902 22.417C7.60936 22.3244 7.52539 22.1676 7.52539 22V19.2227Z" fill="#D0EFF7"/>
<path d="M27 23.1973V20.0166C27 18.3597 25.6563 17.0169 24 17.0166V18.0166C25.1044 18.0168 26 18.9122 26 20.0166V23.1973C25.9998 24.3016 25.1043 25.1971 24 25.1973H23.3066V27.0615L21.4434 25.1973H19.0234C17.9191 25.1972 17.0236 24.3016 17.0234 23.1973V20.0166C17.0234 18.9121 17.919 18.0167 19.0234 18.0166V17.0166C17.3669 17.0168 16.0234 18.3597 16.0234 20.0166V23.1973C16.0237 24.8537 17.3668 26.1971 19.0234 26.1973H21.0293L22.5996 27.7686C22.8856 28.0545 23.3158 28.1401 23.6895 27.9854C24.0631 27.8305 24.3066 27.4659 24.3066 27.0615V26.1816C25.8191 26.0278 26.9998 24.7503 27 23.1973ZM19.0234 17.0166V18.0166H24V17.0166H19.0234Z" fill="#D0EFF7"/>
</g>
<defs>
<clipPath id="clip0_8_3388">
<rect width="30" height="30" fill="white"/>
</clipPath>
</defs>
</svg>
