<svg width="30" height="30" viewBox="0 0 30 30" fill="none" xmlns="http://www.w3.org/2000/svg">
<rect width="30" height="30" fill="white"/>
<path d="M5 5C5 4.44772 5.44772 4 6 4H24C24.5523 4 25 4.44772 25 5V25C25 25.5523 24.5523 26 24 26H6C5.44772 26 5 25.5523 5 25V5Z" fill="#D0EFF7"/>
<path d="M24.5 5C24.5 4.72386 24.2761 4.5 24 4.5H6C5.72386 4.5 5.5 4.72386 5.5 5V25C5.5 25.2761 5.72386 25.5 6 25.5H24C24.2761 25.5 24.5 25.2761 24.5 25V5ZM25.5 25C25.5 25.8284 24.8284 26.5 24 26.5H6C5.17157 26.5 4.5 25.8284 4.5 25V5C4.5 4.17157 5.17157 3.5 6 3.5H24C24.8284 3.5 25.5 4.17157 25.5 5V25Z" fill="#535D6B"/>
<path d="M5 16H25V25C25 25.5523 24.5523 26 24 26H6C5.44772 26 5 25.5523 5 25V16Z" fill="white"/>
<path d="M24.5 16.5H5.5V25C5.5 25.2761 5.72386 25.5 6 25.5H24C24.2761 25.5 24.5 25.2761 24.5 25V16.5ZM25.5 25C25.5 25.8284 24.8284 26.5 24 26.5H6C5.17157 26.5 4.5 25.8284 4.5 25V16C4.5 15.7239 4.72386 15.5 5 15.5H25C25.2761 15.5 25.5 15.7239 25.5 16V25Z" fill="#535D6B"/>
<path d="M3.5 25V5C3.5 4.17157 2.82843 3.5 2 3.5H0V4.5H2C2.27614 4.5 2.5 4.72386 2.5 5V25C2.5 25.2761 2.27614 25.5 2 25.5H0V26.5H2C2.82843 26.5 3.5 25.8284 3.5 25Z" fill="#535D6B"/>
<path d="M26.5 25V5C26.5 4.17157 27.1716 3.5 28 3.5H30V4.5H28C27.7239 4.5 27.5 4.72386 27.5 5V25C27.5 25.2761 27.7239 25.5 28 25.5H30V26.5H28C27.1716 26.5 26.5 25.8284 26.5 25Z" fill="#535D6B"/>
<path d="M21 19.5C21.2761 19.5 21.5 19.7239 21.5 20C21.5 20.2761 21.2761 20.5 21 20.5H9C8.72386 20.5 8.5 20.2761 8.5 20C8.5 19.7239 8.72386 19.5 9 19.5H21Z" fill="#535D6B"/>
<path d="M14 21.5C14.2761 21.5 14.5 21.7239 14.5 22C14.5 22.2761 14.2761 22.5 14 22.5H9C8.72386 22.5 8.5 22.2761 8.5 22C8.5 21.7239 8.72386 21.5 9 21.5H14Z" fill="#535D6B"/>
</svg>
