<svg width="30" height="30" viewBox="0 0 30 30" fill="none" xmlns="http://www.w3.org/2000/svg">
<g clip-path="url(#clip0_8_3407)">
<path d="M0 1C0 0.447716 0.447715 0 1 0H29C29.5523 0 30 0.447715 30 1V29C30 29.5523 29.5523 30 29 30H1C0.447716 30 0 29.5523 0 29V1Z" fill="#3B646B"/>
<path d="M29 29V30H1V29H29ZM29 1H1V30C0.482324 30 0.0562145 29.6067 0.00488281 29.1025L0 29V1C4.50982e-07 0.447716 0.447716 2.81862e-08 1 0H29L29.1025 0.00488281C29.6067 0.0562148 30 0.482324 30 1V29L29.9951 29.1025C29.9472 29.573 29.573 29.9472 29.1025 29.9951L29 30V1Z" fill="#D0EFF7"/>
<path d="M19.9052 5C20.4375 5 20.8765 5.41696 20.9039 5.94855L20.9896 7.61301C20.9953 7.72239 20.9081 7.81416 20.7986 7.81416C20.7034 7.81416 20.623 7.74403 20.6074 7.65011C20.5394 7.23968 20.4512 6.94038 20.3427 6.75221C20.143 6.41003 19.8755 6.15929 19.5404 6C19.2118 5.83481 18.7768 5.75221 18.2355 5.75221H17.3893C16.837 5.75221 16.3893 6.19993 16.3893 6.75221V12.9204C16.3893 13.6578 16.4763 14.118 16.6503 14.3009C16.8951 14.5487 17.2721 14.6726 17.7812 14.6726H18.0718C18.1622 14.6726 18.2355 14.7459 18.2355 14.8363C18.2355 14.9267 18.1622 15 18.0718 15H12.8412C12.7508 15 12.6775 14.9267 12.6775 14.8363C12.6775 14.7459 12.7508 14.6726 12.8412 14.6726H13.1415C13.6957 14.6726 14.0888 14.5192 14.3207 14.2124C14.4625 14.0236 14.5334 13.5929 14.5334 12.9204V6.75221C14.5334 6.19993 14.0857 5.75221 13.5334 5.75221H12.9578C12.3456 5.75221 11.9107 5.79351 11.6529 5.87611C11.3178 5.9882 11.0311 6.20354 10.7926 6.52212C10.5797 6.80667 10.4438 7.18063 10.3851 7.64402C10.3729 7.7399 10.293 7.81416 10.1963 7.81416C10.0897 7.81416 10.0049 7.72462 10.0108 7.61815L10.1027 5.94513C10.1319 5.41496 10.5703 5 11.1012 5H19.9052Z" fill="#3B646B"/>
<path d="M13.5332 12.9199V6.75195H12.958C12.3624 6.75195 12.0645 6.7953 11.9629 6.82617C11.8465 6.86658 11.7227 6.9475 11.5928 7.12109C11.5112 7.23017 11.4205 7.42573 11.3769 7.76953C11.305 8.3373 10.8241 8.81445 10.1963 8.81445C9.51586 8.81445 8.97544 8.24285 9.01268 7.56348L9.10448 5.89062C9.16275 4.8303 10.0396 4 11.1015 4V5L11.0029 5.00488C10.5171 5.05237 10.1298 5.44825 10.1025 5.94531L10.0107 7.61816C10.0056 7.71126 10.0697 7.79189 10.1572 7.81055L10.1963 7.81445C10.2929 7.81445 10.3726 7.73944 10.3847 7.64355C10.4435 7.18039 10.5801 6.80691 10.793 6.52246C11.0314 6.20388 11.3182 5.98807 11.6533 5.87598C11.9111 5.79347 12.3461 5.75195 12.958 5.75195H13.5332C14.0854 5.75195 14.533 6.19979 14.5332 6.75195V12.9199C14.5332 13.5924 14.462 14.0231 14.3203 14.2119C14.1173 14.4803 13.7914 14.6315 13.3418 14.665L13.1416 14.6729H12.8408L12.7773 14.6855C12.7188 14.7104 12.6779 14.7683 12.6777 14.8359C12.6777 14.9262 12.7506 14.9998 12.8408 15H18.0722L18.1357 14.9873C18.1944 14.9624 18.2353 14.9037 18.2353 14.8359C18.2352 14.7684 18.1943 14.7104 18.1357 14.6855L18.0722 14.6729V13.6729C18.7146 13.6731 19.2351 14.1936 19.2353 14.8359C19.2353 15.4785 18.7147 15.9997 18.0722 16H12.8408C12.2384 15.9998 11.7431 15.5418 11.6836 14.9551L11.6777 14.8359L11.6836 14.7178C11.7429 14.1309 12.2383 13.6731 12.8408 13.6729H13.1416C13.3255 13.6728 13.431 13.6465 13.4834 13.627C13.4858 13.6146 13.4906 13.6007 13.4931 13.585C13.5163 13.4438 13.5332 13.2273 13.5332 12.9199ZM16.3896 12.9199V6.75195C16.3898 6.19979 16.8374 5.75195 17.3896 5.75195H18.2353C18.7765 5.75195 19.2114 5.83491 19.54 6C19.8751 6.15927 20.143 6.40985 20.3428 6.75195C20.4512 6.94012 20.5394 7.23995 20.6074 7.65039C20.6191 7.72062 20.6671 7.77761 20.7305 7.80176L20.7988 7.81445C20.8944 7.81433 20.9728 7.74394 20.9873 7.65332L20.9892 7.61328L20.9043 5.94824C20.8785 5.45004 20.4907 5.05266 20.0039 5.00488L19.9053 5V4C20.9698 4.00004 21.8476 4.83432 21.9023 5.89746L21.9883 7.56152C22.0234 8.24256 21.4807 8.81432 20.7988 8.81445C20.1999 8.81445 19.7142 8.37555 19.6211 7.81348C19.5917 7.63622 19.5607 7.50043 19.5312 7.40039C19.5167 7.35107 19.5037 7.31413 19.4931 7.28809C19.4838 7.26503 19.4777 7.25399 19.4765 7.25195H19.4756C19.3706 7.07404 19.2509 6.96973 19.1113 6.90332C19.1048 6.90024 19.0982 6.89678 19.0918 6.89355C18.9526 6.82357 18.6885 6.75195 18.2353 6.75195H17.3896V12.9199C17.3896 13.2559 17.4094 13.4863 17.4365 13.6309C17.5014 13.6511 17.6109 13.6729 17.7812 13.6729H18.0722V14.6729H17.7812L17.5967 14.667C17.18 14.6399 16.8647 14.5176 16.6504 14.3008C16.4981 14.1407 16.4125 13.7684 16.3935 13.1836L16.3896 12.9199ZM19.9053 4V5H11.1015V4H19.9053Z" fill="#D0EFF7"/>
<path d="M25 19.5C25.2761 19.5 25.5 19.7239 25.5 20C25.5 20.2761 25.2761 20.5 25 20.5H6C5.72386 20.5 5.5 20.2761 5.5 20C5.5 19.7239 5.72386 19.5 6 19.5H25Z" fill="#D0EFF7"/>
<path d="M25 22.5C25.2761 22.5 25.5 22.7239 25.5 23C25.5 23.2761 25.2761 23.5 25 23.5H6C5.72386 23.5 5.5 23.2761 5.5 23C5.5 22.7239 5.72386 22.5 6 22.5H25Z" fill="#D0EFF7"/>
<path d="M14 25.5C14.2761 25.5 14.5 25.7239 14.5 26C14.5 26.2761 14.2761 26.5 14 26.5H6C5.72386 26.5 5.5 26.2761 5.5 26C5.5 25.7239 5.72386 25.5 6 25.5H14Z" fill="#D0EFF7"/>
</g>
<defs>
<clipPath id="clip0_8_3407">
<rect width="30" height="30" fill="white"/>
</clipPath>
</defs>
</svg>
