<svg width="30" height="30" viewBox="0 0 30 30" fill="none" xmlns="http://www.w3.org/2000/svg">
<path d="M27 2.5C27.2761 2.5 27.5 2.72386 27.5 3C27.5 3.27614 27.2761 3.5 27 3.5H3C2.72386 3.5 2.5 3.27614 2.5 3C2.5 2.72386 2.72386 2.5 3 2.5H27Z" fill="#D0EFF7"/>
<path d="M27 5.5C27.2761 5.5 27.5 5.72386 27.5 6C27.5 6.27614 27.2761 6.5 27 6.5H3C2.72386 6.5 2.5 6.27614 2.5 6C2.5 5.72386 2.72386 5.5 3 5.5H27Z" fill="#D0EFF7"/>
<path d="M27 8.5C27.2761 8.5 27.5 8.72386 27.5 9C27.5 9.27614 27.2761 9.5 27 9.5H3C2.72386 9.5 2.5 9.27614 2.5 9C2.5 8.72386 2.72386 8.5 3 8.5H27Z" fill="#D0EFF7"/>
<path d="M27 11.5C27.2761 11.5 27.5 11.7239 27.5 12C27.5 12.2761 27.2761 12.5 27 12.5H3C2.72386 12.5 2.5 12.2761 2.5 12C2.5 11.7239 2.72386 11.5 3 11.5H27Z" fill="#D0EFF7"/>
<path d="M11 14.5C11.2761 14.5 11.5 14.7239 11.5 15C11.5 15.2761 11.2761 15.5 11 15.5H3C2.72386 15.5 2.5 15.2761 2.5 15C2.5 14.7239 2.72386 14.5 3 14.5H11Z" fill="#D0EFF7"/>
<path d="M4 24.0311L9.25 21L9.25 27.0622L4 24.0311Z" fill="#3B646B"/>
<path d="M3 24.0309C3.00006 23.6737 3.19065 23.3433 3.5 23.1647L8.75 20.1344C9.0594 19.9558 9.4406 19.9558 9.75 20.1344C10.0592 20.3131 10.2499 20.6426 10.25 20.9997L10.25 27.0622C10.25 27.4194 10.0594 27.7498 9.75 27.9284C9.44064 28.107 9.05936 28.107 8.75 27.9284L3.5 24.8971C3.1906 24.7185 3 24.3882 3 24.0309ZM9.25 27.0622L9.25 20.9997L4 24.0309L9.25 27.0622Z" fill="#D0EFF7"/>
<path d="M26.25 24.0311L21 21L21 27.0622L26.25 24.0311Z" fill="#3B646B"/>
<path d="M27.25 24.0309C27.2499 23.6737 27.0594 23.3433 26.75 23.1647L21.5 20.1344C21.1906 19.9558 20.8094 19.9558 20.5 20.1344C20.1908 20.3131 20.0001 20.6426 20 20.9997L20 27.0622C20 27.4194 20.1906 27.7498 20.5 27.9284C20.8094 28.107 21.1906 28.107 21.5 27.9284L26.75 24.8971C27.0594 24.7185 27.25 24.3882 27.25 24.0309ZM21 27.0622L21 20.9997L26.25 24.0309L21 27.0622Z" fill="#D0EFF7"/>
</svg>
