<svg width="30" height="30" viewBox="0 0 30 30" fill="none" xmlns="http://www.w3.org/2000/svg">
<g clip-path="url(#clip0_8_3800)">
<path d="M1 3C1 1.89543 1.89543 1 3 1H27C28.1046 1 29 1.89543 29 3V27C29 28.1046 28.1046 29 27 29H3C1.89543 29 1 28.1046 1 27V3Z" fill="#3B646B"/>
<path d="M28.5 3C28.5 2.17157 27.8284 1.5 27 1.5H3C2.17157 1.5 1.5 2.17157 1.5 3V27C1.5 27.8284 2.17157 28.5 3 28.5H27C27.8284 28.5 28.5 27.8284 28.5 27V3ZM29.5 27C29.5 28.3807 28.3807 29.5 27 29.5H3C1.61929 29.5 0.5 28.3807 0.5 27V3C0.5 1.61929 1.61929 0.5 3 0.5H27C28.3807 0.5 29.5 1.61929 29.5 3V27Z" fill="#D0EFF7"/>
<path d="M6.5 7.5C6.5 7.22386 6.27614 7 6 7V8C6.27614 8 6.5 7.77614 6.5 7.5ZM6.49023 5.39941C6.44371 5.17145 6.24171 5 6 5V6C6.82843 6 7.5 6.67157 7.5 7.5C7.5 8.32843 6.82843 9 6 9C6 9.27614 5.77614 9.5 5.5 9.5C5.22386 9.5 5 9.27614 5 9C4.17157 9 3.5 8.32843 3.5 7.5C3.5 7.22386 3.72386 7 4 7C4.24171 7 4.44371 7.17145 4.49023 7.39941L4.50977 7.60059C4.55629 7.82855 4.75829 8 5 8V7C4.17157 7 3.5 6.32843 3.5 5.5C3.5 4.72334 4.09028 4.08461 4.84668 4.00781L5 4C5 3.72386 5.22386 3.5 5.5 3.5C5.77614 3.5 6 3.72386 6 4C6.82843 4 7.5 4.67157 7.5 5.5C7.5 5.77614 7.27614 6 7 6C6.75829 6 6.55629 5.82855 6.50977 5.60059L6.49023 5.39941ZM4.5 5.5C4.5 5.77614 4.72386 6 5 6V5C4.72386 5 4.5 5.22386 4.5 5.5Z" fill="#D0EFF7"/>
<path d="M6.5 15.5C6.5 15.2239 6.27614 15 6 15V16C6.27614 16 6.5 15.7761 6.5 15.5ZM6.49023 13.3994C6.44371 13.1714 6.24171 13 6 13V14C6.82843 14 7.5 14.6716 7.5 15.5C7.5 16.3284 6.82843 17 6 17C6 17.2761 5.77614 17.5 5.5 17.5C5.22386 17.5 5 17.2761 5 17C4.17157 17 3.5 16.3284 3.5 15.5C3.5 15.2239 3.72386 15 4 15C4.24171 15 4.44371 15.1714 4.49023 15.3994L4.50977 15.6006C4.55629 15.8286 4.75829 16 5 16V15C4.17157 15 3.5 14.3284 3.5 13.5C3.5 12.7233 4.09028 12.0846 4.84668 12.0078L5 12C5 11.7239 5.22386 11.5 5.5 11.5C5.77614 11.5 6 11.7239 6 12C6.82843 12 7.5 12.6716 7.5 13.5C7.5 13.7761 7.27614 14 7 14C6.75829 14 6.55629 13.8286 6.50977 13.6006L6.49023 13.3994ZM4.5 13.5C4.5 13.7761 4.72386 14 5 14V13C4.72386 13 4.5 13.2239 4.5 13.5Z" fill="#D0EFF7"/>
<path d="M6.5 24.5C6.5 24.2239 6.27614 24 6 24V25C6.27614 25 6.5 24.7761 6.5 24.5ZM6.49023 22.3994C6.44371 22.1714 6.24171 22 6 22V23C6.82843 23 7.5 23.6716 7.5 24.5C7.5 25.3284 6.82843 26 6 26C6 26.2761 5.77614 26.5 5.5 26.5C5.22386 26.5 5 26.2761 5 26C4.17157 26 3.5 25.3284 3.5 24.5C3.5 24.2239 3.72386 24 4 24C4.24171 24 4.44371 24.1714 4.49023 24.3994L4.50977 24.6006C4.55629 24.8286 4.75829 25 5 25V24C4.17157 24 3.5 23.3284 3.5 22.5C3.5 21.7233 4.09028 21.0846 4.84668 21.0078L5 21C5 20.7239 5.22386 20.5 5.5 20.5C5.77614 20.5 6 20.7239 6 21C6.82843 21 7.5 21.6716 7.5 22.5C7.5 22.7761 7.27614 23 7 23C6.75829 23 6.55629 22.8286 6.50977 22.6006L6.49023 22.3994ZM4.5 22.5C4.5 22.7761 4.72386 23 5 23V22C4.72386 22 4.5 22.2239 4.5 22.5Z" fill="#D0EFF7"/>
<path d="M24 6C24.2761 6 24.5 6.22386 24.5 6.5C24.5 6.77614 24.2761 7 24 7H10C9.72386 7 9.5 6.77614 9.5 6.5C9.5 6.22386 9.72386 6 10 6H24Z" fill="#D0EFF7"/>
<path d="M24 14.5C24.2761 14.5 24.5 14.7239 24.5 15C24.5 15.2761 24.2761 15.5 24 15.5H10C9.72386 15.5 9.5 15.2761 9.5 15C9.5 14.7239 9.72386 14.5 10 14.5H24Z" fill="#D0EFF7"/>
<path d="M24 23.5C24.2761 23.5 24.5 23.7239 24.5 24C24.5 24.2761 24.2761 24.5 24 24.5H10C9.72386 24.5 9.5 24.2761 9.5 24C9.5 23.7239 9.72386 23.5 10 23.5H24Z" fill="#D0EFF7"/>
</g>
<defs>
<clipPath id="clip0_8_3800">
<rect width="30" height="30" fill="white"/>
</clipPath>
</defs>
</svg>
