<svg width="30" height="30" viewBox="0 0 30 30" fill="none" xmlns="http://www.w3.org/2000/svg">
<g clip-path="url(#clip0_8_3808)">
<path d="M28.5 5C28.5 4.17157 27.8284 3.5 27 3.5H19C18.1716 3.5 17.5 4.17157 17.5 5V25C17.5 25.8284 18.1716 26.5 19 26.5H27C27.8284 26.5 28.5 25.8284 28.5 25V5ZM29.5 25C29.5 26.3807 28.3807 27.5 27 27.5H19C17.6193 27.5 16.5 26.3807 16.5 25V5C16.5 3.61929 17.6193 2.5 19 2.5H27C28.3807 2.5 29.5 3.61929 29.5 5V25Z" fill="#D0EFF7"/>
<path d="M12.5 5C12.5 4.17157 11.8284 3.5 11 3.5H3C2.17157 3.5 1.5 4.17157 1.5 5V25C1.5 25.8284 2.17157 26.5 3 26.5H11C11.8284 26.5 12.5 25.8284 12.5 25V5ZM13.5 25C13.5 26.3807 12.3807 27.5 11 27.5H3C1.61929 27.5 0.5 26.3807 0.5 25V5C0.5 3.61929 1.61929 2.5 3 2.5H11C12.3807 2.5 13.5 3.61929 13.5 5V25Z" fill="#D0EFF7"/>
<path d="M9 3C9 1.89543 9.89543 1 11 1H19C20.1046 1 21 1.89543 21 3V27C21 28.1046 20.1046 29 19 29H11C9.89543 29 9 28.1046 9 27V3Z" fill="#3B646B"/>
<path d="M20.5 3C20.5 2.17157 19.8284 1.5 19 1.5H11C10.1716 1.5 9.5 2.17157 9.5 3V27C9.5 27.8284 10.1716 28.5 11 28.5H19C19.8284 28.5 20.5 27.8284 20.5 27V3ZM21.5 27C21.5 28.3807 20.3807 29.5 19 29.5H11C9.61929 29.5 8.5 28.3807 8.5 27V3C8.5 1.61929 9.61929 0.5 11 0.5H19C20.3807 0.5 21.5 1.61929 21.5 3V27Z" fill="#D0EFF7"/>
<path d="M16.5 8.90039C16.5 8.38019 16.1044 8.00019 15.667 8H15.5V9.7998H15.667C16.1043 9.79962 16.4998 9.42039 16.5 8.90039ZM16.5 6.09961C16.4998 5.57961 16.1043 5.20038 15.667 5.2002H15.5V7H15.667C16.7021 7.00018 17.5 7.87443 17.5 8.90039C17.4998 9.92619 16.7019 10.7996 15.667 10.7998H15.5V11C15.5 11.2761 15.2761 11.5 15 11.5C14.7239 11.5 14.5 11.2761 14.5 11V10.7998H14.333C13.2981 10.7996 12.5002 9.92619 12.5 8.90039C12.5 8.62425 12.7239 8.40039 13 8.40039C13.2761 8.40039 13.5 8.62425 13.5 8.90039C13.5002 9.42039 13.8957 9.79962 14.333 9.7998H14.5V8H14.333C13.2979 7.99982 12.5 7.12557 12.5 6.09961C12.5002 5.07381 13.2981 4.20038 14.333 4.2002H14.5V4C14.5 3.72386 14.7239 3.5 15 3.5C15.2761 3.5 15.5 3.72386 15.5 4V4.2002H15.667C16.7019 4.20038 17.4998 5.07381 17.5 6.09961C17.5 6.37575 17.2761 6.59961 17 6.59961C16.7239 6.59961 16.5 6.37575 16.5 6.09961ZM13.5 6.09961C13.5 6.61981 13.8956 6.99981 14.333 7H14.5V5.2002H14.333C13.8957 5.20038 13.5002 5.57961 13.5 6.09961Z" fill="#D0EFF7"/>
<path d="M17.5 14C17.7761 14 18 14.2239 18 14.5C18 14.7761 17.7761 15 17.5 15H12C11.7239 15 11.5 14.7761 11.5 14.5C11.5 14.2239 11.7239 14 12 14H17.5Z" fill="#D0EFF7"/>
<path d="M17.5 17.5C17.7761 17.5 18 17.7239 18 18C18 18.2761 17.7761 18.5 17.5 18.5H12C11.7239 18.5 11.5 18.2761 11.5 18C11.5 17.7239 11.7239 17.5 12 17.5H17.5Z" fill="#D0EFF7"/>
<path d="M17.5 21C17.7761 21 18 21.2239 18 21.5C18 21.7761 17.7761 22 17.5 22H12C11.7239 22 11.5 21.7761 11.5 21.5C11.5 21.2239 11.7239 21 12 21H17.5Z" fill="#D0EFF7"/>
</g>
<defs>
<clipPath id="clip0_8_3808">
<rect width="30" height="30" fill="white"/>
</clipPath>
</defs>
</svg>
