<svg width="30" height="30" viewBox="0 0 30 30" fill="none" xmlns="http://www.w3.org/2000/svg">
<path d="M5 5C5 4.44772 5.44772 4 6 4H24C24.5523 4 25 4.44772 25 5V25C25 25.5523 24.5523 26 24 26H6C5.44772 26 5 25.5523 5 25V5Z" fill="#3B646B"/>
<path d="M24.5 5C24.5 4.72386 24.2761 4.5 24 4.5H6C5.72386 4.5 5.5 4.72386 5.5 5V25C5.5 25.2761 5.72386 25.5 6 25.5H24C24.2761 25.5 24.5 25.2761 24.5 25V5ZM25.5 25C25.5 25.8284 24.8284 26.5 24 26.5H6C5.17157 26.5 4.5 25.8284 4.5 25V5C4.5 4.17157 5.17157 3.5 6 3.5H24C24.8284 3.5 25.5 4.17157 25.5 5V25Z" fill="#D0EFF7"/>
<path d="M3.5 25V5C3.5 4.17157 2.82843 3.5 2 3.5H0V4.5H2C2.27614 4.5 2.5 4.72386 2.5 5V25C2.5 25.2761 2.27614 25.5 2 25.5H0V26.5H2C2.82843 26.5 3.5 25.8284 3.5 25Z" fill="#D0EFF7"/>
<path d="M26.5 25V5C26.5 4.17157 27.1716 3.5 28 3.5H30V4.5H28C27.7239 4.5 27.5 4.72386 27.5 5V25C27.5 25.2761 27.7239 25.5 28 25.5H30V26.5H28C27.1716 26.5 26.5 25.8284 26.5 25Z" fill="#D0EFF7"/>
<path d="M18.8066 18.15H12.7825C12.0855 18.15 11.737 18.15 11.4572 18.0222C11.2106 17.9095 11.0021 17.7284 10.8566 17.5006C10.6915 17.2422 10.6445 16.8988 10.5505 16.212L9.81009 10.8H21.3979C21.6314 10.8 21.7482 10.8 21.8304 10.8476C21.9024 10.8894 21.9572 10.9552 21.985 11.0334C22.0167 11.1226 21.9948 11.2367 21.9511 11.4648L21.0194 16.3291C20.8952 16.9773 20.8332 17.3013 20.6652 17.544C20.517 17.7579 20.312 17.9266 20.0729 18.0313C19.8018 18.15 19.4701 18.15 18.8066 18.15Z" fill="#3B646B"/>
<path d="M12.9275 22C13.3162 22 13.6314 21.6866 13.6314 21.3C13.6314 20.9134 13.3162 20.6 12.9275 20.6C12.5387 20.6 12.2235 20.9134 12.2235 21.3C12.2235 21.6866 12.5387 22 12.9275 22Z" fill="#3B646B"/>
<path d="M18.5588 22C18.9476 22 19.2628 21.6866 19.2628 21.3C19.2628 20.9134 18.9476 20.6 18.5588 20.6C18.1701 20.6 17.8549 20.9134 17.8549 21.3C17.8549 21.6866 18.1701 22 18.5588 22Z" fill="#3B646B"/>
<path d="M13.1318 21.2998C13.1317 21.1921 13.0428 21.0998 12.9277 21.0996C12.8125 21.0996 12.7237 21.1921 12.7236 21.2998C12.7236 21.4076 12.8125 21.5 12.9277 21.5C13.0429 21.4999 13.1318 21.4075 13.1318 21.2998ZM18.7627 21.2998C18.7626 21.1921 18.6738 21.0996 18.5586 21.0996C18.4435 21.0997 18.3546 21.1921 18.3545 21.2998C18.3545 21.4076 18.4435 21.4999 18.5586 21.5C18.6739 21.5 18.7627 21.4076 18.7627 21.2998ZM8.91992 7.5C8.9988 7.5 9.08592 7.50013 9.16113 7.50586C9.22221 7.51052 9.29596 7.51946 9.375 7.54492L9.45605 7.57617L9.5625 7.63477C9.63065 7.67839 9.69289 7.73091 9.74609 7.79199L9.81934 7.88965L9.86133 7.96582C9.89813 8.04062 9.91925 8.11199 9.93262 8.17188C9.94907 8.24562 9.96052 8.3325 9.97168 8.41016L10.2432 10.2998H21.3975C21.5052 10.2998 21.6186 10.2994 21.7139 10.3076C21.7886 10.3141 21.8829 10.3282 21.9814 10.3672L22.0811 10.415L22.2041 10.501C22.2802 10.5653 22.3441 10.6429 22.3936 10.7295L22.4561 10.8662L22.4854 10.9736C22.5055 11.078 22.5018 11.1735 22.4941 11.248C22.4844 11.343 22.4625 11.4536 22.4424 11.5586L21.5107 16.4229C21.4501 16.7394 21.3998 17.0042 21.3418 17.2188C21.2821 17.4395 21.2052 17.6417 21.0762 17.8281C20.8751 18.1185 20.5971 18.3475 20.2734 18.4893C20.0658 18.5802 19.8528 18.6168 19.624 18.6338C19.4015 18.6503 19.131 18.6504 18.8066 18.6504H12.7822C12.4417 18.6504 12.1583 18.6505 11.9258 18.6328C11.687 18.6146 11.4638 18.5747 11.249 18.4766C10.9154 18.324 10.6329 18.0786 10.4355 17.7695C10.3084 17.5705 10.239 17.3563 10.1885 17.123C10.1393 16.8958 10.1006 16.6151 10.0547 16.2793L9.31445 10.8682V10.8672L8.98242 8.55176C8.97968 8.53266 8.97689 8.5156 8.97461 8.5H8V7.5H8.91992ZM11.0459 16.1445C11.0939 16.4954 11.1269 16.7304 11.166 16.9111C11.2038 17.0857 11.2404 17.1721 11.2783 17.2314C11.3718 17.3777 11.5058 17.4946 11.665 17.5674C11.7301 17.5971 11.8224 17.622 12.002 17.6357C12.1876 17.6499 12.4266 17.6504 12.7822 17.6504H18.8066C19.1457 17.6504 19.3729 17.6499 19.5498 17.6367C19.7203 17.6241 19.8086 17.601 19.8721 17.5732C20.0263 17.5057 20.1587 17.3971 20.2539 17.2598C20.2928 17.2036 20.3316 17.1219 20.376 16.958C20.422 16.788 20.4649 16.5666 20.5283 16.2354L21.46 11.3711C21.4649 11.3452 21.4686 11.3212 21.4727 11.2998H10.3828L11.0459 16.1445ZM14.1318 21.2998C14.1318 21.9651 13.5899 22.4999 12.9277 22.5C12.2655 22.5 11.7236 21.9652 11.7236 21.2998C11.7237 20.6345 12.2655 20.0996 12.9277 20.0996C13.5898 20.0998 14.1317 20.6346 14.1318 21.2998ZM19.7627 21.2998C19.7627 21.9652 19.2209 22.5 18.5586 22.5C17.8964 22.4999 17.3545 21.9651 17.3545 21.2998C17.3546 20.6346 17.8965 20.0997 18.5586 20.0996C19.2208 20.0996 19.7626 20.6345 19.7627 21.2998Z" fill="#D0EFF7"/>
</svg>
