<svg width="30" height="30" viewBox="0 0 30 30" fill="none" xmlns="http://www.w3.org/2000/svg">
<g clip-path="url(#clip0_8_2823)">
<rect width="30" height="30" fill="white"/>
<path d="M1 2C1 1.44772 1.44772 1 2 1H6C6.55228 1 7 1.44772 7 2V6C7 6.55228 6.55228 7 6 7H2C1.44772 7 1 6.55228 1 6V2Z" fill="#D0EFF7"/>
<path d="M6.5 2C6.5 1.72386 6.27614 1.5 6 1.5H2C1.72386 1.5 1.5 1.72386 1.5 2V6C1.5 6.27614 1.72386 6.5 2 6.5H6C6.27614 6.5 6.5 6.27614 6.5 6V2ZM7.5 6C7.5 6.82843 6.82843 7.5 6 7.5H2C1.17157 7.5 0.5 6.82843 0.5 6V2C0.5 1.17157 1.17157 0.5 2 0.5H6C6.82843 0.5 7.5 1.17157 7.5 2V6Z" fill="#535D6B"/>
<path d="M12 2C12 1.44772 12.4477 1 13 1H17C17.5523 1 18 1.44772 18 2V6C18 6.55228 17.5523 7 17 7H13C12.4477 7 12 6.55228 12 6V2Z" fill="#D0EFF7"/>
<path d="M17.5 2C17.5 1.72386 17.2761 1.5 17 1.5H13C12.7239 1.5 12.5 1.72386 12.5 2V6C12.5 6.27614 12.7239 6.5 13 6.5H17C17.2761 6.5 17.5 6.27614 17.5 6V2ZM18.5 6C18.5 6.82843 17.8284 7.5 17 7.5H13C12.1716 7.5 11.5 6.82843 11.5 6V2C11.5 1.17157 12.1716 0.5 13 0.5H17C17.8284 0.5 18.5 1.17157 18.5 2V6Z" fill="#535D6B"/>
<path d="M23 2C23 1.44772 23.4477 1 24 1H28C28.5523 1 29 1.44772 29 2V6C29 6.55228 28.5523 7 28 7H24C23.4477 7 23 6.55228 23 6V2Z" fill="#D0EFF7"/>
<path d="M28.5 2C28.5 1.72386 28.2761 1.5 28 1.5H24C23.7239 1.5 23.5 1.72386 23.5 2V6C23.5 6.27614 23.7239 6.5 24 6.5H28C28.2761 6.5 28.5 6.27614 28.5 6V2ZM29.5 6C29.5 6.82843 28.8284 7.5 28 7.5H24C23.1716 7.5 22.5 6.82843 22.5 6V2C22.5 1.17157 23.1716 0.5 24 0.5H28C28.8284 0.5 29.5 1.17157 29.5 2V6Z" fill="#535D6B"/>
<path d="M1 13C1 12.4477 1.44772 12 2 12H6C6.55228 12 7 12.4477 7 13V17C7 17.5523 6.55228 18 6 18H2C1.44772 18 1 17.5523 1 17V13Z" fill="#D0EFF7"/>
<path d="M6.5 13C6.5 12.7239 6.27614 12.5 6 12.5H2C1.72386 12.5 1.5 12.7239 1.5 13V17C1.5 17.2761 1.72386 17.5 2 17.5H6C6.27614 17.5 6.5 17.2761 6.5 17V13ZM7.5 17C7.5 17.8284 6.82843 18.5 6 18.5H2C1.17157 18.5 0.5 17.8284 0.5 17V13C0.5 12.1716 1.17157 11.5 2 11.5H6C6.82843 11.5 7.5 12.1716 7.5 13V17Z" fill="#535D6B"/>
<path d="M12 13C12 12.4477 12.4477 12 13 12H17C17.5523 12 18 12.4477 18 13V17C18 17.5523 17.5523 18 17 18H13C12.4477 18 12 17.5523 12 17V13Z" fill="#D0EFF7"/>
<path d="M17.5 13C17.5 12.7239 17.2761 12.5 17 12.5H13C12.7239 12.5 12.5 12.7239 12.5 13V17C12.5 17.2761 12.7239 17.5 13 17.5H17C17.2761 17.5 17.5 17.2761 17.5 17V13ZM18.5 17C18.5 17.8284 17.8284 18.5 17 18.5H13C12.1716 18.5 11.5 17.8284 11.5 17V13C11.5 12.1716 12.1716 11.5 13 11.5H17C17.8284 11.5 18.5 12.1716 18.5 13V17Z" fill="#535D6B"/>
<path d="M12 24C12 23.4477 12.4477 23 13 23H17C17.5523 23 18 23.4477 18 24V28C18 28.5523 17.5523 29 17 29H13C12.4477 29 12 28.5523 12 28V24Z" fill="#D0EFF7"/>
<path d="M17.5 24C17.5 23.7239 17.2761 23.5 17 23.5H13C12.7239 23.5 12.5 23.7239 12.5 24V28C12.5 28.2761 12.7239 28.5 13 28.5H17C17.2761 28.5 17.5 28.2761 17.5 28V24ZM18.5 28C18.5 28.8284 17.8284 29.5 17 29.5H13C12.1716 29.5 11.5 28.8284 11.5 28V24C11.5 23.1716 12.1716 22.5 13 22.5H17C17.8284 22.5 18.5 23.1716 18.5 24V28Z" fill="#535D6B"/>
<path d="M23 13C23 12.4477 23.4477 12 24 12H28C28.5523 12 29 12.4477 29 13V17C29 17.5523 28.5523 18 28 18H24C23.4477 18 23 17.5523 23 17V13Z" fill="#D0EFF7"/>
<path d="M28.5 13C28.5 12.7239 28.2761 12.5 28 12.5H24C23.7239 12.5 23.5 12.7239 23.5 13V17C23.5 17.2761 23.7239 17.5 24 17.5H28C28.2761 17.5 28.5 17.2761 28.5 17V13ZM29.5 17C29.5 17.8284 28.8284 18.5 28 18.5H24C23.1716 18.5 22.5 17.8284 22.5 17V13C22.5 12.1716 23.1716 11.5 24 11.5H28C28.8284 11.5 29.5 12.1716 29.5 13V17Z" fill="#535D6B"/>
<path d="M23 24C23 23.4477 23.4477 23 24 23H28C28.5523 23 29 23.4477 29 24V28C29 28.5523 28.5523 29 28 29H24C23.4477 29 23 28.5523 23 28V24Z" fill="#D0EFF7"/>
<path d="M28.5 24C28.5 23.7239 28.2761 23.5 28 23.5H24C23.7239 23.5 23.5 23.7239 23.5 24V28C23.5 28.2761 23.7239 28.5 24 28.5H28C28.2761 28.5 28.5 28.2761 28.5 28V24ZM29.5 28C29.5 28.8284 28.8284 29.5 28 29.5H24C23.1716 29.5 22.5 28.8284 22.5 28V24C22.5 23.1716 23.1716 22.5 24 22.5H28C28.8284 22.5 29.5 23.1716 29.5 24V28Z" fill="#535D6B"/>
<path d="M6.40331 27.075H3.39126C3.04276 27.075 2.86851 27.075 2.72861 27.0111C2.60532 26.9548 2.50104 26.8642 2.42829 26.7503C2.34574 26.6211 2.32225 26.4494 2.27527 26.106L1.90504 23.4H7.69896C7.81572 23.4 7.8741 23.4 7.91518 23.4238C7.95121 23.4447 7.97861 23.4776 7.9925 23.5167C8.00833 23.5613 7.99741 23.6183 7.97556 23.7324L7.50969 26.1646C7.44762 26.4886 7.41658 26.6507 7.33259 26.772C7.25852 26.8789 7.156 26.9633 7.03647 27.0156C6.90092 27.075 6.73505 27.075 6.40331 27.075Z" fill="#535D6B"/>
<path d="M3.46373 29C3.65811 29 3.81569 28.8433 3.81569 28.65C3.81569 28.4567 3.65811 28.3 3.46373 28.3C3.26935 28.3 3.11177 28.4567 3.11177 28.65C3.11177 28.8433 3.26935 29 3.46373 29Z" fill="#535D6B"/>
<path d="M6.27942 29C6.4738 29 6.63138 28.8433 6.63138 28.65C6.63138 28.4567 6.4738 28.3 6.27942 28.3C6.08504 28.3 5.92746 28.4567 5.92746 28.65C5.92746 28.8433 6.08504 29 6.27942 29Z" fill="#535D6B"/>
<path d="M6.2793 28.5C6.20023 28.5001 6.13184 28.565 6.13184 28.6504L6.14355 28.71C6.16674 28.7639 6.22017 28.7998 6.2793 28.7998C6.33844 28.7998 6.39182 28.7639 6.41504 28.71L6.42773 28.6504L6.41504 28.5908C6.39198 28.5365 6.33868 28.5 6.2793 28.5ZM3.59961 28.5908C3.58429 28.5547 3.5556 28.5266 3.52051 28.5117L3.46387 28.5C3.38475 28.5 3.31543 28.5649 3.31543 28.6504L3.32812 28.71C3.35134 28.7639 3.40473 28.7998 3.46387 28.7998C3.52299 28.7997 3.57643 28.7639 3.59961 28.71L3.61133 28.6504L3.59961 28.5908ZM1.45996 21.5C1.49568 21.5 1.55036 21.5002 1.59961 21.5039C1.62742 21.506 1.66258 21.509 1.70215 21.5176L1.83105 21.5605L1.91602 21.6064C1.9972 21.6584 2.06633 21.7277 2.11914 21.8096C2.17407 21.8947 2.19775 21.9766 2.20996 22.0312C2.22073 22.0795 2.22837 22.1339 2.2334 22.1689L2.33887 22.9004H7.69922C7.74865 22.9004 7.81805 22.9 7.87891 22.9053C7.92794 22.9095 8.00171 22.919 8.08301 22.9512L8.16602 22.9912L8.26367 23.0596C8.32407 23.1106 8.37482 23.1723 8.41406 23.2412L8.46387 23.3496L8.48828 23.4395C8.50492 23.5257 8.50013 23.6004 8.49512 23.6494C8.48889 23.7102 8.47601 23.7781 8.4668 23.8262L8.00098 26.2588C7.97136 26.4134 7.94414 26.5564 7.91211 26.6748C7.87841 26.7994 7.83118 26.9309 7.74414 27.0566C7.61722 27.24 7.44135 27.3842 7.2373 27.4736C7.09743 27.5349 6.95897 27.5568 6.83008 27.5664C6.7075 27.5755 6.56163 27.5752 6.40332 27.5752H3.3916C3.22497 27.5752 3.07141 27.5752 2.94336 27.5654C2.80923 27.5552 2.66523 27.5319 2.52051 27.4658C2.31004 27.3696 2.13153 27.2147 2.00684 27.0195C1.92092 26.885 1.87804 26.7457 1.84961 26.6143C1.82253 26.4891 1.80272 26.3379 1.78027 26.1738L1.40918 23.4678V23.4668L1.27051 22.5H1C0.723858 22.5 0.5 22.2761 0.5 22C0.5 21.7239 0.723858 21.5 1 21.5H1.45996ZM2.77051 26.0381C2.795 26.2171 2.81014 26.3236 2.82715 26.4023C2.83893 26.4568 2.84743 26.4772 2.84961 26.4814C2.87035 26.5138 2.90061 26.5402 2.93652 26.5566C2.94136 26.5583 2.96279 26.564 3.01953 26.5684C3.10071 26.5746 3.20974 26.5752 3.3916 26.5752H6.40332C6.57655 26.5752 6.67975 26.5751 6.75684 26.5693C6.82728 26.5641 6.84021 26.5558 6.83594 26.5576C6.87083 26.5423 6.90073 26.5178 6.92188 26.4873C6.92432 26.4829 6.93274 26.4641 6.94629 26.4141C6.96627 26.3402 6.98612 26.2397 7.01855 26.0703L7.43457 23.9004H2.47852L2.77051 26.0381ZM4.31543 28.6504C4.31522 29.1222 3.93156 29.4999 3.46387 29.5C3.02521 29.5 2.6601 29.1678 2.61621 28.7373L2.61133 28.6504L2.61621 28.5625C2.66019 28.1321 3.02528 27.7998 3.46387 27.7998L3.55078 27.8047C3.97831 27.8481 4.31543 28.208 4.31543 28.6504ZM7.13184 28.6504C7.13162 29.1223 6.74705 29.5 6.2793 29.5C5.84069 29.4999 5.47552 29.1678 5.43164 28.7373L5.42773 28.6504L5.43164 28.5625C5.47561 28.1321 5.84075 27.7999 6.2793 27.7998C6.74718 27.7998 7.13184 28.1783 7.13184 28.6504Z" fill="#535D6B"/>
</g>
<defs>
<clipPath id="clip0_8_2823">
<rect width="30" height="30" fill="white"/>
</clipPath>
</defs>
</svg>
