<svg width="30" height="30" viewBox="0 0 30 30" fill="none" xmlns="http://www.w3.org/2000/svg">
<rect width="30" height="30" fill="white"/>
<path d="M1 5C1 3.89543 1.89543 3 3 3H27C28.1046 3 29 3.89543 29 5V6C29 7.10457 28.1046 8 27 8H3C1.89543 8 1 7.10457 1 6V5Z" fill="white"/>
<path d="M28.5 5C28.5 4.17157 27.8284 3.5 27 3.5H3C2.17157 3.5 1.5 4.17157 1.5 5V6C1.5 6.82843 2.17157 7.5 3 7.5H27C27.8284 7.5 28.5 6.82843 28.5 6V5ZM29.5 6C29.5 7.38071 28.3807 8.5 27 8.5H3C1.61929 8.5 0.5 7.38071 0.5 6V5C0.5 3.61929 1.61929 2.5 3 2.5H27C28.3807 2.5 29.5 3.61929 29.5 5V6Z" fill="#535D6B"/>
<path d="M1 14C1 12.8954 1.89543 12 3 12H27C28.1046 12 29 12.8954 29 14V15C29 16.1046 28.1046 17 27 17H3C1.89543 17 1 16.1046 1 15V14Z" fill="white"/>
<path d="M28.5 14C28.5 13.1716 27.8284 12.5 27 12.5H3C2.17157 12.5 1.5 13.1716 1.5 14V15C1.5 15.8284 2.17157 16.5 3 16.5H27C27.8284 16.5 28.5 15.8284 28.5 15V14ZM29.5 15C29.5 16.3807 28.3807 17.5 27 17.5H3C1.61929 17.5 0.5 16.3807 0.5 15V14C0.5 12.6193 1.61929 11.5 3 11.5H27C28.3807 11.5 29.5 12.6193 29.5 14V15Z" fill="#535D6B"/>
<path d="M1 23C1 21.8954 1.89543 21 3 21H27C28.1046 21 29 21.8954 29 23V24C29 25.1046 28.1046 26 27 26H3C1.89543 26 1 25.1046 1 24V23Z" fill="white"/>
<path d="M28.5 23C28.5 22.1716 27.8284 21.5 27 21.5H3C2.17157 21.5 1.5 22.1716 1.5 23V24C1.5 24.8284 2.17157 25.5 3 25.5H27C27.8284 25.5 28.5 24.8284 28.5 24V23ZM29.5 24C29.5 25.3807 28.3807 26.5 27 26.5H3C1.61929 26.5 0.5 25.3807 0.5 24V23C0.5 21.6193 1.61929 20.5 3 20.5H27C28.3807 20.5 29.5 21.6193 29.5 23V24Z" fill="#535D6B"/>
<path d="M1 5C1 3.89543 1.89543 3 3 3H4C5.10457 3 6 3.89543 6 5V6C6 7.10457 5.10457 8 4 8H3C1.89543 8 1 7.10457 1 6V5Z" fill="#D0EFF7"/>
<path d="M5.5 5C5.5 4.17157 4.82843 3.5 4 3.5H3C2.17157 3.5 1.5 4.17157 1.5 5V6C1.5 6.82843 2.17157 7.5 3 7.5H4C4.82843 7.5 5.5 6.82843 5.5 6V5ZM6.5 6C6.5 7.38071 5.38071 8.5 4 8.5H3C1.61929 8.5 0.5 7.38071 0.5 6V5C0.5 3.61929 1.61929 2.5 3 2.5H4C5.38071 2.5 6.5 3.61929 6.5 5V6Z" fill="#535D6B"/>
<path d="M1 14C1 12.8954 1.89543 12 3 12H21C22.1046 12 23 12.8954 23 14V15C23 16.1046 22.1046 17 21 17H3C1.89543 17 1 16.1046 1 15V14Z" fill="#D0EFF7"/>
<path d="M22.5 14C22.5 13.1716 21.8284 12.5 21 12.5H3C2.17157 12.5 1.5 13.1716 1.5 14V15C1.5 15.8284 2.17157 16.5 3 16.5H21C21.8284 16.5 22.5 15.8284 22.5 15V14ZM23.5 15C23.5 16.3807 22.3807 17.5 21 17.5H3C1.61929 17.5 0.5 16.3807 0.5 15V14C0.5 12.6193 1.61929 11.5 3 11.5H21C22.3807 11.5 23.5 12.6193 23.5 14V15Z" fill="#535D6B"/>
<path d="M1 23C1 21.8954 1.89543 21 3 21H13C14.1046 21 15 21.8954 15 23V24C15 25.1046 14.1046 26 13 26H3C1.89543 26 1 25.1046 1 24V23Z" fill="#D0EFF7"/>
<path d="M14.5 23C14.5 22.1716 13.8284 21.5 13 21.5H3C2.17157 21.5 1.5 22.1716 1.5 23V24C1.5 24.8284 2.17157 25.5 3 25.5H13C13.8284 25.5 14.5 24.8284 14.5 24V23ZM15.5 24C15.5 25.3807 14.3807 26.5 13 26.5H3C1.61929 26.5 0.5 25.3807 0.5 24V23C0.5 21.6193 1.61929 20.5 3 20.5H13C14.3807 20.5 15.5 21.6193 15.5 23V24Z" fill="#535D6B"/>
</svg>
