<svg width="30" height="30" viewBox="0 0 30 30" fill="none" xmlns="http://www.w3.org/2000/svg">
<path d="M1.5 13.7207C1.50012 6.97145 6.97145 1.50012 13.7207 1.5C20.4701 1.5 25.9413 6.97137 25.9414 13.7207H24.9414C24.9413 7.52366 19.9178 2.5 13.7207 2.5C7.52374 2.50012 2.50012 7.52374 2.5 13.7207C2.5 19.9178 7.52366 24.9413 13.7207 24.9414V25.9414C6.97137 25.9413 1.5 20.4701 1.5 13.7207Z" fill="#D0EFF7"/>
<path d="M13.7217 7.86047C16.1488 7.86087 18.1172 9.82874 18.1172 12.256C18.1171 13.6195 17.495 14.8375 16.5205 15.6437C19.5069 16.6466 21.7755 19.2083 22.3613 22.3624C20.1499 24.5736 17.0952 25.9415 13.7207 25.9415C10.3461 25.9415 7.29061 24.5739 5.0791 22.3624C5.66491 19.2082 7.93534 16.6466 10.9219 15.6437C9.94738 14.8375 9.32622 13.6195 9.32617 12.256C9.32617 9.82849 11.2942 7.86047 13.7217 7.86047Z" fill="#3B646B"/>
<path d="M17.1172 12.256C17.1172 10.4399 15.6903 8.95672 13.8965 8.86535L13.7217 8.86047C11.8465 8.86047 10.3262 10.3808 10.3262 12.256C10.3262 13.3087 10.8047 14.2487 11.5596 14.8732C11.8392 15.1046 11.9715 15.4695 11.9053 15.8263C11.839 16.1832 11.5843 16.4764 11.2402 16.5919C8.7586 17.4253 6.83387 19.4736 6.17578 22.0275C8.16915 23.8392 10.8156 24.9415 13.7207 24.9415V25.9415C10.3461 25.9415 7.29061 24.5739 5.0791 22.3624C5.66491 19.2082 7.93534 16.6466 10.9219 15.6437C9.94738 14.8375 9.32622 13.6195 9.32617 12.256C9.32617 9.82849 11.2942 7.86047 13.7217 7.86047C16.1488 7.86087 18.1172 9.82874 18.1172 12.256C18.1171 13.6195 17.495 14.8375 16.5205 15.6437C19.5069 16.6466 21.7755 19.2083 22.3613 22.3624C20.1499 24.5736 17.0952 25.9415 13.7207 25.9415V24.9415C16.6252 24.9415 19.2694 23.8378 21.2627 22.0265C20.6044 19.4731 18.6829 17.425 16.2021 16.5919C15.858 16.4764 15.6034 16.1832 15.5371 15.8263C15.4709 15.4695 15.6032 15.1046 15.8828 14.8732C16.5908 14.2875 17.0558 13.4246 17.1113 12.4523L17.1172 12.256Z" fill="#D0EFF7"/>
<path d="M22.5 29C26.0899 29 29 26.0899 29 22.5C29 18.9101 26.0899 16 22.5 16C18.9101 16 16 18.9101 16 22.5C16 26.0899 18.9101 29 22.5 29Z" fill="#3B646B"/>
<path d="M28.5 22.5C28.5 19.1863 25.8137 16.5 22.5 16.5C19.1863 16.5 16.5 19.1863 16.5 22.5C16.5 25.8137 19.1863 28.5 22.5 28.5C25.8137 28.5 28.5 25.8137 28.5 22.5ZM23 19.9004V22H25.0996V23H23V25.0996H22V23H19.9004V22H22V19.9004H23ZM29.5 22.5C29.5 26.366 26.366 29.5 22.5 29.5C18.634 29.5 15.5 26.366 15.5 22.5C15.5 18.634 18.634 15.5 22.5 15.5C26.366 15.5 29.5 18.634 29.5 22.5Z" fill="#D0EFF7"/>
</svg>
