<svg width="30" height="30" viewBox="0 0 30 30" fill="none" xmlns="http://www.w3.org/2000/svg">
<rect width="30" height="30" fill="white"/>
<path d="M10 16.8667C10 15.7466 10 15.1865 10.2044 14.7587C10.3841 14.3824 10.671 14.0764 11.0238 13.8847C11.4249 13.6667 11.9499 13.6667 13 13.6667H17C18.0501 13.6667 18.5751 13.6667 18.9762 13.8847C19.329 14.0764 19.6159 14.3824 19.7956 14.7587C20 15.1865 20 15.7466 20 16.8667V17.8C20 18.9201 20 19.4802 19.7956 19.908C19.6159 20.2843 19.329 20.5903 18.9762 20.782C18.5751 21 18.0501 21 17 21H13C11.9499 21 11.4249 21 11.0238 20.782C10.671 20.5903 10.3841 20.2843 10.2044 19.908C10 19.4802 10 18.9201 10 17.8V16.8667Z" fill="white"/>
<path d="M19.5 16.8662C19.5 16.2987 19.4993 15.9007 19.4756 15.5908C19.4522 15.2864 19.4089 15.1091 19.3447 14.9746C19.2085 14.6895 18.9937 14.4636 18.7373 14.3242C18.6218 14.2615 18.4673 14.2167 18.1885 14.1924C17.9026 14.1675 17.5338 14.167 17 14.167H13C12.4662 14.167 12.0974 14.1675 11.8115 14.1924C11.5327 14.2167 11.3782 14.2615 11.2627 14.3242C11.0063 14.4636 10.7915 14.6895 10.6553 14.9746C10.5911 15.1091 10.5478 15.2864 10.5244 15.5908C10.5007 15.9007 10.5 16.2987 10.5 16.8662V17.7998C10.5 18.3675 10.5007 18.7652 10.5244 19.0752C10.5478 19.3801 10.591 19.5578 10.6553 19.6924C10.7915 19.9775 11.0063 20.2034 11.2627 20.3428C11.3782 20.4055 11.5328 20.4503 11.8115 20.4746C12.0974 20.4995 12.4662 20.5 13 20.5H17C17.5338 20.5 17.9026 20.4995 18.1885 20.4746C18.4672 20.4503 18.6218 20.4055 18.7373 20.3428C18.9937 20.2034 19.2085 19.9775 19.3447 19.6924C19.409 19.5578 19.4522 19.3801 19.4756 19.0752C19.4993 18.7652 19.5 18.3675 19.5 17.7998V16.8662ZM15.5 16.667V18H14.5V16.667H15.5ZM17.625 12.333C17.6248 10.7375 16.4197 9.5 15 9.5C13.5803 9.5 12.3752 10.7375 12.375 12.333V13.1689C12.5656 13.1665 12.7735 13.167 13 13.167H17C17.2265 13.167 17.4344 13.1665 17.625 13.1689V12.333ZM18.625 13.2441C18.8339 13.2838 19.0293 13.3445 19.2148 13.4453C19.664 13.6894 20.0237 14.0755 20.2471 14.543C20.3871 14.8361 20.4449 15.1528 20.4727 15.5146C20.5 15.8716 20.5 16.3141 20.5 16.8662V17.7998C20.5 18.3519 20.5 18.7944 20.4727 19.1514C20.4449 19.5132 20.387 19.83 20.2471 20.123C20.0237 20.5906 19.664 20.9776 19.2148 21.2217C18.9295 21.3767 18.6213 21.4405 18.2754 21.4707C17.936 21.5003 17.5163 21.5 17 21.5H13C12.4837 21.5 12.064 21.5003 11.7246 21.4707C11.3787 21.4405 11.0705 21.3767 10.7852 21.2217C10.336 20.9776 9.97626 20.5906 9.75293 20.123C9.61303 19.83 9.55506 19.5132 9.52734 19.1514C9.50003 18.7944 9.5 18.3519 9.5 17.7998V16.8662C9.5 16.3141 9.5 15.8716 9.52734 15.5146C9.55508 15.1528 9.6129 14.8361 9.75293 14.543C9.97626 14.0755 10.336 13.6894 10.7852 13.4453C10.9707 13.3445 11.1661 13.2838 11.375 13.2441V12.333C11.3752 10.2469 12.9682 8.5 15 8.5C17.0318 8.5 18.6248 10.2469 18.625 12.333V13.2441Z" fill="#535D6B"/>
<path d="M26.5 15C26.5 11.3641 24.718 8.1413 21.9717 6.15039C21.7481 5.98832 21.6983 5.67572 21.8604 5.45215C22.0225 5.22883 22.3351 5.17882 22.5586 5.34082C25.5521 7.51098 27.5 11.0289 27.5 15C27.5 21.5979 22.125 26.9424 15.5 26.9424H15.4941L17.2061 28.6455C17.4016 28.8403 17.4017 29.1569 17.207 29.3525C17.0123 29.5482 16.6957 29.5492 16.5 29.3545L13.7939 26.6621C13.6998 26.5683 13.6475 26.4405 13.6475 26.3076C13.6475 26.1747 13.6998 26.0469 13.7939 25.9531L16.5 23.2607C16.6957 23.066 17.0122 23.0671 17.207 23.2627C17.4017 23.4584 17.4015 23.7749 17.2061 23.9697L15.2236 25.9424H15.5C21.5775 25.9424 26.5 21.0409 26.5 15ZM3.5 15C3.5 8.40208 8.87496 3.05762 15.5 3.05762H15.5059L13.7939 1.35449C13.5984 1.1597 13.5983 0.843146 13.793 0.64746C13.9877 0.45182 14.3043 0.450774 14.5 0.645507L17.2061 3.33789C17.3002 3.43171 17.3525 3.55945 17.3525 3.69238C17.3525 3.82532 17.3002 3.95307 17.2061 4.04687L14.5 6.73926C14.3043 6.93397 13.9878 6.93287 13.793 6.7373C13.5983 6.54164 13.5985 6.22507 13.7939 6.03027L15.7764 4.05762H15.5C9.42249 4.05762 4.5 8.9591 4.5 15C4.5 18.6359 6.28203 21.8587 9.02832 23.8496C9.2519 24.0117 9.30172 24.3243 9.13965 24.5479C8.97751 24.7712 8.66488 24.8212 8.44141 24.6592C5.44787 22.489 3.5 18.9711 3.5 15Z" fill="#535D6B"/>
</svg>
