<svg width="30" height="30" viewBox="0 0 30 30" fill="none" xmlns="http://www.w3.org/2000/svg">
<path d="M24 11C24.8284 11 25.5 11.6716 25.5 12.5V23.5C25.5 24.3284 24.8284 25 24 25H17.5L15 27.5L12.5 25H6C5.17157 25 4.5 24.3284 4.5 23.5V12.5C4.5 11.6716 5.17157 11 6 11H24Z" fill="#3B646B"/>
<path d="M25 12.5C25 11.9477 24.5523 11.5 24 11.5H6C5.44772 11.5 5 11.9477 5 12.5V23.5C5 24.0523 5.44772 24.5 6 24.5H12.5C12.6326 24.5 12.7597 24.5527 12.8535 24.6465L15 26.793L17.1465 24.6465L17.2227 24.584C17.3042 24.5296 17.4006 24.5 17.5 24.5H24C24.5523 24.5 25 24.0523 25 23.5V12.5ZM26 23.5C26 24.6046 25.1046 25.5 24 25.5H17.707L15.3535 27.8535C15.1583 28.0488 14.8417 28.0488 14.6465 27.8535L12.293 25.5H6C4.89543 25.5 4 24.6046 4 23.5V12.5C4 11.3954 4.89543 10.5 6 10.5H24C25.1046 10.5 26 11.3954 26 12.5V23.5Z" fill="#D0EFF7"/>
<path d="M7.00002 2L7.86759 3.80589L9.85319 4.07295L8.40378 5.45611L8.76338 7.42705L7.00002 6.476L5.23666 7.42705L5.59626 5.45611L4.14685 4.07295L6.13245 3.80589L7.00002 2Z" fill="#3B646B"/>
<path d="M6.99998 1.5C7.19219 1.5 7.3679 1.60995 7.45115 1.7832L8.20115 3.3457L9.9199 3.57715C10.1103 3.60278 10.2696 3.73532 10.3291 3.91797C10.3885 4.10079 10.3373 4.30186 10.1982 4.43457L8.94334 5.63086L9.25486 7.33691C9.28936 7.52602 9.2131 7.71904 9.05759 7.83203C8.90217 7.94496 8.69548 7.95826 8.52634 7.86719L6.99998 7.04395L5.47361 7.86719C5.30447 7.95826 5.09778 7.94496 4.94236 7.83203C4.78685 7.71904 4.71059 7.52602 4.74509 7.33691L5.05564 5.63086L3.80173 4.43457C3.66266 4.30186 3.61147 4.10079 3.67087 3.91797C3.73035 3.73532 3.88967 3.60278 4.08005 3.57715L5.79783 3.3457L6.5488 1.7832L6.58494 1.72168C6.67687 1.58453 6.83179 1.5 6.99998 1.5ZM6.58298 4.02246C6.5101 4.17411 6.36594 4.2793 6.19919 4.30176L5.24509 4.42969L5.94138 5.09473C6.06304 5.21093 6.11806 5.38038 6.08787 5.5459L5.91501 6.49316L6.76267 6.03613L6.81931 6.00977C6.95477 5.95726 7.1076 5.96619 7.23728 6.03613L8.08396 6.49316L7.91209 5.5459C7.88189 5.38038 7.93691 5.21093 8.05857 5.09473L8.75388 4.42969L7.80076 4.30176C7.63401 4.2793 7.48986 4.17411 7.41697 4.02246L6.99998 3.1543L6.58298 4.02246Z" fill="#D0EFF7"/>
<path d="M15 2L15.8676 3.80589L17.8532 4.07295L16.4038 5.45611L16.7634 7.42705L15 6.476L13.2367 7.42705L13.5963 5.45611L12.1469 4.07295L14.1324 3.80589L15 2Z" fill="#3B646B"/>
<path d="M15 1.5C15.1922 1.5 15.3679 1.60995 15.4511 1.7832L16.2011 3.3457L17.9199 3.57715C18.1103 3.60278 18.2696 3.73532 18.3291 3.91797C18.3885 4.10079 18.3373 4.30186 18.1982 4.43457L16.9433 5.63086L17.2549 7.33691C17.2894 7.52602 17.2131 7.71904 17.0576 7.83203C16.9022 7.94496 16.6955 7.95826 16.5263 7.86719L15 7.04395L13.4736 7.86719C13.3045 7.95826 13.0978 7.94496 12.9424 7.83203C12.7868 7.71904 12.7106 7.52602 12.7451 7.33691L13.0556 5.63086L11.8017 4.43457C11.6627 4.30186 11.6115 4.10079 11.6709 3.91797C11.7303 3.73532 11.8897 3.60278 12.0801 3.57715L13.7978 3.3457L14.5488 1.7832L14.5849 1.72168C14.6769 1.58453 14.8318 1.5 15 1.5ZM14.583 4.02246C14.5101 4.17411 14.3659 4.2793 14.1992 4.30176L13.2451 4.42969L13.9414 5.09473C14.063 5.21093 14.1181 5.38038 14.0879 5.5459L13.915 6.49316L14.7627 6.03613L14.8193 6.00977C14.9548 5.95726 15.1076 5.96619 15.2373 6.03613L16.084 6.49316L15.9121 5.5459C15.8819 5.38038 15.9369 5.21093 16.0586 5.09473L16.7539 4.42969L15.8008 4.30176C15.634 4.2793 15.4899 4.17411 15.417 4.02246L15 3.1543L14.583 4.02246Z" fill="#D0EFF7"/>
<path d="M23 2L23.8676 3.80589L25.8532 4.07295L24.4038 5.45611L24.7634 7.42705L23 6.476L21.2367 7.42705L21.5963 5.45611L20.1469 4.07295L22.1324 3.80589L23 2Z" fill="#3B646B"/>
<path d="M23 1.5C23.1922 1.5 23.3679 1.60995 23.4511 1.7832L24.2011 3.3457L25.9199 3.57715C26.1103 3.60278 26.2696 3.73532 26.3291 3.91797C26.3885 4.10079 26.3373 4.30186 26.1982 4.43457L24.9433 5.63086L25.2549 7.33691C25.2894 7.52602 25.2131 7.71904 25.0576 7.83203C24.9022 7.94496 24.6955 7.95826 24.5263 7.86719L23 7.04395L21.4736 7.86719C21.3045 7.95826 21.0978 7.94496 20.9424 7.83203C20.7868 7.71904 20.7106 7.52602 20.7451 7.33691L21.0556 5.63086L19.8017 4.43457C19.6627 4.30186 19.6115 4.10079 19.6709 3.91797C19.7303 3.73532 19.8897 3.60278 20.0801 3.57715L21.7978 3.3457L22.5488 1.7832L22.5849 1.72168C22.6769 1.58453 22.8318 1.5 23 1.5ZM22.583 4.02246C22.5101 4.17411 22.3659 4.2793 22.1992 4.30176L21.2451 4.42969L21.9414 5.09473C22.063 5.21093 22.1181 5.38038 22.0879 5.5459L21.915 6.49316L22.7627 6.03613L22.8193 6.00977C22.9548 5.95726 23.1076 5.96619 23.2373 6.03613L24.084 6.49316L23.9121 5.5459C23.8819 5.38038 23.9369 5.21093 24.0586 5.09473L24.7539 4.42969L23.8008 4.30176C23.634 4.2793 23.4899 4.17411 23.417 4.02246L23 3.1543L22.583 4.02246Z" fill="#D0EFF7"/>
</svg>
