<svg width="30" height="30" viewBox="0 0 30 30" fill="none" xmlns="http://www.w3.org/2000/svg">
<path d="M22 12.5C22 17.1944 18.1944 21 13.5 21C8.80558 21 5 17.1944 5 12.5C5 7.80558 8.80558 4 13.5 4C18.1944 4 22 7.80558 22 12.5Z" fill="#3B646B"/>
<path d="M22 12.5C22 7.80558 18.1944 4 13.5 4C8.80558 4 5 7.80558 5 12.5C5 17.1944 8.80558 21 13.5 21C18.1944 21 22 17.1944 22 12.5ZM23 12.5C23 17.7467 18.7467 22 13.5 22C8.25329 22 4 17.7467 4 12.5C4 7.25329 8.25329 3 13.5 3C18.7467 3 23 7.25329 23 12.5Z" fill="#D0EFF7"/>
<path d="M19.1464 19.1465C19.3417 18.9512 19.6582 18.9512 19.8535 19.1465L27.3535 26.6465C27.5487 26.8417 27.5487 27.1583 27.3535 27.3535C27.1582 27.5488 26.8417 27.5488 26.6464 27.3535L19.1464 19.8535C18.9512 19.6583 18.9512 19.3417 19.1464 19.1465Z" fill="#D0EFF7"/>
</svg>
