<svg width="30" height="30" viewBox="0 0 30 30" fill="none" xmlns="http://www.w3.org/2000/svg">
<rect width="30" height="30" fill="white"/>
<path d="M22.0694 20.85H10.8818C9.58741 20.85 8.9402 20.85 8.42054 20.6126C7.96264 20.4034 7.57528 20.067 7.30509 19.644C6.99847 19.164 6.91122 18.5263 6.73671 17.2508L5.36159 7.2H26.8819C27.3155 7.2 27.5324 7.2 27.6849 7.28842C27.8188 7.36599 27.9206 7.4883 27.9721 7.63355C28.0309 7.79913 27.9904 8.01095 27.9092 8.4346L26.1789 17.4684C25.9483 18.6721 25.833 19.2739 25.521 19.7245C25.2459 20.1218 24.8651 20.4352 24.4212 20.6295C23.9177 20.85 23.3016 20.85 22.0694 20.85Z" fill="#D0EFF7"/>
<path d="M11.151 28C11.873 28 12.4583 27.418 12.4583 26.7C12.4583 25.982 11.873 25.4 11.151 25.4C10.429 25.4 9.84371 25.982 9.84371 26.7C9.84371 27.418 10.429 28 11.151 28Z" fill="#D0EFF7"/>
<path d="M21.6093 28C22.3313 28 22.9166 27.418 22.9166 26.7C22.9166 25.982 22.3313 25.4 21.6093 25.4C20.8873 25.4 20.302 25.982 20.302 26.7C20.302 27.418 20.8873 28 21.6093 28Z" fill="#D0EFF7"/>
<path d="M11.958 26.7002C11.958 26.2611 11.5997 25.9006 11.1514 25.9004C10.7029 25.9004 10.3438 26.261 10.3438 26.7002C10.3439 27.1393 10.7029 27.5 11.1514 27.5C11.5996 27.4998 11.9579 27.1392 11.958 26.7002ZM22.417 26.7002C22.417 26.261 22.0578 25.9004 21.6094 25.9004C21.1609 25.9004 20.8018 26.261 20.8018 26.7002C20.8019 27.1393 21.161 27.5 21.6094 27.5C22.0578 27.4999 22.4169 27.1393 22.417 26.7002ZM3.70801 1.5C3.86087 1.5 4.00332 1.4997 4.12305 1.50879C4.24916 1.51839 4.38714 1.54024 4.52637 1.60352C4.72718 1.6948 4.89775 1.84187 5.01758 2.02735C5.10073 2.15618 5.14241 2.28975 5.16992 2.41309C5.19605 2.53023 5.21566 2.67157 5.2373 2.82227L5.79492 6.7002H26.8818C27.0896 6.7002 27.2776 6.69956 27.4316 6.71289C27.59 6.72662 27.7672 6.75799 27.9355 6.85547C28.1715 6.99222 28.3519 7.20851 28.4434 7.46582C28.5087 7.64982 28.5064 7.83031 28.4902 7.98828C28.4745 8.14166 28.4392 8.32559 28.4004 8.52832L26.6699 17.5625C26.5561 18.157 26.4659 18.6302 26.3633 19.0098C26.259 19.3953 26.1327 19.7184 25.9316 20.0088C25.6037 20.4825 25.1506 20.8564 24.6221 21.0879C24.2982 21.2297 23.9556 21.2916 23.5557 21.3213C23.1619 21.3505 22.6781 21.3496 22.0693 21.3496H10.8818C10.2422 21.3496 9.73427 21.3508 9.32227 21.3193C8.90426 21.2874 8.54748 21.2202 8.21289 21.0674C7.66768 20.8183 7.20598 20.4175 6.88379 19.9131C6.68586 19.6032 6.57073 19.2598 6.48242 18.8516C6.39544 18.4495 6.32742 17.9485 6.24121 17.3184L4.86621 7.27051L4.24805 2.96387C4.22425 2.79822 4.21014 2.70175 4.19434 2.63086C4.1799 2.56613 4.17144 2.56055 4.17773 2.57031C4.16215 2.54616 4.13937 2.52597 4.1123 2.51367C4.12211 2.51813 4.11465 2.51096 4.04785 2.50586C3.9747 2.50029 3.87611 2.5 3.70801 2.5H2C1.72386 2.5 1.5 2.27614 1.5 2C1.5 1.72386 1.72386 1.5 2 1.5H3.70801ZM7.23242 17.1826C7.32069 17.8278 7.38307 18.2841 7.45996 18.6397C7.53555 18.9891 7.6179 19.2049 7.72656 19.375C7.94471 19.7165 8.25745 19.9889 8.62793 20.1582C8.81283 20.2427 9.03966 20.2939 9.39844 20.3213C9.76356 20.3492 10.227 20.3496 10.8818 20.3496H22.0693C22.6927 20.3496 23.1333 20.3501 23.4814 20.3242C23.8234 20.2988 24.0411 20.2505 24.2207 20.1719C24.58 20.0145 24.8882 19.7603 25.1104 19.4395C25.2211 19.2794 25.3086 19.0765 25.3975 18.748C25.4881 18.4131 25.5708 17.9831 25.6875 17.374L27.418 8.34082C27.4602 8.12028 27.4859 7.98641 27.4961 7.88672C27.5015 7.83415 27.4999 7.8077 27.499 7.79785C27.4874 7.76747 27.4663 7.74136 27.4375 7.72363C27.4293 7.72117 27.4035 7.714 27.3457 7.70899C27.2449 7.70024 27.1076 7.7002 26.8818 7.7002H5.93555L7.23242 17.1826ZM12.958 26.7002C12.9579 27.6967 12.1466 28.4998 11.1514 28.5C10.1559 28.5 9.34386 27.6969 9.34375 26.7002C9.34375 25.7035 10.1559 24.9004 11.1514 24.9004C12.1467 24.9006 12.958 25.7036 12.958 26.7002ZM23.417 26.7002C23.4169 27.6968 22.6048 28.4999 21.6094 28.5C20.6139 28.5 19.8019 27.6969 19.8018 26.7002C19.8018 25.7035 20.6139 24.9004 21.6094 24.9004C22.6048 24.9004 23.417 25.7035 23.417 26.7002Z" fill="#535D6B"/>
</svg>
