<svg width="30" height="30" viewBox="0 0 30 30" fill="none" xmlns="http://www.w3.org/2000/svg">
<g clip-path="url(#clip0_8_2893)">
<rect width="30" height="30" fill="white"/>
<path d="M1 2C1 1.44771 1.44772 1 2 1H28C28.5523 1 29 1.44772 29 2V28C29 28.5523 28.5523 29 28 29H2C1.44771 29 1 28.5523 1 28V2Z" fill="#D0EFF7"/>
<path d="M28.5 2C28.5 1.72386 28.2761 1.5 28 1.5H2C1.72386 1.5 1.5 1.72386 1.5 2V28C1.5 28.2761 1.72386 28.5 2 28.5H28C28.2761 28.5 28.5 28.2761 28.5 28V2ZM29.5 28C29.5 28.8284 28.8284 29.5 28 29.5H2C1.17157 29.5 0.5 28.8284 0.5 28V2C0.5 1.17157 1.17157 0.5 2 0.5H28C28.8284 0.5 29.5 1.17157 29.5 2V28Z" fill="#535D6B"/>
<path d="M15 7L16.1226 10.4549H19.7553L16.8164 12.5902L17.939 16.0451L15 13.9098L12.0611 16.0451L13.1837 12.5902L10.2448 10.4549H13.8775L15 7Z" fill="white"/>
<path d="M15 6.5C15.2166 6.5 15.4087 6.63969 15.4756 6.8457L16.4854 9.95508H19.7549C19.9715 9.95508 20.1636 10.0948 20.2305 10.3008C20.2973 10.5067 20.224 10.7321 20.0489 10.8594L17.4043 12.7812L18.4141 15.8906C18.481 16.0966 18.4077 16.3219 18.2324 16.4492C18.0573 16.5764 17.8207 16.5764 17.6455 16.4492L15 14.5273L12.3545 16.4492C12.1793 16.5764 11.9428 16.5764 11.7676 16.4492C11.5924 16.3219 11.519 16.0966 11.586 15.8906L12.5948 12.7812L9.9512 10.8594C9.77602 10.7321 9.70275 10.5067 9.76956 10.3008C9.83649 10.0948 10.0285 9.95508 10.2451 9.95508H13.5147L14.5244 6.8457C14.5914 6.63969 14.7834 6.5 15 6.5ZM14.3526 10.6094C14.2856 10.8153 14.0936 10.9551 13.877 10.9551H11.7842L13.4776 12.1855C13.6528 12.3129 13.7261 12.5391 13.6592 12.7451L13.0117 14.7354L14.7061 13.5049C14.8812 13.3777 15.1188 13.3777 15.294 13.5049L16.9873 14.7354L16.3408 12.7451C16.2739 12.5391 16.3472 12.3129 16.5225 12.1855L18.2158 10.9551H16.1231C15.9065 10.9551 15.7144 10.8153 15.6475 10.6094L15 8.61719L14.3526 10.6094Z" fill="#535D6B"/>
<path d="M10.5 20C10.7761 20 11 20.2239 11 20.5C11 20.7761 10.7761 21 10.5 21H7C6.72386 21 6.5 20.7761 6.5 20.5C6.5 20.2239 6.72386 20 7 20H10.5Z" fill="#535D6B"/>
<path d="M17 20C17.2761 20 17.5 20.2239 17.5 20.5C17.5 20.7761 17.2761 21 17 21H13.5C13.2239 21 13 20.7761 13 20.5C13 20.2239 13.2239 20 13.5 20H17Z" fill="#535D6B"/>
<path d="M23.5 20C23.7761 20 24 20.2239 24 20.5C24 20.7761 23.7761 21 23.5 21H20C19.7239 21 19.5 20.7761 19.5 20.5C19.5 20.2239 19.7239 20 20 20H23.5Z" fill="#535D6B"/>
</g>
<defs>
<clipPath id="clip0_8_2893">
<rect width="30" height="30" fill="white"/>
</clipPath>
</defs>
</svg>
