<svg width="30" height="30" viewBox="0 0 30 30" fill="none" xmlns="http://www.w3.org/2000/svg">
<g clip-path="url(#clip0_8_3460)">
<path d="M1 2C1 1.44771 1.44772 1 2 1H28C28.5523 1 29 1.44772 29 2V28C29 28.5523 28.5523 29 28 29H2C1.44771 29 1 28.5523 1 28V2Z" fill="#3B646B"/>
<path d="M28.5 2C28.5 1.72386 28.2761 1.5 28 1.5H2C1.72386 1.5 1.5 1.72386 1.5 2V28C1.5 28.2761 1.72386 28.5 2 28.5H28C28.2761 28.5 28.5 28.2761 28.5 28V2ZM29.5 28C29.5 28.8284 28.8284 29.5 28 29.5H2C1.17157 29.5 0.5 28.8284 0.5 28V2C0.5 1.17157 1.17157 0.5 2 0.5H28C28.8284 0.5 29.5 1.17157 29.5 2V28Z" fill="#D0EFF7"/>
<path d="M19.9052 12C20.4375 12 20.8765 12.417 20.9039 12.9485L20.9896 14.613C20.9953 14.7224 20.9081 14.8142 20.7986 14.8142C20.7034 14.8142 20.623 14.744 20.6074 14.6501C20.5394 14.2397 20.4512 13.9404 20.3427 13.7522C20.143 13.41 19.8755 13.1593 19.5404 13C19.2118 12.8348 18.7768 12.7522 18.2355 12.7522H17.3893C16.837 12.7522 16.3893 13.1999 16.3893 13.7522V21.9204C16.3893 22.6578 16.4763 23.118 16.6503 23.3009C16.8951 23.5487 17.2721 23.6726 17.7812 23.6726H18.0718C18.1622 23.6726 18.2355 23.7459 18.2355 23.8363C18.2355 23.9267 18.1622 24 18.0718 24H12.8412C12.7508 24 12.6775 23.9267 12.6775 23.8363C12.6775 23.7459 12.7508 23.6726 12.8412 23.6726H13.1415C13.6957 23.6726 14.0888 23.5192 14.3207 23.2124C14.4625 23.0236 14.5334 22.5929 14.5334 21.9204V13.7522C14.5334 13.1999 14.0857 12.7522 13.5334 12.7522H12.9578C12.3456 12.7522 11.9107 12.7935 11.6529 12.8761C11.3178 12.9882 11.0311 13.2035 10.7926 13.5221C10.5797 13.8067 10.4438 14.1806 10.3851 14.644C10.3729 14.7399 10.293 14.8142 10.1963 14.8142C10.0897 14.8142 10.0049 14.7246 10.0108 14.6182L10.1027 12.9451C10.1319 12.415 10.5703 12 11.1012 12H19.9052Z" fill="#3B646B"/>
<path d="M13.5332 21.9199V13.752H12.958C12.3624 13.752 12.0645 13.7953 11.9629 13.8262C11.8465 13.8666 11.7227 13.9475 11.5928 14.1211C11.5112 14.2302 11.4205 14.4257 11.3769 14.7695C11.305 15.3373 10.8241 15.8145 10.1963 15.8145C9.51586 15.8144 8.97544 15.2428 9.01268 14.5635L9.10448 12.8906C9.16275 11.8303 10.0396 11 11.1015 11V12L11.0029 12.0049C10.5171 12.0524 10.1298 12.4482 10.1025 12.9453L10.0107 14.6182C10.0056 14.7113 10.0697 14.7919 10.1572 14.8105L10.1963 14.8145C10.2929 14.8145 10.3726 14.7394 10.3847 14.6436C10.4435 14.1804 10.5801 13.8069 10.793 13.5225C11.0314 13.2039 11.3182 12.9881 11.6533 12.876C11.9111 12.7935 12.3461 12.752 12.958 12.752H13.5332C14.0854 12.752 14.533 13.1998 14.5332 13.752V21.9199C14.5332 22.5924 14.462 23.0231 14.3203 23.2119C14.1173 23.4803 13.7914 23.6315 13.3418 23.665L13.1416 23.6729H12.8408L12.7773 23.6855C12.7188 23.7104 12.6779 23.7683 12.6777 23.8359C12.6777 23.9262 12.7506 23.9998 12.8408 24H18.0722L18.1357 23.9873C18.1944 23.9624 18.2353 23.9037 18.2353 23.8359C18.2352 23.7684 18.1943 23.7104 18.1357 23.6855L18.0722 23.6729V22.6729C18.7146 22.6731 19.2351 23.1936 19.2353 23.8359C19.2353 24.4785 18.7147 24.9997 18.0722 25H12.8408C12.2384 24.9998 11.7431 24.5418 11.6836 23.9551L11.6777 23.8359L11.6836 23.7178C11.7429 23.1309 12.2383 22.6731 12.8408 22.6729H13.1416C13.3255 22.6728 13.431 22.6465 13.4834 22.627C13.4858 22.6146 13.4906 22.6007 13.4931 22.585C13.5163 22.4438 13.5332 22.2273 13.5332 21.9199ZM16.3896 21.9199V13.752C16.3898 13.1998 16.8374 12.752 17.3896 12.752H18.2353C18.7765 12.752 19.2114 12.8349 19.54 13C19.8751 13.1593 20.143 13.4099 20.3428 13.752C20.4512 13.9401 20.5394 14.24 20.6074 14.6504C20.6191 14.7206 20.6671 14.7776 20.7305 14.8018L20.7988 14.8145C20.8944 14.8143 20.9728 14.7439 20.9873 14.6533L20.9892 14.6133L20.9043 12.9482C20.8785 12.45 20.4907 12.0527 20.0039 12.0049L19.9053 12V11C20.9698 11 21.8476 11.8343 21.9023 12.8975L21.9883 14.5615C22.0234 15.2426 21.4807 15.8143 20.7988 15.8145C20.1999 15.8145 19.7142 15.3755 19.6211 14.8135C19.5917 14.6362 19.5607 14.5004 19.5312 14.4004C19.5167 14.3511 19.5037 14.3141 19.4931 14.2881C19.4838 14.265 19.4777 14.254 19.4765 14.252H19.4756C19.3706 14.074 19.2509 13.9697 19.1113 13.9033C19.1048 13.9002 19.0982 13.8968 19.0918 13.8936C18.9526 13.8236 18.6885 13.752 18.2353 13.752H17.3896V21.9199C17.3896 22.2559 17.4094 22.4863 17.4365 22.6309C17.5014 22.6511 17.6109 22.6729 17.7812 22.6729H18.0722V23.6729H17.7812L17.5967 23.667C17.18 23.6399 16.8647 23.5176 16.6504 23.3008C16.4981 23.1407 16.4125 22.7684 16.3935 22.1836L16.3896 21.9199ZM19.9053 11V12H11.1015V11H19.9053Z" fill="#D0EFF7"/>
<path d="M29 6.5C29.2761 6.5 29.5 6.72386 29.5 7C29.5 7.27614 29.2761 7.5 29 7.5H1C0.723858 7.5 0.5 7.27614 0.5 7C0.5 6.72386 0.723858 6.5 1 6.5H29Z" fill="#D0EFF7"/>
<path d="M5 4C5 4.55228 4.55228 5 4 5C3.44772 5 3 4.55228 3 4C3 3.44772 3.44772 3 4 3C4.55228 3 5 3.44772 5 4Z" fill="#D0EFF7"/>
<path d="M8 4C8 4.55228 7.55228 5 7 5C6.44772 5 6 4.55228 6 4C6 3.44772 6.44772 3 7 3C7.55228 3 8 3.44772 8 4Z" fill="#D0EFF7"/>
<path d="M11 4C11 4.55228 10.5523 5 10 5C9.44772 5 9 4.55228 9 4C9 3.44772 9.44772 3 10 3C10.5523 3 11 3.44772 11 4Z" fill="#D0EFF7"/>
</g>
<defs>
<clipPath id="clip0_8_3460">
<rect width="30" height="30" fill="white"/>
</clipPath>
</defs>
</svg>
