<svg width="30" height="30" viewBox="0 0 30 30" fill="none" xmlns="http://www.w3.org/2000/svg">
<path d="M6 8C6 7.44772 6.44772 7 7 7H23C23.5523 7 24 7.44772 24 8V22C24 22.5523 23.5523 23 23 23H7C6.44772 23 6 22.5523 6 22V8Z" fill="#3B646B"/>
<path d="M23.5 8C23.5 7.72386 23.2761 7.5 23 7.5H7C6.72386 7.5 6.5 7.72386 6.5 8V22C6.5 22.2761 6.72386 22.5 7 22.5H23C23.2761 22.5 23.5 22.2761 23.5 22V8ZM24.5 22C24.5 22.8284 23.8284 23.5 23 23.5H7C6.17157 23.5 5.5 22.8284 5.5 22V8C5.5 7.17157 6.17157 6.5 7 6.5H23C23.8284 6.5 24.5 7.17157 24.5 8V22Z" fill="#D0EFF7"/>
<path d="M12.5907 14L7 23H23L18.8038 16.5L16.5042 20.0622L12.5907 14Z" fill="#3B646B"/>
<path d="M12.5859 13.5C12.7572 13.4985 12.9178 13.5847 13.0107 13.7285L16.5039 19.1396L18.3838 16.2285L18.4209 16.1777C18.5152 16.0657 18.6552 16 18.8037 16C18.9734 16 19.1315 16.0861 19.2236 16.2285L23.4199 22.7285C23.5192 22.8823 23.527 23.0785 23.4394 23.2393C23.3519 23.4 23.1831 23.5 23 23.5H6.99999C6.8186 23.5 6.65173 23.4016 6.56347 23.2432C6.47528 23.0846 6.4795 22.8905 6.57518 22.7363L12.166 13.7363L12.2031 13.6846C12.2963 13.57 12.4361 13.5014 12.5859 13.5ZM7.8994 22.5H22.082L18.8027 17.4209L16.9238 20.333C16.8317 20.4757 16.6737 20.5625 16.5039 20.5625C16.3342 20.5624 16.176 20.4756 16.084 20.333L12.5986 14.9336L7.8994 22.5Z" fill="#D0EFF7"/>
<path d="M20 12.5C20 13.3284 19.3284 14 18.5 14C17.6716 14 17 13.3284 17 12.5C17 11.6716 17.6716 11 18.5 11C19.3284 11 20 11.6716 20 12.5Z" fill="#D0EFF7"/>
<path d="M26.6464 12.6465C26.8417 12.4512 27.1582 12.4512 27.3535 12.6465L29.3535 14.6465C29.5487 14.8417 29.5487 15.1583 29.3535 15.3535L27.3535 17.3535C27.1582 17.5488 26.8417 17.5488 26.6464 17.3535C26.4512 17.1583 26.4512 16.8417 26.6464 16.6465L28.2929 15L26.6464 13.3535C26.4512 13.1583 26.4512 12.8417 26.6464 12.6465Z" fill="#D0EFF7"/>
<path d="M3.35355 12.6465C3.15829 12.4512 2.84178 12.4512 2.64652 12.6465L0.646522 14.6465C0.45126 14.8417 0.45126 15.1583 0.646522 15.3535L2.64652 17.3535C2.84178 17.5488 3.15829 17.5488 3.35355 17.3535C3.54882 17.1583 3.54882 16.8417 3.35355 16.6465L1.70707 15L3.35355 13.3535C3.54882 13.1583 3.54882 12.8417 3.35355 12.6465Z" fill="#D0EFF7"/>
</svg>
