<svg width="30" height="30" viewBox="0 0 30 30" fill="none" xmlns="http://www.w3.org/2000/svg">
<path d="M29 15H17.25L15 18L12.75 15H1V1H29V15Z" fill="#3B646B"/>
<path d="M1 1V15H12.75L15 18L17.25 15H29V1H1ZM30 15C30 15.5523 29.5523 16 29 16H17.749L15.7998 18.5996C15.611 18.8514 15.3148 19 15 19C14.6852 19 14.389 18.8514 14.2002 18.5996L12.251 16H1C0.447715 16 0 15.5523 0 15V1C0 0.447715 0.447715 0 1 0H29C29.5523 0 30 0.447715 30 1V15Z" fill="#D0EFF7"/>
<path d="M13.1 11.9L9.3 6.9L12.1 3.6L11.4 3L8.7 6.1L9.2 6.7L6.7 3.3H3L6.8 8.3L3.9 11.6L4.7 12.3L7.4 9.1L9.5 11.9H13.1ZM6.2 4.3L11.2 10.9H10L5 4.3H6.2Z" fill="#D0EFF7"/>
<path d="M9.5 25.333V23C9.5 22.7239 9.72386 22.5 10 22.5C10.2761 22.5 10.5 22.7239 10.5 23V25.333C10.5 25.808 10.5008 26.1349 10.5215 26.3877C10.5417 26.6344 10.5781 26.7673 10.627 26.8633C10.7388 27.0827 10.9173 27.2612 11.1367 27.373C11.2327 27.4219 11.3656 27.4583 11.6123 27.4785C11.8651 27.4992 12.192 27.5 12.667 27.5H17.333C17.808 27.5 18.1349 27.4992 18.3877 27.4785C18.6344 27.4583 18.7673 27.4219 18.8633 27.373C19.0827 27.2612 19.2612 27.0827 19.373 26.8633C19.4219 26.7673 19.4583 26.6344 19.4785 26.3877C19.4992 26.1349 19.5 25.808 19.5 25.333V23C19.5 22.7239 19.7239 22.5 20 22.5C20.2761 22.5 20.5 22.7239 20.5 23V25.333C20.5 25.7915 20.5003 26.1657 20.4756 26.4688C20.4504 26.7776 20.3964 27.0569 20.2637 27.3174C20.056 27.7248 19.7248 28.056 19.3174 28.2637C19.0569 28.3964 18.7776 28.4504 18.4688 28.4756C18.1657 28.5003 17.7915 28.5 17.333 28.5H12.667C12.2085 28.5 11.8343 28.5003 11.5313 28.4756C11.2224 28.4504 10.9431 28.3964 10.6826 28.2637C10.2752 28.056 9.944 27.7248 9.73633 27.3174C9.60361 27.0569 9.54965 26.7776 9.52441 26.4688C9.49966 26.1657 9.5 25.7915 9.5 25.333ZM14.5 25.667V22.207L13.1309 23.5762C12.9356 23.771 12.6189 23.7713 12.4238 23.5762C12.2287 23.3811 12.229 23.0644 12.4238 22.8691L14.6465 20.6465L14.7227 20.584C14.8042 20.5296 14.9006 20.5 15 20.5C15.1326 20.5 15.2597 20.5527 15.3535 20.6465L17.5762 22.8691C17.771 23.0644 17.7713 23.3811 17.5762 23.5762C17.3811 23.7713 17.0644 23.771 16.8691 23.5762L15.5 22.207V25.667C15.4998 25.943 15.276 26.167 15 26.167C14.724 26.167 14.5002 25.943 14.5 25.667Z" fill="#D0EFF7"/>
<path d="M26.5 5C26.5 4.17157 25.8284 3.5 25 3.5H20C19.1716 3.5 18.5 4.17157 18.5 5V10C18.5 10.8284 19.1716 11.5 20 11.5H25C25.8284 11.5 26.5 10.8284 26.5 10V5ZM27.5 10C27.5 11.3807 26.3807 12.5 25 12.5H20C18.6193 12.5 17.5 11.3807 17.5 10V5C17.5 3.61929 18.6193 2.5 20 2.5H25C26.3807 2.5 27.5 3.61929 27.5 5V10Z" fill="#D0EFF7"/>
<path d="M21.5 12V9.00003H20.5C20.2239 9.00003 20 8.77616 20 8.50003C20 8.22389 20.2239 8.00003 20.5 8.00003H21.5244C21.6282 6.95826 22.0605 6.26992 22.6611 5.87112C23.3215 5.43267 24.0907 5.4085 24.5977 5.5098C24.8683 5.56393 25.0442 5.82703 24.9902 6.09769C24.9361 6.36834 24.673 6.54418 24.4023 6.49027C24.0759 6.42498 23.595 6.45108 23.2139 6.70413C22.9238 6.89679 22.6252 7.26661 22.5312 8.00003H24C24.2761 8.00003 24.5 8.22389 24.5 8.50003C24.5 8.77616 24.2761 9.00003 24 9.00003H22.5V12C22.5 12.2762 22.2761 12.5 22 12.5C21.7239 12.5 21.5 12.2762 21.5 12Z" fill="#D0EFF7"/>
</svg>
