<svg width="30" height="30" viewBox="0 0 30 30" fill="none" xmlns="http://www.w3.org/2000/svg">
<rect width="30" height="30" fill="white"/>
<path d="M18 23.8667C18 22.7466 18 22.1865 18.2044 21.7587C18.3841 21.3824 18.671 21.0764 19.0238 20.8847C19.4249 20.6667 19.9499 20.6667 21 20.6667H25C26.0501 20.6667 26.5751 20.6667 26.9762 20.8847C27.329 21.0764 27.6159 21.3824 27.7956 21.7587C28 22.1865 28 22.7466 28 23.8667V24.8C28 25.9201 28 26.4802 27.7956 26.908C27.6159 27.2843 27.329 27.5903 26.9762 27.782C26.5751 28 26.0501 28 25 28H21C19.9499 28 19.4249 28 19.0238 27.782C18.671 27.5903 18.3841 27.2843 18.2044 26.908C18 26.4802 18 25.9201 18 24.8V23.8667Z" fill="#D0EFF7"/>
<path d="M27.5 23.8662C27.5 23.2987 27.4993 22.9007 27.4756 22.5908C27.4522 22.2864 27.4089 22.1091 27.3447 21.9746C27.2085 21.6895 26.9937 21.4636 26.7373 21.3242C26.6218 21.2615 26.4673 21.2167 26.1885 21.1924C25.9026 21.1675 25.5338 21.167 25 21.167H21C20.4662 21.167 20.0974 21.1675 19.8115 21.1924C19.5327 21.2167 19.3782 21.2615 19.2627 21.3242C19.0063 21.4636 18.7915 21.6895 18.6553 21.9746C18.5911 22.1091 18.5478 22.2864 18.5244 22.5908C18.5007 22.9007 18.5 23.2987 18.5 23.8662V24.7998C18.5 25.3675 18.5007 25.7652 18.5244 26.0752C18.5478 26.3801 18.591 26.5578 18.6553 26.6924C18.7915 26.9775 19.0063 27.2034 19.2627 27.3428C19.3782 27.4055 19.5328 27.4503 19.8115 27.4746C20.0974 27.4995 20.4662 27.5 21 27.5H25C25.5338 27.5 25.9026 27.4995 26.1885 27.4746C26.4672 27.4503 26.6218 27.4055 26.7373 27.3428C26.9937 27.2034 27.2085 26.9775 27.3447 26.6924C27.409 26.5578 27.4522 26.3801 27.4756 26.0752C27.4993 25.7652 27.5 25.3675 27.5 24.7998V23.8662ZM23.5 23.667V25H22.5V23.667H23.5ZM25.625 19.333C25.6248 17.7375 24.4197 16.5 23 16.5C21.5803 16.5 20.3752 17.7375 20.375 19.333V20.1689C20.5656 20.1665 20.7735 20.167 21 20.167H25C25.2265 20.167 25.4344 20.1665 25.625 20.1689V19.333ZM26.625 20.2441C26.8339 20.2838 27.0293 20.3445 27.2148 20.4453C27.664 20.6894 28.0237 21.0755 28.2471 21.543C28.3871 21.8361 28.4449 22.1528 28.4727 22.5146C28.5 22.8716 28.5 23.3141 28.5 23.8662V24.7998C28.5 25.3519 28.5 25.7944 28.4727 26.1514C28.4449 26.5132 28.387 26.83 28.2471 27.123C28.0237 27.5906 27.664 27.9776 27.2148 28.2217C26.9295 28.3767 26.6213 28.4405 26.2754 28.4707C25.936 28.5003 25.5163 28.5 25 28.5H21C20.4837 28.5 20.064 28.5003 19.7246 28.4707C19.3787 28.4405 19.0705 28.3767 18.7852 28.2217C18.336 27.9776 17.9763 27.5906 17.7529 27.123C17.613 26.83 17.5551 26.5132 17.5273 26.1514C17.5 25.7944 17.5 25.3519 17.5 24.7998V23.8662C17.5 23.3141 17.5 22.8716 17.5273 22.5146C17.5551 22.1528 17.6129 21.8361 17.7529 21.543C17.9763 21.0755 18.336 20.6894 18.7852 20.4453C18.9707 20.3445 19.1661 20.2838 19.375 20.2441V19.333C19.3752 17.2469 20.9682 15.5 23 15.5C25.0318 15.5 26.6248 17.2469 26.625 19.333V20.2441Z" fill="#535D6B"/>
<path d="M13 12.5699L8.86139 7.19355L11.9109 3.64516L11.1485 3L8.20792 6.33333L8.75248 6.97849L6.0297 3.32258H2L6.13861 8.69892L2.9802 12.2473L3.85149 13L6.79208 9.55914L9.07921 12.5699H13ZM5.48515 4.39785L10.9307 11.4946H9.62376L4.17822 4.39785H5.48515Z" fill="#535D6B"/>
<path d="M3 19C3 17.8954 3.89543 17 5 17H12C13.1046 17 14 17.8954 14 19V26C14 27.1046 13.1046 28 12 28H5C3.89543 28 3 27.1046 3 26V19Z" fill="#D0EFF7"/>
<path d="M13.5 19C13.5 18.1716 12.8284 17.5 12 17.5H5C4.17157 17.5 3.5 18.1716 3.5 19V26C3.5 26.8284 4.17157 27.5 5 27.5H12C12.8284 27.5 13.5 26.8284 13.5 26V19ZM14.5 26C14.5 27.3807 13.3807 28.5 12 28.5H5C3.61929 28.5 2.5 27.3807 2.5 26V19C2.5 17.6193 3.61929 16.5 5 16.5H12C13.3807 16.5 14.5 17.6193 14.5 19V26Z" fill="#535D6B"/>
<path d="M7.38855 27.9996V24.2223H6.05554C5.77941 24.2223 5.55556 23.9984 5.55554 23.7223C5.55554 23.4461 5.7794 23.2223 6.05554 23.2223H7.41003C7.51588 21.919 8.03823 21.0789 8.75769 20.6012C9.53399 20.0857 10.4433 20.0565 11.0428 20.1764C11.3133 20.2306 11.4883 20.4937 11.4344 20.7642C11.3803 21.035 11.1173 21.2109 10.8466 21.1568C10.4276 21.073 9.8082 21.1044 9.3114 21.4342C8.90803 21.702 8.51171 22.2171 8.41296 23.2223H10.3329C10.609 23.2223 10.8329 23.4461 10.8329 23.7223C10.8329 23.9984 10.609 24.2223 10.3329 24.2223H8.38855V27.9996C8.38855 28.2757 8.16469 28.4996 7.88855 28.4996C7.61256 28.4994 7.38855 28.2756 7.38855 27.9996Z" fill="#535D6B"/>
<path d="M22.1016 3C23.4791 3 24.6303 3.49425 25.5146 4.2998L24.0742 5.67773C23.7057 5.33883 23.0596 4.93262 22.1016 4.93262C20.7534 4.93275 19.6079 5.8036 19.1934 7.00781L19.1943 7.01074C19.0923 7.32191 19.0303 7.65546 19.0303 8C19.0303 8.34449 19.0925 8.67809 19.2002 8.98926C19.6087 10.1942 20.7529 11.0663 22.1016 11.0664C22.7664 11.0664 23.2924 10.9086 23.7021 10.6719L23.8701 10.5664H23.8711C24.5512 10.0999 24.8573 9.40546 24.9141 8.94434H22.1025V7.08789H26.8926C26.9662 7.39895 27 7.69935 27 8.11035C27 9.63256 26.4442 10.9159 25.4805 11.7881C24.6358 12.5547 23.4791 13 22.1016 13C20.1063 12.9999 18.3829 11.8773 17.5439 10.2441V10.2432C17.1986 9.56563 17 8.8051 17 8C17 7.19431 17.1981 6.43279 17.5439 5.75488C18.3829 4.1217 20.1062 3.00012 22.1016 3Z" fill="#D0EFF7"/>
<path d="M18.5303 8C18.5303 7.60923 18.5996 7.23596 18.709 6.8916C18.7127 6.87608 18.7155 6.85992 18.7207 6.84473C19.2024 5.44575 20.533 4.43277 22.1016 4.43262C22.9471 4.43262 23.5901 4.70725 24.042 5.01562L24.7578 4.33008C24.0304 3.80905 23.1415 3.5 22.1016 3.5C20.298 3.50012 18.7436 4.51235 17.9883 5.98145L17.9893 5.98242C17.6775 6.59367 17.5 7.27754 17.5 8L17.5078 8.26855C17.5461 8.89104 17.7167 9.48077 17.9893 10.0156C17.9899 10.0169 17.9896 10.0192 17.9902 10.0205C18.7462 11.4881 20.2994 12.4999 22.1016 12.5C23.3682 12.5 24.4012 12.0926 25.1445 11.418V11.417C25.9922 10.6498 26.5 9.50728 26.5 8.11035C26.5 7.90905 26.4902 7.74117 26.4727 7.58789H22.6025V8.44434H24.9141C25.0573 8.44434 25.1942 8.50597 25.2891 8.61328C25.3838 8.72056 25.4277 8.86382 25.4102 9.00586C25.3374 9.59525 24.9632 10.4235 24.1543 10.9785C24.1483 10.9826 24.1409 10.9854 24.1348 10.9893L24.1357 10.9902L23.9678 11.0957C23.9627 11.0989 23.9573 11.1015 23.9521 11.1045C23.4618 11.3877 22.8487 11.5664 22.1016 11.5664C20.5331 11.5663 19.2035 10.5527 18.7275 9.15234C18.6033 8.7933 18.5303 8.40465 18.5303 8ZM19.54 8.21191C19.5525 8.35238 19.577 8.49078 19.6123 8.62598L19.6729 8.8252L19.6738 8.8291C20.0157 9.83709 20.9738 10.5663 22.1016 10.5664C22.678 10.5664 23.1135 10.4312 23.4414 10.2441L23.5957 10.1475C23.8895 9.94382 24.0927 9.68852 24.2246 9.44434H22.1025C21.8264 9.44434 21.6025 9.22048 21.6025 8.94434V7.08789C21.6025 6.81175 21.8264 6.58789 22.1025 6.58789H26.8926C27.1243 6.58789 27.3255 6.74717 27.3789 6.97266C27.463 7.32768 27.5 7.66752 27.5 8.11035C27.5 9.75783 26.8961 11.1819 25.8164 12.1592L25.8154 12.1582C24.8694 13.0166 23.5897 13.5 22.1016 13.5C19.915 13.4999 18.0225 12.2689 17.0996 10.4727L17.0986 10.4707L16.9639 10.1865C16.668 9.51584 16.5 8.77729 16.5 8C16.5 7.11119 16.7188 6.27184 17.0986 5.52734L17.0996 5.52637C18.0225 3.72994 19.9152 2.50013 22.1016 2.5C23.6072 2.5 24.8779 3.0428 25.8516 3.92969C25.954 4.02301 26.013 4.15538 26.0146 4.29395C26.0163 4.43241 25.9604 4.5654 25.8604 4.66113L24.4199 6.03906C24.2293 6.22137 23.9295 6.22443 23.7354 6.0459C23.4356 5.77024 22.9054 5.43262 22.1016 5.43262C20.9793 5.43275 20.0224 6.15439 19.6709 7.15625C19.6699 7.15953 19.67 7.16373 19.6689 7.16699C19.5811 7.43487 19.5303 7.71562 19.5303 8L19.54 8.21191Z" fill="#535D6B"/>
</svg>
