<svg width="30" height="30" viewBox="0 0 30 30" fill="none" xmlns="http://www.w3.org/2000/svg">
<rect width="30" height="30" fill="white"/>
<path d="M2 6C2 3.79086 3.79086 2 6 2H14C16.2091 2 18 3.79086 18 6V10C18 12.2091 16.2091 14 14 14H6C3.79086 14 2 12.2091 2 10V6Z" fill="#D0EFF7"/>
<path d="M17.5 6C17.5 4.067 15.933 2.5 14 2.5H6C4.067 2.5 2.5 4.067 2.5 6V10C2.5 11.933 4.067 13.5 6 13.5H14C15.933 13.5 17.5 11.933 17.5 10V6ZM18.5 10C18.5 12.4853 16.4853 14.5 14 14.5H6C3.51472 14.5 1.5 12.4853 1.5 10V6C1.5 3.51472 3.51472 1.5 6 1.5H14C16.4853 1.5 18.5 3.51472 18.5 6V10Z" fill="#535D6B"/>
<path d="M13 8L8 11L8 5L13 8Z" fill="white"/>
<path d="M13.5 8C13.5 8.17564 13.4074 8.33835 13.2568 8.42871L8.25684 11.4287C8.10255 11.5211 7.91049 11.524 7.75391 11.4356C7.59715 11.3468 7.5 11.1801 7.5 11L7.5 5C7.5 4.81987 7.59715 4.65321 7.75391 4.56446C7.91049 4.47598 8.10255 4.47886 8.25684 4.57129L13.2568 7.57129L13.3105 7.6084C13.4292 7.70249 13.5 7.84622 13.5 8ZM8.5 5.88282L8.5 10.1172L12.0293 8L8.5 5.88282Z" fill="#535D6B"/>
<path d="M28.5 1.5C28.7761 1.5 29 1.72386 29 2C29 2.27614 28.7761 2.5 28.5 2.5H19.5C19.2239 2.5 19 2.27614 19 2C19 1.72386 19.2239 1.5 19.5 1.5H28.5Z" fill="#535D6B"/>
<path d="M28.5 27.5C28.7761 27.5 29 27.7239 29 28C29 28.2761 28.7761 28.5 28.5 28.5H19.5C19.2239 28.5 19 28.2761 19 28C19 27.7239 19.2239 27.5 19.5 27.5H28.5Z" fill="#535D6B"/>
<path d="M23.5 26L23.5 4C23.5 3.72386 23.7239 3.5 24 3.5C24.2761 3.5 24.5 3.72386 24.5 4L24.5 26C24.5 26.2761 24.2761 26.5 24 26.5C23.7239 26.5 23.5 26.2761 23.5 26Z" fill="#535D6B"/>
<path d="M23.7246 2.58202C23.9187 2.45386 24.1827 2.47561 24.3535 2.64648L27.3535 5.64648C27.5488 5.84174 27.5488 6.15825 27.3535 6.35351C27.1583 6.54877 26.8418 6.54877 26.6465 6.35351L24 3.70702L21.3535 6.35351C21.1583 6.54877 20.8418 6.54877 20.6465 6.35351C20.4512 6.15825 20.4512 5.84174 20.6465 5.64648L23.6465 2.64648L23.7246 2.58202Z" fill="#535D6B"/>
<path d="M23.7246 27.418C23.9187 27.5461 24.1827 27.5244 24.3535 27.3535L27.3535 24.3535C27.5488 24.1583 27.5488 23.8418 27.3535 23.6465C27.1583 23.4512 26.8418 23.4512 26.6465 23.6465L24 26.293L21.3535 23.6465C21.1583 23.4512 20.8418 23.4512 20.6465 23.6465C20.4512 23.8418 20.4512 24.1583 20.6465 24.3535L23.6465 27.3535L23.7246 27.418Z" fill="#535D6B"/>
</svg>
