<svg width="30" height="30" viewBox="0 0 30 30" fill="none" xmlns="http://www.w3.org/2000/svg">
<g clip-path="url(#clip0_16_33)">
<rect width="30" height="30" fill="white"/>
<path d="M11.964 1.3795C12.3421 1.17169 12.5312 1.06778 12.7314 1.02704C12.9086 0.990986 13.0914 0.990986 13.2686 1.02704C13.4688 1.06778 13.6579 1.17169 14.036 1.3795L23.9027 6.80201C24.3021 7.02149 24.5018 7.13123 24.6472 7.28732C24.7758 7.4254 24.8731 7.58907 24.9327 7.76736C25 7.9689 25 8.19487 25 8.64682V19.3532C25 19.8051 25 20.0311 24.9327 20.2326C24.8731 20.4109 24.7758 20.5746 24.6472 20.7127C24.5018 20.8688 24.3021 20.9785 23.9027 21.198L14.036 26.6205C13.6579 26.8283 13.4688 26.9322 13.2686 26.973C13.0914 27.009 12.9086 27.009 12.7314 26.973C12.5312 26.9322 12.3421 26.8283 11.964 26.6205L2.0973 21.198C1.69793 20.9785 1.49825 20.8688 1.35284 20.7127C1.22421 20.5746 1.12686 20.4109 1.06731 20.2326C1 20.0311 1 19.8051 1 19.3532V8.64682C1 8.19488 1 7.96891 1.06731 7.76737C1.12686 7.58907 1.22421 7.42541 1.35284 7.28732C1.49825 7.13124 1.69793 7.0215 2.09729 6.80201L11.964 1.3795Z" fill="#D0EFF7"/>
<path d="M24.4931 8.2539L13.5 14.2959V26.3389C13.5766 26.2985 13.6733 26.2494 13.7949 26.1826L23.6621 20.7598C24.0913 20.5239 24.2036 20.4554 24.2812 20.3721C24.3612 20.2861 24.4212 20.1843 24.458 20.0742C24.4934 19.9681 24.5 19.8399 24.5 19.3535V8.64648C24.5 8.47672 24.4956 8.35069 24.4931 8.2539ZM13.1689 1.51659C13.0575 1.49394 12.9424 1.49394 12.831 1.51659C12.7229 1.53858 12.6109 1.59431 12.205 1.81738L2.33785 7.24023C2.21563 7.30739 2.12026 7.36299 2.04293 7.40722L13 13.4287L23.956 7.40722C23.8788 7.36307 23.7839 7.30718 23.6621 7.24023L13.7949 1.81738C13.389 1.59431 13.277 1.53858 13.1689 1.51659ZM1.71871 7.62792C1.63867 7.71384 1.57875 7.81566 1.54195 7.92577C1.53089 7.95889 1.52359 7.99432 1.51753 8.04199L1.66695 7.77148L1.77144 7.57909C1.75114 7.59585 1.73409 7.61142 1.71871 7.62792ZM24.4814 8.04199C24.4753 7.99438 24.469 7.95887 24.458 7.92577C24.4212 7.81565 24.3612 7.71384 24.2812 7.62792C24.2657 7.61126 24.2481 7.59603 24.2275 7.57909L24.4814 8.04199ZM1.49996 19.3535C1.49996 19.8399 1.50652 19.9681 1.54195 20.0742C1.57874 20.1843 1.63867 20.2861 1.71871 20.3721C1.79636 20.4554 1.90864 20.5239 2.33785 20.7598L12.205 26.1826C12.3266 26.2494 12.4233 26.2985 12.5 26.3389V14.2959L1.50582 8.2539C1.50334 8.35068 1.49996 8.47674 1.49996 8.64648V19.3535ZM25.5 19.3535C25.5 19.7704 25.5062 20.0939 25.4072 20.3906C25.3249 20.6371 25.1899 20.8635 25.0127 21.0537C24.7996 21.2823 24.5124 21.433 24.1435 21.6357L14.2773 27.0586C13.9272 27.251 13.6605 27.4034 13.3681 27.4629C13.1252 27.5123 12.8747 27.5123 12.6318 27.4629C12.3395 27.4034 12.0735 27.2509 11.7236 27.0586L1.8564 21.6357C1.48751 21.433 1.20033 21.2823 0.987261 21.0537C0.810059 20.8635 0.675038 20.6371 0.59273 20.3906C0.49373 20.0939 0.499953 19.7703 0.499957 19.3535V8.64648C0.499953 8.22964 0.493729 7.90613 0.59273 7.60937C0.675037 7.36294 0.810058 7.1365 0.987261 6.94628C1.20033 6.71768 1.48751 6.56698 1.8564 6.36425L11.7236 0.941399C12.0735 0.749081 12.3395 0.596561 12.6318 0.537102C12.8747 0.487693 13.1252 0.487694 13.3681 0.537102C13.6605 0.59658 13.9272 0.748994 14.2773 0.941399L24.1435 6.36425C24.5124 6.56698 24.7996 6.71768 25.0127 6.94628C25.1899 7.1365 25.3249 7.36294 25.4072 7.60937C25.5062 7.90613 25.5 8.22963 25.5 8.64648V19.3535Z" fill="#535D6B"/>
<path d="M22.5 29C26.0899 29 29 26.0899 29 22.5C29 18.9101 26.0899 16 22.5 16C18.9101 16 16 18.9101 16 22.5C16 26.0899 18.9101 29 22.5 29Z" fill="white"/>
<path d="M28.5 22.5C28.5 19.1863 25.8137 16.5 22.5 16.5C19.1863 16.5 16.5 19.1863 16.5 22.5C16.5 25.8137 19.1863 28.5 22.5 28.5C25.8137 28.5 28.5 25.8137 28.5 22.5ZM22 25.0996V22.5C22 22.2239 22.2239 22 22.5 22C22.7761 22 23 22.2239 23 22.5V25.0996C23 25.3758 22.7761 25.5996 22.5 25.5996C22.2239 25.5996 22 25.3758 22 25.0996ZM22.5068 19.4004C22.7828 19.4006 23.0068 19.6244 23.0068 19.9004C23.0066 20.1762 22.7827 20.4002 22.5068 20.4004H22.5C22.224 20.4004 22.0002 20.1764 22 19.9004C22 19.6242 22.2239 19.4004 22.5 19.4004H22.5068ZM29.5 22.5C29.5 26.366 26.366 29.5 22.5 29.5C18.634 29.5 15.5 26.366 15.5 22.5C15.5 18.634 18.634 15.5 22.5 15.5C26.366 15.5 29.5 18.634 29.5 22.5Z" fill="#535D6B"/>
</g>
<defs>
<clipPath id="clip0_16_33">
<rect width="30" height="30" fill="white"/>
</clipPath>
</defs>
</svg>
