<svg width="30" height="30" viewBox="0 0 30 30" fill="none" xmlns="http://www.w3.org/2000/svg">
<path fill-rule="evenodd" clip-rule="evenodd" d="M13.1717 9.04066C13.1717 7.88352 14.0787 7.43846 15.5811 7.43846C17.2463 7.43846 19.2503 7.84619 21.0693 8.59313C21.7775 8.88392 22.611 8.38984 22.611 7.62428V3.03181C22.611 2.62795 22.3689 2.2612 21.9905 2.12C19.849 1.32082 17.7268 1 15.5811 1C9.82677 1 6 4.14506 6 9.3967C6 17.5857 16.7717 16.2802 16.7717 19.811C16.7717 21.1758 15.6378 21.6209 14.0504 21.6209C12.1805 21.6209 9.8988 20.9837 7.84564 20.037C7.14784 19.7152 6.31181 20.2047 6.31181 20.9731V25.6623C6.31181 26.0558 6.54183 26.4149 6.90571 26.5645C9.34669 27.5685 11.7955 28 14.0504 28C19.9465 28 24 24.944 24 19.633C23.9717 10.7912 13.1717 12.3637 13.1717 9.04066Z" fill="#3B646B"/>
<path d="M12.6719 9.04102C12.6719 8.30533 12.9753 7.7351 13.5508 7.37988C14.0836 7.05117 14.7982 6.93848 15.5811 6.93848C17.3185 6.93848 19.3865 7.3621 21.2588 8.13086C21.6812 8.3043 22.1113 7.98834 22.1113 7.62402V3.03223C22.1113 2.82619 21.9882 2.65336 21.8154 2.58887C19.7368 1.81318 17.6749 1.5 15.5811 1.5C12.7911 1.50001 10.5223 2.26267 8.95898 3.6084C7.40458 4.94655 6.50005 6.90116 6.5 9.39648C6.5 11.3194 7.12659 12.6513 8.04883 13.6416C8.98593 14.6478 10.2538 15.3298 11.5801 15.8906C12.2423 16.1706 12.9036 16.414 13.541 16.6562C14.1713 16.8958 14.782 17.1351 15.3115 17.3984C16.3361 17.9079 17.2713 18.612 17.2715 19.8105C17.2715 20.6632 16.9002 21.284 16.2588 21.6592C15.6617 22.0085 14.8736 22.1211 14.0508 22.1211C12.084 22.1211 9.7284 21.4556 7.63672 20.4912C7.23885 20.3078 6.81185 20.6033 6.81152 20.9727V25.6621C6.81152 25.8623 6.92787 26.0335 7.0957 26.1025C9.47455 27.0809 11.8592 27.5 14.0508 27.5C16.9176 27.4999 19.2822 26.7567 20.9199 25.4209C22.5453 24.095 23.4995 22.1502 23.5 19.6348L23.4912 19.249C23.4119 17.3592 22.7942 16.0321 21.9219 15.0469C20.9791 13.9822 19.7078 13.2811 18.3828 12.7285C17.7215 12.4527 17.0589 12.2187 16.4229 11.9922C15.7935 11.7681 15.182 11.5486 14.6533 11.3096C13.6441 10.8532 12.6721 10.2101 12.6719 9.04102ZM23.1113 7.62402C23.1113 8.79082 21.8729 9.46381 20.8789 9.05566C19.1133 8.33072 17.1739 7.93848 15.5811 7.93848C14.8618 7.93848 14.3715 8.04857 14.0752 8.23145C13.8218 8.38804 13.6719 8.61982 13.6719 9.04102C13.6721 9.53289 14.0494 9.93899 15.0654 10.3984C15.5496 10.6174 16.1207 10.8229 16.7578 11.0498C17.3882 11.2743 18.0772 11.5178 18.7676 11.8057C20.1461 12.3806 21.5807 13.1527 22.6709 14.3838C23.7731 15.6286 24.4926 17.3082 24.5 19.6318V19.6328C24.5 22.4273 23.4276 24.6657 21.5527 26.1953C19.6898 27.715 17.0795 28.4999 14.0508 28.5C11.7328 28.5 9.21881 28.0567 6.71582 27.0273C6.1559 26.7971 5.81152 26.2488 5.81152 25.6621V20.9727C5.81182 19.8057 7.05726 19.1233 8.05469 19.583C10.0692 20.5119 12.278 21.1211 14.0508 21.1211C14.815 21.1211 15.3874 21.0103 15.7539 20.7959C16.0762 20.6073 16.2715 20.3226 16.2715 19.8105C16.2713 19.2444 15.8605 18.7884 14.8662 18.2939C14.3859 18.0552 13.8176 17.831 13.1855 17.5908C12.5608 17.3534 11.8754 17.1007 11.1914 16.8115C9.82497 16.2338 8.39988 15.4855 7.31738 14.3232C6.21994 13.1448 5.5 11.5681 5.5 9.39648C5.50005 6.64046 6.50927 4.39682 8.30664 2.84961C10.0953 1.31009 12.6169 0.500009 15.5811 0.5C17.7785 0.5 19.9607 0.82882 22.165 1.65137C22.749 1.86927 23.1113 2.43055 23.1113 3.03223V7.62402Z" fill="#D0EFF7"/>
</svg>
