<svg width="30" height="30" viewBox="0 0 30 30" fill="none" xmlns="http://www.w3.org/2000/svg">
<path d="M22 1C24.2091 1 26 2.79086 26 5V18.8431C26 19.904 25.5786 20.9214 24.8284 21.6716L18.6716 27.8284C17.9214 28.5786 16.904 29 15.8431 29H6C4.89543 29 4 28.1046 4 27V5C4 2.79086 5.79086 1 8 1H22Z" fill="#3B646B"/>
<path d="M25.5 18.8428V5C25.5 3.067 23.933 1.5 22 1.5H8C6.067 1.5 4.5 3.067 4.5 5V27C4.5 27.8284 5.17157 28.5 6 28.5H15.8428C16.771 28.5 17.662 28.131 18.3184 27.4746L24.4746 21.3184C25.131 20.662 25.5 19.771 25.5 18.8428ZM26.5 18.8428C26.5 20.0362 26.0256 21.1815 25.1816 22.0254L19.0254 28.1816C18.1815 29.0256 17.0362 29.5 15.8428 29.5H6C4.61929 29.5 3.5 28.3807 3.5 27V5C3.5 2.51472 5.51472 0.5 8 0.5H22C24.4853 0.5 26.5 2.51472 26.5 5V18.8428Z" fill="#D0EFF7"/>
<path d="M25 21V22H18.5V28.5H17.5V21.5C17.5 21.2239 17.7239 21 18 21H25Z" fill="#D0EFF7"/>
<path d="M21.5 6.5C21.7761 6.5 22 6.72386 22 7C22 7.27614 21.7761 7.5 21.5 7.5H12.5C12.2239 7.5 12 7.27614 12 7C12 6.72386 12.2239 6.5 12.5 6.5H21.5Z" fill="#D0EFF7"/>
<path d="M21.5 11.5C21.7761 11.5 22 11.7239 22 12C22 12.2761 21.7761 12.5 21.5 12.5H12.5C12.2239 12.5 12 12.2761 12 12C12 11.7239 12.2239 11.5 12.5 11.5H21.5Z" fill="#D0EFF7"/>
<path d="M21.5 16.5C21.7761 16.5 22 16.7239 22 17C22 17.2761 21.7761 17.5 21.5 17.5H12.5C12.2239 17.5 12 17.2761 12 17C12 16.7239 12.2239 16.5 12.5 16.5H21.5Z" fill="#D0EFF7"/>
<path d="M10 7C10 7.55228 9.55228 8 9 8C8.44772 8 8 7.55228 8 7C8 6.44772 8.44772 6 9 6C9.55228 6 10 6.44772 10 7Z" fill="#D0EFF7"/>
<path d="M10 12C10 12.5523 9.55228 13 9 13C8.44772 13 8 12.5523 8 12C8 11.4477 8.44772 11 9 11C9.55228 11 10 11.4477 10 12Z" fill="#D0EFF7"/>
<path d="M10 17C10 17.5523 9.55228 18 9 18C8.44772 18 8 17.5523 8 17C8 16.4477 8.44772 16 9 16C9.55228 16 10 16.4477 10 17Z" fill="#D0EFF7"/>
</svg>
