<svg width="30" height="30" viewBox="0 0 30 30" fill="none" xmlns="http://www.w3.org/2000/svg">
<g clip-path="url(#clip0_8_3450)">
<path d="M1 2C1 1.44771 1.44772 1 2 1H28C28.5523 1 29 1.44772 29 2V28C29 28.5523 28.5523 29 28 29H2C1.44771 29 1 28.5523 1 28V2Z" fill="#3B646B"/>
<path d="M28.5 2C28.5 1.72386 28.2761 1.5 28 1.5H2C1.72386 1.5 1.5 1.72386 1.5 2V28C1.5 28.2761 1.72386 28.5 2 28.5H28C28.2761 28.5 28.5 28.2761 28.5 28V2ZM29.5 28C29.5 28.8284 28.8284 29.5 28 29.5H2C1.17157 29.5 0.5 28.8284 0.5 28V2C0.5 1.17157 1.17157 0.5 2 0.5H28C28.8284 0.5 29.5 1.17157 29.5 2V28Z" fill="#D0EFF7"/>
<path d="M20.4307 20.5C20.7068 20.5 20.9307 20.7239 20.9307 21C20.9307 21.2761 20.7068 21.5 20.4307 21.5H9.93066C9.65452 21.5 9.43066 21.2761 9.43066 21C9.43066 20.7239 9.65452 20.5 9.93066 20.5H20.4307Z" fill="#D0EFF7"/>
<path d="M17.9307 22.5C18.2068 22.5 18.4307 22.7239 18.4307 23C18.4307 23.2761 18.2068 23.5 17.9307 23.5H11.9307C11.6545 23.5 11.4307 23.2761 11.4307 23C11.4307 22.7239 11.6545 22.5 11.9307 22.5H17.9307Z" fill="#D0EFF7"/>
<path d="M14.9307 6C16.5875 6 17.9307 7.34315 17.9307 9C17.9307 9.93063 17.5069 10.7622 16.8418 11.3125C18.9393 12.017 20.5183 13.848 20.8604 16.0869C19.3288 17.5791 17.2379 18.5 14.9307 18.5C12.6232 18.5 10.5316 17.5794 9 16.0869C9.34197 13.8482 10.9215 12.0172 13.0186 11.3125C12.3538 10.7622 11.9307 9.93036 11.9307 9C11.9307 7.34315 13.2738 6 14.9307 6Z" fill="#D0EFF7"/>
<path d="M16.9307 9C16.9307 7.89543 16.0352 7 14.9307 7C13.8261 7 12.9307 7.89543 12.9307 9C12.9307 9.62027 13.2115 10.1738 13.6562 10.542C13.9358 10.7734 14.0682 11.1383 14.002 11.4951C13.9357 11.8519 13.6809 12.1451 13.3369 12.2607C11.7511 12.7938 10.5227 14.1008 10.0957 15.7295C11.4023 16.8338 13.0873 17.5 14.9307 17.5V18.5C12.6232 18.5 10.5316 17.5794 9 16.0869C9.34197 13.8482 10.9215 12.0172 13.0186 11.3125C12.3538 10.7622 11.9307 9.93036 11.9307 9C11.9307 7.34315 13.2738 6 14.9307 6C16.5875 6 17.9307 7.34315 17.9307 9C17.9307 9.93063 17.5069 10.7622 16.8418 11.3125C18.9393 12.017 20.5183 13.848 20.8604 16.0869C19.3288 17.5791 17.2379 18.5 14.9307 18.5V17.5C16.7731 17.5 18.4563 16.8331 19.7627 15.7295C19.3356 14.1007 18.1093 12.7935 16.5234 12.2607C16.1794 12.1452 15.9247 11.852 15.8584 11.4951C15.7921 11.1383 15.9245 10.7734 16.2041 10.542C16.6494 10.1735 16.9307 9.62002 16.9307 9Z" fill="#D0EFF7"/>
</g>
<defs>
<clipPath id="clip0_8_3450">
<rect width="30" height="30" fill="white"/>
</clipPath>
</defs>
</svg>
