<svg width="30" height="30" viewBox="0 0 30 30" fill="none" xmlns="http://www.w3.org/2000/svg">
<rect width="30" height="30" fill="white"/>
<path d="M24 2C24.8284 2 25.5 2.67157 25.5 3.5V17.5C25.5 18.3284 24.8284 19 24 19H17.5L15 21.5L12.5 19H6C5.17157 19 4.5 18.3284 4.5 17.5V3.5C4.5 2.67157 5.17157 2 6 2H24Z" fill="#D0EFF7"/>
<path d="M25 3.5C25 2.94772 24.5523 2.5 24 2.5H6C5.44772 2.5 5 2.94772 5 3.5V17.5C5 18.0523 5.44772 18.5 6 18.5H12.5C12.6326 18.5 12.7597 18.5527 12.8535 18.6465L15 20.793L17.1465 18.6465L17.2227 18.584C17.3042 18.5296 17.4006 18.5 17.5 18.5H24C24.5523 18.5 25 18.0523 25 17.5V3.5ZM26 17.5C26 18.6046 25.1046 19.5 24 19.5H17.707L15.3535 21.8535C15.1583 22.0488 14.8417 22.0488 14.6465 21.8535L12.293 19.5H6C4.89543 19.5 4 18.6046 4 17.5V3.5C4 2.39543 4.89543 1.5 6 1.5H24C25.1046 1.5 26 2.39543 26 3.5V17.5Z" fill="#535D6B"/>
<path d="M3.5 17.5V3.5C3.5 2.67157 2.82843 2 2 2H0V3H2C2.27614 3 2.5 3.22386 2.5 3.5V17.5C2.5 17.7761 2.27614 18 2 18H0V19H2C2.82843 19 3.5 18.3284 3.5 17.5Z" fill="#535D6B"/>
<path d="M26.5 17.5V3.5C26.5 2.67157 27.1716 2 28 2H30V3H28C27.7239 3 27.5 3.22386 27.5 3.5V17.5C27.5 17.7761 27.7239 18 28 18H30V19H28C27.1716 19 26.5 18.3284 26.5 17.5Z" fill="#535D6B"/>
<path d="M18 26C18 27.6569 16.6569 29 15 29C13.3431 29 12 27.6569 12 26C12 24.3431 13.3431 23 15 23C16.6569 23 18 24.3431 18 26Z" fill="#D0EFF7"/>
<path d="M17.5 26C17.5 24.6193 16.3807 23.5 15 23.5C13.6193 23.5 12.5 24.6193 12.5 26C12.5 27.3807 13.6193 28.5 15 28.5C16.3807 28.5 17.5 27.3807 17.5 26ZM18.5 26C18.5 27.933 16.933 29.5 15 29.5C13.067 29.5 11.5 27.933 11.5 26C11.5 24.067 13.067 22.5 15 22.5C16.933 22.5 18.5 24.067 18.5 26Z" fill="#535D6B"/>
</svg>
