<svg width="30" height="30" viewBox="0 0 30 30" fill="none" xmlns="http://www.w3.org/2000/svg">
<rect width="30" height="30" fill="white"/>
<path d="M28 23.5C28.2761 23.5 28.5 23.7239 28.5 24C28.5 24.2761 28.2761 24.5 28 24.5L8 24.5C7.72386 24.5 7.5 24.2761 7.5 24C7.5 23.7239 7.72386 23.5 8 23.5L28 23.5Z" fill="#535D6B"/>
<path d="M5 23.5C5.27614 23.5 5.5 23.7239 5.5 24C5.5 24.2761 5.27614 24.5 5 24.5L2 24.5C1.72386 24.5 1.5 24.2761 1.5 24C1.5 23.7239 1.72386 23.5 2 23.5L5 23.5Z" fill="#535D6B"/>
<path d="M23.5997 20.7002C23.7653 20.4794 24.079 20.4342 24.2999 20.5996L28.2999 23.5996C28.4258 23.694 28.5001 23.8426 28.5001 24C28.5001 24.1574 28.4258 24.306 28.2999 24.4004L24.2999 27.4004C24.079 27.5658 23.7653 27.5206 23.5997 27.2998C23.4343 27.0789 23.4794 26.7652 23.7003 26.5996L27.1661 24L23.7003 21.4004C23.4794 21.2348 23.4343 20.9211 23.5997 20.7002Z" fill="#535D6B"/>
<path d="M10.6581 17C9.75914 17 9.02366 16.8214 8.45161 16.4643C7.87957 16.1071 7.40968 15.6508 7.04194 15.0952C6.63333 14.4206 6.34731 13.7262 6.18387 13.0119C6.06129 12.2579 6 11.6429 6 11.1667C6 9.22223 6.51075 7.45635 7.53226 5.86905C8.47232 4.4083 9.89685 3.19961 11.8058 2.24297C12.087 2.10207 12.4262 2.22009 12.5702 2.49969C12.7283 2.80691 12.5879 3.18201 12.279 3.33692C11.2549 3.85055 10.3468 4.57555 9.55484 5.51191C8.65591 6.62302 8.20645 7.75397 8.20645 8.90477C8.20645 9.52483 8.91183 9.74687 9.50191 9.55637C9.86414 9.43943 10.2495 9.38095 10.6581 9.38095C11.7204 9.38095 12.6398 9.71826 13.4161 10.3929C14.1925 11.0675 14.5806 12 14.5806 13.1905C14.5806 14.3016 14.1925 15.2143 13.4161 15.9286C12.6398 16.6429 11.7204 17 10.6581 17ZM21.0774 17C20.1785 17 19.443 16.8214 18.871 16.4643C18.2989 16.1071 17.829 15.6508 17.4613 15.0952C17.0527 14.4206 16.7667 13.7262 16.6032 13.0119C16.4806 12.2579 16.4194 11.6429 16.4194 11.1667C16.4194 9.22223 16.9301 7.45635 17.9516 5.86905C18.8917 4.4083 20.3162 3.19961 22.2252 2.24297C22.5063 2.10207 22.8456 2.22009 22.9895 2.49969C23.1477 2.80691 23.0072 3.18201 22.6983 3.33692C21.6742 3.85055 20.7662 4.57555 19.9742 5.51191C19.0753 6.62302 18.6258 7.75397 18.6258 8.90477C18.6258 9.52483 19.3312 9.74687 19.9213 9.55637C20.2835 9.43943 20.6689 9.38095 21.0774 9.38095C22.1398 9.38095 23.0591 9.71826 23.8355 10.3929C24.6118 11.0675 25 12 25 13.1905C25 14.3016 24.6118 15.2143 23.8355 15.9286C23.0591 16.6429 22.1398 17 21.0774 17Z" fill="#D0EFF7"/>
<path d="M5 11.167C5 9.0368 5.56285 7.08184 6.69141 5.32813C7.74839 3.6857 9.32487 2.36723 11.3574 1.34864L11.5078 1.28321C12.2125 1.01614 12.9876 1.29901 13.3809 1.90723L13.459 2.042L13.5312 2.20215C13.8425 3.00643 13.44 3.87297 12.7275 4.23047C11.835 4.6781 11.0337 5.31335 10.3242 6.15039C9.63176 7.00922 9.29145 7.82069 9.2207 8.59571C9.68125 8.45015 10.1624 8.38086 10.6582 8.38086C11.9528 8.38089 13.1076 8.79944 14.0723 9.6377C14.8179 10.2856 15.2724 11.1082 15.4678 12.0547C15.4363 11.7313 15.419 11.4348 15.4189 11.167C15.4189 9.03687 15.9819 7.08179 17.1104 5.32813C18.1674 3.68565 19.7447 2.36724 21.7773 1.34864L21.9268 1.28321C22.6316 1.01587 23.4075 1.29873 23.8008 1.90723L23.8789 2.042L23.9502 2.20215C24.2616 3.00659 23.8591 3.87305 23.1465 4.23047C22.2575 4.67635 21.4594 5.30843 20.752 6.14063L20.6084 6.32325C20.0061 7.11868 19.7054 7.87356 19.6396 8.59668C20.1003 8.45101 20.5812 8.38089 21.0771 8.38086C22.3717 8.38086 23.5265 8.79954 24.4912 9.6377C25.5216 10.533 26 11.7609 26 13.1904C26 14.5643 25.5067 15.7494 24.5127 16.6641C23.5503 17.5495 22.3884 18 21.0771 18C20.0519 18 19.1172 17.7965 18.3418 17.3125C17.6498 16.8805 17.0747 16.3239 16.627 15.6475C16.6196 15.6363 16.6124 15.6247 16.6055 15.6133C16.1459 14.8545 15.8179 14.0611 15.6289 13.2354C15.6242 13.2148 15.6196 13.1937 15.6162 13.1729C15.5997 13.0714 15.5858 12.9709 15.5713 12.873C15.5767 12.9777 15.5811 13.0835 15.5811 13.1904C15.5811 14.5644 15.087 15.7494 14.0928 16.6641C13.1304 17.5495 11.9694 18 10.6582 18C9.63274 18 8.6974 17.7967 7.92188 17.3125C7.23 16.8805 6.65574 16.3238 6.20801 15.6475C6.20062 15.6363 6.19345 15.6247 6.18652 15.6133C5.72691 14.8544 5.398 14.0612 5.20898 13.2354C5.20428 13.2148 5.20066 13.1937 5.19727 13.1729C5.07057 12.3936 5.00003 11.719 5 11.167ZM6.01172 11.5498C6.0347 11.959 6.09168 12.4463 6.18359 13.0117C6.34703 13.726 6.63339 14.4211 7.04199 15.0957C7.40959 15.6509 7.87948 16.1068 8.45117 16.4639C8.95181 16.7764 9.5781 16.9522 10.3291 16.9912L10.6582 17C11.654 17 12.5241 16.6862 13.2686 16.0586L13.416 15.9287C14.1438 15.2591 14.5307 14.4149 14.5762 13.3965L14.5811 13.1904C14.581 12 14.1923 11.0672 13.416 10.3926C12.6882 9.76023 11.8346 9.42427 10.8555 9.38477L10.6582 9.38086C10.2497 9.38086 9.86418 9.4397 9.50195 9.55664L9.38965 9.58692C8.82604 9.71703 8.20605 9.48549 8.20605 8.9043C8.20618 7.75366 8.65588 6.62268 9.55469 5.51172C10.2477 4.69237 11.0296 4.03473 11.9004 3.53907L12.2793 3.33692C12.5879 3.18198 12.7282 2.80708 12.5703 2.5C12.4264 2.2204 12.0868 2.10227 11.8057 2.24317C9.89678 3.19979 8.47225 4.40845 7.53223 5.86914L7.34668 6.16895C6.44893 7.67793 6 9.34414 6 11.167L6.01172 11.5498ZM16.4307 11.5498C16.4536 11.959 16.5116 12.4463 16.6035 13.0117C16.767 13.726 17.0523 14.4211 17.4609 15.0957C17.8286 15.6512 18.2992 16.1068 18.8711 16.4639C19.3716 16.7764 19.9972 16.9522 20.748 16.9912L21.0771 17C22.0731 17 22.9439 16.6864 23.6885 16.0586L23.8359 15.9287C24.5636 15.2591 24.9496 14.4148 24.9951 13.3965L25 13.1904C25 12.0744 24.6588 11.1851 23.9766 10.5225L23.8359 10.3926C23.0596 9.71798 22.1395 9.38086 21.0771 9.38086C20.6687 9.38089 20.283 9.43973 19.9209 9.55664L19.8096 9.58692C19.2835 9.70859 18.7083 9.51546 18.6338 9.0166L18.626 8.9043C18.6261 7.75366 19.0758 6.62268 19.9746 5.51172C20.7665 4.57554 21.6743 3.85049 22.6982 3.33692C23.0071 3.18203 23.1473 2.8072 22.9893 2.5C22.8453 2.22048 22.5067 2.10246 22.2256 2.24317C20.3166 3.19981 18.8912 4.40839 17.9512 5.86914L17.7656 6.16895C16.8679 7.67788 16.4189 9.34421 16.4189 11.167L16.4307 11.5498Z" fill="#535D6B"/>
</svg>
