<svg width="30" height="30" viewBox="0 0 30 30" fill="none" xmlns="http://www.w3.org/2000/svg">
<path d="M28 23.5C28.2761 23.5 28.5 23.7239 28.5 24C28.5 24.2761 28.2761 24.5 28 24.5L8 24.5C7.72386 24.5 7.5 24.2761 7.5 24C7.5 23.7239 7.72386 23.5 8 23.5L28 23.5Z" fill="#D0EFF7"/>
<path d="M5 23.5C5.27614 23.5 5.5 23.7239 5.5 24C5.5 24.2761 5.27614 24.5 5 24.5L2 24.5C1.72386 24.5 1.5 24.2761 1.5 24C1.5 23.7239 1.72386 23.5 2 23.5L5 23.5Z" fill="#D0EFF7"/>
<path d="M23.5997 20.7002C23.7653 20.4794 24.079 20.4342 24.2999 20.5996L28.2999 23.5996C28.4258 23.694 28.5001 23.8426 28.5001 24C28.5001 24.1574 28.4258 24.306 28.2999 24.4004L24.2999 27.4004C24.079 27.5658 23.7653 27.5206 23.5997 27.2998C23.4343 27.0789 23.4794 26.7652 23.7003 26.5996L27.1661 24L23.7003 21.4004C23.4794 21.2348 23.4343 20.9211 23.5997 20.7002Z" fill="#D0EFF7"/>
<path d="M10.6581 17C9.75914 17 9.02366 16.8214 8.45161 16.4643C7.87957 16.1071 7.40968 15.6508 7.04194 15.0952C6.63333 14.4206 6.34731 13.7262 6.18387 13.0119C6.06129 12.2579 6 11.6429 6 11.1667C6 9.22222 6.51075 7.45635 7.53226 5.86905C8.47232 4.4083 9.89685 3.19961 11.8058 2.24296C12.087 2.10207 12.4262 2.22009 12.5702 2.49969C12.7283 2.80691 12.5879 3.18201 12.279 3.33692C11.2549 3.85055 10.3468 4.57555 9.55484 5.51191C8.65591 6.62302 8.20645 7.75397 8.20645 8.90476C8.20645 9.52483 8.91183 9.74687 9.50191 9.55637C9.86414 9.43942 10.2495 9.38095 10.6581 9.38095C11.7204 9.38095 12.6398 9.71825 13.4161 10.3929C14.1925 11.0675 14.5806 12 14.5806 13.1905C14.5806 14.3016 14.1925 15.2143 13.4161 15.9286C12.6398 16.6429 11.7204 17 10.6581 17ZM21.0774 17C20.1785 17 19.443 16.8214 18.871 16.4643C18.2989 16.1071 17.829 15.6508 17.4613 15.0952C17.0527 14.4206 16.7667 13.7262 16.6032 13.0119C16.4806 12.2579 16.4194 11.6429 16.4194 11.1667C16.4194 9.22222 16.9301 7.45635 17.9516 5.86905C18.8917 4.4083 20.3162 3.19961 22.2252 2.24296C22.5063 2.10207 22.8456 2.22009 22.9895 2.49969C23.1477 2.80691 23.0072 3.18201 22.6983 3.33692C21.6742 3.85055 20.7662 4.57555 19.9742 5.51191C19.0753 6.62302 18.6258 7.75397 18.6258 8.90476C18.6258 9.52483 19.3312 9.74687 19.9213 9.55637C20.2835 9.43942 20.6689 9.38095 21.0774 9.38095C22.1398 9.38095 23.0591 9.71825 23.8355 10.3929C24.6118 11.0675 25 12 25 13.1905C25 14.3016 24.6118 15.2143 23.8355 15.9286C23.0591 16.6429 22.1398 17 21.0774 17Z" fill="#3B646B"/>
<path d="M7.70605 8.9043C7.70618 7.61366 8.21309 6.37512 9.16602 5.19727L9.17285 5.18848C10.0053 4.20432 10.9661 3.43561 12.0547 2.88965C12.0912 2.87132 12.1172 2.84061 12.1289 2.80762C12.1399 2.77651 12.1371 2.75021 12.126 2.72852C12.1023 2.6826 12.0565 2.6774 12.0303 2.69043C10.1832 3.61605 8.83471 4.76984 7.95312 6.13965C6.98518 7.64372 6.5 9.31545 6.5 11.167C6.50003 11.6031 6.5565 12.1849 6.67578 12.9209C6.82657 13.5694 7.08837 14.2048 7.46484 14.8281C7.79168 15.3192 8.2078 15.7223 8.7168 16.04C9.18707 16.3336 9.82268 16.5 10.6582 16.5C11.596 16.5 12.3939 16.1891 13.0771 15.5605C13.7446 14.9465 14.0811 14.1701 14.0811 13.1904C14.081 12.1195 13.7372 11.3347 13.0879 10.7705C12.4058 10.1778 11.6043 9.88089 10.6582 9.88086C10.298 9.88086 9.96436 9.93244 9.65527 10.0322C9.26156 10.1593 8.81011 10.158 8.43262 9.99316C8.03256 9.81848 7.70605 9.44603 7.70605 8.9043ZM18.126 8.9043C18.1261 7.61366 18.633 6.37512 19.5859 5.19727L19.5928 5.18848C20.4252 4.20446 21.3861 3.43556 22.4746 2.88965C22.5109 2.8713 22.5362 2.84047 22.5479 2.80762C22.559 2.7764 22.5561 2.75026 22.5449 2.72852C22.5212 2.68256 22.4754 2.6773 22.4492 2.69043C20.6021 3.61608 19.2536 4.7698 18.3721 6.13965C17.4041 7.64372 16.9189 9.31546 16.9189 11.167C16.919 11.6013 16.9754 12.1803 17.0938 12.9121C17.2442 13.5636 17.5057 14.2021 17.8838 14.8281C18.2106 15.3193 18.6267 15.7222 19.1357 16.04C19.606 16.3336 20.2416 16.5 21.0771 16.5C22.0151 16.5 22.8137 16.1893 23.4971 15.5605C24.1644 14.9465 24.5 14.17 24.5 13.1904C24.5 12.1197 24.157 11.3347 23.5078 10.7705C22.8257 10.1778 22.0233 9.88086 21.0771 9.88086C20.7171 9.88089 20.3841 9.93252 20.0752 10.0322C19.6816 10.1593 19.23 10.1578 18.8525 9.99316C18.4525 9.81848 18.126 9.44604 18.126 8.9043ZM8.70605 8.9043C8.70605 8.95946 8.72071 8.98757 8.73242 9.00391C8.74675 9.02371 8.77607 9.05131 8.83301 9.07617C8.95565 9.12972 9.15232 9.14346 9.34863 9.08008C9.76387 8.94607 10.2015 8.88086 10.6582 8.88086C11.8367 8.88089 12.8736 9.2592 13.7441 10.0156C14.6474 10.8006 15.081 11.8805 15.0811 13.1904C15.0811 14.433 14.6401 15.4824 13.7549 16.2969C12.8856 17.0967 11.8449 17.5 10.6582 17.5C9.69601 17.5 8.86031 17.3093 8.18652 16.8887C7.55455 16.4941 7.03274 15.9871 6.625 15.3711C6.62136 15.3656 6.61767 15.3601 6.61426 15.3545C6.18011 14.6377 5.87251 13.8932 5.69629 13.123C5.69396 13.1128 5.69211 13.1022 5.69043 13.0918C5.56584 12.3254 5.50003 11.681 5.5 11.167C5.5 9.12978 6.03641 7.26907 7.11133 5.59863C8.10987 4.04702 9.61122 2.78352 11.582 1.7959C12.118 1.52744 12.7504 1.75756 13.0146 2.27051C13.3116 2.84737 13.0375 3.51609 12.5029 3.78418C11.5435 4.26544 10.6879 4.94659 9.93652 5.83496C9.09665 6.87603 8.70617 7.89644 8.70605 8.9043ZM19.126 8.9043C19.126 8.95946 19.1397 8.98757 19.1514 9.00391C19.1656 9.02368 19.1951 9.05126 19.252 9.07617C19.3746 9.12972 19.5713 9.14346 19.7676 9.08008C20.1828 8.94602 20.6204 8.88088 21.0771 8.88086C22.2556 8.88086 23.2926 9.25923 24.1631 10.0156C25.0664 10.8006 25.5 11.8804 25.5 13.1904C25.5 14.433 25.0591 15.4824 24.1738 16.2969C23.3045 17.0966 22.2638 17.5 21.0771 17.5C20.1152 17.5 19.2801 17.3092 18.6064 16.8887C17.9744 16.4941 17.4517 15.9871 17.0439 15.3711C17.0403 15.3656 17.0366 15.3601 17.0332 15.3545C16.5991 14.6377 16.2924 13.8932 16.1162 13.123C16.1139 13.1128 16.1111 13.1022 16.1094 13.0918C15.9848 12.3254 15.919 11.681 15.9189 11.167C15.9189 9.12967 16.4562 7.26914 17.5312 5.59863C18.5298 4.04706 20.0302 2.78351 22.001 1.7959C22.5369 1.52732 23.1692 1.75762 23.4336 2.27051C23.7306 2.84732 23.4573 3.51603 22.9229 3.78418C21.9664 4.26387 21.112 4.94099 20.3623 5.82519L20.3633 5.82617C19.5186 6.87023 19.1261 7.89366 19.126 8.9043Z" fill="#D0EFF7"/>
</svg>
