<svg width="30" height="30" viewBox="0 0 30 30" fill="none" xmlns="http://www.w3.org/2000/svg">
<path d="M28 23.5C28.2761 23.5 28.5 23.7239 28.5 24C28.5 24.2761 28.2761 24.5 28 24.5L8 24.5C7.72386 24.5 7.5 24.2761 7.5 24C7.5 23.7239 7.72386 23.5 8 23.5L28 23.5Z" fill="#D0EFF7"/>
<path d="M5 23.5C5.27614 23.5 5.5 23.7239 5.5 24C5.5 24.2761 5.27614 24.5 5 24.5L2 24.5C1.72386 24.5 1.5 24.2761 1.5 24C1.5 23.7239 1.72386 23.5 2 23.5L5 23.5Z" fill="#D0EFF7"/>
<path d="M23.5997 20.7002C23.7653 20.4794 24.079 20.4342 24.2999 20.5996L28.2999 23.5996C28.4258 23.694 28.5001 23.8426 28.5001 24C28.5001 24.1574 28.4258 24.306 28.2999 24.4004L24.2999 27.4004C24.079 27.5658 23.7653 27.5206 23.5997 27.2998C23.4343 27.0789 23.4794 26.7652 23.7003 26.5996L27.1661 24L23.7003 21.4004C23.4794 21.2348 23.4343 20.9211 23.5997 20.7002Z" fill="#D0EFF7"/>
<path d="M22.8244 2C23.3574 2 23.7967 2.41799 23.8232 2.9503L23.9846 6.19268C23.993 6.36132 23.8585 6.50266 23.6896 6.50266C23.5422 6.50266 23.4177 6.39362 23.3945 6.24799C23.2893 5.58728 23.1525 5.10579 22.9842 4.80354C22.6754 4.25605 22.2621 3.85487 21.7443 3.6C21.2364 3.33569 20.5641 3.20354 19.7276 3.20354H17.8743C17.322 3.20354 16.8743 3.65126 16.8743 4.20354V14.6726C16.8743 15.8525 17.0088 16.5888 17.2777 16.8814C17.6561 17.2779 18.2387 17.4761 19.0255 17.4761H19.4656C19.6103 17.4761 19.7276 17.5934 19.7276 17.7381C19.7276 17.8827 19.6103 18 19.4656 18H11.3999C11.2552 18 11.138 17.8827 11.138 17.7381C11.138 17.5934 11.2552 17.4761 11.3999 17.4761H11.855C12.7115 17.4761 13.319 17.2307 13.6775 16.7398C13.8966 16.4378 14.0061 15.7487 14.0061 14.6726V4.20354C14.0061 3.65125 13.5584 3.20354 13.0061 3.20354H11.5712C10.6251 3.20354 9.95283 3.26962 9.55447 3.40177C9.0366 3.58112 8.59343 3.92566 8.22495 4.4354C7.89458 4.89241 7.68429 5.49359 7.59408 6.23894C7.5761 6.3875 7.45234 6.50266 7.3027 6.50266C7.13818 6.50266 7.00732 6.36466 7.01604 6.20037L7.18874 2.94699C7.21692 2.41605 7.65565 2 8.18733 2H22.8244Z" fill="#3B646B"/>
<path d="M16.3741 4.20312C16.3743 3.37499 17.0459 2.7033 17.8741 2.70312H19.7276C20.6101 2.70312 21.3712 2.8417 21.9756 3.15625H21.9746C22.5759 3.45455 23.0503 3.91838 23.4004 4.52637L23.3242 2.97559C23.311 2.70943 23.0907 2.5 22.8242 2.5H8.18753C7.92169 2.5 7.7026 2.70816 7.68851 2.97363L7.60745 4.48047C7.6724 4.36268 7.74211 4.24947 7.81937 4.14258C8.23876 3.56242 8.76203 3.14748 9.39066 2.92969L9.39749 2.92676C9.87881 2.76721 10.6221 2.70312 11.5713 2.70312H13.0059C13.8342 2.70312 14.5057 3.37489 14.5059 4.20312V14.6729C14.5059 15.2246 14.4785 15.6948 14.418 16.0752C14.3598 16.441 14.2625 16.7845 14.0821 17.0332L14.0811 17.0352C13.9462 17.2198 13.7869 17.3731 13.6084 17.5H17.2354C17.1209 17.42 17.0141 17.3292 16.916 17.2266L16.9092 17.2197C16.6759 16.9658 16.5549 16.5907 16.4834 16.1992C16.4087 15.7897 16.3741 15.2776 16.3741 14.6729V4.20312ZM17.3741 14.6729C17.3741 15.2474 17.4072 15.693 17.4668 16.0195C17.5278 16.3535 17.6056 16.4954 17.6426 16.5391C17.8923 16.7985 18.3179 16.9765 19.0254 16.9766H19.4659C19.8866 16.9767 20.2276 17.3175 20.2276 17.7383C20.2274 18.1589 19.8865 18.4999 19.4659 18.5H11.4004C11.0061 18.5 10.6808 18.2004 10.6416 17.8164L10.6377 17.7383L10.6416 17.6602C10.6806 17.2759 11.0059 16.9766 11.4004 16.9766H11.8555C12.6214 16.9765 13.0437 16.7595 13.2735 16.4453C13.3122 16.3912 13.3796 16.2393 13.4307 15.918C13.4797 15.6094 13.5059 15.1969 13.5059 14.6729V4.20312C13.5057 3.92717 13.2819 3.70312 13.0059 3.70312H11.5713C10.6317 3.70312 10.0311 3.77093 9.71487 3.875C9.30918 4.01627 8.94659 4.29044 8.62991 4.72852C8.36304 5.09781 8.17413 5.61098 8.09085 6.29883C8.04406 6.68545 7.71818 7.00292 7.30276 7.00293C6.85169 7.00293 6.49272 6.62427 6.51663 6.17383L6.68948 2.9209C6.73176 2.12449 7.39 1.5 8.18753 1.5H22.8242C23.6237 1.5 24.2826 2.12732 24.3223 2.92578L24.4844 6.16797C24.5069 6.62209 24.1442 7.00293 23.6895 7.00293C23.2895 7.00284 22.9612 6.70762 22.9004 6.32617C22.7974 5.67998 22.6712 5.27001 22.5469 5.04688V5.0459C22.2833 4.57972 21.9419 4.25476 21.5235 4.04883L21.5137 4.04395C21.1023 3.82988 20.5181 3.70312 19.7276 3.70312H17.8741C17.5982 3.7033 17.3743 3.92728 17.3741 4.20312V14.6729Z" fill="#D0EFF7"/>
</svg>
