<svg width="30" height="30" viewBox="0 0 30 30" fill="none" xmlns="http://www.w3.org/2000/svg">
<rect width="30" height="30" fill="white"/>
<path d="M28 23.5C28.2761 23.5 28.5 23.7239 28.5 24C28.5 24.2761 28.2761 24.5 28 24.5L8 24.5C7.72386 24.5 7.5 24.2761 7.5 24C7.5 23.7239 7.72386 23.5 8 23.5L28 23.5Z" fill="#535D6B"/>
<path d="M5 23.5C5.27614 23.5 5.5 23.7239 5.5 24C5.5 24.2761 5.27614 24.5 5 24.5L2 24.5C1.72386 24.5 1.5 24.2761 1.5 24C1.5 23.7239 1.72386 23.5 2 23.5L5 23.5Z" fill="#535D6B"/>
<path d="M23.5997 20.7002C23.7653 20.4794 24.079 20.4342 24.2999 20.5996L28.2999 23.5996C28.4258 23.694 28.5001 23.8426 28.5001 24C28.5001 24.1574 28.4258 24.306 28.2999 24.4004L24.2999 27.4004C24.079 27.5658 23.7653 27.5206 23.5997 27.2998C23.4343 27.0789 23.4794 26.7652 23.7003 26.5996L27.1661 24L23.7003 21.4004C23.4794 21.2348 23.4343 20.9211 23.5997 20.7002Z" fill="#535D6B"/>
<path d="M22.8244 2C23.3574 2 23.7967 2.41799 23.8232 2.9503L23.9846 6.19268C23.993 6.36132 23.8585 6.50266 23.6896 6.50266C23.5422 6.50266 23.4177 6.39362 23.3945 6.24799C23.2893 5.58728 23.1525 5.10579 22.9842 4.80354C22.6754 4.25605 22.2621 3.85487 21.7443 3.6C21.2364 3.33569 20.5641 3.20354 19.7276 3.20354H17.8743C17.322 3.20354 16.8743 3.65126 16.8743 4.20354V14.6726C16.8743 15.8525 17.0088 16.5888 17.2777 16.8814C17.6561 17.2779 18.2387 17.4761 19.0255 17.4761H19.4656C19.6103 17.4761 19.7276 17.5934 19.7276 17.7381C19.7276 17.8827 19.6103 18 19.4656 18H11.3999C11.2552 18 11.138 17.8827 11.138 17.7381C11.138 17.5934 11.2552 17.4761 11.3999 17.4761H11.855C12.7115 17.4761 13.319 17.2307 13.6775 16.7398C13.8966 16.4378 14.0061 15.7487 14.0061 14.6726V4.20354C14.0061 3.65125 13.5584 3.20354 13.0061 3.20354H11.5712C10.6251 3.20354 9.95283 3.26962 9.55447 3.40177C9.0366 3.58112 8.59343 3.92566 8.22495 4.4354C7.89458 4.89241 7.68429 5.49359 7.59408 6.23894C7.5761 6.3875 7.45234 6.50266 7.3027 6.50266C7.13818 6.50266 7.00732 6.36466 7.01604 6.20037L7.18874 2.94699C7.21692 2.41605 7.65565 2 8.18733 2H22.8244Z" fill="#D0EFF7"/>
<path d="M13.0059 14.6729V4.20312H11.5713C10.6437 4.20312 10.1148 4.27166 9.87794 4.34766C9.5832 4.4506 9.30058 4.65433 9.03517 5.02148C8.83162 5.30318 8.66326 5.72868 8.58693 6.35938C8.5112 6.98395 7.98386 7.50292 7.30275 7.50293C6.56514 7.50293 5.97854 6.88402 6.01759 6.14746L6.19044 2.89355C6.24703 1.83189 7.12429 1 8.18751 1V2L8.08888 2.00488C7.60246 2.05252 7.21491 2.4495 7.18849 2.94727L7.01661 6.16895L7.01564 6.2002C7.008 6.34405 7.10788 6.46755 7.24318 6.49609L7.30275 6.50293C7.4337 6.50292 7.54527 6.41457 7.58302 6.29297L7.59376 6.23926C7.6727 5.58704 7.84362 5.04472 8.10646 4.61328L8.22462 4.43555C8.5931 3.92581 9.03683 3.58072 9.5547 3.40137C9.85349 3.3023 10.3064 3.24059 10.9131 3.21582L11.5713 3.20312H13.0059C13.558 3.20312 14.0056 3.65103 14.0059 4.20312V14.6729L14.001 15.0576C13.977 15.9147 13.8695 16.4759 13.6777 16.7402C13.364 17.1697 12.8592 17.4112 12.1641 17.4648L11.8555 17.4766H11.4004L11.3467 17.4814C11.2275 17.506 11.1377 17.6118 11.1377 17.7383C11.1378 17.8646 11.2276 17.9706 11.3467 17.9951L11.4004 18H19.4658L19.5186 17.9951C19.6208 17.9742 19.7017 17.8933 19.7227 17.791L19.7276 17.7383C19.7276 17.6117 19.6379 17.5059 19.5186 17.4814L19.4658 17.4766V16.4766C20.1627 16.4767 20.7276 17.0414 20.7276 17.7383C20.7274 18.4351 20.1626 18.9999 19.4658 19H11.4004C10.747 19 10.2092 18.5035 10.1445 17.8672L10.1377 17.7383L10.1445 17.6094C10.209 16.9729 10.7469 16.4766 11.4004 16.4766H11.8555C12.5093 16.4765 12.7518 16.2995 12.8584 16.1631C12.8643 16.1465 12.902 16.057 12.9365 15.8398C12.9799 15.5672 13.0059 15.1831 13.0059 14.6729ZM16.874 14.6729V4.20312C16.8743 3.65114 17.322 3.2033 17.874 3.20312H19.7276C20.564 3.20312 21.2363 3.3354 21.7442 3.59961C22.262 3.85448 22.6757 4.25622 22.9844 4.80371C23.1526 5.10598 23.2893 5.58749 23.3945 6.24805C23.4149 6.37553 23.5127 6.47527 23.6358 6.49805L23.6895 6.50293C23.8583 6.50293 23.9928 6.36103 23.9844 6.19238L23.9824 6.1543L23.8233 2.9502C23.7967 2.41794 23.3572 2 22.8242 2V1C23.8901 1 24.7692 1.83587 24.8223 2.90039L24.9834 6.14258C25.0202 6.88232 24.4301 7.50293 23.6895 7.50293C23.0368 7.50284 22.5056 7.0226 22.4072 6.40527C22.3065 5.773 22.1906 5.43417 22.1104 5.29004H22.1094C21.8909 4.90465 21.6222 4.65431 21.3027 4.49707C21.296 4.49377 21.2889 4.49075 21.2822 4.4873C20.9674 4.32355 20.4719 4.20312 19.7276 4.20312H17.874V14.6729C17.874 15.2323 17.907 15.6446 17.959 15.9297C17.9906 16.1028 18.0223 16.1897 18.0352 16.2217C18.1695 16.341 18.444 16.4765 19.0254 16.4766H19.4658V17.4766H19.0254L18.7402 17.4668C18.0964 17.4235 17.6085 17.2287 17.2774 16.8818C17.0421 16.6258 16.9103 16.0298 16.8809 15.0947L16.874 14.6729ZM22.8242 1V2H8.18751V1H22.8242Z" fill="#535D6B"/>
</svg>
