<svg width="30" height="30" viewBox="0 0 30 30" fill="none" xmlns="http://www.w3.org/2000/svg">
<rect width="30" height="30" fill="white"/>
<path d="M8 3C8 2.44772 8.44772 2 9 2H28C28.5523 2 29 2.44772 29 3V6C29 6.55228 28.5523 7 28 7H9C8.44772 7 8 6.55228 8 6V3Z" fill="#D0EFF7"/>
<path d="M28.5 3C28.5 2.72386 28.2761 2.5 28 2.5H9C8.72386 2.5 8.5 2.72386 8.5 3V6C8.5 6.27614 8.72386 6.5 9 6.5H28C28.2761 6.5 28.5 6.27614 28.5 6V3ZM29.5 6C29.5 6.82843 28.8284 7.5 28 7.5H9C8.17157 7.5 7.5 6.82843 7.5 6V3C7.5 2.17157 8.17157 1.5 9 1.5H28C28.8284 1.5 29.5 2.17157 29.5 3V6Z" fill="#535D6B"/>
<path d="M8 14C8 13.4477 8.44772 13 9 13H28C28.5523 13 29 13.4477 29 14V17C29 17.5523 28.5523 18 28 18H9C8.44772 18 8 17.5523 8 17V14Z" fill="#D0EFF7"/>
<path d="M28.5 14C28.5 13.7239 28.2761 13.5 28 13.5H9C8.72386 13.5 8.5 13.7239 8.5 14V17C8.5 17.2761 8.72386 17.5 9 17.5H28C28.2761 17.5 28.5 17.2761 28.5 17V14ZM29.5 17C29.5 17.8284 28.8284 18.5 28 18.5H9C8.17157 18.5 7.5 17.8284 7.5 17V14C7.5 13.1716 8.17157 12.5 9 12.5H28C28.8284 12.5 29.5 13.1716 29.5 14V17Z" fill="#535D6B"/>
<path d="M8 25C8 24.4477 8.44772 24 9 24H28C28.5523 24 29 24.4477 29 25V28C29 28.5523 28.5523 29 28 29H9C8.44772 29 8 28.5523 8 28V25Z" fill="#D0EFF7"/>
<path d="M28.5 25C28.5 24.7239 28.2761 24.5 28 24.5H9C8.72386 24.5 8.5 24.7239 8.5 25V28C8.5 28.2761 8.72386 28.5 9 28.5H28C28.2761 28.5 28.5 28.2761 28.5 28V25ZM29.5 28C29.5 28.8284 28.8284 29.5 28 29.5H9C8.17157 29.5 7.5 28.8284 7.5 28V25C7.5 24.1716 8.17157 23.5 9 23.5H28C28.8284 23.5 29.5 24.1716 29.5 25V28Z" fill="#535D6B"/>
<path d="M2.5 11L2.5 7C2.5 6.72386 2.72386 6.5 3 6.5C3.27614 6.5 3.5 6.72386 3.5 7L3.5 11C3.5 11.2761 3.27614 11.5 3 11.5C2.72386 11.5 2.5 11.2761 2.5 11Z" fill="#535D6B"/>
<path d="M2.5 23L2.5 19C2.5 18.7239 2.72386 18.5 3 18.5C3.27614 18.5 3.5 18.7239 3.5 19L3.5 23C3.5 23.2761 3.27614 23.5 3 23.5C2.72386 23.5 2.5 23.2761 2.5 23Z" fill="#535D6B"/>
<path d="M5 3C5 4.10457 4.10457 5 3 5C1.89543 5 1 4.10457 1 3C1 1.89543 1.89543 1 3 1C4.10457 1 5 1.89543 5 3Z" fill="#535D6B"/>
<path d="M5 15C5 16.1046 4.10457 17 3 17C1.89543 17 1 16.1046 1 15C1 13.8954 1.89543 13 3 13C4.10457 13 5 13.8954 5 15Z" fill="#535D6B"/>
<path d="M5 27C5 28.1046 4.10457 29 3 29C1.89543 29 1 28.1046 1 27C1 25.8954 1.89543 25 3 25C4.10457 25 5 25.8954 5 27Z" fill="#535D6B"/>
</svg>
