<svg width="30" height="30" viewBox="0 0 30 30" fill="none" xmlns="http://www.w3.org/2000/svg">
<path d="M8 4C8 2.89543 8.89543 2 10 2H27C28.1046 2 29 2.89543 29 4V5C29 6.10457 28.1046 7 27 7H10C8.89543 7 8 6.10457 8 5V4Z" fill="#3B646B"/>
<path d="M28.5 4C28.5 3.17157 27.8284 2.5 27 2.5H10C9.17157 2.5 8.5 3.17157 8.5 4V5C8.5 5.82843 9.17157 6.5 10 6.5H27C27.8284 6.5 28.5 5.82843 28.5 5V4ZM29.5 5C29.5 6.38071 28.3807 7.5 27 7.5H10C8.61929 7.5 7.5 6.38071 7.5 5V4C7.5 2.61929 8.61929 1.5 10 1.5H27C28.3807 1.5 29.5 2.61929 29.5 4V5Z" fill="#D0EFF7"/>
<path d="M8 15C8 13.8954 8.89543 13 10 13H27C28.1046 13 29 13.8954 29 15V16C29 17.1046 28.1046 18 27 18H10C8.89543 18 8 17.1046 8 16V15Z" fill="#3B646B"/>
<path d="M28.5 15C28.5 14.1716 27.8284 13.5 27 13.5H10C9.17157 13.5 8.5 14.1716 8.5 15V16C8.5 16.8284 9.17157 17.5 10 17.5H27C27.8284 17.5 28.5 16.8284 28.5 16V15ZM29.5 16C29.5 17.3807 28.3807 18.5 27 18.5H10C8.61929 18.5 7.5 17.3807 7.5 16V15C7.5 13.6193 8.61929 12.5 10 12.5H27C28.3807 12.5 29.5 13.6193 29.5 15V16Z" fill="#D0EFF7"/>
<path d="M8 26C8 24.8954 8.89543 24 10 24H27C28.1046 24 29 24.8954 29 26V27C29 28.1046 28.1046 29 27 29H10C8.89543 29 8 28.1046 8 27V26Z" fill="#3B646B"/>
<path d="M28.5 26C28.5 25.1716 27.8284 24.5 27 24.5H10C9.17157 24.5 8.5 25.1716 8.5 26V27C8.5 27.8284 9.17157 28.5 10 28.5H27C27.8284 28.5 28.5 27.8284 28.5 27V26ZM29.5 27C29.5 28.3807 28.3807 29.5 27 29.5H10C8.61929 29.5 7.5 28.3807 7.5 27V26C7.5 24.6193 8.61929 23.5 10 23.5H27C28.3807 23.5 29.5 24.6193 29.5 26V27Z" fill="#D0EFF7"/>
<path d="M2.5 11L2.5 7C2.5 6.72386 2.72386 6.5 3 6.5C3.27614 6.5 3.5 6.72386 3.5 7L3.5 11C3.5 11.2761 3.27614 11.5 3 11.5C2.72386 11.5 2.5 11.2761 2.5 11Z" fill="#D0EFF7"/>
<path d="M2.5 23L2.5 19C2.5 18.7239 2.72386 18.5 3 18.5C3.27614 18.5 3.5 18.7239 3.5 19L3.5 23C3.5 23.2761 3.27614 23.5 3 23.5C2.72386 23.5 2.5 23.2761 2.5 23Z" fill="#D0EFF7"/>
<path d="M5 3C5 4.10457 4.10457 5 3 5C1.89543 5 1 4.10457 1 3C1 1.89543 1.89543 1 3 1C4.10457 1 5 1.89543 5 3Z" fill="#D0EFF7"/>
<path d="M5 15C5 16.1046 4.10457 17 3 17C1.89543 17 1 16.1046 1 15C1 13.8954 1.89543 13 3 13C4.10457 13 5 13.8954 5 15Z" fill="#D0EFF7"/>
<path d="M5 27C5 28.1046 4.10457 29 3 29C1.89543 29 1 28.1046 1 27C1 25.8954 1.89543 25 3 25C4.10457 25 5 25.8954 5 27Z" fill="#D0EFF7"/>
</svg>
