<svg width="30" height="30" viewBox="0 0 30 30" fill="none" xmlns="http://www.w3.org/2000/svg">
<rect width="30" height="30" fill="white"/>
<path d="M1 9C1 7.89543 1.89543 7 3 7H27C28.1046 7 29 7.89543 29 9V27C29 28.1046 28.1046 29 27 29H3C1.89543 29 1 28.1046 1 27V9Z" fill="#D0EFF7"/>
<path d="M28.5 9C28.5 8.17157 27.8284 7.5 27 7.5H3C2.17157 7.5 1.5 8.17157 1.5 9V27C1.5 27.8284 2.17157 28.5 3 28.5H27C27.8284 28.5 28.5 27.8284 28.5 27V9ZM29.5 27C29.5 28.3807 28.3807 29.5 27 29.5H3C1.61929 29.5 0.5 28.3807 0.5 27V9C0.5 7.61929 1.61929 6.5 3 6.5H27C28.3807 6.5 29.5 7.61929 29.5 9V27Z" fill="#535D6B"/>
<path d="M18 18L13 21L13 15L18 18Z" fill="white"/>
<path d="M18.5 18C18.5 18.1756 18.4074 18.3384 18.2568 18.4287L13.2568 21.4287C13.1025 21.5211 12.9105 21.524 12.7539 21.4356C12.5972 21.3468 12.5 21.1801 12.5 21L12.5 15C12.5 14.8199 12.5972 14.6532 12.7539 14.5645C12.9105 14.476 13.1025 14.4789 13.2568 14.5713L18.2568 17.5713L18.3105 17.6084C18.4292 17.7025 18.5 17.8462 18.5 18ZM13.5 15.8828L13.5 20.1172L17.0293 18L13.5 15.8828Z" fill="#535D6B"/>
<path d="M26.5 4.5C26.7761 4.5 27 4.72386 27 5C27 5.27614 26.7761 5.5 26.5 5.5H3.5C3.22386 5.5 3 5.27614 3 5C3 4.72386 3.22386 4.5 3.5 4.5H26.5Z" fill="#535D6B"/>
<path d="M24 2.5C24.2761 2.5 24.5 2.72386 24.5 3C24.5 3.27614 24.2761 3.5 24 3.5H6C5.72386 3.5 5.5 3.27614 5.5 3C5.5 2.72386 5.72386 2.5 6 2.5H24Z" fill="#535D6B"/>
</svg>
