<svg width="30" height="30" viewBox="0 0 30 30" fill="none" xmlns="http://www.w3.org/2000/svg">
<path d="M13.9624 8.82C13.9624 7.64774 13.4396 6.5235 12.509 5.69459C11.5783 4.86568 10.3161 4.4 9 4.4C7.68388 4.4 6.42167 4.86568 5.49103 5.69459C4.56039 6.5235 4.03757 7.64774 4.03757 8.82C4.03757 10.7595 3.56955 12.178 2.98558 13.193C2.32002 14.3498 1.98723 14.9282 2.00037 15.0663C2.01541 15.2244 2.04309 15.2743 2.16784 15.3681C2.27687 15.45 2.82467 15.45 3.92028 15.45H14.0797C15.1753 15.45 15.7231 15.45 15.8322 15.3681C15.9569 15.2743 15.9846 15.2244 15.9996 15.0663C16.0128 14.9282 15.68 14.3498 15.0144 13.193C14.4304 12.178 13.9624 10.7595 13.9624 8.82Z" fill="#3B646B"/>
<path d="M13.4629 8.82031C13.4629 7.80073 13.0083 6.80913 12.1768 6.06836C11.3432 5.32587 10.201 4.90039 9.00004 4.90039C7.79904 4.90039 6.65689 5.32587 5.82328 6.06836C4.99181 6.80913 4.53715 7.80073 4.53715 8.82031C4.5371 10.8442 4.04806 12.349 3.41898 13.4424C3.08452 14.0237 2.83921 14.4496 2.67875 14.748C2.64103 14.8182 2.61221 14.8806 2.58597 14.9326C2.61777 14.9343 2.65273 14.939 2.69144 14.9404C2.96777 14.9503 3.368 14.9502 3.91996 14.9502H14.0801C14.6321 14.9502 15.0323 14.9503 15.3086 14.9404C15.3469 14.9391 15.3816 14.9343 15.4131 14.9326C15.3869 14.8807 15.359 14.818 15.3213 14.748C15.1609 14.4496 14.9156 14.0237 14.5811 13.4424C13.952 12.349 13.463 10.8442 13.4629 8.82031ZM7.08012 15.9502C7.29715 16.8476 8.08216 17.5 9.00004 17.5C9.91792 17.5 10.7029 16.8476 10.92 15.9502H7.08012ZM10.5674 3.125C10.5674 2.21456 9.85304 1.5 9.00004 1.5C8.14703 1.5 7.43265 2.21456 7.43265 3.125C7.43265 3.46582 7.5337 3.7801 7.70512 4.04004C8.12627 3.94757 8.56087 3.90039 9.00004 3.90039C9.43888 3.90039 9.87312 3.9477 10.294 4.04004C10.4656 3.78001 10.5674 3.46601 10.5674 3.125ZM11.5674 3.125C11.5674 3.5653 11.4609 3.98111 11.2725 4.34668C11.8483 4.58376 12.3811 4.91091 12.8418 5.32129C13.8713 6.23829 14.4629 7.49562 14.4629 8.82031C14.463 10.6752 14.9095 12.0069 15.4483 12.9434C15.7793 13.5187 16.0332 13.961 16.2022 14.2754C16.2862 14.4316 16.3551 14.5682 16.4034 14.6797C16.4274 14.7351 16.4515 14.7945 16.4688 14.8535C16.4827 14.9012 16.5079 14.9994 16.4971 15.1133C16.4884 15.2053 16.4717 15.3454 16.3946 15.4844C16.3169 15.6242 16.207 15.7119 16.1328 15.7676C16.0476 15.8317 15.9587 15.8613 15.9073 15.876C15.8489 15.8926 15.789 15.9036 15.7344 15.9111C15.6252 15.9261 15.4922 15.9342 15.3438 15.9395C15.0452 15.9501 14.6234 15.9502 14.0801 15.9502H11.9375C11.7047 17.3876 10.4902 18.5 9.00004 18.5C7.50986 18.5 6.29534 17.3876 6.06254 15.9502H3.91996C3.37667 15.9502 2.9549 15.9501 2.65629 15.9395C2.50785 15.9342 2.37486 15.9261 2.26566 15.9111C2.21105 15.9036 2.15117 15.8926 2.09281 15.876C2.04138 15.8613 1.95247 15.8316 1.86722 15.7676C1.79311 15.7119 1.68319 15.6242 1.60551 15.4844C1.52839 15.3454 1.51172 15.2053 1.50297 15.1133C1.49222 14.9994 1.51738 14.9012 1.53129 14.8535C1.54854 14.7945 1.57271 14.7351 1.59672 14.6797C1.64502 14.5682 1.71392 14.4316 1.79789 14.2754C1.96692 13.961 2.22078 13.5187 2.5518 12.9434C3.09059 12.0069 3.5371 10.6752 3.53715 8.82031C3.53715 7.49562 4.1288 6.23829 5.15824 5.32129C5.61876 4.91111 6.15109 4.58374 6.7266 4.34668C6.53837 3.98121 6.43265 3.56514 6.43265 3.125C6.43265 1.68823 7.56915 0.5 9.00004 0.5C10.4309 0.5 11.5674 1.68823 11.5674 3.125Z" fill="#D0EFF7"/>
<path d="M26.4909 25.975H21.7577C21.2101 25.975 20.9362 25.975 20.7164 25.8746C20.5227 25.786 20.3588 25.6437 20.2445 25.4648C20.1147 25.2617 20.0778 24.9919 20.004 24.4523L19.4222 20.2H28.5269C28.7104 20.2 28.8022 20.2 28.8667 20.2374C28.9233 20.2702 28.9664 20.322 28.9882 20.3834C29.0131 20.4535 28.9959 20.5431 28.9616 20.7223L28.2295 24.5443C28.132 25.0536 28.0832 25.3082 27.9512 25.4988C27.8348 25.6669 27.6737 25.7995 27.4859 25.8817C27.2729 25.975 27.0122 25.975 26.4909 25.975Z" fill="#3B646B"/>
<path d="M21.8716 29C22.177 29 22.4247 28.7538 22.4247 28.45C22.4247 28.1462 22.177 27.9 21.8716 27.9C21.5661 27.9 21.3185 28.1462 21.3185 28.45C21.3185 28.7538 21.5661 29 21.8716 29Z" fill="#3B646B"/>
<path d="M26.2962 29C26.6017 29 26.8493 28.7538 26.8493 28.45C26.8493 28.1462 26.6017 27.9 26.2962 27.9C25.9908 27.9 25.7431 28.1462 25.7431 28.45C25.7431 28.7538 25.9908 29 26.2962 29Z" fill="#3B646B"/>
<path d="M21.9248 28.4502C21.9248 28.4252 21.903 28.4004 21.8711 28.4004C21.8394 28.4006 21.8184 28.4253 21.8184 28.4502C21.8185 28.475 21.8395 28.4998 21.8711 28.5C21.903 28.5 21.9247 28.4751 21.9248 28.4502ZM26.3496 28.4502C26.3496 28.4252 26.3279 28.4004 26.2959 28.4004C26.2641 28.4006 26.2432 28.4253 26.2432 28.4502C26.2433 28.475 26.2642 28.4998 26.2959 28.5C26.3278 28.5 26.3495 28.4751 26.3496 28.4502ZM18.7227 17.5C18.783 17.5 18.8559 17.5 18.9199 17.5049C18.9728 17.5089 19.0401 17.5174 19.1133 17.541L19.1885 17.5693L19.2852 17.623C19.3473 17.6628 19.4036 17.7109 19.4521 17.7666L19.5195 17.8555L19.5586 17.9258C19.5927 17.995 19.6115 18.0605 19.623 18.1123C19.637 18.1751 19.6468 18.2474 19.6553 18.3066L19.8555 19.7002H28.5273C28.6099 19.7002 28.7038 19.7001 28.7842 19.707C28.869 19.7144 28.9929 19.7327 29.1172 19.8047C29.2759 19.8967 29.3973 20.0423 29.459 20.2158C29.5073 20.3519 29.5028 20.4776 29.4941 20.5625C29.4859 20.6429 29.4686 20.7357 29.4531 20.8164L28.7207 24.6387C28.6734 24.8858 28.6328 25.0981 28.5859 25.2715C28.5374 25.451 28.4734 25.6228 28.3623 25.7832C28.193 26.0277 27.959 26.2205 27.6865 26.3398C27.5079 26.418 27.3266 26.4481 27.1406 26.4619C26.961 26.4752 26.7442 26.4746 26.4912 26.4746H21.7578C21.4917 26.4746 21.264 26.4753 21.0762 26.4609C20.8822 26.4461 20.6936 26.4135 20.5088 26.3291C20.2279 26.2008 19.9895 25.9946 19.8232 25.7344C19.7137 25.5629 19.6553 25.3801 19.6143 25.1904C19.5746 25.007 19.5446 24.7825 19.5088 24.5205L18.9268 20.2676V20.2666L18.6719 18.5H18V17.5H18.7227ZM20.499 24.3848C20.537 24.6621 20.5622 24.8425 20.5918 24.9795C20.62 25.1099 20.6458 25.1637 20.666 25.1953C20.7283 25.2928 20.8175 25.3713 20.9238 25.4199C20.9589 25.4359 21.0176 25.4536 21.1523 25.4639C21.2933 25.4746 21.4765 25.4746 21.7578 25.4746H26.4912C26.7591 25.4746 26.9333 25.4748 27.0674 25.4648C27.1948 25.4554 27.2508 25.4389 27.2852 25.4238C27.3883 25.3786 27.4766 25.3055 27.54 25.2139C27.5609 25.1837 27.588 25.1331 27.6211 25.0107C27.6559 24.8819 27.6881 24.7121 27.7383 24.4502L28.457 20.7002H19.9961L20.499 24.3848ZM22.9248 28.4502C22.9247 29.0326 22.45 29.5 21.8711 29.5C21.2924 29.4997 20.8185 29.0325 20.8184 28.4502C20.8184 27.8678 21.2923 27.4006 21.8711 27.4004C22.4501 27.4004 22.9248 27.8677 22.9248 28.4502ZM27.3496 28.4502C27.3495 29.0326 26.8748 29.5 26.2959 29.5C25.7172 29.4998 25.2433 29.0325 25.2432 28.4502C25.2432 27.8678 25.7171 27.4006 26.2959 27.4004C26.8749 27.4004 27.3496 27.8677 27.3496 28.4502Z" fill="#D0EFF7"/>
</svg>
