<svg width="30" height="30" viewBox="0 0 30 30" fill="none" xmlns="http://www.w3.org/2000/svg">
<g clip-path="url(#clip0_8_3231)">
<rect width="30" height="30" fill="white"/>
<path d="M28.5 17V3C28.5 2.17157 27.8284 1.5 27 1.5H3C2.17157 1.5 1.5 2.17157 1.5 3V27C1.5 27.8284 2.17157 28.5 3 28.5H17C17.2761 28.5 17.5 28.7239 17.5 29C17.5 29.2761 17.2761 29.5 17 29.5H3C1.61929 29.5 0.5 28.3807 0.5 27V3C0.5 1.61929 1.61929 0.5 3 0.5H27C28.3807 0.5 29.5 1.61929 29.5 3V17C29.5 17.2761 29.2761 17.5 29 17.5C28.7239 17.5 28.5 17.2761 28.5 17Z" fill="#535D6B"/>
<path d="M26.4909 25.975H21.7577C21.2101 25.975 20.9362 25.975 20.7164 25.8746C20.5227 25.786 20.3588 25.6437 20.2445 25.4648C20.1147 25.2617 20.0778 24.9919 20.004 24.4523L19.4222 20.2H28.5269C28.7104 20.2 28.8022 20.2 28.8667 20.2374C28.9233 20.2702 28.9664 20.322 28.9882 20.3834C29.0131 20.4535 28.9959 20.5431 28.9616 20.7223L28.2295 24.5443C28.132 25.0536 28.0832 25.3082 27.9512 25.4988C27.8348 25.6669 27.6737 25.7995 27.4859 25.8817C27.2729 25.975 27.0122 25.975 26.4909 25.975Z" fill="#D0EFF7"/>
<path d="M21.8716 29C22.177 29 22.4247 28.7538 22.4247 28.45C22.4247 28.1462 22.177 27.9 21.8716 27.9C21.5661 27.9 21.3185 28.1462 21.3185 28.45C21.3185 28.7538 21.5661 29 21.8716 29Z" fill="#D0EFF7"/>
<path d="M26.2962 29C26.6017 29 26.8493 28.7538 26.8493 28.45C26.8493 28.1462 26.6017 27.9 26.2962 27.9C25.9908 27.9 25.7431 28.1462 25.7431 28.45C25.7431 28.7538 25.9908 29 26.2962 29Z" fill="#D0EFF7"/>
<path d="M21.9248 28.4502C21.9248 28.4252 21.903 28.4004 21.8711 28.4004C21.8394 28.4006 21.8184 28.4253 21.8184 28.4502C21.8185 28.475 21.8395 28.4998 21.8711 28.5C21.903 28.5 21.9247 28.4751 21.9248 28.4502ZM26.3496 28.4502C26.3496 28.4252 26.3279 28.4004 26.2959 28.4004C26.2641 28.4006 26.2432 28.4253 26.2432 28.4502C26.2433 28.475 26.2642 28.4998 26.2959 28.5C26.3278 28.5 26.3495 28.4751 26.3496 28.4502ZM18.7227 17.5C18.783 17.5 18.8559 17.5 18.9199 17.5049C18.9728 17.5089 19.0401 17.5174 19.1133 17.541L19.1885 17.5693L19.2852 17.623C19.3473 17.6628 19.4036 17.7109 19.4521 17.7666L19.5195 17.8555L19.5586 17.9258C19.5927 17.995 19.6115 18.0605 19.623 18.1123C19.637 18.1751 19.6468 18.2474 19.6553 18.3066L19.8555 19.7002H28.5273C28.6099 19.7002 28.7038 19.7001 28.7842 19.707C28.869 19.7144 28.9929 19.7327 29.1172 19.8047C29.2759 19.8967 29.3973 20.0423 29.459 20.2158C29.5073 20.3519 29.5028 20.4776 29.4941 20.5625C29.4859 20.6429 29.4686 20.7357 29.4531 20.8164L28.7207 24.6387C28.6734 24.8858 28.6328 25.0981 28.5859 25.2715C28.5374 25.451 28.4734 25.6228 28.3623 25.7832C28.193 26.0277 27.959 26.2205 27.6865 26.3398C27.5079 26.418 27.3266 26.4481 27.1406 26.4619C26.961 26.4752 26.7442 26.4746 26.4912 26.4746H21.7578C21.4917 26.4746 21.264 26.4753 21.0762 26.4609C20.8822 26.4461 20.6936 26.4135 20.5088 26.3291C20.2279 26.2008 19.9895 25.9946 19.8232 25.7344C19.7137 25.5629 19.6553 25.3801 19.6143 25.1904C19.5746 25.007 19.5446 24.7825 19.5088 24.5205L18.9268 20.2676V20.2666L18.6719 18.5H18C17.7239 18.5 17.5 18.2761 17.5 18C17.5 17.7239 17.7239 17.5 18 17.5H18.7227ZM20.499 24.3848C20.537 24.6621 20.5622 24.8425 20.5918 24.9795C20.62 25.1099 20.6458 25.1637 20.666 25.1953C20.7283 25.2928 20.8175 25.3713 20.9238 25.4199C20.9589 25.4359 21.0176 25.4536 21.1523 25.4639C21.2933 25.4746 21.4765 25.4746 21.7578 25.4746H26.4912C26.7591 25.4746 26.9333 25.4748 27.0674 25.4648C27.1948 25.4554 27.2508 25.4389 27.2852 25.4238C27.3883 25.3786 27.4766 25.3055 27.54 25.2139C27.5609 25.1837 27.588 25.1331 27.6211 25.0107C27.6559 24.8819 27.6881 24.7121 27.7383 24.4502L28.457 20.7002H19.9961L20.499 24.3848ZM22.9248 28.4502C22.9247 29.0326 22.45 29.5 21.8711 29.5C21.2924 29.4997 20.8185 29.0325 20.8184 28.4502C20.8184 27.8678 21.2923 27.4006 21.8711 27.4004C22.4501 27.4004 22.9248 27.8677 22.9248 28.4502ZM27.3496 28.4502C27.3495 29.0326 26.8748 29.5 26.2959 29.5C25.7172 29.4998 25.2433 29.0325 25.2432 28.4502C25.2432 27.8678 25.7171 27.4006 26.2959 27.4004C26.8749 27.4004 27.3496 27.8677 27.3496 28.4502Z" fill="#535D6B"/>
<path d="M11 7.5C11.2761 7.5 11.5 7.72386 11.5 8C11.5 8.27614 11.2761 8.5 11 8.5H4C3.72386 8.5 3.5 8.27614 3.5 8C3.5 7.72386 3.72386 7.5 4 7.5H11Z" fill="#535D6B"/>
<path d="M26 7.5C26.2761 7.5 26.5 7.72386 26.5 8C26.5 8.27614 26.2761 8.5 26 8.5L20 8.5C19.7239 8.5 19.5 8.27614 19.5 8C19.5 7.72386 19.7239 7.5 20 7.5L26 7.5Z" fill="#535D6B"/>
<path d="M13.6464 5.14648C13.8417 4.95121 14.1582 4.95121 14.3535 5.14648L16.8535 7.64648C17.0487 7.84174 17.0487 8.15825 16.8535 8.35351L14.3535 10.8535C14.1582 11.0488 13.8417 11.0488 13.6464 10.8535C13.4512 10.6582 13.4512 10.3417 13.6464 10.1465L15.7929 7.99999L13.6464 5.85351C13.4512 5.65825 13.4512 5.34174 13.6464 5.14648Z" fill="#535D6B"/>
</g>
<defs>
<clipPath id="clip0_8_3231">
<rect width="30" height="30" fill="white"/>
</clipPath>
</defs>
</svg>
