<?xml version="1.0" encoding="UTF-8"?>
<svg id="Layer_1" xmlns="http://www.w3.org/2000/svg" version="1.1" viewBox="0 0 500 500">
  <!-- Generator: Adobe Illustrator 30.0.0, SVG Export Plug-In . SVG Version: 2.1.1 Build 123)  -->
  <defs>
    <style>
      .st0 {
        fill: #fff;
        fill-rule: evenodd;
      }
    </style>
  </defs>
  <path class="st0" d="M117.1,470.4c-26.9-17.9-50-41.1-67.8-68.1l200.7-200.7,130.1,130.1c9-18.8,14.1-39.9,14.1-62.1,0-76.6-59-137.5-132.1-143.6V29.6c127.1,6.5,228.2,111.2,228.2,240s-40.6,156-107.8,200.4l-132.5-132.5c-44.3,44.3-88.5,88.6-132.9,132.8h0Z"/>
  <path class="st0" d="M117.1,470.4c-26.9-17.9-50-41.1-67.8-68.1l200.7-200.7-68,67.9,68,68c-44.3,44.3-88.5,88.6-132.9,132.8h0Z"/>
  <path class="st0" d="M9.8,269.6c0,40.1,9.8,77.9,27.2,111.1l73.8-73.8c-3.2-11.9-4.9-24.4-4.9-37.3,0-75.8,58.2-137.4,132.1-143.6V29.6C110.8,36.1,9.8,140.8,9.8,269.6h0Z"/>
  <path class="st0" d="M250,201.7l130.1,130.1c-14.2,29.7-38.3,53.7-68,68h0l-130.1-130.1,68-67.9h0Z"/>
</svg>